<svg width="188" height="48" fill="none" xmlns="http://www.w3.org/2000/svg"><path d="M78.32 41.773V36.48h7.652c1.923 0 3.258-.93 4.005-2.79.254-.626.382-1.355.382-2.19 0-1.956-.398-3.391-1.192-4.306-.731-.817-1.796-1.226-3.195-1.226H83.59v9.093h-5.27V19.64c.922-2.79 2.678-4.868 5.269-6.23v7.432h2.383c1.764 0 2.948-.81 3.552-2.43.223-.609.334-1.354.334-2.236 0-1.46-.381-2.575-1.144-3.344-.715-.69-1.63-1.035-2.742-1.035H83.59c-2.13.947-3.886 2.39-5.269 4.33v.169V6.41h7.462c2.066 0 3.94.553 5.626 1.66 1.446.946 2.47 2.397 3.075 4.354.333 1.058.5 2.31.5 3.753 0 2.373-.62 4.274-1.86 5.7a5.342 5.342 0 0 1-1.835 1.396c1.16.45 2.154 1.34 2.98 2.67.54.915.938 2.077 1.192 3.489.127.737.19 1.555.19 2.453 0 2.246-.42 4.146-1.263 5.702a7.453 7.453 0 0 1-2.741 2.935c-1.35.834-2.686 1.25-4.005 1.25h-9.32z" fill="url(#a)"/><path d="M110.43 14.95c0-2.053-1.009-3.08-3.027-3.08h-3.194c-2.13.947-3.886 2.398-5.269 4.355v.144-9.935h8.344c2.94 0 5.101.818 6.484 2.453 1.208 1.428 1.812 3.425 1.812 5.99v5.124c0 2.502-.946 4.62-2.837 6.351l1.43 5.63c-1.764-1.508-3.901-2.679-6.412-3.513h-3.552v13.304H98.94v-22.06c.938-2.775 2.694-4.852 5.269-6.23v9.694h3.194c.842 0 1.557-.297 2.145-.89.588-.593.882-1.315.882-2.165V14.95zm6.222 26.823h-5.673L108.19 30.25c3.575 1.491 5.983 3.696 7.223 6.615l1.239 4.908z" fill="url(#b)"/><path d="M124.4 41.773h-5.269V18.077c.922-2.79 2.678-4.867 5.269-6.23v29.926zm-5.269-35.34h5.269v3.802c-2.13.946-3.886 2.39-5.269 4.33v.168-8.3z" fill="url(#c)"/><path d="M135.89 42.206c-2.321 0-4.291-.826-5.912-2.478-1.637-1.636-2.456-3.625-2.456-5.966V27.82c.938-2.678 2.67-4.683 5.197-6.014v11.908c0 .85.294 1.571.882 2.165.541.545 1.224.826 2.05.842h8.105c-.413 1.122-1.072 2.133-1.978 3.03-1.621 1.637-3.584 2.455-5.888 2.455zm2.455-6.905a2.97 2.97 0 0 0 .429-1.587v-4.86h5.459v4.932c0 .513-.04 1.018-.119 1.515h-5.769zm-10.823-20.808c0-2.342.819-4.339 2.456-5.99 1.637-1.636 3.607-2.454 5.912-2.454 2.336 0 4.314.826 5.935 2.478 1.606 1.652 2.408 3.64 2.408 5.966v4.041h-5.459v-4.138c0-.85-.294-1.571-.882-2.165-.604-.61-1.327-.914-2.169-.914-.827 0-1.534.305-2.122.914-.588.594-.882 1.315-.882 2.165v5.798c-2.098.93-3.83 2.341-5.197 4.234v-9.935z" fill="url(#d)"/><path d="M147.165 6.41h5.268v3.825c-2.129.946-3.885 2.39-5.268 4.33v.168V6.41zm18.594 35.363h-6.198L154.865 29.6c4.974 3.528 8.383 7.025 10.226 10.489l.668 1.684zm-13.326 0h-5.268V18.077c.922-2.79 2.678-4.867 5.268-6.23v7.168l6.46-12.605h5.65l-7.247 14.41 5.364 13.255c-2.447-2.31-5.332-4.531-8.653-6.664l-1.574 3.175v11.187z" fill="url(#e)"/><path d="m175.628 26.954-3.886-11.307c.97-1.636 2.384-2.943 4.243-3.92h.024l1.574 5.075h-.024l.214.674.501 1.635v-.024l2.622 8.276v14.41h-5.268v-14.82zm6.531-20.544H188l-6.389 18.475-2.598-8.227 3.146-10.248zm-13.611 0h5.816l1.216 3.897a12.537 12.537 0 0 0-4.434 3.584l-2.598-7.481z" fill="url(#f)"/><path d="m43.12 14.388-1.27 4.835H12.295L4.675 48H48.95l6.176-4.835 3.868-14.388L55.357 24l6.177-4.777 3.81-14.388L61.707 0H0l13.623 14.388H43.12zm-5.08 19.224h-9.87l1.27-4.835h9.87l-1.27 4.835z" fill="url(#g)"/><defs><linearGradient id="a" x1="78.32" y1="-6.185" x2="188" y2="-6.185" gradientUnits="userSpaceOnUse"><stop stop-color="#8360C3"/><stop offset="1" stop-color="#2EBF91"/></linearGradient><linearGradient id="b" x1="78.32" y1="-6.185" x2="188" y2="-6.185" gradientUnits="userSpaceOnUse"><stop stop-color="#8360C3"/><stop offset="1" stop-color="#2EBF91"/></linearGradient><linearGradient id="c" x1="78.32" y1="-6.185" x2="188" y2="-6.185" gradientUnits="userSpaceOnUse"><stop stop-color="#8360C3"/><stop offset="1" stop-color="#2EBF91"/></linearGradient><linearGradient id="d" x1="78.32" y1="-6.185" x2="188" y2="-6.185" gradientUnits="userSpaceOnUse"><stop stop-color="#8360C3"/><stop offset="1" stop-color="#2EBF91"/></linearGradient><linearGradient id="e" x1="78.32" y1="-6.185" x2="188" y2="-6.185" gradientUnits="userSpaceOnUse"><stop stop-color="#8360C3"/><stop offset="1" stop-color="#2EBF91"/></linearGradient><linearGradient id="f" x1="78.32" y1="-6.185" x2="188" y2="-6.185" gradientUnits="userSpaceOnUse"><stop stop-color="#8360C3"/><stop offset="1" stop-color="#2EBF91"/></linearGradient><linearGradient id="g" x1="-22.168" y1="48.39" x2="87.512" y2="48.39" gradientUnits="userSpaceOnUse"><stop stop-color="#8360C3"/><stop offset="1" stop-color="#2EBF91"/></linearGradient></defs></svg>