<svg xmlns:xlink="http://www.w3.org/1999/xlink" xmlns="http://www.w3.org/2000/svg" viewBox="0 0 634 489"><style>.st23{fill:#ffc253}.st24{fill:#e09736}.st27{fill:none;stroke:#3b55ce;stroke-width:1.05;stroke-linecap:round;stroke-miterlimit:10}.st32{fill:#ff9a8d}.st36{fill:#4e7eac}.st38{fill:#001c45}.st41{fill:#ba5964}.st42{fill:#624de3}.st45,.st46{fill:#44369e}.st46{opacity:.5}.st52{clip-path:url(#SVGID_21_)}.st53{fill:none;stroke:#8fc9c6;stroke-width:.525;stroke-linecap:round;stroke-miterlimit:10}.st54{clip-path:url(#SVGID_23_)}.st55,.st56{fill:none;stroke-width:.525;stroke-miterlimit:10}.st55{stroke:#aaeeed;stroke-linecap:round}.st56{clip-path:url(#SVGID_25_);stroke:#274d79}</style><switch><g><g id="Objects"><g id="XMLID_2059_"><g id="XMLID_1420_"><g id="XMLID_1499_"><path class="st23" d="M327.9 189.7h252.8v171H327.9z" id="XMLID_1504_"/><path class="st24" d="M327.9 189.7 446.5 298c4.4 4 11.1 4 15.5 0l118.6-108.2H327.9z" id="XMLID_1503_"/><path class="st24" d="M580.7 360.7 454.3 228.8l126.4 120.6z" id="XMLID_1502_"/><path class="st24" d="m327.9 360.7 126.4-131.9-126.4 120.6z" id="XMLID_1501_"/><path d="m327.9 189.7 116.8 98.7c5.5 4.7 13.6 4.7 19.1 0l116.8-98.7H327.9z" fill="#ffc854" id="XMLID_1500_"/></g><g id="XMLID_1496_"><path id="XMLID_1498_" d="M560.5 360.7s-8-3.6-7.4-12.2c.6-8.6 6.4-10.3 11.5-13.5 5.1-3.1 5.5-8.4 5.7-14.8.2-6.4 4.5-12.9 13.1-12.5 8.6.4 11.8 2.1 18-5.3 6.2-7.4 14.6-7.2 18.1-3.1 3.5 4.1 3.7 11.1-1.6 16-6.5 5.9-8.2 7.4-10 13.9-2.5 8.8 1.1 17.4-2.1 21.5-4.4 5.5-9.1 4.1-13.6 5.9-4.5 1.8-4.7 4-4.7 4h-27z" opacity=".4" fill="#624de3"/><path id="XMLID_1497_" class="st27" d="M611.6 305c-13.1 7.7-36 30.9-39.8 55.6"/></g><g id="XMLID_1438_"><path d="M163.6 187.4c7.5 6.9 15.7 11.5 25.2 9.7 13.4-2.5 23.8-16.2 23.8-16.2s3.4 4.5 3.4 4.9c0 .4-8.8 18-24.9 21.6-16 3.6-30.5-7.9-30.5-7.9l3-12.1z" fill="#dd7a79" id="XMLID_1443_"/><path id="XMLID_1442_" class="st42" d="M301.1 282.1c6.3 8.9 18.2 12 28.1 7.1l17.9-8.8c3.4-1.7 7.5-.5 9.5 2.7l32.3 50.7c2.3 3.6 1.1 8.3-2.6 10.4-10.4 5.9-32 15.9-55.7 14-33.3-2.7-55-33.7-91.7-91.4S183.3 176.4 195 145c8.3-22.3 26.5-37.6 36.3-44.6 3.5-2.5 8.3-1.5 10.5 2.1l32.3 50.7c2 3.2 1.3 7.4-1.6 9.8L257 175.5c-8.6 6.9-10.9 18.9-5.4 28.4l49.5 78.2z"/><path id="XMLID_1441_" class="st45" d="m259.2 173.5 13.1-10.5c2.9-2.4 3.6-6.6 1.6-9.8l-17.1-26.8-15.4-24.2c-2.3-3.4-7-4.2-10.3-1.8-3.3 2.4-7.6 5.7-12.1 9.9l40.2 63.2z"/><path id="XMLID_1440_" class="st45" d="M372.1 351c5.7-2.3 10.6-4.8 14.1-6.8 3.6-2 4.8-6.6 2.8-10.1l-33.2-52a7.33 7.33 0 0 0-8.8-1.7l-15.2 7.5 40.3 63.1z"/><path class="st24" d="m164.1 187.7 6.1 4.6s2.8 8.4-1.9 12.8l-8.1-4.9 3.9-12.5z" id="XMLID_1439_"/></g><g id="XMLID_1435_"><path id="XMLID_1437_" class="st46" d="M58.7 360.7s6-4.5 9.9-12.6c4-8.4.4-15.7-5.2-14.6-6 1.1-6.8-3.7-8.4-9.9-2-7.4-11.6-18-19.4-16.9-10.1 1.4-3.7 12.2-2.7 16.1 1 3.9 3.6 8.4-2.7 9-5.7.6-8.2 5.7-3.8 11 4.2 5 8.8 5 9 10.1.2 5.1 3.4 6.6 6.1 7.8h17.2z"/><path id="XMLID_1436_" class="st42" d="M39.8 315.6s13.8 18 10.3 45.1"/></g><g id="XMLID_1432_"><path id="XMLID_1434_" class="st46" d="M181.5 360.7s3.9-5.2 1.5-12.8c-3-9.8-12.1-14.3-8.8-20.6 2.7-5.3 10.8-2.6 15.1 4.5 4.1 6.9 4.5 21.4-2.1 28.9h-5.7z"/><path id="XMLID_1433_" class="st27" d="M180.6 330s12.5 13.5 4.3 30.7"/></g><g id="XMLID_1429_"><path id="XMLID_1431_" class="st46" d="M190.8 360.7s9.4-5.7 14.6-17.6c5.2-11.9 5.4-25.8 0-30.7-5-4.6-11-1.8-12.5 6.3-1.6 8.1 2 28.5-8.5 42.1h6.4z"/><path id="XMLID_1430_" class="st27" d="M200.6 314.6s1.6 12.2-2 25.1c-3.6 13-10.3 21-10.3 21"/></g><path id="XMLID_1422_" class="st42" d="M599 362.9H17c-1.2 0-2.2-1-2.2-2.2 0-1.2 1-2.2 2.2-2.2h582c1.2 0 2.2 1 2.2 2.2.1 1.2-.9 2.2-2.2 2.2z"/><path d="M531.7 418.4H145.8c-17.5 0-31.6-14.2-31.6-31.6V363h449.2v23.8c0 17.4-14.2 31.6-31.7 31.6z" fill="#e5f7ff" id="XMLID_1421_"/></g><g id="XMLID_1372_"><g id="XMLID_1394_"><g id="XMLID_1412_"><path d="M177 356.1c.4.7.1 2-2.6 3.2-2.7 1.1-7.6.7-9.6.3-2-.4-3.1-1-6-.3-2.9.6-7.6.3-9.1-.9-.5-.6-.2-1.8-.2-1.8l27.5-.5z" fill="#8fc9c6" id="XMLID_1419_"/><g id="XMLID_1414_"><defs><path id="SVGID_20_" d="M151.1 347.6c-.4 2-2 6.7-1.5 8.9 2 1.7 6.4 1.8 9.6 1s5.6.8 9.6 1.1c4 .2 7.4-.9 8.2-2.6.9-1.8-6.1-3.3-10.9-4.7-5.3-1.6-8.1-4.3-8.1-4.3l-6.9.6z"/></defs><use xlink:href="#SVGID_20_" overflow="visible" fill="#228c7e"/><clipPath id="SVGID_21_"><use xlink:href="#SVGID_20_" overflow="visible"/></clipPath><g id="XMLID_1418_" class="st52"><path class="st53" d="M159.6 351.5s1-2.7 2.2-3.6"/></g><g id="XMLID_1417_" class="st52"><path class="st53" d="M163.2 352.9s1-2.7 2.2-3.6"/></g><g id="XMLID_1416_" class="st52"><path class="st53" d="M166.9 354.3s1-2.7 2.2-3.6"/></g></g><path class="st32" d="M151.1 339.7v7.9s.9.3 1.3.8c.4.4.9 1.9 1.5 2 2.6.1 4.1-3.3 4.1-3.3l1-7.2-7.9-.2z" id="XMLID_1413_"/></g><g id="XMLID_1404_"><path d="M87.3 358.1c-.6.5-1.9.6-3.8-1.7-1.8-2.3-2.6-7.2-2.8-9.2-.1-2 .1-3.3-1.3-5.9-1.3-2.6-2.3-7.3-1.6-9 .4-.6 1.7-.6 1.7-.6l7.8 26.4z" id="XMLID_1411_" style="fill:#aaeeed"/><g id="XMLID_1406_"><defs><path id="SVGID_22_" d="M88.6 330.9c-2 .1-6.9-.2-9 .9-1.1 2.4-.1 6.6 1.6 9.6 1.7 2.9.6 5.6 1.5 9.6.8 3.9 2.8 6.9 4.6 7.2 2 .4 1.5-6.8 1.7-11.8.2-5.6 2-9 2-9l-2.4-6.5z"/></defs><use xlink:href="#SVGID_22_" overflow="visible" fill="#03aa99"/><clipPath id="SVGID_23_"><use xlink:href="#SVGID_22_" overflow="visible"/></clipPath><g id="XMLID_1410_" class="st54"><path class="st55" d="M87.2 340.1s2.9.2 4 1.2"/></g><g id="XMLID_1409_" class="st54"><path class="st55" d="M86.7 344s2.9.2 4 1.2"/></g><g id="XMLID_1408_" class="st54"><path class="st55" d="M86.3 347.9s2.9.2 4 1.2"/></g></g><path class="st32" d="m93.7 327.2-5.1 3.7s-.1 1-.4 1.5c-.3.5-1.6 1.4-1.5 2 .6 2.5 4.2 3.1 4.2 3.1l7.1-3.8-4.3-6.5z" id="XMLID_1405_"/></g><path d="M166.3 227c-8.9 0-15.5.7-15.5.7-2.8 1.2-7.7 7.7-9.1 11.8-1.4 4.1.7 9.8 1.4 13.3 4.2 19.6 8.4 33.2 10 41 1 4.8-2.5 5.5-2.6 13 0 10.8.4 33.7.4 33.7s3.3 1.9 7.7.6c0 0 6.6-37.9 7.4-42.2 1.2-7 1.6-10 1.7-22.1.3-17.1-1.4-49.8-1.4-49.8z" id="XMLID_1403_" style="fill:#1e4174"/><path d="M166.2 241.9c-1.5 6.9-11.4 15.3-11.4 15.3-1.1 3.2-15.7 53.1-18.1 55-2.4 1.9-38.6 21.5-38.6 21.5-1.7-.9-2.8-2.4-3.4-3.6-.5-1-.7-1.9-.8-2.4 0-.2-.1-.3-.1-.3v-.1s18.5-19.6 22.9-21.7c4.8-2.3 7.5-2.9 7.5-2.9 5-23.2 4.8-41.3 8.9-54.1.7-2.4 1.5-4.5 2.3-6.3 1-2.3 1.8-4.2 2.5-5.8.3-.7.5-1.3.7-1.9.2-.6.4-1.2.6-1.7.1-.4.2-.7.3-1 .5-1.5.8-2.6 1.1-3.7.2-.5.3-1 .5-1.5.1-.2.2-.5.3-.7.1-.3.2-.5.3-.8l6.9 5.2 3.3 2.5 14.3 9z" id="XMLID_1402_" style="fill:#85b8ed"/><path class="st36" d="M151.9 232.8c-1 1.3-2.4 2.9-4.2 4.5-5.1 4.5-8.2 11.4-11 25.9-3.1 16.3-8.3 40.4-8.9 41.9-.6 1.5-5.2.9-13.5 7-6.3 4.6-15.5 14.2-19.6 17.9-.5-1-.7-1.9-.8-2.4 0-.2 0-.3-.1-.3v-.1s18.5-19.6 22.9-21.7c4.8-2.3 7.5-2.9 7.5-2.9 4.8-23.2 4.8-41.3 8.9-54.1.7-2.4 1.5-4.5 2.4-6.3 1-2.3 1.8-4.2 2.4-5.8.3-.7.5-1.3.7-1.9.2-.6.4-1.2.6-1.7.1-.4.2-.7.3-1 .5-1.5.8-2.6 1.1-3.7.2-.5.3-1 .5-1.5.1-.2.2-.5.3-.7.1-.3.2-.5.3-.7l6.9 5.2 3.3 2.4z" id="XMLID_1401_"/><path id="XMLID_1400_" class="st36" d="M166.2 241.9s-4.5 5.9-17 6.4c-8.6.3-14.1-3.1-14.1-3.1l3.4-5.3 27.7 2z"/><g id="XMLID_1395_"><defs><path id="SVGID_24_" d="M98.1 333.6s36.2-19.6 38.6-21.5c2.4-1.9 17-51.8 18.1-55 0 0 10.7-8.7 12.2-15.7l-24.8-16.2c-1.9 4.1-1.9 6.8-6.9 17-4.8 9.7-6.6 37.1-11.2 60.4 0 0-2.7.6-7.5 2.9-4.4 2.1-22.9 21.7-22.9 21.7s.5 4.4 4.4 6.4z"/></defs><clipPath id="SVGID_25_"><use xlink:href="#SVGID_24_"/></clipPath><path id="XMLID_1399_" class="st56" d="M161 228.2c-5.2 6.7-11.9 10.8-14.6 15.3-2.8 4.6-4.3 14.5-7.9 32.6-3.6 18-6.8 30.3-7.8 31.4-1 1.1-7.1 2.2-16.6 8.6-9.5 6.4-20.6 16.7-20.6 16.7"/><path id="XMLID_1398_" class="st56" d="M155.2 244.1s-2.1 11.4-12.2 9.5"/><path id="XMLID_1397_" class="st56" d="M95.7 323.7c0 3.1 2.2 7.5 6.1 9.9"/></g></g><g id="XMLID_1390_"><g id="XMLID_1391_"><path class="st32" d="m153.6 176.1 8.6 7.4 4.9-11.7-10.2-5.9z" id="XMLID_1393_"/><path class="st41" d="M165.7 175.2s-10.1-2.8-8.8-9.4l10.2 5.9-1.4 3.5z" id="XMLID_1392_"/></g></g><path class="st23" d="M162 183.2c2 1.7 3.2 4 3.5 6.6.5 4.1.8 10.4 1.2 19.4.3 8.2 1.1 31.9 1.1 31.9s-6.3 4.1-16.8 3.3c-10.1-.8-14.4-5.7-14.4-5.7s1-33.4 4.4-46.5c4.9-13.5 12.6-15.9 12.6-15.9l8.4 6.9z" id="XMLID_1389_"/><g id="XMLID_1378_"><path class="st41" d="M172.3 156.3c.5.9 3.3 4.8 4.2 5.9.9 1.1-2.7 1.4-2.7 1.4l-1.5-7.3z" id="XMLID_1388_"/><path class="st32" d="M156.9 165.9s.6 1.3 1.2 2.3c.6 1 9 4.4 11.2 4.7 2.2.3 5.2-.2 4.6-7.6-.6-7.4-2.5-13.8-7.4-17.2-5-3.4-11.9.3-14.9 5.1-3 4.7.2 14.1 5.3 12.7z" id="XMLID_1387_"/><path class="st38" d="m156.9 165.9-1.1 3.4s-.8.4-3-2.3c-2.3-2.9-6.6-7.9-6.2-11.1.6-4.2 5.3-5.6 5.3-5.6s2.4-7.7 11.9-11.7c9.5-4.1 13.7 2.8 6.4 7.8 0 0 5.1 2.5 1.9 4.5-3.2 1.9-12.4 1.7-12.4 1.7s4.5 1.7 3.2 3c-1.3 1.3-7.1.7-7.1.7l.7 2.9s-2.4-.7-3.6.8c-1.6 1.9.8 6.8 4 5.9z" id="XMLID_1386_"/><path d="M151 141.4s-2.8 6.1 2.5 10.2c0 0-5.3-.2-6.4-5.2" id="XMLID_1385_" style="fill:none;stroke:#001c45;stroke-width:.7875;stroke-linecap:round;stroke-miterlimit:10"/><g id="XMLID_1379_"><g id="XMLID_1382_"><path id="XMLID_1384_" class="st38" d="M168.5 157.8c-.2-.5-.7-.7-1.2-.6-.5.2-.7.7-.6 1.2.2.5.7.7 1.2.6.5-.2.8-.7.6-1.2z"/><path id="XMLID_1383_" class="st38" d="m168.6 155.3-3.7 2.4s-.3-1.4 1-2.2c1.6-1 2.7-.2 2.7-.2z"/></g><path class="st41" d="M154 160.9c.5-.3 1.3-.6 1.9-.3.2.1 0 .5-.2.4-1-.1-2.2.2-2.3 1.4 0 .1-.1 0-.1 0-.1-.6.2-1.1.7-1.5z" id="XMLID_1381_"/><path class="st41" d="M154.4 160.9c.1-.1.4.1.4.2-.1.1-.3.4-.4.6-.1.4-.1.7.1 1.1.3.9 1 1.4 2 1.4 0 0 .1 0 0 .1-.7.4-1.8-.1-2.2-.8-.4-.8-.6-1.9.1-2.6z" id="XMLID_1380_"/></g></g><path class="st24" d="M149.9 183.5c-2.1 1.1-4.8 7.1-2.9 13.6s4.4 13.2 4.4 13.2 10-2.4 12.6-8.7c0 0-3.5-8.6-5.2-12.1s-3.6-8.7-8.9-6z" id="XMLID_1377_"/><path class="st24" d="M160.4 221.1c2.2 2.2 5.3 4.7 7 5.4-.1-3.8-.3-7-.4-10.5l-7.5-9.9-4.9-1.3-1.8 5.1s4 7.6 7.6 11.2z" id="XMLID_1376_"/><path class="st32" d="M152.3 183.5c-4.7 1.3-6.3 8-1.6 18.5 4.6 10.1 11.9 19.3 16.4 22.4 4.5 3.1 22 2.1 36.7-2.2 0 0 8.3-3 10.7-5.1 5.2-4.6 5.4-10.7 1.6-9.8-3.8.9-9.8 5-9.8 5s-1.6-3.1-2.7-5.6c0 0-1 .3-1.4 2.4-.4 2.2-.3 5.2-1 5.6-1.7 1.2-25.2 3.1-28 .4-3.2-3.1-7.8-11.4-11-19.1-3.6-8.3-5.1-13.8-9.9-12.5z" id="XMLID_1375_"/><path class="st23" d="M150.7 182.4c-2.1 1.1-4.8 7.1-2.9 13.6s4.4 13.2 4.4 13.2 9.4-1.4 13.4-6.8c0 0-4.3-10.6-5.9-14-1.6-3.6-3.8-8.8-9-6z" id="XMLID_1373_"/></g><g id="XMLID_1273_"><g id="XMLID_1297_"><g id="XMLID_1339_"><g id="XMLID_1341_"><defs><path id="SVGID_26_" d="M402 233.5c-.1 2.1.4 7.3-.6 9.5-2.5 1.3-7 .3-10.1-1.3-3.1-1.6-5.9-.5-10.1-1.3-4.2-.7-7.3-2.7-7.7-4.6-.5-2.1 7-1.8 12.3-2.1 5.9-.4 9.3-2.4 9.3-2.4l6.9 2.2z"/></defs><clipPath id="SVGID_27_"><use xlink:href="#SVGID_26_" overflow="visible"/></clipPath></g></g><g id="XMLID_1330_"><g id="XMLID_1332_"><defs><path id="SVGID_28_" d="M421.5 231.8c1.4 1.6 5.4 4.9 6.2 7.2-.9 2.6-4.8 5.1-8.1 6.1-3.4 1-4.5 3.8-8.1 6.2-3.5 2.4-7.1 3.2-8.8 2.1-1.8-1.2 3.8-6.2 7.3-10.1 3.9-4.4 5-8.2 5-8.2l6.5-3.3z"/></defs><clipPath id="SVGID_29_"><use xlink:href="#SVGID_28_" overflow="visible"/></clipPath></g></g><g id="XMLID_1323_"><defs><path id="SVGID_30_" d="M462.7 157.4c1 2.6 3.2 5.6 4.6 8 1.4 2.4 5.7 8.7 3.2 15.4-2.7 7.2-8.6 8.9-14.8 8.9h-14.3c-4.2 0-30-6.3-30-6.3s3 1.7 4.4 6.3 4.4 35.6 4.4 35.6c-1.9 1.9-4.6 2.7-7.9 2.4 0 0-7.8-24-10.9-32.9-3.2-9.2-7.1-18.4-6.4-22.4 1-5.6 10.8-5.8 18.8-5.5 8.1.3 26.6 1 30.4.4l-2-6.7 20.5-3.2z"/></defs><clipPath id="SVGID_31_"><use xlink:href="#SVGID_30_" overflow="visible"/></clipPath></g></g></g><g id="XMLID_1219_"><g id="XMLID_1247_"><g id="XMLID_1265_"><g id="XMLID_1267_"><defs><path id="SVGID_32_" d="M151.1 347.6c-.4 2-2 6.7-1.5 8.9 2 1.7 6.4 1.8 9.6 1s5.6.8 9.6 1.1c4 .2 7.4-.9 8.2-2.6.9-1.8-6.1-3.3-10.9-4.7-5.3-1.6-8.1-4.3-8.1-4.3l-6.9.6z"/></defs><clipPath id="SVGID_33_"><use xlink:href="#SVGID_32_" overflow="visible"/></clipPath></g></g><g id="XMLID_1257_"><g id="XMLID_1259_"><defs><path id="SVGID_34_" d="M88.6 330.9c-2 .1-6.9-.2-9 .9-1.1 2.4-.1 6.6 1.6 9.6 1.7 2.9.6 5.6 1.5 9.6.8 3.9 2.8 6.9 4.6 7.2 2 .4 1.5-6.8 1.7-11.8.2-5.6 2-9 2-9l-2.4-6.5z"/></defs><clipPath id="SVGID_35_"><use xlink:href="#SVGID_34_" overflow="visible"/></clipPath></g></g><g id="XMLID_1248_"><defs><path id="SVGID_36_" d="M98.1 333.6s36.2-19.6 38.6-21.5c2.4-1.9 17-51.8 18.1-55 0 0 10.7-8.7 12.2-15.7l-24.8-16.2c-1.9 4.1-1.9 6.8-6.9 17-4.8 9.7-6.6 37.1-11.2 60.4 0 0-2.7.6-7.5 2.9-4.4 2.1-22.9 21.7-22.9 21.7s.5 4.4 4.4 6.4z"/></defs><clipPath id="SVGID_37_"><use xlink:href="#SVGID_36_"/></clipPath></g></g></g></g></g></g></switch></svg>