<svg width="499" height="413" fill="none" xmlns="http://www.w3.org/2000/svg"><g clip-path="url(#a)"><path d="M128.939 300.675c-1.214-3.556-1.792-7.329-1.605-10.938.515-11.378 7.165-22.438 17.831-29.622 4.098-2.745 8.603-4.92 13.066-7.009 8.65-4.156 16.772-7.99 20.475-15.634 1.883-3.833 2.403-8.336 2.901-13.114.498-4.566.995-9.344 2.852-13.877 4.215-10.301 12.963-15.624 21.438-20.713 4.395-2.705 8.579-5.195 12.101-8.382 3.311-2.973 5.449-6.68 7.735-10.579 3.859-6.563 8.2-14 18.577-17.043 11.732-3.435 25.301.799 32.965 10.38 3.725 4.685 5.97 10.229 8.066 15.541 2.376 5.925 4.579 11.555 8.703 15.537 5.556 5.478 13.952 7.436 22.092 9.268 1.084.268 2.232.515 3.316.783 9.119 2.207 15.349 6.959 21.386 11.564 4.609 3.533 8.918 6.814 14.452 9.109 8.47 3.422 21.179 6.176 33.76-.384.591-.343 1.205-.624 1.86-.989 3.531-1.913 7.463-4.105 12.154-3.862 9.086.446 12.405 4.773 13.618 8.329 3.575 10.48-7.438 25.793-10.887 30.231-4.143 5.313-8.507 9.567-11.614 11.265-12.874 7.156-27.802 8.704-40.637 9.324-4.242.242-8.95.784-13.933 1.349-16.835 1.985-35.855 4.219-49.27-5.385-4.905-3.574-8.377-8.345-11.719-12.948-2.807-3.864-5.486-7.559-8.858-10.379-8.645-7.261-22.168-8.037-31.568-1.711a133.93 133.93 0 0 1-2.28 1.629c-2.322 1.714-4.919 3.663-8.16 4.556-5.125 1.394-10.039-.333-14.379-1.831-2.574-.895-4.914-1.727-7.271-1.986-7.816-.88-14.924 5.303-17.871 11.838-2.926 6.387-3.421 14.497-1.652 24.671.309 1.738.703 3.517 1.034 5.319.988 4.768 2.042 9.726 2.077 14.819.125 8.678-2.943 16.106-8.324 20.494-3.566 2.847-8.438 4.154-13.047 3.529-3.951-.567-7.318-2.538-9.419-5.58-.814-1.14-1.353-2.303-1.848-3.34-.539-1.163-1.034-2.199-1.697-2.895-1.262-1.413-3.579-1.97-6.044-2.547-.999-.226-1.998-.453-2.977-.828-7.891-2.555-14.41-9.194-17.399-17.959z" stroke="url(#b)" stroke-width="1.135" stroke-miterlimit="10"/><path d="M403.106 257.212c9.948-12.824 18.555-32.28-.316-33.145-4.394-.203-8.323 2.413-12.235 4.457-11.735 6.13-24.6 5.413-36.56.488-13.514-5.529-20.299-16.898-35.349-20.486-9.587-2.331-19.954-4.041-26.984-10.931-8.547-8.429-9.576-22.045-17.09-31.394-6.808-8.526-18.952-12.324-29.392-9.259-14.634 4.283-15.365 18.145-25.002 26.892-10.606 9.644-26.834 13.62-32.676 27.879-3.527 8.576-1.736 18.814-5.837 27.161-6.256 12.84-22.787 15.926-34.657 23.946-9.061 6.068-15.845 16.111-16.321 26.979-.476 10.869 6.224 22.196 16.687 25.434 3.658 1.163 7.947 1.472 10.534 4.276 1.711 1.898 2.387 4.504 3.824 6.637 3.773 5.449 12.453 5.537 17.623 1.363 5.17-4.175 7.158-11.234 7.049-17.79-.068-6.642-1.895-13.038-3.066-19.587-1.611-8.88-1.868-18.364 1.915-26.603 3.72-8.218 12.333-14.771 21.316-13.794 6.987.736 13.642 5.698 20.399 3.889 3.58-.937 6.341-3.652 9.467-5.711 10.54-7.14 25.867-6.271 35.601 1.895 7.877 6.672 12.025 17.169 20.386 23.18 16.166 11.643 42.663 4.307 61.013 3.436 13.534-.646 27.337-2.377 39.217-8.911 2.58-1.376 6.627-5.309 10.454-10.301z" stroke="url(#c)" stroke-width="1.135" stroke-miterlimit="10"/><path d="M284.703 244.353c-1.127-3.303-1.32-6.569-1.47-9.921l-.332-8.041c-.074-1.463-.225-4.815 2.195-7.697 2.673-3.181 7.102-4.124 11.887-2.566 4.978 1.706 8.902 4.479 12.741 7.211 3.177 2.249 6.1 4.372 9.226 5.432 2.255.791 4.868 1.176 7.672 1.496 2.825.383 5.713.745 8.712 1.636 5.975 1.72 10.804 6.525 12.927 12.749.715 2.096 1.091 4.236 1.084 6.295.034 4.88-1.995 9.118-5.457 11.646-2.555 1.864-7.126 3.636-13.911 1.413a149.707 149.707 0 0 1-6.808-2.499c-4.575-1.772-8.512-3.336-13.12-3.75-.743-.101-1.465-.138-2.272-.217-6.71-.548-15.097-1.232-20.366-8.155-1.113-1.393-2.059-3.127-2.708-5.032z" stroke="url(#d)" stroke-width="1.135" stroke-miterlimit="10"/><path d="M342.586 251.048c.008-4.966-3.302-10.927-9.214-12.668-5.507-1.596-11.384-1.364-16.787-3.278-7.978-2.809-13.863-9.877-21.882-12.601-1.532-.541-3.528-.782-4.517.477-.716.811-.707 2.084-.636 3.124.125 2.652.271 5.367.332 8.04.134 3.925.439 8.146 2.859 11.291 3.94 5.108 11.453 5.098 17.908 5.732 7.984.751 14.035 4.146 21.373 6.535 7.274 2.411 10.578-1.623 10.564-6.652z" stroke="url(#e)" stroke-width="1.135" stroke-miterlimit="10"/><path d="M294.239 241.095c-1.682-3.893-1.273-9.138-1.747-13.23-.112-.742-.139-1.654.473-2.147.717-.599 1.824-.055 2.634.449 6.374 4.136 12.694 9.567 19.884 12.148 3.234 1.166 6.505 1.61 9.691 2.012 2.528.343 4.97.644 7.267 1.35 4.019 1.181 10.659 10.048 4.78 12.975-2.305 1.14-5.072-.113-7.435-1.222a66.01 66.01 0 0 0-21.432-5.877c-3.228-.317-6.581-.378-9.519-1.716-2.342-1.045-3.712-2.775-4.596-4.742z" stroke="url(#f)" stroke-width="1.135" stroke-miterlimit="10"/><path d="M248.9 227.497c8.432-8.123 26.312-57.969.473-50.785-6.799 1.893-10.398 9.219-16.334 13.016-3.824 2.51-8.486 3.391-12.61 5.436-6.746 3.294-14.541 11.412-18.636 17.701-1.91 2.92-2.669 6.724-1.056 9.79 4.065 7.76 12.434 2.778 18.699 3.477 7.093.842 13.079 7.166 20.459 6.351 3.477-.406 6.496-2.571 9.005-4.986z" stroke="url(#g)" stroke-width="1.135" stroke-miterlimit="10"/><path d="M203.479 220.513c-.563-1.652-.133-3.925 1.127-5.844 3.779-5.756 11.131-13.51 17.264-16.524 1.523-.732 3.153-1.359 4.868-1.944 2.709-.995 5.482-2.012 8.101-3.685 2.662-1.759 4.875-4.003 6.96-6.203 2.718-2.841 5.267-5.554 8.444-6.425 6.862-1.916 7.967 1.323 8.508 2.911 3.597 10.543-6.512 36.822-12.161 42.294-2.614 2.522-4.876 3.79-7.06 4.038-3.201.383-6.375-1.228-9.76-2.839-3.066-1.506-6.281-3.033-9.913-3.496-2.358-.259-4.796.076-7.085.432-5.257.8-7.443.837-9.034-2.165-.129-.169-.194-.36-.259-.55z" stroke="url(#h)" stroke-width="1.135" stroke-miterlimit="10"/><path d="M211.409 216.745c-1.461-2.621 2.857-7.213 4.695-8.478 3.146-2.208 6.981-3.02 10.601-4.255 8.003-2.73 15.269-7.619 20.912-13.939.821-.919 1.621-1.9 2.699-2.481 1.078-.58 2.542-.654 3.46.167 1.409 1.221.873 3.389.184 5.113-2.353 6.404-4.791 12.766-7.145 19.17-1.313 3.426-2.857 7.214-6.156 8.765-3.046 1.464-6.723.662-9.831-.759-3.108-1.422-5.965-3.354-9.239-4.223-1.786-.454-3.866-.524-5.644.082-1.588.542-3.333 2.91-4.492.965l-.044-.127z" stroke="url(#i)" stroke-width="1.135" stroke-miterlimit="10"/><path d="M227.451 210.774c-.065-.191.019-.361.124-.468.169-.129.466-.088.742-.111 1.551.18 3.281-1.19 4.592-1.921 1.416-.838 2.788-1.802 4.183-2.703 1.161-.751 2.302-1.565 3.592-2.147.55-.259 1.565-.818 2.204-.398.022.064.086.042.107.106 1.027 1.138-.337 3.376-.988 4.378-.42.64-.925 1.237-1.281 1.855-.588.98-.941 2.023-1.38 3.023-.313.745-.772 1.894-1.554 2.303-.36.193-1.696.224-4.101-.799a64.52 64.52 0 0 1-2.662-1.361c-.959-.524-2.02-.516-2.915-1.062-.192-.147-.384-.294-.513-.463-.107-.105-.128-.169-.15-.232z" stroke="url(#j)" stroke-width="1.135" stroke-miterlimit="10"/><path d="M31.518 151.835c-10.431-7.716-19.18-17.777-25.097-29.301-12.111-23.45-8.63-44.631-4.197-69.257 4.963-27.643 24.994-24.833 48.71-20.16 24.543 4.815 50.69-.843 71.777-14.062 21.783-13.67 33.4-42.802 63.173-39.7 20.344 2.065 36.208 21.966 45.09 38.86 2.022 3.847 3.836 8.334 2.656 12.565-1.367 4.932-6.333 7.832-10.643 10.578-9.633 6.264-13.89 22.676-8.322 32.972 3.526 6.597 10.354 11.854 10.618 19.28.387 9.865-10.626 16.032-14.489 25.078-5.303 12.515 3.555 28.92-4.752 39.695-5.994 7.787-17.579 7.911-26.14 12.745-23.039 13.106-15.923 53.715-38.899 66.799-11.033 6.316-26.699 2.585-33.733-8.061-10.574-16.033 3.631-45.269-13.994-55.99-7.864-4.762-17.521-5.013-26.53-6.69-12.685-2.267-24.797-7.636-35.228-15.351z" stroke="url(#k)" stroke-width="1.135" stroke-miterlimit="10"/><path d="M8.347 110.103c-6.282-18.418-3.013-36.48.44-55.666 1.306-7.394 3.84-12.228 7.578-14.78 6.843-4.674 19.058-2.743 33.275.065 25.543 5.042 53.452-.437 76.63-15.008 8.008-5 14.56-11.773 20.924-18.269 11.546-11.88 21.511-22.156 38.033-20.489 20.854 2.104 35.78 27.571 39.845 35.33.796 1.502 1.356 2.729 1.724 3.808.542 1.588.678 2.818.43 3.754-.622 2.126-3.812 4.207-6.896 6.18l-.994.623c-11.132 7.271-16.762 24.648-12.256 37.859a29.13 29.13 0 0 0 1.683 3.893c1.483 2.684 3.218 5.07 4.974 7.307 1.928 2.534 3.748 4.961 4.507 7.184.238.699.37 1.292.374 1.928.129 3.289-2.755 6.683-6.08 10.653-2.778 3.288-5.956 7.066-7.898 11.557-3.069 7.216-2.443 14.872-1.907 21.638.557 6.829 1.001 12.704-1.965 16.481-2.461 3.179-7.055 4.675-12.37 6.347-3.896 1.258-7.94 2.495-11.787 4.729-13.887 7.928-18.489 23.536-22.573 37.337-3.69 12.461-7.173 24.284-16.325 29.463-7.948 4.554-19.766 1.708-24.785-5.939-.708-1.035-1.247-2.198-1.702-3.532-1.754-5.145-1.652-11.703-1.615-18.663.117-7.556.21-15.387-2.151-22.31-2.015-5.906-5.611-10.422-10.726-13.57-7.161-4.364-15.063-5.497-22.731-6.568-2.167-.325-4.164-.565-6.14-.955-11.495-2.105-22.734-6.992-32.482-14.161-9.77-7.231-17.771-16.555-23.17-26.979-1.443-2.983-2.78-6.071-3.864-9.247z" stroke="url(#l)" stroke-width="1.135" stroke-miterlimit="10"/><path d="M18.261 106.73C13.72 94.454 12.5 80.902 15.063 68.046c1.168-5.93 3.29-11.97 7.59-16.202 6.891-6.818 14.986-5.538 23.236-3.176 8.038 2.363 16.149 3.07 24.615 2.948 21.516-.32 42.882-6.9 61.116-18.295 9.043-5.708 16.039-12.845 22.738-19.81C166.262 1.226 173.03-5.124 184.2-3.97c7.921.773 15.117 7.11 19.779 12.255 3.742 4.112 10.433 11.047 10.136 17.246-.161 4.309-2.044 5.022-5.019 7.526-4.81 3.98-7.508 6.673-10.137 13.1-3.88 9.62-4.693 20.745-1.314 30.652 2.21 6.479 8.985 10.336 8.146 17.854-.759 6.711-6.564 11.102-9.879 16.558-3.986 6.606-4.262 12.656-2.937 20.074 1.061 6.019 1.725 12.954-2.51 17.376-2.718 2.842-6.722 3.782-10.469 5.06-20.979 7.298-29.696 26.224-35.563 46.022-1.949 6.55-3.774 15.751-8.385 20.94-2.863 3.246-7.988 4.852-11.611 2.543-3.56-2.331-4.168-7.229-4.431-11.535-1.005-19.367.947-40.666-18.02-52.205-12.702-7.72-27.058-6.156-40.544-10.773-14.146-4.888-26.796-14.328-35.328-26.661-3.174-4.732-5.863-9.912-7.853-15.331z" stroke="url(#m)" stroke-width="1.135" stroke-miterlimit="10"/><path d="M20.743 103.822c-3.9-11.432-4.705-23.564-2.41-35.125 1.355-6.63 3.486-11.398 6.69-14.477 5.311-5.215 11.341-4.79 19.974-2.346 7.782 2.237 15.917 3.22 25.656 3.089 22.067-.366 43.816-6.863 62.853-18.816 9.402-5.902 16.481-13.209 23.349-20.302C171.541.697 185.299-7.4 202.907 10.133c4.403 4.384 7.145 11.176 4.958 17.027-.751 1.958-1.927 3.706-3.103 5.455-9.979 14.393-16.425 27.298-10.273 45.336 1.019 2.985 2.776 5.434 4.361 7.588 1.35 1.879 2.635 3.567 3.264 5.41.39 1.142.482 2.245.384 3.413-.421 3.547-2.798 6.556-5.343 9.693-1.389 1.75-2.841 3.521-4.015 5.482-4.993 8.226-4.581 15.672-3.345 22.411.907 5.363 1.5 11.258-1.597 14.442-1.664 1.773-4.417 2.641-7.275 3.616l-1.842.628c-23.011 7.991-31.969 28.914-37.648 48.222a66.429 66.429 0 0 0-1.056 3.764c-1.595 5.719-3.353 12.204-6.616 15.94-1.79 2.029-5.176 3.326-7.265 1.982-.832-.567-1.496-1.475-1.973-2.872-.606-1.779-.813-4.048-.933-6.063-.123-2.439-.205-4.964-.328-7.404-.299-9.399-.621-19.073-3.589-27.774-2.946-8.638-8.042-15.053-15.735-19.732-8.141-4.951-16.894-6.291-25.307-7.675-5.544-.874-10.77-1.644-15.855-3.454-13.656-4.701-25.603-13.742-33.706-25.442-3.087-4.478-5.626-9.426-7.593-14.569-.322-.528-.539-1.163-.734-1.735z" stroke="url(#n)" stroke-width="1.135" stroke-miterlimit="10"/><path d="M33.007 101.761c-3.096-8.87-4.226-18.624-2.872-28.374.463-3.632 1.497-7.46 4.346-9.707 2.406-1.884 5.672-2.29 8.689-1.758 4.674.816 24.435 4.498 30.08 4.416 20.242-.311 40.302-5.523 58.275-14.774 7.781-4.001 15.238-8.955 22.332-14.14 6.249-4.543 8.914-11.904 14.288-17.353 4.741-4.808 11.295-8.249 18.005-7.701 6.71.547 13.178 5.998 13.479 12.702.278 6.428-4.65 11.725-8.136 17.097-5.374 8.356-7.068 17.939-7 27.7.043 9.273 8.263 16.325 7.69 25.454-.539 7.983-9.031 13.432-10.611 21.273-1.272 6.248 2.021 12.783.43 18.927-1.757 6.696-8.499 10.627-14.052 14.719-10.767 7.927-19.006 19.316-23.183 32.014-.935 2.872-1.741 5.912-3.742 8.154-2 2.242-5.727 3.372-8.075 1.478-3.99-3.176-1.159-11.09-1.89-15.52-1.021-6.317-3.779-12.324-7.803-17.262-9.355-11.627-26.472-16.495-40.705-18.73-5.311-.811-9.879-1.522-14.155-3.042-17.06-5.95-29.653-19.379-35.39-35.573z" stroke="url(#o)" stroke-width="1.135" stroke-miterlimit="10"/><path d="M41.98 98.134c-.562-1.44-1.082-2.963-1.474-4.53-1.241-4.47-1.66-9.645.924-13.504 2.205-3.304 6.225-5.03 10.19-5.461 3.966-.431 7.938.199 11.868.702 40.777 4.808 83.563-12.764 109.208-44.838 1.641-2.049 3.302-4.246 5.477-5.768 2.175-1.522 5.098-2.306 7.503-1.283 10.853 4.38-4.281 15.924-6.668 20.567-5.068 9.67-6.655 22.477-2.721 32.763 2.55 6.645 5.699 13.796 3.709 20.643-1.594 5.72-6.572 10.041-7.996 15.844-1.299 5.336.565 11.01-.437 16.386-1.268 6.884-6.482 10.719-11.375 15.082-5.61 4.963-10 11.424-14.734 17.292-1.347 1.665-2.947 3.416-5.091 3.368-5.072-.114-6.682-8.782-8.933-12.055-3.624-5.429-8.981-9.699-14.752-12.693-8.712-4.545-18.487-6.598-28.094-8.781-19.599-4.659-39.106-14.454-46.604-33.734z" stroke="url(#p)" stroke-width="2.27" stroke-miterlimit="10"/><path d="M48.27 98.897c-.968-4.916 1.976-8.756 9.215-8.319 10.848.625 21.19 1.635 32.11.391 13.358-1.578 26.404-5.32 38.675-10.71 10.345-4.593 19.047-10.468 28.104-17.173 1.583-1.178 3.569-2.423 5.4-1.63 2.064.856 2.381 3.655 2.375 5.926-.001 5.814-1.284 10.577.728 16.059 2.358 6.498 3.822 12.451 1.62 19.3-1.6 4.87-4.646 9.242-5.864 14.195-1.092 4.697-.463 9.659-1.533 14.42-1.854 8.077-11.459 24.399-21.431 21.561-4.317-1.222-7.545-4.658-10.518-7.969-4.385-4.956-9.896-10.096-16.382-12.067-10.208-3.111-20.803-4.035-30.91-7.89-10.83-4.105-21.06-10.4-28.253-19.432-1.841-2.279-2.982-4.584-3.336-6.662z" stroke="url(#q)" stroke-width="1.135" stroke-miterlimit="10"/><path d="M51.822 99.315c-.13-.382-.239-.7-.305-1.102-.177-.932-.249-2.184.509-3.08.863-1.004 2.77-1.441 5.232-1.289 1.868.072 3.694.229 5.499.322 9.129.573 17.833 1.15 27.163.023 13.294-1.557 26.638-5.258 39.649-10.972 4.675-2.091 8.706-5.239 12.844-8.281 3.167-2.357 10.314-9.049 14.646-8.612 4.566.499 2.958 13.242 4.474 17.688l.152.445.585 1.715c1.841 5.398 2.723 10.06.998 15.399-.623 1.914-1.522 3.852-2.484 5.811-1.276 2.704-2.657 5.514-3.378 8.597-.639 2.699-.727 5.352-.921 7.9-.132 2.314-.245 4.479-.676 6.541-1.216 5.165-6.158 14.579-12.054 18.079-1.881 1.138-3.619 1.448-5.256 1.013-3.381-.973-6.139-3.861-8.961-6.94-4-4.45-10.176-10.709-17.917-13.032-4.508-1.369-9.099-2.356-13.52-3.258-5.95-1.232-11.603-2.423-17.135-4.507-11.66-4.46-20.7-10.593-26.824-18.36-1.028-1.351-1.866-2.767-2.32-4.1z" stroke="url(#r)" stroke-width="1.135" stroke-miterlimit="10"/><path d="M70.515 104.856c.67-4.27 13.817.179 20.644-.59 14.249-1.67 28.567-5.632 42.424-11.777 4.188-1.854 8.858-4.794 11.932-8.253 1.221-1.41 3.143-2.632 4.783-1.774 1.448.712 1.737 2.598 1.833 4.126.157 4.2 3.066 7.533 1.653 11.914-.415 1.276-1.168 2.809-1.984 4.576-1.443 3.045-3.116 6.452-4.148 10.704-.823 3.613-.992 6.861-1.141 9.748-.114 1.953-.187 3.609-.434 4.756-.679 2.997-2.164 9.247-6.197 9.063-3.736-.144-8.006-6.841-10.78-9.156-4.27-3.578-9.044-6.558-14.424-8.197-4.913-1.515-9.716-2.5-14.37-3.465-5.802-1.211-10.838-2.258-15.647-4.092-4.894-1.876-14.814-3.313-14.144-7.583z" stroke="url(#s)" stroke-width="1.135" stroke-miterlimit="10"/><path d="M110.07 108.797c-.371-1.504.534-2.593 1.779-3.514 2.936-1.994 6.966-2.235 10.357-2.895 4.726-.903 9.672-.747 14.136-2.624 2.307-.929 3.74-2.34 5.255-4.132 1.41-1.687 2.255-2.33 4.071-.538 4.06 4.004-4.433 9.453-5.979 15.936-.597 2.615 3.591 12.814-1.563 13.295-.551.047-1.062-.204-1.51-.477-1.811-1.155-3.013-3.014-4.741-4.339a57.533 57.533 0 0 0-5.906-4.011c-2.408-1.448-4.922-2.788-7.497-3.895-1.256-.564-2.619-1.234-3.915-1.501-2.062-.431-3.425 1.807-4.379-.988l-.108-.317z" stroke="url(#t)" stroke-width="1.135" stroke-miterlimit="10"/><path d="M375.766 204.072c6.022-6.663 8.323-17.587 16.877-20.363 4.848-1.583 10.06.185 15.179.849 20.433 2.744 37.799-14.524 40.759-34.323 1.58-10.749-4.213-19.833-2.991-30.176 1.342-11.448 9.339-21.053 13.851-31.313 3.342-7.663 4.96-16.014 4.817-24.332-.331-16.974-14.856-45.84-36.295-40.512-6.609 1.617-11.962 6.917-14.742 13.112-6.517 14.773-.955 42.512-23.376 46.828-5.066.948-10.677-.329-15.244 2.08-7.378 3.935-7.177 14.501-11.201 21.829-3.814 6.903-11.468 10.861-19.05 12.951-7.561 2.154-15.577 2.974-22.9 5.826-9.65 3.717-18.192 11.31-21.178 21.263-3.008 9.888.386 21.918 9.189 27.353 8.802 5.435 21.76 4.347 27.697 12.815 2.337 3.315 3.066 7.533 4.811 11.192 5.835 12.119 24.762 14.809 33.797 4.921z" stroke="url(#u)" stroke-width="1.135" stroke-miterlimit="10"/><path d="M306.837 161.431c-1.278-3.747-1.371-7.969-.23-11.691 2.262-7.295 8.669-13.663 17.198-16.927 3.958-1.492 8.238-2.456 12.751-3.357 3.115-.637 6.357-1.318 9.576-2.274 11.183-3.176 18.976-8.6 23.124-16.183 1.739-3.217 2.818-6.705 3.73-9.852 1.472-5.04 2.596-8.188 4.752-9.349 1.438-.774 3.687-.832 6.296-.871 2.122-.015 4.498-.117 6.978-.537 20.176-3.834 22.953-22.506 24.98-36.102.852-5.608 1.622-10.834 3.251-14.58 2.09-4.683 5.969-8.275 10.206-9.366 5.232-1.288 10.06.184 14.823 4.586 4.442 4.086 8.435 10.594 10.883 17.771 1.43 4.192 2.223 8.388 2.332 11.825.157 7.32-1.34 14.78-4.285 21.527-1.336 3.15-3.16 6.325-5.005 9.648-4.066 7.201-8.258 14.658-9.321 23.599-.742 6.138.55 11.795 1.666 16.732 1.009 4.619 1.994 8.962 1.324 13.232-2.374 15.699-16.252 30.927-33.202 28.626-1.041-.141-2.189-.388-3.378-.55-4.399-.839-9.456-1.737-14.749-.003-7.919 2.56-11.86 9.505-15.004 15.045-1.551 2.727-3.019 5.283-4.725 7.142-2.738 2.99-7.29 4.401-12.155 3.65-4.843-.688-8.851-3.292-10.617-7.014-.517-1.1-.95-2.37-1.491-3.746-.888-2.604-1.97-5.567-3.899-8.312-4.951-7.032-12.753-9.121-19.579-11.047-3.827-1.034-7.42-2.007-10.105-3.643-2.749-1.615-4.934-4.486-6.125-7.979z" stroke="url(#v)" stroke-width="1.135" stroke-miterlimit="10"/><path d="M314.38 151.774a6.518 6.518 0 0 1-.736-2.159c-.872-6.297 6.56-11.739 11.639-13.684 3.196-1.232 6.904-2.001 11.206-2.901 3.306-.702 6.675-1.426 10.296-2.449 7.752-2.218 15.345-5.73 21.355-11.184 6.664-6.03 8.414-13.788 12.479-21.202.964-1.746 2.417-3.306 4.259-3.934 2.731-.932 5.56.089 8.336-.504 2.903-.636 6.118-2.228 8.76-3.626 6.66-3.548 11.82-9.208 15.211-15.895 5.38-10.627 5.784-22.534 8.336-33.969.577-2.466 1.47-5.252 3.777-6.18 1.693-.649 3.734-.069 5.185 1.067 4.31 3.28 7.281 9.498 8.971 14.452 1.083 3.176 1.742 6.354 1.78 8.752.105 5.92-1.041 11.912-3.444 17.34-1.148 2.661-2.847 5.58-4.544 8.712-4.318 7.712-9.286 16.426-10.589 27.364-.943 7.837.59 14.617 1.817 20.083.875 3.814 1.577 7.119 1.212 9.584-1.601 10.685-10.99 21.616-21.907 20.164-.807-.079-1.806-.306-2.869-.511-5.078-.962-11.963-2.229-19.733.35-5.674 1.865-10.233 5.335-14.107 9.776-1.326 1.516-2.928 3.055-3.829 4.78-1.299 2.428-1.365 5.145-3.153 7.386-1.872 2.411-5.448 3.773-8.09 2.263-2.302-1.342-3.043-4.138-3.973-6.657-3.698-10.011-12.582-17.971-22.934-20.466-3.104-.785-6.31-1.039-9.289-2.291-2.255-.791-4.368-2.41-5.422-4.461z" stroke="url(#w)" stroke-width="2.27" stroke-miterlimit="10"/><path d="M325.007 147.151c-.174-.508-.22-1.06-.245-1.548.264-4.84 6.11-6.409 8.058-6.931 2.923-.785 5.809-.847 8.631-.888 2.525-.082 4.923-.12 7.062-.708 9.763-2.763 17.819-7 24.04-12.667 3.142-2.844 5.897-6.407 8.245-10.54.482-.874.982-2.108 1.44-3.469.999-2.681 2.145-5.766 4.444-7.756 2.341-2.075 5.077-2.37 7.261-2.618.827-.07 1.505-.16 2.162-.312 2.691-.635 5.569-1.758 8.931-3.543 5.814-3.118 8.721-9.143 12.068-16.17.753-1.533 1.484-3.13 2.301-4.684.042-.086 5.705-9.674 11.456-9.651 2.058.007 3.721 1.141 4.669 3.087.086.254.215.423.302.677.628 1.842.237 3.606.032 4.668-.122.68-.267 1.296-.389 1.977-.656 3.272-1.355 6.63-3.242 9.826-.986 1.684-2.036 3.176-3.151 4.69-.714 1.024-1.428 2.048-2.079 3.05-4.283 6.566-6.494 12.141-7.072 17.514-1.04 9.005.669 16.718 1.96 22.375 1.403 6.398 1.484 14.95-6.592 19.335-5.623 3.053-12.04 1.909-17.16 1.033-5.269-.897-9.193-.552-15.058 1.378-4.531 1.475-8.693 4.029-12.762 7.899a21.226 21.226 0 0 0-1.662 1.985c-2.757 3.351-6.208 7.576-10.111 7.773-1.591.118-3.144-.487-4.319-1.646-1.368-1.306-1.973-2.872-2.449-4.269l-.26-.762-.109-.318c-1.298-3.599-4.78-6.948-10.766-10.153-.447-.273-2.277-.855-3.638-1.312-5.211-1.767-9.02-3.162-10.879-5.081-.516-.887-.881-1.543-1.119-2.241z" stroke="url(#x)" stroke-width="1.135" stroke-miterlimit="10"/><path d="M328.613 146.701c-.32-.316-.514-.676-.473-.973.132-2.314 3.944-3.402 5.617-3.902 5.126-1.393 10.716-.18 15.756-1.616 10.272-2.937 18.814-7.41 25.414-13.42 3.627-3.293 6.55-7.197 8.939-11.415 1.719-3.068 2.554-8.103 5.127-10.328 2.236-1.968 5.295-1.523 8.049-2.178 3.347-.788 6.669-2.275 9.735-3.888 8.224-4.365 11.28-13.49 15.781-22.329.795-1.618 7.901-11.132 10.161-6.585.474.972.227 2.12.022 3.183-.822 3.825-1.327 7.542-3.256 10.824-1.531 2.578-3.467 5.01-5.125 7.633-3.716 5.734-6.876 12.059-7.57 18.96-1.143 9.537.674 17.567 1.967 23.436 1.315 5.932 1.147 12.3-4.941 15.653-4.482 2.45-9.963 1.555-15.02.656-6.247-1.059-10.783-.434-16.67 1.433-5.357 1.756-9.919 4.801-14.009 8.607-2.193 2.095-8.069 11.473-11.466 8.165-1.069-1.053-1.483-2.684-1.982-4.145-1.948-5.504-7.365-9.328-12.306-11.968-2.066-1.068-11.548-3.506-13.75-5.803z" stroke="url(#y)" stroke-width="1.135" stroke-miterlimit="10"/><path d="M347.207 146.316c.104-.319.356-.618.821-.919.803-.557 1.843-.416 2.799-.316 6.584.803 12.06-2.058 17.77-4.857 5.097-2.518 9.914-5.65 14.067-9.477 3.142-2.845 5.836-6.174 8.166-9.734 2.12-3.347 2.851-8.063 5.569-10.904 2.191-2.307 5.101-1.882 7.855-2.538 3.623-.81 7.282-2.555 9.895-5.289.737-.748 1.473-1.708 2.576-1.801.742-.111 1.594.307 2.022.941 1.482 2.472-2.66 7.998-3.257 10.612-1.665 7.8.469 15.509 2.156 23.158 1.666 7.586-.955 9.047-2.266 9.778-2.938 1.569-7.464.773-11.522.101-7.691-1.347-13.286-.289-19.278 1.684-3.959 1.28-7.553 3.215-10.996 5.594-2.703 1.844-6.623 8.853-9.59 9.298-1.484.223-2.976-.616-3.917-1.712-1.327-1.604-1.745-3.66-3.071-5.263-1.669-1.983-3.72-3.836-6.041-5.03-.853-.63-4.426-1.751-3.758-3.326z" stroke="url(#z)" stroke-width="1.135" stroke-miterlimit="10"/><path d="M360.904 150.929c.208-.638.628-1.277 1.347-1.664 8.181-4.493 16.565-7.352 23.713-13.832 3.079-2.823 5.879-6.047 8.168-9.522 1.176-1.748 2.182-3.58 3.102-5.454 1.736-3.641 2.736-6.322 7.098-7.668 1.546-.456 3.479-.194 4.485 1.094.728.886.864 2.116.957 3.219.501 5.004.961 10.094 1.463 15.099.227 2.12.708 4.154 1.041 6.168.33 1.801.341 3.287-2.272 2.902-8.56-1.193-16.418-1.987-24.889.407-5.041 1.436-9.885 3.655-14.172 6.677-2.006 1.394-4.192 4.337-6.35 5.286-1.904.862-4.332-.436-3.691-2.712z" stroke="url(#A)" stroke-width="1.135" stroke-miterlimit="10"/><path d="M308.996 118.728c.147-.192.295-.384.505-.598 5.744-7.064 11.528-11.519 20.162-14.889 9.693-3.803 20.471-7.125 26.417-15.676 5.001-7.165 5.633-16.953 11.615-23.318 5.034-5.404 12.788-7.199 19.775-9.582 14.077-4.873 23.059-19.28 20.132-34.306-1.63-8.52-9.752-22.978-16.395-29.15-10.402-9.71-25.019-6-37.505-4.151-23.701 3.476-42.423-18.57-65.795-10.597-11.92 3.924-21.914 13.289-26.671 24.909-2.003 4.937-3.132 10.356-2.458 15.657 1.926 14.586 16.943 25.559 16.579 40.289-.201 7.725-4.821 14.76-10.792 19.704-6.203 5.094-14.489 6.786-18.75 13.416-2.729 4.263-3.842 12.016-5.506 16.909-1.704 5.19-11.083 26.54-4.854 31.08 5.844 4.246 19.379-2.427 25.843-3.64 17.568-3.369 36.255-1.59 47.698-16.057z" stroke="url(#B)" stroke-width="1.135" stroke-miterlimit="10"/><path d="M247.395 125.423c-3.937-7.591 4.114-24.73 9.447-29.882 5.269-5.13 11.779-8.91 16.856-14.187 7.711-7.948 11.855-19.287 11.056-30.36-1.247-17.583-21.627-27.86-14.198-45.78 3.694-8.917 11.326-16.058 20.493-19.114l.064-.022c9.082-3.098 17.913.342 28.148 4.366 12.427 4.836 24.546 8.147 37.965 6.122 5.999-.912 12.102-2.143 18.071-1.272 11.705 1.68 18.051 14.05 21.539 24.275.455 1.334.695 2.245.826 2.838 4.602 23.884-24.569 21.923-36.478 33.572-7.271 7.16-8.165 18.88-14.732 26.65-11.955 14.004-32.497 14.063-44.826 29.258-.211.214-.337.469-.547.683-6.648 8.365-19.288 12.464-29.288 14.741-5.467 1.227-11.76 2.522-17.389 1.819-3.929-.503-6.018-1.847-7.007-3.707z" stroke="url(#C)" stroke-width="1.135" stroke-miterlimit="10"/><path d="M258.964 116.723c-2.377-3.018-.929-8.334 4.931-14.019 2.087-1.988 4.557-3.894 7.132-5.907 3.313-2.548 6.733-5.204 9.935-8.494 9.65-9.956 14.856-24.21 13.867-38.125a37.093 37.093 0 0 0-1.888-9.07c-1.972-5.779-5.147-10.722-7.915-15.096-2.252-3.485-4.355-6.739-5.373-9.724-.91-2.667-.861-4.811.182-7.365 2.545-6.256 7.922-11.281 14.358-13.406l.127-.043c5.335-1.82 11.228.282 21.229 4.245 9.576 3.753 19.613 6.78 29.93 7.303 10.551.584 21.842-5.394 31.599.14 5.688 3.165 12.867 13.194 11.028 20.274-1.633 6.229-8.792 8.104-14.295 10.264-6.624 2.614-14.137 5.532-19.659 10.96-5.374 5.237-7.982 11.728-10.234 17.388-1.586 3.873-3.024 7.555-5.108 9.967-4.357 5.103-10.683 7.969-18.066 11.267-8.927 3.967-19.06 8.558-26.908 18.184-.211.213-.4.491-.589.768-5.154 6.508-14.946 11.266-22.979 12.659-5.743 1.038-9.549.067-11.304-2.17z" stroke="url(#D)" stroke-width="1.135" stroke-miterlimit="10"/><path d="M261.364 114.205c-.542-1.588.771-5.014 4.86-9.032 1.918-1.859 4.324-3.744 6.793-5.65 3.42-2.655 6.966-5.353 10.316-8.836 10.323-10.682 15.841-25.894 14.761-40.698a40.808 40.808 0 0 0-2.021-9.875c-2.101-6.161-5.427-11.337-8.302-15.816-2.124-3.316-4.119-6.464-4.986-9.005-.65-1.905-.595-3.2.135-5.009 2.212-5.363 6.829-9.703 12.313-11.503l.19-.065c4.255-1.451 9.681.527 19.001 4.154 12.108 4.733 21.694 7.064 30.95 7.593 4.182.205 8.358-.44 12.364-1.168 6.444-1.064 12.548-2.083 17.725.83 3.068 1.72 7.239 6.465 8.908 11.355.671 1.97.875 3.814.503 5.217-.931 3.508-4.569 5.104-10.052 7.116-.762.26-1.502.583-2.264.843-6.942 2.723-14.772 5.748-20.758 11.69-5.838 5.749-8.634 12.516-11.054 18.518-1.46 3.617-2.837 7.065-4.563 9.072-3.852 4.504-9.881 7.199-16.883 10.367-9.287 4.16-19.801 8.882-28.132 19.168-.211.214-.4.491-.653.79-4.207 5.334-12.811 10.042-20.907 11.457-4.748.839-7.3.008-8.049-.942l-.195-.571z" stroke="url(#E)" stroke-width="1.135" stroke-miterlimit="10"/><path d="M304.878 49.514c-.261-3.882-1.095-7.78-2.394-11.592-1.3-3.81-3.004-7.767-5.108-11.232-1.867-2.98-4.644-5.506-6.173-8.742-1.379-3.004-1.596-6.759.38-9.489 1.639-2.26 4.602-3.342 7.424-3.383 4.478.032 8.887 2.357 12.973 3.941 12.831 4.982 23.034 7.457 33.075 8.003 4.904.241 9.673-.535 13.828-1.243 5.426-.929 10.195-1.705 13.348.056 2.791 1.53 6.701 5.3 4.921 8.814-1.821 3.6-7.377 4.148-10.828 5.254a51.097 51.097 0 0 0-13.152 6.755 50.377 50.377 0 0 0-13.942 15.25c-3.104 5.241-4.134 12.824-8.069 17.5-2.82 3.372-8.236 5.786-14.519 8.568-9.498 4.374-10.608-11.767-11.764-28.46z" stroke="url(#F)" stroke-width="1.135" stroke-miterlimit="10"/><path d="M314.963 69.902c-.107-.106-.278-.19-.406-.358-.92-1.034-1.142-2.518-1.258-3.896-.59-5.471-1.392-10.94-1.77-16.413l-.023-.276c-.818-10.71-4.71-21.082-11.643-29.352-.835-.991-1.754-2.025-2.251-3.273-.497-1.249-.317-2.8.653-3.697 1.308-1.155 3.413-.597 5.029-.014 7.405 2.792 14.749 6.03 22.277 8.354 5.317 1.66 13.349 3.175 18.927 2.69 4.691.243 8.73-1.843 13.137-2.85 2.563-.591 5.3-.674 7.893-.14.616.144 3.251.592 3.489 1.291.715 2.096-6.274 4.055-7.629 4.446-4.257 1.24-8.622 2.161-12.254 4.818-6.376 4.586-11.852 10.566-15.795 17.3-1.678 2.77-2.697 5.811-3.78 8.662-1.895 5.255-4.766 10.347-10.012 12.845-1.352.816-3.262.83-4.584-.137z" stroke="url(#G)" stroke-width="1.135" stroke-miterlimit="10"/><path d="M279.867 107.956c1.623-1.475 2.756-3.351 4.273-4.932 2.949-3.204 6.945-5.205 10.428-7.882 2.237-1.756 2.458-3.603 3.481-6.008.146-.405.355-.83.352-1.255-.003-.424-.303-.89-.686-.971-.383-.082-.762.26-1.036.495a56.546 56.546 0 0 1-3.861 3.231c-7.454 5.379-16.556 8.626-22.449 15.67-.946 1.173-1.74 3.004-.63 3.972.428.422 1.022.502 1.617.583 2.994.255 6.191-.765 8.511-2.903z" stroke="url(#H)" stroke-width="1.135" stroke-miterlimit="10"/><path d="M248.641-46.802c-4.955 13.744-10.032 28.167-7.937 42.625 2.651 17.956 16.196 33.968 14.285 52.061-.278 2.718-.959 5.503-2.599 7.764-4.981 6.804-16.468 5.972-21.258 12.923-3.361 4.905-1.893 11.494.268 16.996 2.224 5.481 5.191 11.063 4.426 16.925-.983 8.135-8.457 13.662-12.63 20.758-4.867 8.182-4.987 18.221-6.237 27.652-1.25 9.43-4.426 19.66-12.711 24.471-3.973 2.277-8.679 3.032-12.931 4.908-9.224 4.138-15.143 13.39-18.94 22.838-3.732 9.427-5.912 19.459-10.56 28.489-4.648 9.03-12.548 17.255-22.598 18.556-7.717 1.073-15.293-2.015-22.381-5.128-15.241-6.641-30.975-14.107-40.957-27.364-6.79-9.099-10.391-20.279-16.717-29.678-6.347-9.463-17.29-17.429-28.391-14.847" stroke="url(#I)" stroke-width="2.27" stroke-miterlimit="10"/><path d="M428.63-2.2a62.572 62.572 0 0 0-17.034 25.309c-3.102 8.574-4.375 17.729-7.414 26.28-3.038 8.553-8.391 16.973-16.833 20.49-3.174 1.296-6.65 1.914-9.696 3.379-11.906 5.834-13.423 22.588-23.164 31.653-10.057 9.386-26.235 8.311-37.405 16.304-8.319 5.958-13.888 16.862-24.021 18.333-7.505 1.071-14.412-3.379-21.777-3.561-5.009-.135-17.308 4.131-9.052 10.461 1.643 1.283 3.748 1.841 5.83 2.124 5.417.917 10.532.945 13.794 6.143 2.167 3.443 2.96 7.64 3.816 11.602 2.451 10.721 9.929 21.003 20.608 24.663 9.21 3.098 20.084 1.303 28.101 6.722 5.543 3.781 8.602 10.254 13.43 14.846 15.424 14.662 37.269 6.785 55.418 4.494 16.941-2.092 27.843 18.437 42.814 22.832 6.613 1.927 14.006.114 19.687-3.809 5.681-3.923 9.885-9.682 12.94-15.9" stroke="url(#J)" stroke-width="2.27" stroke-miterlimit="10"/><rect x="125.459" y="11.479" width="249.746" height="249.746" rx="42.003" fill="#fff" fill-opacity=".92"/><rect x="126.027" y="12.046" width="248.611" height="248.611" rx="41.435" stroke="#F68146" stroke-opacity=".8" stroke-width="1.135"/></g><rect x="67.437" y="1.135" width="190.715" height="59.031" rx="7.946" fill="#269" stroke="#269" stroke-width="2.27"/><path d="M68.572 9.082a6.811 6.811 0 0 1 6.811-6.811h51.085v56.76H75.383a6.811 6.811 0 0 1-6.811-6.811V9.082zM149.235 37.156c-.932 0-1.767-.152-2.506-.455-.739-.302-1.332-.75-1.78-1.344-.436-.593-.666-1.307-.69-2.143h3.305c.049.472.212.836.491 1.09.278.242.642.363 1.09.363.46 0 .823-.103 1.089-.309.267-.218.4-.514.4-.89 0-.315-.109-.575-.327-.78a2.423 2.423 0 0 0-.781-.51 11.834 11.834 0 0 0-1.308-.453c-.823-.255-1.495-.509-2.016-.763a3.72 3.72 0 0 1-1.344-1.126c-.375-.497-.563-1.145-.563-1.944 0-1.186.43-2.113 1.29-2.779.859-.678 1.979-1.017 3.36-1.017 1.404 0 2.537.339 3.396 1.017.86.666 1.32 1.599 1.381 2.797h-3.36c-.025-.411-.176-.732-.455-.962-.278-.242-.635-.364-1.071-.364-.376 0-.678.103-.908.31-.23.193-.345.478-.345.853 0 .412.193.732.581.962.387.23.993.479 1.816.745.824.279 1.49.545 1.998.8a3.79 3.79 0 0 1 1.344 1.107c.376.485.563 1.108.563 1.871 0 .727-.187 1.387-.563 1.98-.363.593-.896 1.066-1.598 1.417-.703.35-1.532.527-2.489.527zm12.592 0c-1.199 0-2.301-.279-3.306-.836a6.347 6.347 0 0 1-2.379-2.325c-.581-1.005-.872-2.131-.872-3.378 0-1.248.291-2.368.872-3.36a6.348 6.348 0 0 1 2.379-2.326c1.005-.556 2.107-.835 3.306-.835 1.199 0 2.295.279 3.287.835a6.048 6.048 0 0 1 2.362 2.325c.581.993.872 2.113.872 3.36 0 1.248-.291 2.374-.872 3.379a6.224 6.224 0 0 1-2.362 2.325c-.992.557-2.088.836-3.287.836zm0-2.834c1.017 0 1.828-.34 2.434-1.017.617-.678.926-1.574.926-2.688 0-1.127-.309-2.023-.926-2.689-.606-.678-1.417-1.017-2.434-1.017-1.029 0-1.853.333-2.47 1-.606.665-.908 1.567-.908 2.706 0 1.126.302 2.028.908 2.706.617.666 1.441.999 2.47.999zm-1.835-11.207c-.375 0-.69-.127-.944-.381a1.284 1.284 0 0 1-.382-.945c0-.375.128-.69.382-.944.254-.267.569-.4.944-.4.388 0 .709.127.963.382.254.254.381.575.381.962 0 .376-.133.69-.399.945a1.282 1.282 0 0 1-.945.381zm3.633 0c-.375 0-.69-.127-.944-.381a1.28 1.28 0 0 1-.382-.945c0-.375.127-.69.382-.944.254-.267.569-.4.944-.4.388 0 .708.127.963.382.254.254.381.575.381.962 0 .376-.133.69-.399.945-.255.254-.57.381-.945.381zm9.756 11.37h5.486v2.543h-9.009v-2.36l5.449-7.848h-5.449v-2.542h9.009v2.36l-5.486 7.847zm10.62.146h4.069v2.397h-7.175v-12.75h3.106V34.63zm8.656-7.865v2.58h4.16v2.397h-4.16v2.797h4.705v2.488h-7.811v-12.75h7.811v2.488h-4.705zm15.984 6.466c0 .981-.333 1.829-.999 2.543-.653.715-1.562 1.156-2.724 1.326v.727c.63 0 1.181.169 1.653.508.472.351.708.872.708 1.562 0 .69-.248 1.211-.745 1.562-.496.364-1.089.545-1.78.545h-2.797v-1.707h2.38c.242 0 .424-.037.545-.11.121-.072.181-.193.181-.363 0-.169-.06-.29-.181-.363-.121-.06-.303-.09-.545-.09h-1.29V37.1c-1.174-.145-2.131-.551-2.87-1.217-.738-.678-1.126-1.568-1.162-2.67h3.306c.048.472.211.836.49 1.09.279.242.642.363 1.09.363.46 0 .823-.103 1.09-.309.266-.218.399-.514.399-.89 0-.315-.109-.575-.327-.78a2.423 2.423 0 0 0-.781-.51 11.686 11.686 0 0 0-1.308-.453c-.823-.255-1.495-.509-2.016-.763a3.736 3.736 0 0 1-1.344-1.126c-.375-.497-.563-1.145-.563-1.944 0-1.186.43-2.113 1.29-2.779.86-.678 1.98-1.017 3.36-1.017 1.405 0 2.537.339 3.397 1.017.859.666 1.319 1.599 1.38 2.797h-3.36c-.024-.411-.176-.732-.454-.962-.279-.242-.636-.364-1.072-.364-.375 0-.678.103-.908.31-.23.193-.345.478-.345.853 0 .412.193.732.581.962.387.23.993.479 1.816.745.824.279 1.49.545 1.998.8a3.79 3.79 0 0 1 1.344 1.107c.376.485.563 1.108.563 1.871zm16.352-8.954v12.75h-3.106v-7.646l-2.852 7.646h-2.506l-2.87-7.665v7.665h-3.106v-12.75h3.669l3.578 8.827 3.542-8.827h3.651zm5.339 2.488v2.58h4.16v2.397h-4.16v2.797h4.705v2.488h-7.811v-12.75h7.811v2.488h-4.705z" fill="#fff"/><path d="M76.518 43.138a4.54 4.54 0 0 0 4.541 4.54h27.245a4.539 4.539 0 0 0 4.541-4.54V23.839a4.54 4.54 0 0 0-4.541-4.54H98.087c-4.043 0-3.405-5.677-9.578-5.677h-7.45a4.54 4.54 0 0 0-4.54 4.541v24.975z" fill="#269"/><path d="M110.575 21.569h-7.45c-6.173 0-5.535 5.676-9.579 5.676H83.33a4.54 4.54 0 0 0-4.541 4.54v11.353a1.135 1.135 0 0 1-2.27 0 4.54 4.54 0 0 0 4.54 4.54h29.516a4.542 4.542 0 0 0 4.54-4.54V26.11a4.542 4.542 0 0 0-4.54-4.541" fill="#55ACEE"/><path d="m374.511 107.845-9.649-10.088 2.27-2.376 7.386 7.722 7.385-7.722 2.258 2.376-9.648 10.088h-.002zm0-9.105-9.649-10.09 2.27-2.374 7.386 7.722 7.385-7.722 2.258 2.374-9.648 10.089-.002.001z" fill="#269"/><g filter="url(#K)"><rect x="255.882" y="129.414" width="238.394" height="273.586" rx="6.811" fill="#fff"/><path d="M255.882 136.225a6.811 6.811 0 0 1 6.811-6.811h224.772a6.811 6.811 0 0 1 6.811 6.811v79.465H255.882v-79.465zM282.656 319.769a62.829 62.829 0 0 0 3.15-2.691 10.718 10.718 0 0 0 1.635-1.856c.442-.647.664-1.277.664-1.89 0-.465-.108-.829-.324-1.09-.216-.261-.539-.391-.971-.391-.431 0-.771.164-1.021.493-.239.318-.358.772-.358 1.363h-2.809c.022-.965.227-1.771.613-2.418.397-.647.913-1.124 1.549-1.431a4.955 4.955 0 0 1 2.146-.459c1.351 0 2.367.346 3.048 1.038.692.693 1.038 1.595 1.038 2.708 0 1.214-.414 2.344-1.243 3.388-.828 1.033-1.884 2.044-3.167 3.031h4.598v2.367h-8.548v-2.162zm18.361-6.743c-.091-.42-.25-.733-.477-.937-.227-.216-.55-.324-.97-.324-.648 0-1.113.284-1.397.852-.284.556-.431 1.442-.443 2.656.25-.397.608-.709 1.073-.936a3.599 3.599 0 0 1 1.567-.341c1.112 0 2.003.352 2.673 1.056.681.704 1.022 1.686 1.022 2.946 0 .828-.17 1.555-.511 2.179a3.5 3.5 0 0 1-1.464 1.465c-.636.352-1.391.528-2.265.528-1.748 0-2.963-.545-3.644-1.635-.681-1.101-1.022-2.679-1.022-4.734 0-2.157.358-3.757 1.073-4.802.727-1.056 1.884-1.583 3.474-1.583.851 0 1.566.17 2.145.51.591.33 1.033.767 1.328 1.312.307.544.489 1.14.545 1.788h-2.707zm-1.345 3.269c-.488 0-.897.148-1.226.443-.318.283-.477.692-.477 1.226 0 .545.147.97.443 1.277.306.306.737.46 1.294.46.499 0 .891-.148 1.175-.443.295-.307.442-.721.442-1.243 0-.534-.141-.954-.425-1.26-.284-.307-.693-.46-1.226-.46zm17.347 1.158h-2.963v3.031h-2.759v-3.031h-2.963v-2.605h2.963V311.8h2.759v3.048h2.963v2.605zm6.197-2.026c-1.067-.568-1.601-1.459-1.601-2.674 0-.613.159-1.169.477-1.669.318-.511.8-.914 1.447-1.209.647-.306 1.442-.459 2.384-.459s1.731.153 2.367.459c.647.295 1.13.698 1.447 1.209.318.5.477 1.056.477 1.669s-.147 1.147-.443 1.601a3.015 3.015 0 0 1-1.157 1.073c.613.295 1.084.703 1.413 1.226.329.51.494 1.112.494 1.805 0 .806-.205 1.504-.613 2.094-.409.579-.965 1.022-1.669 1.328-.693.307-1.464.46-2.316.46-.851 0-1.629-.153-2.333-.46a3.902 3.902 0 0 1-1.651-1.328c-.409-.59-.613-1.288-.613-2.094 0-.704.164-1.312.493-1.822.33-.523.795-.926 1.397-1.209zm4.172-2.231c0-.466-.137-.823-.409-1.073-.261-.261-.613-.392-1.056-.392-.443 0-.8.131-1.073.392-.261.261-.391.624-.391 1.09 0 .443.136.795.408 1.056.273.249.625.374 1.056.374.432 0 .783-.13 1.056-.391.272-.262.409-.613.409-1.056zm-1.465 3.491c-.533 0-.965.147-1.294.442-.329.284-.494.681-.494 1.192 0 .477.159.869.477 1.175.329.307.766.46 1.311.46.545 0 .971-.153 1.277-.46.318-.306.477-.698.477-1.175 0-.499-.165-.897-.494-1.192-.318-.295-.738-.442-1.26-.442zm8.368-4.309v-2.707h4.717v12.431h-3.031v-9.724h-1.686zm9.093 3.338c0-1.953.375-3.491 1.124-4.615.761-1.123 1.981-1.685 3.661-1.685s2.895.562 3.644 1.685c.761 1.124 1.141 2.662 1.141 4.615 0 1.975-.38 3.525-1.141 4.649-.749 1.124-1.964 1.685-3.644 1.685-1.68 0-2.9-.561-3.661-1.685-.749-1.124-1.124-2.674-1.124-4.649zm6.709 0c0-1.147-.125-2.026-.374-2.639-.25-.625-.767-.937-1.55-.937s-1.3.312-1.55.937c-.249.613-.374 1.492-.374 2.639 0 .772.045 1.413.136 1.924.091.5.272.908.545 1.226.284.307.698.46 1.243.46.545 0 .954-.153 1.226-.46.284-.318.471-.726.562-1.226.091-.511.136-1.152.136-1.924z" fill="#272B35"/><path d="M286.691 296.006c.392.083.707.28.945.588.238.303.357.65.357 1.042 0 .567-.199 1.017-.598 1.351-.392.328-.942.492-1.65.492h-3.155v-6.773h3.049c.688 0 1.225.157 1.611.473.393.315.589.742.589 1.283 0 .399-.106.73-.318.994a1.603 1.603 0 0 1-.83.55zm-2.451-.56h1.081c.27 0 .476-.058.617-.174.148-.122.222-.299.222-.53 0-.232-.074-.409-.222-.531-.141-.122-.347-.183-.617-.183h-1.081v1.418zm1.216 2.702c.276 0 .489-.061.636-.183.155-.129.232-.312.232-.55 0-.238-.08-.425-.241-.56-.155-.135-.37-.203-.647-.203h-1.196v1.496h1.216zm6.109-5.442v6.773h-1.65v-6.773h1.65zm-.829-.618a.678.678 0 0 1-.502-.203.68.68 0 0 1-.203-.501c0-.2.068-.367.203-.502a.663.663 0 0 1 .502-.212.693.693 0 0 1 .714.714.664.664 0 0 1-.213.501.677.677 0 0 1-.501.203zm7.863.618v1.322h-1.795v5.451h-1.65v-5.451h-1.795v-1.322h5.24zm3.443 0v6.773h-1.65v-6.773h1.65zm-.83-.618a.68.68 0 0 1-.502-.203.68.68 0 0 1-.202-.501c0-.2.067-.367.202-.502a.665.665 0 0 1 .502-.212c.206 0 .376.067.512.202a.694.694 0 0 1 .202.512.666.666 0 0 1-.212.501.678.678 0 0 1-.502.203zm7.912 5.375c0 .521-.177.971-.531 1.351-.347.379-.83.614-1.447.704v.386c.334 0 .627.09.878.27.251.187.376.463.376.83 0 .367-.132.643-.395.83a1.558 1.558 0 0 1-.946.289h-1.486v-.907h1.264a.566.566 0 0 0 .289-.058c.065-.038.097-.102.097-.193 0-.09-.032-.154-.097-.193a.67.67 0 0 0-.289-.048h-.685v-1.206c-.624-.077-1.132-.293-1.525-.646-.392-.361-.598-.833-.617-1.419h1.756c.026.251.112.444.26.579.148.129.341.193.579.193.245 0 .438-.055.579-.164a.577.577 0 0 0 .213-.473.547.547 0 0 0-.174-.415 1.297 1.297 0 0 0-.415-.27 6.19 6.19 0 0 0-.695-.241 7.659 7.659 0 0 1-1.071-.405 1.988 1.988 0 0 1-.714-.599c-.199-.263-.299-.608-.299-1.032 0-.631.228-1.123.685-1.476.457-.361 1.052-.541 1.785-.541.746 0 1.348.18 1.805.541.456.353.701.849.733 1.486h-1.785a.683.683 0 0 0-.241-.512.836.836 0 0 0-.57-.193.697.697 0 0 0-.482.164c-.122.103-.183.254-.183.454 0 .218.102.389.308.511.206.122.528.254.965.396.438.148.791.289 1.062.424.276.135.514.332.714.589.199.257.299.589.299.994zm8.917 2.016-2.277-2.991v2.991h-1.65v-6.773h1.65v2.972l2.258-2.972h1.939l-2.624 3.319 2.721 3.454h-2.017zm11.437-6.773v6.773h-1.65v-4.062l-1.515 4.062h-1.331l-1.525-4.072v4.072h-1.65v-6.773h1.949l1.901 4.689 1.882-4.689h1.939z" fill="#737373"/><path d="M282.451 261.294v-2.708h4.717v12.431h-3.031v-9.723h-1.686zm9.161 7.509v-2.35l5.381-7.697h3.252v7.527h1.397v2.52h-1.397v2.214h-2.911v-2.214h-5.722zm5.926-6.845-2.861 4.325h2.861v-4.325zm16.837 4.41h-2.963v3.031h-2.759v-3.031h-2.963v-2.605h2.963v-3.048h2.759v3.048h2.963v2.605zm6.197-2.026c-1.067-.568-1.601-1.459-1.601-2.674 0-.613.159-1.169.477-1.669.318-.51.8-.913 1.447-1.209.647-.306 1.442-.459 2.384-.459s1.731.153 2.367.459c.647.296 1.13.699 1.447 1.209.318.5.477 1.056.477 1.669s-.147 1.147-.442 1.601c-.284.454-.67.811-1.158 1.073.613.295 1.084.703 1.413 1.226.329.51.494 1.112.494 1.805 0 .806-.205 1.504-.613 2.094-.409.579-.965 1.022-1.669 1.328-.692.307-1.464.46-2.316.46-.851 0-1.629-.153-2.333-.46a3.902 3.902 0 0 1-1.651-1.328c-.409-.59-.613-1.288-.613-2.094 0-.704.164-1.312.493-1.822.33-.523.795-.926 1.397-1.209zm4.172-2.231c0-.466-.137-.823-.409-1.073-.261-.261-.613-.392-1.056-.392-.443 0-.8.131-1.073.392-.261.261-.391.624-.391 1.09 0 .443.136.795.408 1.056.273.249.625.374 1.056.374.432 0 .783-.13 1.056-.391.272-.261.409-.613.409-1.056zm-1.465 3.491c-.533 0-.965.147-1.294.442-.329.284-.494.682-.494 1.192 0 .477.159.869.477 1.175.329.307.766.46 1.311.46.545 0 .971-.153 1.277-.46.318-.306.477-.698.477-1.175 0-.499-.165-.896-.494-1.192-.318-.295-.738-.442-1.26-.442zm8.368-4.308v-2.708h4.717v12.431h-3.031v-9.723h-1.686zm9.093 3.337c0-1.953.375-3.491 1.124-4.615.761-1.123 1.981-1.685 3.661-1.685s2.895.562 3.644 1.685c.761 1.124 1.141 2.662 1.141 4.615 0 1.975-.38 3.525-1.141 4.649-.749 1.124-1.964 1.686-3.644 1.686-1.68 0-2.9-.562-3.661-1.686-.749-1.124-1.124-2.674-1.124-4.649zm6.709 0c0-1.147-.125-2.026-.374-2.639-.25-.625-.767-.937-1.55-.937s-1.3.312-1.55.937c-.249.613-.374 1.492-.374 2.639 0 .772.045 1.413.136 1.924.091.5.272.908.545 1.226.284.307.698.46 1.243.46.545 0 .954-.153 1.226-.46.284-.318.471-.726.562-1.226.091-.511.136-1.152.136-1.924z" fill="#272B35"/><path d="M286.691 244.921c.392.083.707.28.945.588.238.303.357.65.357 1.043 0 .566-.199 1.016-.598 1.35-.392.328-.942.493-1.65.493h-3.155v-6.774h3.049c.688 0 1.225.157 1.611.473.393.315.589.743.589 1.283 0 .399-.106.73-.318.994a1.597 1.597 0 0 1-.83.55zm-2.451-.56h1.081c.27 0 .476-.058.617-.174.148-.122.222-.299.222-.53 0-.232-.074-.409-.222-.531-.141-.122-.347-.183-.617-.183h-1.081v1.418zm1.216 2.702c.276 0 .489-.061.637-.183.154-.129.231-.312.231-.55 0-.238-.08-.425-.241-.56-.155-.135-.37-.203-.647-.203h-1.196v1.496h1.216zm8.676.135h-2.528l-.405 1.197h-1.727l2.45-6.774h1.911l2.451 6.774h-1.747l-.405-1.197zm-.424-1.274-.84-2.48-.83 2.48h1.67zm9.208.454c0 .521-.177.971-.531 1.351-.347.379-.83.614-1.447.704v.386c.334 0 .627.09.878.27.251.187.376.463.376.83 0 .367-.132.643-.395.83a1.558 1.558 0 0 1-.946.289h-1.486v-.907h1.264a.585.585 0 0 0 .29-.057c.064-.039.096-.103.096-.193 0-.091-.032-.155-.096-.193a.661.661 0 0 0-.29-.049h-.685v-1.206c-.624-.077-1.132-.293-1.525-.646-.392-.361-.598-.833-.617-1.419h1.756c.026.251.113.444.261.579.147.129.34.193.578.193.245 0 .438-.055.579-.164a.577.577 0 0 0 .213-.473.547.547 0 0 0-.174-.415 1.297 1.297 0 0 0-.415-.27 6.19 6.19 0 0 0-.695-.241 7.659 7.659 0 0 1-1.071-.405 1.988 1.988 0 0 1-.714-.599c-.199-.263-.299-.607-.299-1.032 0-.63.228-1.123.685-1.476.457-.361 1.052-.541 1.785-.541.747 0 1.348.18 1.805.541.456.353.701.849.733 1.486h-1.785a.683.683 0 0 0-.241-.512.84.84 0 0 0-.57-.193.697.697 0 0 0-.482.164c-.122.103-.183.254-.183.454 0 .218.103.389.308.511.206.122.528.254.965.396.438.148.792.289 1.062.424.276.135.514.332.714.589.199.257.299.589.299.994zm3.63.743h2.162v1.274h-3.812v-6.774h1.65v5.5zm8.13.077h-2.528l-.405 1.197h-1.727l2.451-6.774h1.91l2.451 6.774h-1.746l-.406-1.197zm-.424-1.274-.84-2.48-.829 2.48h1.669zm10.347 2.471h-1.65l-2.76-4.179v4.179h-1.65v-6.774h1.65l2.76 4.197v-4.197h1.65v6.774zm6.657-4.632a1.203 1.203 0 0 0-.53-.512 1.657 1.657 0 0 0-.801-.183c-.534 0-.962.177-1.284.531-.321.347-.482.814-.482 1.399 0 .624.167 1.113.502 1.467.341.347.807.521 1.399.521.405 0 .746-.103 1.023-.309.283-.206.489-.502.617-.888h-2.094v-1.216h3.59v1.535a3.2 3.2 0 0 1-.627 1.148c-.29.354-.66.64-1.11.859-.45.218-.958.328-1.525.328-.669 0-1.267-.145-1.794-.434a3.209 3.209 0 0 1-1.226-1.226c-.289-.521-.434-1.116-.434-1.785 0-.669.145-1.264.434-1.785a3.122 3.122 0 0 1 1.226-1.226c.521-.296 1.116-.443 1.785-.443.81 0 1.492.196 2.045.588.56.393.93.936 1.11 1.631h-1.824zm5.469-2.142v6.774h-1.65v-6.774h1.65zm5.268 5.326c.315 0 .595-.074.839-.222.251-.148.444-.363.579-.646h1.814c-.174.649-.498 1.18-.974 1.592-.47.405-1.043.653-1.718.743v.376c.335 0 .627.09.878.27.251.187.376.463.376.83 0 .367-.131.643-.395.83a1.558 1.558 0 0 1-.946.289h-1.486v-.907h1.264a.585.585 0 0 0 .29-.057c.064-.039.096-.103.096-.193 0-.09-.032-.155-.096-.193a.661.661 0 0 0-.29-.049h-.685v-1.196a3.333 3.333 0 0 1-1.534-.55 3.14 3.14 0 0 1-1.033-1.206 3.709 3.709 0 0 1-.366-1.66c0-.669.144-1.264.434-1.785a3.067 3.067 0 0 1 1.206-1.226c.521-.296 1.11-.443 1.766-.443.804 0 1.492.212 2.065.636.572.425.955 1.004 1.148 1.737h-1.814a1.454 1.454 0 0 0-.579-.646 1.586 1.586 0 0 0-.839-.222c-.509 0-.92.177-1.235.531-.316.353-.473.826-.473 1.418s.157 1.065.473 1.418c.315.354.726.531 1.235.531zm12.145 1.448-2.278-2.992v2.992h-1.65v-6.774h1.65v2.972l2.258-2.972h1.94l-2.625 3.319 2.721 3.455h-2.016zm11.437-6.774v6.774h-1.65v-4.063l-1.515 4.063h-1.332l-1.525-4.072v4.072h-1.65v-6.774h1.949l1.901 4.689 1.882-4.689h1.94z" fill="#737373"/><path d="M282.86 364.263c.045-1.215.443-2.151 1.192-2.81.749-.658 1.765-.987 3.048-.987.851 0 1.578.147 2.18.442.613.295 1.072.698 1.379 1.209.318.511.477 1.084.477 1.72 0 .749-.188 1.362-.562 1.839-.375.466-.812.783-1.311.954v.068c.647.216 1.158.573 1.532 1.073.375.499.562 1.14.562 1.924 0 .704-.165 1.328-.494 1.873-.318.533-.789.953-1.413 1.26-.613.306-1.345.46-2.197.46-1.362 0-2.452-.335-3.269-1.005-.806-.67-1.232-1.68-1.277-3.031h2.826c.012.5.154.897.426 1.192.273.284.67.426 1.192.426.443 0 .783-.125 1.022-.375.25-.261.374-.602.374-1.022 0-.544-.176-.936-.527-1.175-.341-.249-.892-.374-1.652-.374h-.545v-2.367h.545c.579 0 1.044-.097 1.396-.29.363-.204.545-.561.545-1.072 0-.409-.113-.727-.341-.954-.227-.227-.539-.34-.936-.34-.431 0-.755.13-.971.391-.204.261-.323.585-.357.971h-2.844zm14.635 2.248c-1.067-.568-1.6-1.459-1.6-2.674 0-.613.158-1.169.476-1.669.318-.511.801-.914 1.448-1.209.647-.306 1.441-.459 2.384-.459.942 0 1.731.153 2.367.459.647.295 1.129.698 1.447 1.209.318.5.477 1.056.477 1.669s-.148 1.147-.443 1.601c-.284.454-.67.811-1.158 1.073.613.295 1.084.703 1.413 1.226.33.51.494 1.112.494 1.805 0 .806-.204 1.504-.613 2.094-.408.579-.965 1.022-1.668 1.328-.693.307-1.465.46-2.316.46-.852 0-1.629-.153-2.333-.46a3.905 3.905 0 0 1-1.652-1.328c-.409-.59-.613-1.288-.613-2.094 0-.704.165-1.312.494-1.822.329-.523.795-.926 1.396-1.209zm4.172-2.231c0-.466-.136-.823-.409-1.073-.261-.261-.613-.392-1.055-.392-.443 0-.801.131-1.073.392-.261.261-.392.624-.392 1.09 0 .443.136.794.409 1.056.272.249.624.374 1.056.374.431 0 .783-.13 1.055-.391.273-.262.409-.613.409-1.056zm-1.464 3.491c-.534 0-.965.147-1.294.442-.33.284-.494.681-.494 1.192 0 .477.159.869.477 1.175.329.307.766.46 1.311.46.545 0 .97-.153 1.277-.46.318-.306.477-.698.477-1.175 0-.499-.165-.897-.494-1.192-.318-.295-.738-.442-1.26-.442zm10.326 5.551c-.511 0-.931-.148-1.26-.443a1.5 1.5 0 0 1-.477-1.124c0-.454.159-.834.477-1.141.329-.306.749-.459 1.26-.459.5 0 .908.153 1.226.459.329.307.494.687.494 1.141 0 .443-.165.818-.494 1.124-.318.295-.726.443-1.226.443zm5.606-2.35v-2.35l5.381-7.697h3.253v7.527h1.396v2.52h-1.396v2.214h-2.912v-2.214h-5.722zm5.926-6.845-2.861 4.325h2.861v-4.325zm7.914 2.673c0-1.953.375-3.491 1.124-4.615.761-1.124 1.981-1.685 3.661-1.685s2.895.561 3.644 1.685c.761 1.124 1.141 2.662 1.141 4.615 0 1.975-.38 3.525-1.141 4.649-.749 1.124-1.964 1.685-3.644 1.685-1.68 0-2.9-.561-3.661-1.685-.749-1.124-1.124-2.674-1.124-4.649zm6.709 0c0-1.147-.125-2.026-.374-2.639-.25-.625-.767-.937-1.55-.937s-1.3.312-1.55.937c-.249.613-.374 1.492-.374 2.639 0 .772.045 1.413.136 1.924.091.5.273.908.545 1.226.284.307.698.46 1.243.46.545 0 .954-.153 1.226-.46.284-.318.471-.726.562-1.226.091-.511.136-1.152.136-1.924zm6.783 0c0-1.953.375-3.491 1.124-4.615.761-1.124 1.981-1.685 3.661-1.685s2.895.561 3.644 1.685c.761 1.124 1.141 2.662 1.141 4.615 0 1.975-.38 3.525-1.141 4.649-.749 1.124-1.964 1.685-3.644 1.685-1.68 0-2.9-.561-3.661-1.685-.749-1.124-1.124-2.674-1.124-4.649zm6.709 0c0-1.147-.125-2.026-.374-2.639-.25-.625-.767-.937-1.55-.937s-1.3.312-1.549.937c-.25.613-.375 1.492-.375 2.639 0 .772.045 1.413.136 1.924.091.5.273.908.545 1.226.284.307.698.46 1.243.46.545 0 .954-.153 1.226-.46.284-.318.471-.726.562-1.226.091-.511.136-1.152.136-1.924zm18.361 3.916v2.47h-1.481c-1.056 0-1.879-.256-2.469-.767-.591-.522-.886-1.368-.886-2.537v-3.78h-1.158v-2.418h1.158v-2.316h2.912v2.316h1.907v2.418h-1.907v3.814c0 .284.068.488.204.613.136.125.364.187.681.187h1.039zm8.331 2.606c-.931 0-1.771-.199-2.52-.596a4.438 4.438 0 0 1-1.754-1.703c-.42-.738-.63-1.601-.63-2.588 0-.977.216-1.834.647-2.572a4.372 4.372 0 0 1 1.771-1.719c.749-.398 1.589-.596 2.52-.596s1.771.198 2.52.596c.75.397 1.34.97 1.771 1.719.432.738.647 1.595.647 2.572 0 .976-.221 1.839-.664 2.588a4.378 4.378 0 0 1-1.788 1.703c-.749.397-1.589.596-2.52.596zm0-2.52a1.87 1.87 0 0 0 1.413-.613c.398-.409.596-.994.596-1.754 0-.761-.193-1.346-.578-1.754a1.818 1.818 0 0 0-1.397-.613c-.567 0-1.039.204-1.413.613-.375.397-.562.982-.562 1.754 0 .76.182 1.345.545 1.754.374.408.84.613 1.396.613zm14.691-7.22c1.112 0 1.998.363 2.656 1.089.67.716 1.005 1.703 1.005 2.963v5.552h-2.895v-5.16c0-.636-.165-1.13-.494-1.481-.329-.352-.772-.528-1.328-.528s-.999.176-1.328.528c-.329.351-.494.845-.494 1.481v5.16h-2.912v-9.502h2.912v1.26c.295-.42.692-.749 1.192-.988a3.724 3.724 0 0 1 1.686-.374z" fill="#272B35"/><path d="M290.261 343.79v6.773h-1.65v-4.062l-1.515 4.062h-1.332l-1.524-4.072v4.072h-1.65v-6.773h1.949l1.901 4.689 1.882-4.689h1.939zm3.802 0v6.773h-1.65v-6.773h1.65zm-.83-.618a.678.678 0 0 1-.502-.203.68.68 0 0 1-.203-.501c0-.2.068-.367.203-.502a.663.663 0 0 1 .502-.212.692.692 0 0 1 .714.714.664.664 0 0 1-.213.501.677.677 0 0 1-.501.203zm6.917 7.391-2.277-2.991v2.991h-1.65v-6.773h1.65v2.972l2.258-2.972h1.94l-2.625 3.319 2.721 3.454h-2.017zm8.639-6.773v1.322h-1.795v5.451h-1.65v-5.451h-1.794v-1.322h5.239zm6.01 5.577h-2.528l-.405 1.196h-1.728l2.451-6.773h1.911l2.451 6.773h-1.747l-.405-1.196zm-.425-1.274-.839-2.48-.83 2.48h1.669zm7.742 2.47-1.409-2.557h-.395v2.557h-1.65v-6.773h2.769c.534 0 .987.093 1.361.28.379.186.662.443.849.771.186.322.279.682.279 1.081 0 .45-.128.853-.385 1.206-.251.354-.624.605-1.12.753l1.563 2.682h-1.862zm-1.804-3.724h1.022c.303 0 .528-.074.676-.222.154-.148.232-.357.232-.627 0-.258-.078-.46-.232-.608-.148-.148-.373-.222-.676-.222h-1.022v1.679z" fill="#737373"/><path d="M289.873 159.918h-1.508a1.87 1.87 0 0 0-.238-.657 1.774 1.774 0 0 0-.431-.492 1.796 1.796 0 0 0-.589-.302 2.289 2.289 0 0 0-.705-.105c-.449 0-.847.113-1.193.339-.347.223-.619.551-.815.983-.196.43-.294.956-.294 1.577 0 .631.098 1.163.294 1.596.199.43.471.755.815.976.346.217.743.326 1.189.326.247 0 .478-.032.693-.097.218-.067.413-.165.585-.294a1.799 1.799 0 0 0 .689-1.121l1.508.008a3.26 3.26 0 0 1-.367 1.105 3.262 3.262 0 0 1-.73.911 3.364 3.364 0 0 1-1.056.613 3.943 3.943 0 0 1-1.342.218c-.726 0-1.374-.168-1.943-.504-.57-.336-1.019-.821-1.347-1.456-.328-.634-.492-1.394-.492-2.281 0-.89.166-1.651.496-2.282.331-.634.781-1.119 1.351-1.455.569-.336 1.214-.504 1.935-.504.459 0 .887.064 1.282.193s.747.319 1.056.569c.309.247.563.551.762.911.201.357.333.766.395 1.225zm4.954 5.592c-.62 0-1.157-.129-1.608-.387a2.622 2.622 0 0 1-1.036-1.105c-.242-.478-.363-1.041-.363-1.689 0-.637.121-1.196.363-1.677.244-.484.586-.86 1.024-1.129.438-.271.952-.407 1.544-.407.381 0 .741.062 1.08.185.341.121.642.309.903.565.264.255.47.58.621.975.15.393.226.86.226 1.403v.448h-5.076v-.984h3.677a1.568 1.568 0 0 0-.182-.746 1.324 1.324 0 0 0-.495-.52 1.4 1.4 0 0 0-.734-.189c-.298 0-.56.072-.786.217a1.5 1.5 0 0 0-.528.565 1.623 1.623 0 0 0-.19.762v.858c0 .361.066.67.198.928.131.255.316.451.552.588.237.135.513.202.83.202.213 0 .405-.03.577-.089a1.28 1.28 0 0 0 .447-.27c.127-.118.222-.265.287-.439l1.362.153c-.086.36-.25.674-.492.943a2.396 2.396 0 0 1-.919.621 3.522 3.522 0 0 1-1.282.218zm10.25-6.313-2.205 6.192h-1.613l-2.205-6.192h1.556l1.423 4.599h.065l1.427-4.599h1.552zm1.918 6.192v-6.192h1.459v6.192h-1.459zm.734-7.071a.854.854 0 0 1-.597-.23.74.74 0 0 1-.25-.56c0-.221.083-.408.25-.561a.845.845 0 0 1 .597-.234c.234 0 .432.078.596.234.167.153.25.34.25.561a.74.74 0 0 1-.25.56.841.841 0 0 1-.596.23zm3.054 7.071v-.928l3.192-4.003v-.052h-3.088v-1.209h4.874v.995l-3.039 3.935v.052h3.144v1.21h-5.083zm8.822-8.256v8.256h-1.459v-8.256h1.459zm2.409 8.256v-6.192h1.459v6.192h-1.459zm.734-7.071a.854.854 0 0 1-.597-.23.74.74 0 0 1-.25-.56c0-.221.083-.408.25-.561a.845.845 0 0 1 .597-.234c.233 0 .432.078.596.234.167.153.25.34.25.561a.74.74 0 0 1-.25.56.843.843 0 0 1-.596.23zm6.358-1.185h1.689l2.02 3.652h.081l2.019-3.652h1.689l-3.003 5.176v3.08h-1.491v-3.08l-3.004-5.176zm10.949 8.377c-.604 0-1.128-.133-1.572-.399a2.725 2.725 0 0 1-1.032-1.117c-.242-.479-.363-1.038-.363-1.677 0-.64.121-1.2.363-1.681a2.711 2.711 0 0 1 1.032-1.121c.444-.266.968-.399 1.572-.399.605 0 1.129.133 1.573.399.443.266.786.64 1.028 1.121.244.481.366 1.041.366 1.681 0 .639-.122 1.198-.366 1.677-.242.478-.585.85-1.028 1.117-.444.266-.968.399-1.573.399zm.008-1.169c.328 0 .602-.09.823-.271.22-.182.384-.427.492-.733.11-.307.165-.648.165-1.024 0-.379-.055-.722-.165-1.028a1.637 1.637 0 0 0-.492-.738c-.221-.183-.495-.274-.823-.274-.336 0-.615.091-.838.274a1.66 1.66 0 0 0-.496.738 3.102 3.102 0 0 0-.161 1.028c0 .376.054.717.161 1.024.11.306.276.551.496.733.223.181.502.271.838.271zm-1.213-6.055a.771.771 0 0 1-.552-.226.724.724 0 0 1-.23-.532c0-.215.077-.395.23-.541a.779.779 0 0 1 .552-.221c.218 0 .4.074.548.221a.722.722 0 0 1 .226.541.727.727 0 0 1-.226.532.74.74 0 0 1-.548.226zm2.419 0a.772.772 0 0 1-.553-.226.723.723 0 0 1-.229-.532c0-.215.076-.395.229-.541a.78.78 0 0 1 .553-.221c.217 0 .4.074.548.221a.722.722 0 0 1 .226.541.727.727 0 0 1-.226.532.74.74 0 0 1-.548.226zm5.359 3.475v3.628h-1.459v-6.192h1.395v1.052h.073c.142-.347.369-.622.681-.827.314-.204.703-.306 1.165-.306.427 0 .799.091 1.117.274.319.183.567.448.741.794.178.347.265.768.262 1.262v3.943h-1.459v-3.717c0-.414-.108-.738-.323-.972-.212-.234-.506-.35-.882-.35-.256 0-.483.056-.682.169-.196.11-.35.27-.463.48-.11.209-.166.463-.166.762zm10.314 1.023v-3.587h1.459v6.192h-1.415v-1.101h-.065c-.139.347-.369.63-.689.851-.317.22-.708.33-1.173.33a2.11 2.11 0 0 1-1.076-.27 1.88 1.88 0 0 1-.726-.794c-.175-.349-.262-.771-.262-1.266v-3.942h1.459v3.716c0 .393.108.705.323.936.215.231.497.346.846.346.215 0 .424-.052.625-.157.202-.105.367-.261.496-.467.132-.21.198-.472.198-.787zm-2.443-4.498a.772.772 0 0 1-.553-.226.723.723 0 0 1-.229-.532c0-.215.076-.395.229-.541a.78.78 0 0 1 .553-.221c.217 0 .4.074.548.221.15.146.226.326.226.541a.731.731 0 0 1-.226.532.74.74 0 0 1-.548.226zm2.418 0a.771.771 0 0 1-.552-.226.724.724 0 0 1-.23-.532c0-.215.077-.395.23-.541a.779.779 0 0 1 .552-.221c.218 0 .401.074.549.221.15.146.225.326.225.541a.73.73 0 0 1-.225.532.741.741 0 0 1-.549.226z" fill="#E56630"/><path d="M286.274 188.281h-3.87l4.361-13.209h4.902l4.36 13.209h-3.87l-2.89-9.572h-.103l-2.89 9.572zm-.722-5.211h7.276v2.683h-7.276v-2.683zm16.812-7.998v13.209h-3.56v-13.209h3.56zm9.176 3.302v2.58h-6.528v-2.58h6.528zM306.276 176h3.561v9.095c0 .138.024.254.071.348.047.091.12.159.219.207a.964.964 0 0 0 .381.064c.107 0 .232-.013.374-.039.146-.025.254-.047.322-.064l.516 2.503a12.96 12.96 0 0 1-.683.174 5.965 5.965 0 0 1-1.045.135c-.817.043-1.503-.041-2.058-.251-.555-.215-.972-.553-1.251-1.013-.28-.46-.415-1.036-.407-1.729V176zm14.078 2.374v2.58h-6.528v-2.58h6.528zM315.091 176h3.56v9.095c0 .138.024.254.071.348.047.091.12.159.219.207a.964.964 0 0 0 .381.064c.107 0 .232-.013.374-.039.146-.025.254-.047.323-.064l.516 2.503c-.16.047-.387.105-.684.174a5.965 5.965 0 0 1-1.045.135c-.817.043-1.503-.041-2.058-.251-.554-.215-.971-.553-1.251-1.013-.279-.46-.415-1.036-.406-1.729V176zm12.81 12.462c-1.058 0-1.97-.202-2.735-.606a4.255 4.255 0 0 1-1.761-1.755c-.409-.765-.613-1.681-.613-2.748 0-1.023.207-1.917.619-2.683a4.426 4.426 0 0 1 1.748-1.786c.753-.426 1.641-.639 2.664-.639.748 0 1.426.116 2.032.348.606.232 1.125.57 1.555 1.013.43.439.761.972.993 1.6.232.627.348 1.335.348 2.122v.825h-8.849v-1.961h5.572a1.364 1.364 0 0 0-.219-.748 1.387 1.387 0 0 0-.561-.509 1.647 1.647 0 0 0-.793-.187 1.7 1.7 0 0 0-.794.187c-.24.12-.434.288-.58.503a1.419 1.419 0 0 0-.226.754v2.116c0 .318.067.602.2.851.133.25.325.445.574.587.249.142.55.213.903.213.245 0 .469-.034.671-.103.206-.069.383-.168.529-.297.146-.133.253-.292.322-.477h3.251a3.703 3.703 0 0 1-.793 1.793c-.417.503-.97.895-1.658 1.174-.684.275-1.483.413-2.399.413zm7.756-.181v-9.907h3.38v1.883h.103a2.892 2.892 0 0 1 1.058-1.47c.499-.361 1.092-.542 1.78-.542.697 0 1.297.185 1.8.555.503.365.806.851.909 1.457h.103c.168-.606.525-1.092 1.071-1.457.546-.37 1.187-.555 1.922-.555.951 0 1.72.305 2.309.916.594.61.89 1.423.89 2.438v6.682h-3.56v-5.779c0-.434-.11-.774-.329-1.019-.219-.25-.514-.374-.884-.374-.365 0-.655.124-.87.374-.211.245-.316.585-.316 1.019v5.779h-3.406v-5.779c0-.434-.11-.774-.329-1.019-.219-.25-.514-.374-.884-.374-.245 0-.455.056-.632.167a1.126 1.126 0 0 0-.413.484 1.783 1.783 0 0 0-.141.742v5.779h-3.561zm23.282.181c-1.058 0-1.97-.202-2.735-.606a4.255 4.255 0 0 1-1.761-1.755c-.408-.765-.613-1.681-.613-2.748 0-1.023.207-1.917.62-2.683a4.417 4.417 0 0 1 1.747-1.786c.753-.426 1.641-.639 2.664-.639.749 0 1.426.116 2.032.348.606.232 1.125.57 1.555 1.013.43.439.761.972.993 1.6.232.627.348 1.335.348 2.122v.825h-8.849v-1.961h5.573a1.373 1.373 0 0 0-.22-.748 1.387 1.387 0 0 0-.561-.509 1.647 1.647 0 0 0-.793-.187 1.7 1.7 0 0 0-.794.187c-.24.12-.434.288-.58.503a1.419 1.419 0 0 0-.226.754v2.116c0 .318.067.602.2.851.133.25.325.445.574.587.25.142.551.213.903.213.245 0 .469-.034.671-.103.206-.069.383-.168.529-.297.146-.133.254-.292.322-.477h3.251a3.703 3.703 0 0 1-.793 1.793c-.417.503-.97.895-1.658 1.174-.684.275-1.483.413-2.399.413zm11.317-13.39v13.209h-3.561v-13.209h3.561zm15.408 4.128c-.035-.43-.196-.766-.484-1.007-.284-.24-.716-.361-1.297-.361-.369 0-.673.045-.909.136-.232.086-.404.204-.516.354a.876.876 0 0 0-.174.516.842.842 0 0 0 .084.433c.068.124.176.238.322.341.146.099.333.19.561.271.228.082.499.155.813.22l1.084.232c.731.155 1.356.359 1.877.613.52.253.946.552 1.277.896.331.34.574.722.729 1.148.159.426.24.89.245 1.393-.005.869-.222 1.604-.652 2.206-.43.602-1.045 1.06-1.845 1.374-.795.314-1.752.471-2.87.471-1.148 0-2.15-.17-3.006-.51-.851-.339-1.513-.862-1.986-1.567-.469-.709-.705-1.617-.71-2.722h3.406c.021.404.122.744.303 1.019.181.276.434.484.761.626.331.142.725.213 1.181.213.382 0 .703-.047.961-.142.258-.095.453-.226.587-.394a.927.927 0 0 0 .206-.574.81.81 0 0 0-.2-.528c-.125-.155-.331-.293-.619-.413-.288-.125-.677-.241-1.168-.349l-1.315-.283c-1.17-.254-2.092-.678-2.768-1.271-.67-.598-1.004-1.413-.999-2.445-.005-.838.219-1.571.671-2.199.455-.632 1.085-1.125 1.889-1.477.809-.353 1.735-.529 2.78-.529 1.067 0 1.989.178 2.767.535.779.357 1.379.86 1.8 1.51.426.645.641 1.399.645 2.264h-3.431zm11.228 9.262c-1.058 0-1.97-.202-2.735-.606a4.255 4.255 0 0 1-1.761-1.755c-.408-.765-.613-1.681-.613-2.748 0-1.023.207-1.917.619-2.683a4.426 4.426 0 0 1 1.748-1.786c.753-.426 1.641-.639 2.664-.639.749 0 1.426.116 2.032.348.606.232 1.125.57 1.555 1.013.43.439.761.972.993 1.6.232.627.348 1.335.348 2.122v.825h-8.849v-1.961h5.573a1.373 1.373 0 0 0-.22-.748 1.387 1.387 0 0 0-.561-.509 1.647 1.647 0 0 0-.793-.187 1.7 1.7 0 0 0-.794.187c-.24.12-.434.288-.58.503a1.419 1.419 0 0 0-.226.754v2.116c0 .318.067.602.2.851.133.25.325.445.574.587.25.142.551.213.903.213.245 0 .469-.034.671-.103.206-.069.383-.168.529-.297.146-.133.254-.292.322-.477h3.251a3.703 3.703 0 0 1-.793 1.793c-.417.503-.97.895-1.658 1.174-.684.275-1.483.413-2.399.413zm7.756-.181v-9.907h3.457v1.883h.104c.18-.696.466-1.206.857-1.528a2.128 2.128 0 0 1 1.387-.484c.155 0 .308.013.458.039.155.021.303.053.445.096v3.038a3.188 3.188 0 0 0-.651-.135 5.885 5.885 0 0 0-.665-.045c-.348 0-.662.079-.941.238a1.684 1.684 0 0 0-.652.658c-.159.28-.238.609-.238.987v5.16h-3.561zm9.329 0v-9.907h3.56v9.907h-3.56zm1.78-10.939c-.482 0-.894-.159-1.238-.477-.344-.319-.516-.701-.516-1.148 0-.448.172-.83.516-1.149a1.759 1.759 0 0 1 1.238-.477c.486 0 .899.159 1.238.477.344.319.516.701.516 1.149 0 .447-.172.829-.516 1.148a1.744 1.744 0 0 1-1.238.477zm5.047 10.939v-9.907h3.38v1.883h.103a2.892 2.892 0 0 1 1.058-1.47c.499-.361 1.092-.542 1.78-.542.697 0 1.297.185 1.8.555.503.365.806.851.909 1.457h.104c.167-.606.524-1.092 1.07-1.457.546-.37 1.187-.555 1.922-.555.951 0 1.72.305 2.31.916.593.61.89 1.423.89 2.438v6.682h-3.561v-5.779c0-.434-.109-.774-.329-1.019-.219-.25-.514-.374-.883-.374-.366 0-.656.124-.871.374-.211.245-.316.585-.316 1.019v5.779h-3.406v-5.779c0-.434-.109-.774-.329-1.019-.219-.25-.514-.374-.883-.374-.246 0-.456.056-.633.167a1.124 1.124 0 0 0-.412.484 1.767 1.767 0 0 0-.142.742v5.779h-3.561zm18.535 0v-9.907h3.56v9.907h-3.56zm1.78-10.939c-.482 0-.894-.159-1.238-.477-.344-.319-.516-.701-.516-1.148 0-.448.172-.83.516-1.149a1.759 1.759 0 0 1 1.238-.477c.486 0 .899.159 1.238.477.344.319.516.701.516 1.149 0 .447-.172.829-.516 1.148a1.744 1.744 0 0 1-1.238.477z" fill="#fff"/></g><g filter="url(#L)"><rect x="5" y="129.414" width="238.394" height="192.986" rx="6.811" fill="#fff"/><path d="M5 136.225a6.812 6.812 0 0 1 6.811-6.811h224.772a6.811 6.811 0 0 1 6.811 6.811v101.034H5V136.225zM40.629 282.693h-5.313v2.349c.227-.249.545-.454.953-.613a3.652 3.652 0 0 1 1.329-.238c.851 0 1.555.193 2.111.579.568.386.982.885 1.243 1.498.261.614.392 1.278.392 1.993 0 1.328-.375 2.384-1.124 3.167-.75.772-1.805 1.158-3.167 1.158-.908 0-1.697-.153-2.367-.46-.67-.318-1.187-.755-1.55-1.311-.363-.556-.562-1.198-.596-1.924h2.844c.068.352.233.647.494.885.26.227.618.341 1.072.341.534 0 .931-.17 1.192-.511.262-.341.392-.795.392-1.362 0-.556-.136-.982-.408-1.277-.273-.296-.67-.443-1.192-.443-.386 0-.704.096-.954.289-.25.182-.414.426-.494.733h-2.81v-7.408h7.953v2.555zm6.75 3.218c-1.068-.568-1.601-1.459-1.601-2.674 0-.613.159-1.169.477-1.668.317-.511.8-.914 1.447-1.209.647-.307 1.442-.46 2.384-.46s1.731.153 2.367.46c.647.295 1.13.698 1.447 1.209a3.04 3.04 0 0 1 .477 1.668c0 .613-.148 1.147-.443 1.601-.283.454-.67.812-1.158 1.073.613.295 1.084.704 1.414 1.226.329.511.494 1.112.494 1.805 0 .806-.205 1.504-.613 2.094-.41.579-.965 1.022-1.67 1.329-.692.306-1.464.459-2.315.459-.852 0-1.63-.153-2.333-.459a3.916 3.916 0 0 1-1.652-1.329c-.408-.59-.613-1.288-.613-2.094 0-.704.165-1.311.494-1.822.33-.522.795-.925 1.396-1.209zm4.171-2.231c0-.465-.136-.823-.408-1.073-.262-.261-.613-.391-1.056-.391-.443 0-.8.13-1.073.391-.261.262-.392.625-.392 1.09 0 .443.137.795.41 1.056.272.25.623.375 1.055.375.431 0 .783-.131 1.056-.392.272-.261.408-.613.408-1.056zm-1.464 3.491c-.534 0-.965.148-1.294.443-.33.284-.494.681-.494 1.192 0 .476.159.868.477 1.175.329.306.766.459 1.31.459.546 0 .971-.153 1.278-.459.318-.307.477-.699.477-1.175 0-.5-.165-.897-.494-1.192-.318-.295-.738-.443-1.26-.443zm11.808 1.771c.17.897.692 1.345 1.567 1.345.601 0 1.027-.267 1.277-.8.25-.534.374-1.402.374-2.605-.25.351-.59.624-1.021.817a3.506 3.506 0 0 1-1.448.289c-.726 0-1.373-.147-1.941-.442a3.337 3.337 0 0 1-1.345-1.346c-.318-.601-.477-1.328-.477-2.179 0-.84.17-1.572.51-2.197a3.636 3.636 0 0 1 1.482-1.447c.647-.341 1.408-.511 2.282-.511 1.68 0 2.855.522 3.525 1.566.67 1.045 1.004 2.583 1.004 4.615 0 1.476-.136 2.696-.408 3.661-.261.954-.71 1.68-1.346 2.18-.624.499-1.48.749-2.57.749-.864 0-1.601-.17-2.214-.511a3.7 3.7 0 0 1-1.397-1.345 4.232 4.232 0 0 1-.545-1.839h2.69zm1.413-3.252c.477 0 .857-.142 1.141-.426.284-.295.426-.693.426-1.192 0-.545-.148-.965-.443-1.26-.295-.295-.692-.443-1.192-.443s-.897.153-1.192.46c-.284.295-.426.704-.426 1.226 0 .488.142.885.426 1.192.295.295.715.443 1.26.443zm26.72-2.708c1.18 0 2.117.358 2.81 1.073.703.715 1.055 1.708 1.055 2.98v5.551h-2.894v-5.16c0-.613-.165-1.084-.494-1.413-.318-.34-.76-.511-1.329-.511-.567 0-1.016.171-1.345.511-.318.329-.477.8-.477 1.413v5.16H84.46v-5.16c0-.613-.165-1.084-.494-1.413-.318-.34-.76-.511-1.328-.511-.568 0-1.016.171-1.346.511-.317.329-.476.8-.476 1.413v5.16h-2.912v-9.502h2.912v1.192a3.044 3.044 0 0 1 1.158-.936c.476-.239 1.016-.358 1.617-.358.715 0 1.351.153 1.907.46.568.306 1.01.743 1.329 1.311.329-.522.777-.948 1.345-1.277a3.637 3.637 0 0 1 1.856-.494zm7.588-.477c.022-.59.272-1.084.749-1.481.477-.398 1.18-.596 2.111-.596.784 0 1.414.17 1.89.511.489.329.733.755.733 1.277 0 .352-.103.636-.307.851-.204.216-.488.363-.851.443v.051c.84.227 1.26.687 1.26 1.379 0 .522-.25.943-.749 1.26-.5.307-1.158.46-1.976.46-.965 0-1.691-.181-2.18-.545-.476-.363-.737-.874-.783-1.532h2.265c.034.352.222.528.562.528a.507.507 0 0 0 .375-.137c.102-.09.153-.227.153-.408 0-.193-.062-.335-.187-.426-.114-.102-.273-.153-.477-.153h-.58v-.954h.478c.442 0 .664-.187.664-.562 0-.159-.046-.278-.136-.357-.091-.091-.222-.137-.392-.137-.318 0-.5.176-.545.528h-2.077z" fill="#272B35"/><path d="M39.38 263.19v6.774h-1.65v-4.062l-1.516 4.062h-1.331l-1.525-4.072v4.072h-1.65v-6.774h1.95l1.9 4.69 1.882-4.69h1.94zm3.8 0v6.774h-1.65v-6.774h1.65zm-.829-.617a.682.682 0 0 1-.502-.203.68.68 0 0 1-.202-.502c0-.199.067-.367.202-.502a.668.668 0 0 1 .502-.212.694.694 0 0 1 .714.714c0 .2-.07.367-.212.502a.682.682 0 0 1-.502.203zm6.918 7.391-2.277-2.991v2.991h-1.65v-6.774h1.65v2.972l2.258-2.972h1.939l-2.625 3.319 2.721 3.455H49.27zm8.639-6.774v1.322h-1.795v5.452h-1.65v-5.452h-1.795v-1.322h5.24zm6.01 5.577h-2.529l-.405 1.197h-1.727l2.45-6.774h1.911l2.451 6.774h-1.746l-.406-1.197zm-.425-1.273-.84-2.48-.83 2.48h1.67zm7.741 2.47-1.408-2.557h-.396v2.557h-1.65v-6.774h2.77c.533 0 .987.093 1.36.28.38.186.662.444.849.772.186.321.28.682.28 1.081a2 2 0 0 1-.386 1.206c-.251.354-.624.604-1.12.752l1.564 2.683h-1.863zm-1.804-3.725h1.023c.302 0 .527-.074.675-.222.155-.148.232-.357.232-.627 0-.257-.077-.46-.232-.608-.148-.148-.373-.222-.675-.222H69.43v1.679z" fill="#737373"/><path d="M32.984 165.389h-1.596l2.907-8.256h1.846l2.91 8.256h-1.596l-2.205-6.563h-.065l-2.2 6.563zm.053-3.237h4.354v1.201h-4.354v-1.201zm8.077 5.559c-.2 0-.383-.016-.553-.049a2.036 2.036 0 0 1-.399-.104l.339-1.137c.212.061.402.091.568.088a.694.694 0 0 0 .44-.157c.129-.099.237-.266.326-.5l.125-.334-2.245-6.321h1.548l1.427 4.676h.064l1.431-4.676h1.552l-2.479 6.941a2.785 2.785 0 0 1-.46.843c-.19.237-.424.417-.7.54-.275.127-.603.19-.984.19zm8.146-2.197a2.58 2.58 0 0 1-1.06-.21 1.726 1.726 0 0 1-.742-.629c-.18-.277-.27-.618-.27-1.024 0-.349.064-.638.193-.867a1.5 1.5 0 0 1 .529-.548c.223-.137.474-.24.753-.31.283-.073.574-.125.875-.157.363-.038.657-.072.883-.101.226-.032.39-.081.492-.145.105-.068.157-.171.157-.311v-.024c0-.304-.09-.539-.27-.705-.18-.167-.44-.25-.778-.25-.358 0-.641.078-.85.233a1.16 1.16 0 0 0-.42.553l-1.363-.194c.108-.376.285-.69.533-.943.247-.255.55-.446.907-.573a3.47 3.47 0 0 1 1.185-.193c.298 0 .595.035.89.105.296.07.566.185.811.346.245.159.44.375.589.65.15.274.225.616.225 1.028v4.144h-1.403v-.851h-.048a1.791 1.791 0 0 1-.375.484 1.811 1.811 0 0 1-.6.359c-.24.088-.52.133-.843.133zm.379-1.073c.293 0 .547-.057.762-.173.215-.118.38-.274.496-.468a1.19 1.19 0 0 0 .177-.633v-.729a.714.714 0 0 1-.234.105 3.33 3.33 0 0 1-.363.084c-.134.024-.267.046-.399.065l-.342.048c-.218.03-.413.078-.585.145a.968.968 0 0 0-.407.282.692.692 0 0 0-.15.46c0 .269.099.472.295.609.196.137.446.205.75.205zm6.596-.995-.004-1.762h.234l2.225-2.487h1.706l-2.738 3.047h-.302l-1.12 1.202zm-1.33 1.943v-8.256h1.46v8.256h-1.46zm3.886 0-2.016-2.818.984-1.028 2.778 3.846H58.79zm6.928-4.04v1.202h-3.717v-1.202h3.717zm5.785-4.216v8.256h-1.496v-6.801h-.048l-1.931 1.233v-1.37l2.052-1.318h1.423zm3.004 8.256v-1.081l2.867-2.81c.274-.276.502-.522.685-.737a2.72 2.72 0 0 0 .411-.625c.092-.202.137-.417.137-.645 0-.261-.059-.484-.177-.669a1.181 1.181 0 0 0-.488-.436 1.575 1.575 0 0 0-.705-.153c-.272 0-.51.057-.714.169a1.172 1.172 0 0 0-.476.472c-.11.204-.165.448-.165.73H74.46c0-.524.12-.98.359-1.367s.568-.686.987-.899c.422-.212.906-.318 1.452-.318.553 0 1.04.103 1.46.31.418.207.743.491.975.851.234.36.35.771.35 1.233 0 .309-.059.613-.177.911-.118.299-.326.629-.625.992-.296.363-.71.802-1.245 1.318l-1.423 1.448v.056h3.595v1.25h-5.66z" fill="#E56630"/><path d="m35.573 173.937 2.71 9.314h.102l2.71-9.314h4.05l-4.36 13.209h-4.902l-4.36-13.209h4.05zm12.35 13.209v-9.907h3.56v9.907h-3.56zm1.78-10.939a1.76 1.76 0 0 1-1.239-.477c-.344-.318-.516-.701-.516-1.148 0-.447.172-.83.516-1.148a1.757 1.757 0 0 1 1.238-.478c.486 0 .9.159 1.239.478.344.318.516.701.516 1.148 0 .447-.172.83-.516 1.148-.34.318-.753.477-1.239.477zm7.214 14.655a6.84 6.84 0 0 1-1.168-.097 4.881 4.881 0 0 1-.974-.252l.775-2.528c.292.103.559.17.8.2.244.03.453.013.625-.052a.64.64 0 0 0 .38-.367l.078-.181-3.483-10.346h3.715l1.6 6.863h.103l1.625-6.863h3.741l-3.612 10.733a4.759 4.759 0 0 1-.786 1.471c-.34.438-.787.784-1.342 1.038s-1.247.381-2.077.381zm12.796-3.561c-.633 0-1.192-.103-1.678-.309a2.522 2.522 0 0 1-1.135-.955c-.275-.426-.413-.967-.413-1.625 0-.542.093-1.004.278-1.387.185-.387.443-.703.774-.948a3.655 3.655 0 0 1 1.154-.561 7.02 7.02 0 0 1 1.432-.252c.555-.043 1-.095 1.335-.155.34-.064.585-.152.736-.264a.551.551 0 0 0 .225-.458v-.026a.677.677 0 0 0-.296-.593c-.198-.138-.452-.207-.761-.207-.34 0-.617.075-.832.226-.211.146-.338.372-.38.677h-3.278a3.378 3.378 0 0 1 .575-1.664c.344-.512.844-.92 1.502-1.225.658-.31 1.48-.465 2.464-.465.71 0 1.346.084 1.91.252.563.163 1.042.393 1.438.69.395.292.697.636.903 1.032.21.391.316.817.316 1.277v6.785h-3.328v-1.393h-.078c-.197.37-.438.669-.722.897-.28.228-.6.393-.961.496a4.21 4.21 0 0 1-1.18.155zm1.16-2.244c.271 0 .525-.056.762-.168.24-.112.436-.273.587-.484.15-.21.225-.466.225-.767v-.826a4.726 4.726 0 0 1-.639.206 7.933 7.933 0 0 1-.78.155 2.025 2.025 0 0 0-.677.213 1.006 1.006 0 0 0-.387.355.89.89 0 0 0-.123.464c0 .275.097.486.29.632.194.147.442.22.743.22zm11.85 2.218a3.61 3.61 0 0 1-1.948-.554c-.59-.37-1.063-.931-1.42-1.684-.352-.752-.528-1.7-.528-2.844 0-1.196.184-2.167.554-2.916.374-.748.856-1.296 1.445-1.644a3.634 3.634 0 0 1 1.87-.523c.49 0 .92.086 1.29.258.37.168.68.394.93.677.249.28.438.587.567.923h.052v-5.031h3.56v13.209h-3.534v-1.625h-.078a2.792 2.792 0 0 1-1.522 1.529c-.361.15-.774.225-1.239.225zm1.315-2.734c.327 0 .607-.095.839-.284.236-.194.417-.465.542-.813.129-.352.193-.77.193-1.251 0-.49-.064-.91-.193-1.258-.125-.353-.306-.621-.542-.806a1.286 1.286 0 0 0-.839-.284c-.327 0-.606.095-.838.284-.228.185-.404.453-.53.806-.12.348-.18.768-.18 1.258s.06.911.18 1.264c.126.348.302.617.53.806.232.185.511.278.838.278zm14.682-1.729v-5.573h3.561v9.907h-3.38v-1.883h-.103a2.818 2.818 0 0 1-1.129 1.484c-.537.352-1.176.528-1.916.528-.692 0-1.298-.159-1.819-.477a3.272 3.272 0 0 1-1.206-1.316c-.283-.559-.428-1.199-.432-1.922v-6.321h3.56v5.573c.005.49.13.875.375 1.155.25.279.597.419 1.045.419a1.5 1.5 0 0 0 .767-.187c.22-.129.387-.31.503-.542a1.79 1.79 0 0 0 .174-.845zm-3.457-6.734c-.438 0-.81-.146-1.116-.438a1.413 1.413 0 0 1-.458-1.058c0-.413.153-.766.458-1.058a1.555 1.555 0 0 1 1.116-.439c.426 0 .79.147 1.09.439.306.292.458.645.458 1.058 0 .413-.153.765-.458 1.058a1.509 1.509 0 0 1-1.09.438zm4.102 0c-.438 0-.81-.146-1.115-.438a1.413 1.413 0 0 1-.458-1.058c0-.413.152-.766.457-1.058a1.555 1.555 0 0 1 1.116-.439c.426 0 .789.147 1.09.439.306.292.458.645.458 1.058 0 .413-.152.765-.458 1.058a1.508 1.508 0 0 1-1.09.438zm9.379 8.721.026-4.232h.464l2.4-3.328h3.999l-4.025 5.186h-1.006l-1.858 2.374zm-3.199 2.347v-13.209h3.56v13.209h-3.56zm6.114 0-2.27-3.921 2.322-2.529 4.025 6.45h-4.077zm14.805 0h-3.87l4.361-13.209h4.902l4.36 13.209h-3.87l-2.89-9.571h-.103l-2.89 9.571zm-.722-5.211h7.276v2.683h-7.276v-2.683zm14.177 8.927a6.84 6.84 0 0 1-1.167-.097 4.869 4.869 0 0 1-.974-.252l.774-2.528c.292.103.559.17.8.2.245.03.453.013.625-.052a.639.639 0 0 0 .381-.367l.077-.181-3.483-10.346h3.716l1.599 6.863h.103l1.626-6.863h3.741l-3.612 10.733a4.768 4.768 0 0 1-.787 1.471c-.34.438-.787.784-1.342 1.038-.554.254-1.247.381-2.077.381zm12.796-3.561c-.632 0-1.191-.103-1.677-.309a2.519 2.519 0 0 1-1.135-.955c-.276-.426-.413-.967-.413-1.625 0-.542.092-1.004.277-1.387.185-.387.443-.703.774-.948a3.653 3.653 0 0 1 1.155-.561 7.02 7.02 0 0 1 1.432-.252c.554-.043.999-.095 1.335-.155.34-.064.585-.152.735-.264a.55.55 0 0 0 .226-.458v-.026a.677.677 0 0 0-.297-.593c-.198-.138-.451-.207-.761-.207-.34 0-.617.075-.832.226-.211.146-.338.372-.381.677h-3.276a3.375 3.375 0 0 1 .574-1.664c.344-.512.845-.92 1.503-1.225.658-.31 1.479-.465 2.464-.465.709 0 1.346.084 1.909.252.563.163 1.043.393 1.438.69.396.292.697.636.903 1.032.211.391.316.817.316 1.277v6.785h-3.328v-1.393h-.077a2.86 2.86 0 0 1-.723.897 2.65 2.65 0 0 1-.961.496c-.357.104-.75.155-1.18.155zm1.161-2.244c.271 0 .524-.056.761-.168.241-.112.436-.273.587-.484.15-.21.226-.466.226-.767v-.826a4.409 4.409 0 0 1-.639.206 7.901 7.901 0 0 1-.78.155 2.028 2.028 0 0 0-.678.213 1.006 1.006 0 0 0-.387.355.896.896 0 0 0-.122.464c0 .275.097.486.29.632.194.147.441.22.742.22zm11.462-.258.026-4.232h.464l2.399-3.328h3.999l-4.024 5.186h-1.007l-1.857 2.374zm-3.199 2.347v-13.209h3.56v13.209h-3.56zm6.114 0-2.27-3.921 2.322-2.529 4.025 6.45h-4.077zm-136.292 22v-13.209h5.728c1.006 0 1.851.135 2.535.406.688.271 1.206.654 1.554 1.148.353.495.53 1.077.53 1.748 0 .486-.108.929-.323 1.329-.211.4-.508.735-.89 1.006-.383.267-.83.452-1.342.555v.129a3.302 3.302 0 0 1 1.548.432c.464.262.834.626 1.11 1.09.275.46.412 1.002.412 1.625 0 .723-.189 1.366-.567 1.929-.374.563-.908 1.006-1.6 1.329-.692.322-1.518.483-2.477.483h-6.218zm3.587-2.863h1.676c.603 0 1.054-.112 1.355-.336.301-.228.452-.563.452-1.006 0-.31-.071-.572-.213-.787a1.329 1.329 0 0 0-.607-.49c-.258-.112-.57-.168-.935-.168h-1.729v2.787zm0-5.006h1.47c.314 0 .591-.049.832-.148.241-.099.428-.241.561-.426a1.14 1.14 0 0 0 .207-.69c0-.408-.147-.72-.439-.935-.292-.219-.662-.329-1.11-.329h-1.522v2.528zm14.798 8.05c-1.058 0-1.97-.202-2.735-.606a4.253 4.253 0 0 1-1.76-1.755c-.41-.765-.614-1.681-.614-2.747 0-1.024.207-1.918.62-2.684a4.422 4.422 0 0 1 1.748-1.786c.752-.426 1.64-.639 2.663-.639.749 0 1.426.116 2.032.348.606.233 1.125.57 1.555 1.013.43.439.76.972.993 1.6.232.628.348 1.335.348 2.122v.825h-8.85v-1.96h5.574a1.368 1.368 0 0 0-.22-.749 1.395 1.395 0 0 0-.56-.509 1.647 1.647 0 0 0-.794-.187c-.288 0-.553.062-.794.187-.24.12-.434.288-.58.503a1.42 1.42 0 0 0-.226.755v2.115c0 .318.067.602.2.852.133.249.325.445.574.587.25.142.55.212.903.212.245 0 .469-.034.671-.103.206-.069.383-.167.529-.296.146-.134.254-.293.322-.478h3.251a3.701 3.701 0 0 1-.793 1.793c-.417.503-.97.895-1.658 1.174-.683.275-1.483.413-2.4.413zm13.664-10.088v2.58h-6.527v-2.58h6.527zm-5.263-2.373h3.56v9.094a.77.77 0 0 0 .072.348c.047.091.12.16.219.207a.963.963 0 0 0 .38.064c.108 0 .233-.013.374-.038.147-.026.254-.048.323-.065l.516 2.503c-.16.047-.387.105-.684.174-.292.069-.64.114-1.045.135-.817.043-1.503-.04-2.057-.251-.555-.215-.972-.553-1.252-1.013-.279-.46-.414-1.036-.406-1.728v-9.43zm12.836 12.461c-1.075 0-1.995-.213-2.76-.638a4.39 4.39 0 0 1-1.761-1.794c-.409-.769-.613-1.662-.613-2.676 0-1.015.204-1.905.612-2.671a4.345 4.345 0 0 1 1.761-1.793c.766-.43 1.686-.645 2.761-.645 1.075 0 1.995.215 2.76.645a4.346 4.346 0 0 1 1.761 1.793c.409.766.613 1.656.613 2.671 0 1.014-.204 1.907-.612 2.676a4.39 4.39 0 0 1-1.761 1.794c-.766.425-1.686.638-2.761.638zm.026-2.632c.3 0 .56-.101.78-.303.22-.202.39-.49.51-.864s.18-.819.18-1.335c0-.52-.06-.966-.18-1.335-.12-.374-.29-.663-.51-.865a1.113 1.113 0 0 0-.78-.303c-.318 0-.591.101-.82.303-.227.202-.401.491-.522.865-.12.369-.18.815-.18 1.335 0 .516.06.961.18 1.335s.295.662.523.864c.227.202.5.303.819.303zm11.567-3.121v5.572h-3.56v-9.907h3.379v1.884h.103a2.802 2.802 0 0 1 1.135-1.477c.546-.357 1.183-.536 1.91-.536.7 0 1.309.161 1.825.484.52.318.922.757 1.206 1.316.288.559.43 1.197.426 1.915v6.321h-3.56v-5.572c.004-.491-.121-.875-.375-1.155-.25-.279-.597-.419-1.045-.419-.292 0-.548.064-.767.193-.215.125-.38.306-.497.542a1.916 1.916 0 0 0-.18.839zm16.059 1.238v-5.573h3.56v9.907h-3.38v-1.883h-.103a2.818 2.818 0 0 1-1.129 1.484c-.537.352-1.176.528-1.915.528-.692 0-1.299-.159-1.82-.477a3.272 3.272 0 0 1-1.205-1.316c-.284-.559-.428-1.199-.432-1.922v-6.321h3.56v5.573c.004.49.129.875.374 1.155.25.279.598.419 1.045.419a1.5 1.5 0 0 0 .767-.187c.22-.129.388-.31.504-.542a1.79 1.79 0 0 0 .174-.845z" fill="#fff"/></g><path d="m125.9 108.98-9.649-10.089 2.27-2.375 7.385 7.722 7.386-7.722 2.257 2.375-9.647 10.089h-.002zm0-9.105-9.649-10.09 2.27-2.374 7.385 7.722 7.386-7.722 2.257 2.374-9.647 10.089-.002.001z" fill="#269"/><defs><linearGradient id="r" x1="79.358" y1="110.26" x2="179.596" y2="140.721" gradientUnits="userSpaceOnUse"><stop stop-color="#F68146" stop-opacity=".3"/><stop offset="1" stop-color="#F68146" stop-opacity=".8"/></linearGradient><linearGradient id="s" x1="91.026" y1="113.568" x2="162.059" y2="139.229" gradientUnits="userSpaceOnUse"><stop stop-color="#F68146" stop-opacity=".3"/><stop offset="1" stop-color="#F68146" stop-opacity=".8"/></linearGradient><linearGradient id="c" x1="169.802" y1="229.794" x2="384.548" y2="332.584" gradientUnits="userSpaceOnUse"><stop stop-color="#F68146" stop-opacity=".3"/><stop offset="1" stop-color="#F68146" stop-opacity=".8"/></linearGradient><linearGradient id="d" x1="293.81" y1="233.56" x2="355.258" y2="241.921" gradientUnits="userSpaceOnUse"><stop stop-color="#F68146" stop-opacity=".3"/><stop offset="1" stop-color="#F68146" stop-opacity=".8"/></linearGradient><linearGradient id="e" x1="298.463" y1="234.901" x2="346.321" y2="241.136" gradientUnits="userSpaceOnUse"><stop stop-color="#F68146" stop-opacity=".3"/><stop offset="1" stop-color="#F68146" stop-opacity=".8"/></linearGradient><linearGradient id="f" x1="300.916" y1="235.796" x2="341.916" y2="241.291" gradientUnits="userSpaceOnUse"><stop stop-color="#F68146" stop-opacity=".3"/><stop offset="1" stop-color="#F68146" stop-opacity=".8"/></linearGradient><linearGradient id="g" x1="209.959" y1="205.529" x2="272.903" y2="225.589" gradientUnits="userSpaceOnUse"><stop stop-color="#F68146" stop-opacity=".3"/><stop offset="1" stop-color="#F68146" stop-opacity=".8"/></linearGradient><linearGradient id="h" x1="212.314" y1="206.156" x2="268.042" y2="225.219" gradientUnits="userSpaceOnUse"><stop stop-color="#F68146" stop-opacity=".3"/><stop offset="1" stop-color="#F68146" stop-opacity=".8"/></linearGradient><linearGradient id="i" x1="230.241" y1="194.273" x2="239.466" y2="221.319" gradientUnits="userSpaceOnUse"><stop stop-color="#1079B4"/><stop offset="1" stop-color="#21B3E4"/></linearGradient><linearGradient id="j" x1="230.779" y1="209.737" x2="244.275" y2="215.638" gradientUnits="userSpaceOnUse"><stop stop-color="#F68146" stop-opacity=".3"/><stop offset="1" stop-color="#F68146" stop-opacity=".8"/></linearGradient><linearGradient id="k" x1="48.388" y1="93.675" x2="295.513" y2="136.428" gradientUnits="userSpaceOnUse"><stop stop-color="#F68146" stop-opacity=".3"/><stop offset="1" stop-color="#F68146" stop-opacity=".8"/></linearGradient><linearGradient id="l" x1="53.066" y1="95.007" x2="286.639" y2="135.777" gradientUnits="userSpaceOnUse"><stop stop-color="#F68146" stop-opacity=".3"/><stop offset="1" stop-color="#F68146" stop-opacity=".8"/></linearGradient><linearGradient id="m" x1="60.412" y1="97.861" x2="271.91" y2="135.082" gradientUnits="userSpaceOnUse"><stop stop-color="#F68146" stop-opacity=".3"/><stop offset="1" stop-color="#F68146" stop-opacity=".8"/></linearGradient><linearGradient id="n" x1="103.005" y1="25.291" x2="165.691" y2="209.062" gradientUnits="userSpaceOnUse"><stop stop-color="#1079B4"/><stop offset="1" stop-color="#21B3E4"/></linearGradient><linearGradient id="o" x1="70.771" y1="98.299" x2="246.979" y2="137.23" gradientUnits="userSpaceOnUse"><stop stop-color="#F68146" stop-opacity=".3"/><stop offset="1" stop-color="#F68146" stop-opacity=".8"/></linearGradient><linearGradient id="p" x1="110.98" y1="46.743" x2="150.439" y2="162.419" gradientUnits="userSpaceOnUse"><stop stop-color="#1079B4"/><stop offset="1" stop-color="#21B3E4"/></linearGradient><linearGradient id="q" x1="77.477" y1="109.556" x2="185.932" y2="142.292" gradientUnits="userSpaceOnUse"><stop stop-color="#F68146" stop-opacity=".3"/><stop offset="1" stop-color="#F68146" stop-opacity=".8"/></linearGradient><linearGradient id="b" x1="167.466" y1="229.183" x2="390.408" y2="333.214" gradientUnits="userSpaceOnUse"><stop stop-color="#F68146" stop-opacity=".3"/><stop offset="1" stop-color="#F68146" stop-opacity=".8"/></linearGradient><linearGradient id="t" x1="118.94" y1="110.744" x2="152.985" y2="121.621" gradientUnits="userSpaceOnUse"><stop stop-color="#F68146" stop-opacity=".3"/><stop offset="1" stop-color="#F68146" stop-opacity=".8"/></linearGradient><linearGradient id="u" x1="321.857" y1="108.041" x2="501.408" y2="150.69" gradientUnits="userSpaceOnUse"><stop stop-color="#F68146" stop-opacity=".3"/><stop offset="1" stop-color="#F68146" stop-opacity=".8"/></linearGradient><linearGradient id="v" x1="326.439" y1="109.356" x2="492.21" y2="149.988" gradientUnits="userSpaceOnUse"><stop stop-color="#F68146" stop-opacity=".3"/><stop offset="1" stop-color="#F68146" stop-opacity=".8"/></linearGradient><linearGradient id="w" x1="364.211" y1="55.8" x2="403.652" y2="171.425" gradientUnits="userSpaceOnUse"><stop stop-color="#1079B4"/><stop offset="1" stop-color="#21B3E4"/></linearGradient><linearGradient id="x" x1="343.242" y1="119.469" x2="448.982" y2="161.769" gradientUnits="userSpaceOnUse"><stop stop-color="#F68146" stop-opacity=".3"/><stop offset="1" stop-color="#F68146" stop-opacity=".8"/></linearGradient><linearGradient id="y" x1="345.581" y1="119.985" x2="443.556" y2="161.411" gradientUnits="userSpaceOnUse"><stop stop-color="#F68146" stop-opacity=".3"/><stop offset="1" stop-color="#F68146" stop-opacity=".8"/></linearGradient><linearGradient id="z" x1="359.858" y1="132.692" x2="419.173" y2="162.768" gradientUnits="userSpaceOnUse"><stop stop-color="#F68146" stop-opacity=".3"/><stop offset="1" stop-color="#F68146" stop-opacity=".8"/></linearGradient><linearGradient id="A" x1="367.156" y1="134.471" x2="408.683" y2="155.647" gradientUnits="userSpaceOnUse"><stop stop-color="#F68146" stop-opacity=".3"/><stop offset="1" stop-color="#F68146" stop-opacity=".8"/></linearGradient><linearGradient id="B" x1="243.024" y1="36.871" x2="424.523" y2="91.726" gradientUnits="userSpaceOnUse"><stop stop-color="#F68146" stop-opacity=".3"/><stop offset="1" stop-color="#F68146" stop-opacity=".8"/></linearGradient><linearGradient id="C" x1="254.853" y1="37.877" x2="413.071" y2="85.241" gradientUnits="userSpaceOnUse"><stop stop-color="#F68146" stop-opacity=".3"/><stop offset="1" stop-color="#F68146" stop-opacity=".8"/></linearGradient><linearGradient id="D" x1="264.842" y1="39.254" x2="401.466" y2="81.468" gradientUnits="userSpaceOnUse"><stop stop-color="#F68146" stop-opacity=".3"/><stop offset="1" stop-color="#F68146" stop-opacity=".8"/></linearGradient><linearGradient id="E" x1="299.316" y1="-3.024" x2="332.693" y2="94.824" gradientUnits="userSpaceOnUse"><stop stop-color="#1079B4"/><stop offset="1" stop-color="#21B3E4"/></linearGradient><linearGradient id="F" x1="308.961" y1="24.282" x2="390.104" y2="39.695" gradientUnits="userSpaceOnUse"><stop stop-color="#F68146" stop-opacity=".3"/><stop offset="1" stop-color="#F68146" stop-opacity=".8"/></linearGradient><linearGradient id="G" x1="313.725" y1="26.095" x2="380.007" y2="38.702" gradientUnits="userSpaceOnUse"><stop stop-color="#F68146" stop-opacity=".3"/><stop offset="1" stop-color="#F68146" stop-opacity=".8"/></linearGradient><linearGradient id="H" x1="273.319" y1="99.813" x2="295.403" y2="113.094" gradientUnits="userSpaceOnUse"><stop stop-color="#F68146" stop-opacity=".3"/><stop offset="1" stop-color="#F68146" stop-opacity=".8"/></linearGradient><linearGradient id="I" x1="118.212" y1="-3.294" x2="198.119" y2="230.961" gradientUnits="userSpaceOnUse"><stop stop-color="#1079B4"/><stop offset="1" stop-color="#21B3E4"/></linearGradient><linearGradient id="J" x1="331.204" y1="30.081" x2="408.616" y2="257.023" gradientUnits="userSpaceOnUse"><stop stop-color="#1079B4"/><stop offset="1" stop-color="#21B3E4"/></linearGradient><filter id="L" x=".459" y="129.414" width="247.476" height="202.068" filterUnits="userSpaceOnUse" color-interpolation-filters="sRGB"><feFlood flood-opacity="0" result="BackgroundImageFix"/><feColorMatrix in="SourceAlpha" values="0 0 0 0 0 0 0 0 0 0 0 0 0 0 0 0 0 0 127 0" result="hardAlpha"/><feOffset dy="4.541"/><feGaussianBlur stdDeviation="2.27"/><feComposite in2="hardAlpha" operator="out"/><feColorMatrix values="0 0 0 0 0 0 0 0 0 0 0 0 0 0 0 0 0 0 0.25 0"/><feBlend in2="BackgroundImageFix" result="effect1_dropShadow_1442_7308"/><feBlend in="SourceGraphic" in2="effect1_dropShadow_1442_7308" result="shape"/></filter><filter id="K" x="251.341" y="129.414" width="247.476" height="282.668" filterUnits="userSpaceOnUse" color-interpolation-filters="sRGB"><feFlood flood-opacity="0" result="BackgroundImageFix"/><feColorMatrix in="SourceAlpha" values="0 0 0 0 0 0 0 0 0 0 0 0 0 0 0 0 0 0 127 0" result="hardAlpha"/><feOffset dy="4.541"/><feGaussianBlur stdDeviation="2.27"/><feComposite in2="hardAlpha" operator="out"/><feColorMatrix values="0 0 0 0 0 0 0 0 0 0 0 0 0 0 0 0 0 0 0.25 0"/><feBlend in2="BackgroundImageFix" result="effect1_dropShadow_1442_7308"/><feBlend in="SourceGraphic" in2="effect1_dropShadow_1442_7308" result="shape"/></filter><clipPath id="a"><rect x="125.332" y="11.352" width="249.746" height="249.746" rx="42.003" fill="#fff"/></clipPath></defs></svg>