<svg width="549" height="436" fill="none" xmlns="http://www.w3.org/2000/svg"><g clip-path="url(#a)" stroke-opacity=".5" stroke-miterlimit="10"><path d="M149.493 396.732c-1.382-4.051-2.04-8.348-1.827-12.458.586-12.958 8.159-25.554 20.307-33.735 4.667-3.127 9.797-5.603 14.88-7.983 9.852-4.733 19.102-9.1 23.318-17.805 2.145-4.366 2.738-9.493 3.304-14.935.568-5.2 1.134-10.642 3.249-15.805 4.8-11.73 14.763-17.794 24.414-23.589 5.005-3.08 9.771-5.917 13.781-9.546 3.771-3.385 6.207-7.607 8.81-12.048 4.395-7.475 9.338-15.944 21.157-19.41 13.361-3.912 28.814.911 37.542 11.822 4.243 5.336 6.8 11.65 9.187 17.699 2.706 6.748 5.215 13.159 9.912 17.694 6.327 6.24 15.889 8.469 25.16 10.555 1.234.306 2.541.587 3.776.892 10.386 2.514 17.48 7.926 24.356 13.171 5.249 4.024 10.157 7.759 16.459 10.374 9.646 3.896 24.12 7.034 38.448-.438.674-.391 1.373-.71 2.119-1.126 4.021-2.179 8.498-4.676 13.841-4.399 10.348.508 14.128 5.436 15.51 9.487 4.071 11.934-8.471 29.374-12.399 34.429-4.719 6.051-9.688 10.895-13.227 12.829-14.662 8.15-31.664 9.912-46.28 10.618-4.832.276-10.193.893-15.868 1.537-19.173 2.261-40.834 4.805-56.112-6.133-5.587-4.07-9.54-9.504-13.347-14.746-3.197-4.401-6.247-8.609-10.088-11.821-9.846-8.269-25.247-9.152-35.952-1.948-.841.61-1.683 1.22-2.597 1.855-2.645 1.952-5.602 4.172-9.292 5.189-5.838 1.587-11.434-.38-16.377-2.085-2.931-1.019-5.596-1.967-8.281-2.263-8.901-1.001-16.996 6.04-20.352 13.483-3.332 7.274-3.896 16.51-1.882 28.096.352 1.98.801 4.007 1.178 6.058 1.126 5.43 2.325 11.077 2.366 16.877.141 9.884-3.353 18.343-9.48 23.34-4.062 3.243-9.61 4.732-14.86 4.019-4.5-.645-8.334-2.89-10.726-6.354-.928-1.298-1.541-2.623-2.105-3.804-.614-1.325-1.178-2.505-1.933-3.297-1.437-1.609-4.076-2.243-6.884-2.901-1.137-.257-2.275-.515-3.39-.943-8.986-2.909-16.41-10.471-19.815-20.452z" stroke="url(#b)"/><path d="M461.734 347.232c11.33-14.604 21.132-36.762-.36-37.748-5.004-.23-9.479 2.749-13.934 5.076-13.364 6.982-28.016 6.165-41.637.557-15.391-6.297-23.118-19.246-40.258-23.331-10.918-2.655-22.725-4.602-30.732-12.449-9.734-9.6-10.905-25.107-19.463-35.754-7.753-9.71-21.583-14.036-33.473-10.545-16.666 4.877-17.499 20.665-28.474 30.626-12.08 10.984-30.561 15.512-37.214 31.751-4.017 9.768-1.978 21.426-6.648 30.933-7.124 14.623-25.951 18.138-39.469 27.271-10.32 6.912-18.046 18.349-18.588 30.726-.542 12.378 7.088 25.279 19.004 28.966 4.167 1.324 9.051 1.677 11.998 4.871 1.948 2.161 2.718 5.128 4.354 7.558 4.297 6.205 14.183 6.305 20.071 1.552 5.887-4.754 8.151-12.794 8.027-20.261-.077-7.564-2.158-14.848-3.491-22.307-1.835-10.113-2.128-20.914 2.181-30.297 4.237-9.359 14.045-16.823 24.276-15.71 7.957.839 15.537 6.489 23.232 4.43 4.077-1.068 7.221-4.159 10.782-6.504 12.003-8.132 29.459-7.142 40.544 2.158 8.971 7.598 13.695 19.553 23.217 26.398 18.412 13.261 48.587 4.905 69.486 3.914 15.414-.736 31.133-2.707 44.664-10.149 2.937-1.567 7.546-6.046 11.905-11.732z" stroke="url(#c)"/><path d="M326.888 332.586c-1.283-3.761-1.503-7.481-1.674-11.299l-.378-9.157c-.084-1.667-.256-5.484 2.5-8.766 3.044-3.622 8.088-4.697 13.538-2.922 5.669 1.942 10.138 5.101 14.51 8.212 3.619 2.561 6.947 4.979 10.508 6.187 2.568.9 5.544 1.338 8.736 1.703 3.218.437 6.507.849 9.922 1.864 6.805 1.958 12.305 7.43 14.723 14.519.814 2.387 1.242 4.825 1.234 7.169.039 5.558-2.271 10.384-6.215 13.263-2.909 2.123-8.115 4.141-15.843 1.609a170.723 170.723 0 0 1-7.753-2.846c-5.211-2.018-9.694-3.799-14.942-4.27-.846-.115-1.668-.157-2.587-.248-7.642-.623-17.194-1.402-23.194-9.287-1.268-1.586-2.345-3.561-3.085-5.731z" stroke="url(#d)"/><path d="M392.809 340.211c.009-5.656-3.76-12.445-10.492-14.428-6.273-1.817-12.965-1.553-19.119-3.733-9.086-3.199-15.788-11.249-24.921-14.351-1.744-.616-4.018-.89-5.144.543-.815.924-.805 2.374-.724 3.558.142 3.02.308 6.112.378 9.157.152 4.47.5 9.277 3.256 12.859 4.487 5.817 13.043 5.806 20.395 6.528 9.093.855 15.983 4.722 24.34 7.443 8.285 2.745 12.047-1.849 12.031-7.576z" stroke="url(#e)"/><path d="M337.749 328.876c-1.916-4.434-1.45-10.407-1.99-15.067-.127-.845-.158-1.884.538-2.445.817-.682 2.078-.063 3.001.511 7.259 4.71 14.456 10.895 22.645 13.835 3.683 1.328 7.408 1.833 11.037 2.291 2.878.391 5.66.734 8.276 1.538 4.577 1.345 12.14 11.443 5.444 14.777-2.625 1.299-5.777-.129-8.468-1.391a75.169 75.169 0 0 0-24.408-6.694c-3.676-.361-7.495-.431-10.841-1.954-2.667-1.19-4.228-3.161-5.234-5.401z" stroke="url(#f)"/><path d="M286.113 313.39c9.603-9.251 29.967-66.019.539-57.838-7.743 2.157-11.842 10.499-18.603 14.824-4.354 2.858-9.664 3.862-14.36 6.191-7.684 3.751-16.561 12.997-21.224 20.159-2.176 3.326-3.04 7.658-1.203 11.15 4.629 8.837 14.16 3.164 21.295 3.96 8.079.958 14.896 8.161 23.3 7.232 3.961-.462 7.399-2.927 10.256-5.678z" stroke="url(#g)"/><path d="M234.385 305.435c-.641-1.881-.152-4.47 1.283-6.656 4.304-6.555 12.677-15.386 19.662-18.819 1.734-.834 3.59-1.547 5.543-2.214 3.086-1.133 6.244-2.291 9.227-4.197 3.031-2.003 5.551-4.558 7.926-7.064 3.095-3.236 5.998-6.325 9.616-7.317 7.816-2.182 9.074 1.507 9.691 3.316 4.095 12.007-7.417 41.934-13.851 48.166-2.976 2.873-5.552 4.317-8.04 4.6-3.646.436-7.26-1.399-11.115-3.233-3.492-1.716-7.154-3.455-11.29-3.982-2.685-.295-5.462.087-8.069.492-5.987.911-8.476.953-10.288-2.466-.147-.192-.221-.409-.295-.626z" stroke="url(#h)"/><path d="M243.416 301.146c-1.664-2.985 3.254-8.216 5.346-9.656 3.584-2.515 7.952-3.439 12.075-4.846 9.113-3.109 17.388-8.677 23.815-15.875.935-1.046 1.846-2.164 3.074-2.825 1.228-.661 2.895-.745 3.941.19 1.604 1.39.993 3.86.209 5.823-2.68 7.293-5.457 14.539-8.137 21.832-1.495 3.901-3.253 8.216-7.011 9.982-3.469 1.668-7.656.754-11.196-.864-3.54-1.619-6.794-3.82-10.523-4.809-2.033-.517-4.402-.598-6.428.093-1.808.617-3.795 3.314-5.116 1.099l-.049-.144z" stroke="url(#i)"/><path d="M261.686 294.344c-.074-.217.021-.411.141-.533.193-.146.531-.1.845-.127 1.766.206 3.737-1.355 5.229-2.187 1.613-.954 3.176-2.052 4.764-3.078 1.323-.856 2.622-1.783 4.092-2.446.626-.294 1.781-.931 2.51-.452.025.072.097.047.122.12 1.169 1.296-.384 3.845-1.126 4.986-.478.728-1.053 1.409-1.459 2.113-.669 1.116-1.072 2.303-1.571 3.443-.357.848-.879 2.157-1.77 2.622-.41.221-1.932.255-4.671-.91a76.491 76.491 0 0 1-3.032-1.55c-1.092-.596-2.3-.588-3.319-1.209-.219-.168-.438-.335-.584-.528-.122-.12-.146-.192-.171-.264z" stroke="url(#j)"/><path d="M38.54 227.223c-11.88-8.787-21.843-20.246-28.581-33.37-13.793-26.706-9.828-50.829-4.78-78.875 5.653-31.482 28.466-28.282 55.474-22.96 27.953 5.484 57.731-.96 81.745-16.014 24.809-15.57 38.039-48.747 71.947-45.213 23.169 2.35 41.236 25.015 51.351 44.255 2.303 4.383 4.369 9.492 3.025 14.31-1.556 5.618-7.213 8.92-12.121 12.048-10.971 7.134-15.819 25.825-9.477 37.551 4.016 7.512 11.791 13.5 12.092 21.957.441 11.235-12.102 18.258-16.501 28.561-6.039 14.252 4.049 32.936-5.412 45.207-6.826 8.869-20.021 9.01-29.77 14.515-26.239 14.926-18.134 61.175-44.3 76.076-12.566 7.193-30.407 2.944-38.419-9.181-12.042-18.26 4.135-51.555-15.937-63.765-8.956-5.423-19.954-5.709-30.215-7.619-14.446-2.582-28.24-8.697-40.12-17.483z" stroke="url(#k)"/><path d="M12.153 179.694c-7.155-20.977-3.432-41.545.5-63.396 1.488-8.421 4.374-13.928 8.631-16.833 7.794-5.323 21.705-3.124 37.896.074 29.09 5.742 60.876-.498 87.272-17.092 9.12-5.695 16.582-13.409 23.829-20.806 13.15-13.529 24.5-25.233 43.315-23.335 23.75 2.396 40.749 31.4 45.379 40.237.906 1.71 1.544 3.107 1.964 4.337.616 1.808.771 3.21.489 4.274-.709 2.422-4.341 4.792-7.854 7.04l-1.131.708c-12.679 8.282-19.09 28.072-13.958 43.117a33.046 33.046 0 0 0 1.916 4.433c1.689 3.058 3.665 5.775 5.665 8.323 2.195 2.885 4.269 5.649 5.132 8.181.272.796.421 1.471.427 2.196.147 3.745-3.138 7.611-6.924 12.133-3.165 3.744-6.784 8.047-8.996 13.161-3.495 8.218-2.782 16.937-2.172 24.643.634 7.777 1.14 14.468-2.237 18.77-2.803 3.62-8.035 5.324-14.088 7.228-4.437 1.432-9.043 2.842-13.424 5.386-15.815 9.028-21.056 26.804-25.708 42.522-4.203 14.192-8.169 27.657-18.592 33.554-9.051 5.187-22.511 1.945-28.227-6.763-.806-1.179-1.42-2.504-1.938-4.023-1.998-5.859-1.881-13.327-1.84-21.255.133-8.605.24-17.523-2.449-25.407-2.295-6.727-6.391-11.871-12.216-15.455-8.155-4.97-17.155-6.261-25.888-7.481-2.468-.369-4.74-.643-6.992-1.087-13.092-2.398-25.89-7.963-36.993-16.127-11.126-8.236-20.24-18.855-26.388-30.727-1.643-3.396-3.166-6.914-4.4-10.53z" stroke="url(#l)"/><path d="M23.444 175.853c-5.173-13.981-6.562-29.415-3.643-44.057 1.33-6.752 3.747-13.632 8.644-18.452 7.849-7.764 17.067-6.306 26.463-3.617 9.154 2.692 18.392 3.497 28.034 3.357 24.504-.364 48.837-7.857 69.603-20.835 10.299-6.5 18.266-14.628 25.896-22.56 13.557-13.992 21.264-21.223 33.986-19.91 9.021.88 17.216 8.097 22.525 13.956 4.262 4.683 11.882 12.582 11.545 19.641-.184 4.907-2.329 5.72-5.717 8.571-5.478 4.534-8.55 7.6-11.544 14.92-4.419 10.955-5.346 23.625-1.497 34.909 2.517 7.378 10.233 11.771 9.278 20.333-.865 7.643-7.477 12.643-11.252 18.857-4.539 7.524-4.854 14.414-3.344 22.862 1.207 6.855 1.963 14.753-2.859 19.789-3.095 3.236-7.655 4.307-11.923 5.763-23.892 8.311-33.82 29.866-40.502 52.413-2.22 7.459-4.298 17.938-9.549 23.848-3.261 3.696-9.097 5.525-13.224 2.896-4.054-2.655-4.746-8.233-5.046-13.137-1.145-22.057 1.078-46.313-20.523-59.454-14.465-8.793-30.815-7.011-46.174-12.269-16.11-5.567-30.517-16.318-40.234-30.365-3.614-5.388-6.677-11.288-8.943-17.459z" stroke="url(#m)"/><path d="M26.27 172.542c-4.44-13.019-5.359-26.837-2.744-40.003 1.542-7.551 3.97-12.981 7.62-16.487 6.048-5.939 12.915-5.455 22.746-2.672 8.864 2.548 18.128 3.668 29.22 3.518 25.131-.418 49.9-7.817 71.581-21.43 10.707-6.721 18.77-15.042 26.592-23.121 16.725-17.252 32.394-26.472 52.447-6.505 5.014 4.992 8.137 12.728 5.646 19.392-.854 2.229-2.194 4.22-3.533 6.212-11.366 16.392-18.707 31.089-11.7 51.632 1.16 3.399 3.161 6.189 4.967 8.641 1.537 2.14 3.001 4.064 3.716 6.161.444 1.302.55 2.558.438 3.888-.479 4.04-3.186 7.466-6.086 11.039-1.581 1.993-3.234 4.01-4.572 6.243-5.687 9.369-5.216 17.848-3.809 25.524 1.033 6.107 1.708 12.821-1.819 16.447-1.895 2.019-5.03 3.008-8.285 4.118l-2.098.715c-26.207 9.101-36.408 32.93-42.877 54.919a76.497 76.497 0 0 0-1.202 4.287c-1.816 6.513-3.819 13.899-7.535 18.154-2.038 2.31-5.895 3.787-8.274 2.257-.947-.646-1.703-1.68-2.246-3.271-.691-2.025-.926-4.61-1.063-6.905-.141-2.778-.233-5.653-.373-8.432-.341-10.704-.708-21.722-4.088-31.631-3.356-9.837-9.159-17.144-17.92-22.472-9.272-5.639-19.24-7.165-28.82-8.741-6.316-.995-12.268-1.872-18.058-3.934-15.553-5.354-29.16-15.651-38.388-28.975-3.516-5.099-6.407-10.735-8.647-16.592-.367-.601-.613-1.325-.835-1.976z" stroke="url(#n)"/><path d="M40.237 170.194c-3.526-10.102-4.812-21.21-3.27-32.314.527-4.136 1.705-8.495 4.95-11.055 2.74-2.146 6.458-2.607 9.894-2.002 5.324.929 27.829 5.122 34.257 5.029 23.054-.354 45.9-6.29 66.369-16.825 8.862-4.557 17.354-10.199 25.433-16.104 7.117-5.174 10.152-13.557 16.272-19.763 5.399-5.475 12.864-9.394 20.506-8.77 7.641.623 15.007 6.831 15.351 14.465.316 7.321-5.297 13.354-9.266 19.472-6.12 9.517-8.05 20.43-7.973 31.546.05 10.561 9.411 18.592 8.758 28.989-.613 9.092-10.285 15.298-12.084 24.228-1.448 7.116 2.301 14.558.489 21.555-2.001 7.627-9.679 12.103-16.003 16.763-12.262 9.028-21.646 21.999-26.402 36.461-1.065 3.27-1.983 6.732-4.262 9.286-2.278 2.553-6.522 3.84-9.196 1.683-4.545-3.618-1.321-12.63-2.153-17.676-1.162-7.194-4.304-14.035-8.886-19.659-10.654-13.242-30.148-18.785-46.358-21.331-6.049-.924-11.251-1.734-16.12-3.464-19.43-6.776-33.772-22.071-40.306-40.514z" stroke="url(#o)"/><path d="M50.457 166.063c-.64-1.639-1.232-3.375-1.68-5.16-1.413-5.09-1.889-10.983 1.053-15.378 2.511-3.764 7.09-5.729 11.605-6.22 4.516-.491 9.04.227 13.516.8 46.441 5.476 95.168-14.537 124.374-51.065 1.869-2.334 3.761-4.836 6.238-6.57 2.477-1.732 5.806-2.626 8.545-1.461 12.36 4.989-4.876 18.136-7.594 23.424-5.772 11.012-7.58 25.598-3.099 37.313 2.905 7.568 6.49 15.712 4.224 23.51-1.815 6.513-7.485 11.435-9.106 18.044-1.48 6.077.643 12.539-.498 18.661-1.444 7.841-7.383 12.208-12.955 17.177-6.389 5.652-11.389 13.01-16.78 19.694-1.533 1.895-3.356 3.89-5.798 3.834-5.777-.128-7.61-10-10.174-13.728-4.127-6.183-10.227-11.046-16.8-14.456-9.921-5.176-21.055-7.515-31.996-10-22.32-5.306-44.536-16.462-53.075-38.419z" stroke="url(#p)" stroke-width="2"/><path d="M57.62 166.934c-1.103-5.599 2.25-9.973 10.495-9.475 12.355.711 24.133 1.862 36.569.446 15.213-1.798 30.071-6.059 44.046-12.198 11.781-5.231 21.692-11.922 32.006-19.558 1.804-1.342 4.065-2.76 6.15-1.856 2.351.975 2.712 4.162 2.706 6.748-.002 6.622-1.463 12.046.828 18.29 2.686 7.4 4.353 14.18 1.846 21.98-1.823 5.547-5.292 10.525-6.679 16.166-1.243 5.35-.527 11-1.746 16.422-2.111 9.199-13.05 27.788-24.407 24.556-4.916-1.391-8.593-5.305-11.978-9.076-4.994-5.644-11.27-11.497-18.657-13.742-11.626-3.544-23.693-4.595-35.203-8.986-12.334-4.675-23.985-11.844-32.177-22.131-2.097-2.595-3.396-5.221-3.8-7.586h.001z" stroke="url(#q)"/><path d="M61.665 167.409c-.148-.434-.272-.796-.347-1.255-.201-1.062-.284-2.487.58-3.508.982-1.143 3.154-1.641 5.959-1.468 2.127.082 4.207.261 6.262.367 10.396.653 20.31 1.309 30.935.026 15.141-1.773 30.337-5.988 45.155-12.496 5.324-2.381 9.916-5.966 14.628-9.431 3.607-2.683 11.746-10.305 16.68-9.808 5.2.568 3.368 15.082 5.095 20.145l.173.506.666 1.953c2.097 6.149 3.101 11.458 1.138 17.538-.71 2.18-1.734 4.387-2.83 6.618-1.453 3.079-3.026 6.281-3.847 9.791-.728 3.074-.828 6.096-1.049 8.997-.151 2.636-.278 5.102-.77 7.45-1.384 5.882-7.013 16.604-13.728 20.59-2.142 1.296-4.121 1.648-5.986 1.153-3.85-1.109-6.991-4.398-10.206-7.904-4.554-5.067-11.589-12.196-20.404-14.841-5.135-1.56-10.363-2.683-15.397-3.712-6.777-1.402-13.215-2.759-19.515-5.132-13.28-5.079-23.576-12.064-30.55-20.909-1.17-1.539-2.124-3.152-2.642-4.67z" stroke="url(#r)"/><path d="M82.955 173.718c.763-4.863 15.734.204 23.51-.672 16.228-1.901 32.534-6.414 48.315-13.412 4.771-2.112 10.088-5.46 13.589-9.399 1.391-1.605 3.58-2.998 5.448-2.02 1.649.81 1.978 2.959 2.087 4.698.179 4.784 3.492 8.579 1.883 13.569-.473 1.454-1.331 3.2-2.259 5.212-1.644 3.468-3.55 7.348-4.724 12.189-.938 4.116-1.13 7.815-1.301 11.103-.129 2.224-.212 4.11-.493 5.417-.774 3.413-2.465 10.53-7.058 10.32-4.255-.163-9.117-7.791-12.277-10.427-4.863-4.075-10.3-7.468-16.427-9.335-5.595-1.725-11.065-2.847-16.365-3.946-6.608-1.38-12.344-2.572-17.82-4.661-5.574-2.136-16.872-3.773-16.108-8.636z" stroke="url(#s)"/><path d="M128.002 178.207c-.422-1.713.608-2.952 2.027-4.001 3.343-2.271 7.933-2.545 11.795-3.297 5.382-1.029 11.014-.85 16.099-2.988 2.627-1.058 4.259-2.665 5.985-4.707 1.606-1.92 2.567-2.652 4.636-.612 4.624 4.56-5.049 10.766-6.81 18.149-.68 2.978 4.09 14.593-1.779 15.142-.628.053-1.21-.233-1.72-.544-2.063-1.315-3.431-3.432-5.399-4.941a65.474 65.474 0 0 0-6.727-4.569c-2.742-1.649-5.605-3.175-8.538-4.436-1.43-.642-2.982-1.405-4.459-1.709-2.348-.491-3.901 2.058-4.986-1.125l-.124-.362z" stroke="url(#t)"/><path d="M430.596 286.712c6.859-7.588 9.479-20.028 19.221-23.19 5.522-1.803 11.457.21 17.287.967 23.271 3.124 43.048-16.542 46.419-39.09 1.8-12.241-4.798-22.587-3.406-34.367 1.529-13.037 10.636-23.976 15.775-35.661 3.806-8.727 5.648-18.238 5.486-27.711-.377-19.331-16.92-52.205-41.336-46.137-7.527 1.84-13.624 7.877-16.789 14.932-7.423 16.824-1.088 48.416-26.623 53.331-5.768 1.079-12.159-.374-17.36 2.369-8.403 4.481-8.174 16.515-12.756 24.861-4.344 7.861-13.061 12.368-21.697 14.749-8.611 2.453-17.74 3.386-26.079 6.635-10.991 4.233-20.719 12.881-24.12 24.215-3.425 11.262.44 24.963 10.465 31.152 10.025 6.19 24.783 4.951 31.544 14.595 2.661 3.776 3.492 8.579 5.479 12.746 6.646 13.802 28.201 16.866 38.49 5.604z" stroke="url(#u)"/><path d="M352.095 238.151c-1.456-4.268-1.562-9.077-.262-13.315 2.576-8.308 9.873-15.561 19.586-19.278 4.508-1.699 9.382-2.796 14.523-3.823 3.547-.726 7.24-1.501 10.905-2.59 12.736-3.617 21.611-9.794 26.336-18.43 1.98-3.664 3.209-7.636 4.247-11.22 1.676-5.739 2.956-9.325 5.412-10.647 1.637-.882 4.199-.948 7.171-.993 2.417-.017 5.123-.132 7.947-.611 22.977-4.366 26.14-25.632 28.449-41.115.97-6.387 1.847-12.339 3.702-16.605 2.38-5.334 6.798-9.425 11.623-10.667 5.959-1.467 11.457.21 16.882 5.223 5.059 4.654 9.606 12.065 12.394 20.239 1.628 4.774 2.532 9.553 2.656 13.467.179 8.337-1.526 16.832-4.88 24.516-1.522 3.588-3.599 7.203-5.699 10.988-4.632 8.201-9.406 16.693-10.616 26.877-.845 6.99.626 13.433 1.897 19.055 1.149 5.26 2.271 10.207 1.507 15.07-2.702 17.879-18.508 35.221-37.812 32.601-1.186-.161-2.493-.442-3.847-.626-5.01-.956-10.769-1.979-16.797-.003-9.019 2.914-13.507 10.824-17.088 17.133-1.767 3.106-3.438 6.018-5.381 8.134-3.118 3.405-8.303 5.012-13.843 4.157-5.516-.783-10.08-3.748-12.092-7.988-.589-1.253-1.082-2.699-1.697-4.266-1.012-2.965-2.244-6.34-4.441-9.467-5.638-8.008-14.525-10.387-22.298-12.581-4.358-1.178-8.45-2.285-11.509-4.149-3.13-1.839-5.618-5.108-6.975-9.086z" stroke="url(#v)"/><path d="M360.686 227.152a7.431 7.431 0 0 1-.839-2.459c-.993-7.171 7.471-13.369 13.256-15.584 3.64-1.403 7.863-2.279 12.762-3.304 3.765-.799 7.602-1.624 11.726-2.788 8.828-2.527 17.476-6.527 24.321-12.738 7.589-6.868 9.581-15.703 14.211-24.146 1.098-1.989 2.753-3.765 4.851-4.481 3.11-1.061 6.332.101 9.494-.573 3.306-.724 6.967-2.538 9.976-4.13 7.585-4.041 13.461-10.487 17.323-18.102 6.127-12.103 6.588-25.664 9.494-38.687.657-2.808 1.674-5.981 4.301-7.04 1.928-.738 4.253-.078 5.906 1.216 4.908 3.737 8.292 10.819 10.217 16.46 1.233 3.617 1.984 7.237 2.027 9.968.119 6.742-1.186 13.566-3.922 19.748-1.309 3.03-3.243 6.355-5.176 9.921-4.917 8.783-10.575 18.707-12.059 31.164-1.074 8.925.672 16.647 2.069 22.873.997 4.343 1.796 8.107 1.381 10.914-1.824 12.169-12.516 24.618-24.95 22.964-.919-.09-2.057-.348-3.267-.581-5.784-1.095-13.624-2.539-22.473.399-6.463 2.123-11.655 6.075-16.067 11.132-1.51 1.727-3.335 3.48-4.36 5.444-1.479 2.766-1.555 5.86-3.591 8.412-2.132 2.746-6.205 4.297-9.214 2.578-2.621-1.529-3.465-4.713-4.524-7.582-4.213-11.402-14.33-20.467-26.119-23.309-3.535-.893-7.186-1.182-10.58-2.608-2.568-.901-4.973-2.745-6.174-5.081z" stroke="url(#w)" stroke-width="2"/><path d="M372.788 221.885c-.197-.579-.25-1.207-.278-1.762.3-5.513 6.958-7.299 9.177-7.895 3.329-.893 6.615-.965 9.829-1.011 2.876-.093 5.606-.136 8.043-.805 11.119-3.147 20.293-7.973 27.378-14.427 3.578-3.239 6.716-7.297 9.39-12.004.549-.995 1.119-2.401 1.64-3.951 1.139-3.053 2.443-6.566 5.062-8.832 2.666-2.363 5.781-2.699 8.268-2.982.942-.08 1.715-.182 2.463-.356 3.064-.722 6.342-2.002 10.171-4.035 6.621-3.55 9.933-10.413 13.744-18.415.858-1.746 1.691-3.564 2.621-5.335.048-.097 6.497-11.018 13.046-10.991 2.345.008 4.239 1.3 5.318 3.516.098.289.245.481.343.771.716 2.097.271 4.106.038 5.316-.14.775-.304 1.477-.444 2.251-.747 3.727-1.542 7.551-3.692 11.191-1.123 1.918-2.319 3.618-3.588 5.342-.813 1.166-1.627 2.332-2.368 3.473-4.878 7.478-7.396 13.827-8.054 19.946-1.185 10.256.761 19.039 2.232 25.482 1.598 7.288 1.69 17.027-7.507 22.021-6.405 3.477-13.712 2.174-19.544 1.176-6.001-1.022-10.469-.628-17.148 1.57-5.16 1.679-9.901 4.588-14.535 8.995-.36.365-1.175 1.289-1.893 2.261-3.14 3.816-7.07 8.629-11.515 8.853-1.812.134-3.581-.555-4.919-1.875-1.557-1.487-2.246-3.271-2.789-4.862l-.296-.868-.124-.362c-1.478-4.098-5.444-7.913-12.261-11.563-.51-.311-2.593-.973-4.143-1.494-5.935-2.013-10.273-3.602-12.39-5.786-.587-1.011-1.004-1.757-1.275-2.553z" stroke="url(#x)"/><path d="M376.896 221.375c-.365-.36-.586-.769-.54-1.108.151-2.635 4.493-3.874 6.398-4.443 5.837-1.588 12.203-.206 17.944-1.841 11.698-3.345 21.426-8.44 28.943-15.283 4.131-3.751 7.459-8.197 10.181-13.001 1.957-3.494 2.908-9.229 5.839-11.762 2.546-2.242 6.029-1.734 9.166-2.481 3.812-.897 7.595-2.591 11.086-4.428 9.367-4.971 12.847-15.364 17.973-25.429.906-1.843 8.999-12.679 11.572-7.501.54 1.108.259 2.415.026 3.625-.937 4.357-1.511 8.591-3.709 12.328-1.743 2.936-3.947 5.707-5.836 8.693-4.232 6.53-7.831 13.733-8.622 21.593-1.302 10.861.768 20.006 2.241 26.69 1.497 6.757 1.306 14.009-5.628 17.827-5.104 2.791-11.347 1.771-17.106.748-7.113-1.207-12.28-.494-18.984 1.631-6.101 2-11.297 5.468-15.955 9.803-2.497 2.386-9.189 13.066-13.058 9.299-1.217-1.2-1.689-3.058-2.257-4.721-2.219-6.268-8.388-10.624-14.016-13.63-2.352-1.216-13.151-3.992-15.658-6.609z" stroke="url(#y)"/><path d="M398.071 220.935c.119-.363.406-.704.935-1.046.914-.634 2.1-.474 3.188-.36 7.499.914 13.735-2.344 20.238-5.531 5.805-2.868 11.29-6.435 16.021-10.794 3.578-3.239 6.645-7.031 9.3-11.086 2.414-3.811 3.247-9.182 6.342-12.418 2.495-2.627 5.809-2.143 8.946-2.89 4.126-.923 8.293-2.91 11.268-6.024.84-.852 1.678-1.945 2.934-2.051.845-.126 1.815.35 2.304 1.072 1.687 2.816-3.03 9.108-3.71 12.086-1.896 8.882.534 17.663 2.456 26.374 1.897 8.639-1.088 10.303-2.581 11.135-3.347 1.788-8.501.881-13.122.116-8.76-1.534-15.132-.33-21.956 1.917-4.509 1.458-8.602 3.661-12.522 6.371-3.079 2.1-7.543 10.083-10.923 10.59-1.69.253-3.388-.702-4.46-1.951-1.512-1.826-1.987-4.167-3.498-5.993-1.901-2.259-4.236-4.369-6.88-5.728-.972-.719-5.041-1.995-4.28-3.789z" stroke="url(#z)"/><path d="M413.671 226.19c.237-.727.715-1.455 1.534-1.896 9.317-5.116 18.865-8.373 27.006-15.753 3.506-3.214 6.695-6.886 9.301-10.843 1.34-1.992 2.485-4.078 3.534-6.212 1.977-4.147 3.116-7.2 8.084-8.733 1.76-.52 3.962-.221 5.108 1.245.828 1.01.983 2.41 1.089 3.666.571 5.7 1.095 11.497 1.666 17.196.259 2.415.807 4.732 1.185 7.025.377 2.051.389 3.743-2.587 3.305-9.749-1.358-18.697-2.262-28.345.464-5.741 1.635-11.258 4.162-16.14 7.604-2.285 1.587-4.775 4.94-7.232 6.02-2.169.982-4.934-.497-4.203-3.088z" stroke="url(#A)"/><path d="M354.555 189.517c.176-.239.368-.467.575-.681 6.542-8.045 13.128-13.118 22.962-16.957 11.039-4.331 23.314-8.114 30.085-17.853 5.695-8.16 6.415-19.306 13.228-26.556 5.733-6.154 14.564-8.198 22.521-10.912 16.033-5.55 26.262-21.959 22.928-39.07-1.856-9.703-11.106-26.169-18.672-33.198-11.847-11.058-28.493-6.834-42.713-4.728-26.992 3.958-48.315-21.148-74.933-12.069-13.575 4.47-24.956 15.135-30.374 28.368-2.281 5.623-3.567 11.795-2.8 17.832 2.195 16.612 19.296 29.108 18.882 45.883-.229 8.799-5.49 16.811-12.29 22.442-7.065 5.801-16.501 7.728-21.355 15.278-3.108 4.855-4.375 13.685-6.27 19.257-1.94 5.911-12.622 30.226-5.529 35.396 6.656 4.836 22.07-2.764 29.432-4.144 20.008-3.838 41.29-1.811 54.323-18.288z" stroke="url(#B)"/><path d="M284.398 197.143c-4.483-8.645 4.686-28.164 10.759-34.031 6.001-5.842 13.415-10.148 19.198-16.158 8.782-9.051 13.501-21.966 12.591-34.575-1.42-20.025-24.631-31.73-16.17-52.138 4.207-10.156 12.899-18.29 23.34-21.77l.072-.024c10.343-3.528 20.4.389 32.057 4.972 14.153 5.508 27.955 9.279 43.237 6.973 6.832-1.04 13.783-2.441 20.581-1.45 13.33 1.914 20.558 16.002 24.53 27.647.518 1.519.791 2.556.941 3.232 5.241 27.201-27.981 24.968-41.543 38.234-8.281 8.154-9.3 21.502-16.779 30.351-13.616 15.949-37.01 16.016-51.051 33.321-.24.244-.383.535-.623.778-7.571 9.527-21.966 14.195-33.356 16.788-6.225 1.397-13.393 2.873-19.803 2.072-4.475-.573-6.854-2.103-7.981-4.222z" stroke="url(#C)"/><path d="M297.574 187.233c-2.707-3.437-1.057-9.49 5.616-15.966 2.377-2.264 5.19-4.434 8.122-6.727 3.774-2.902 7.668-5.926 11.316-9.673 10.989-11.339 16.918-27.574 15.792-43.421a42.2 42.2 0 0 0-2.15-10.327c-2.245-6.584-5.862-12.213-9.014-17.194-2.565-3.97-4.96-7.674-6.119-11.075-1.037-3.037-.981-5.478.207-8.387 2.899-7.125 9.022-12.847 16.352-15.267l.144-.05c6.076-2.072 12.787.322 24.178 4.834 10.905 4.275 22.337 7.723 34.086 8.318 12.017.664 24.875-6.144 35.988.16 6.478 3.603 14.654 15.026 12.559 23.088-1.86 7.094-10.014 9.23-16.28 11.69-7.544 2.978-16.1 6.3-22.389 12.483-6.121 5.964-9.091 13.356-11.656 19.802-1.806 4.412-3.444 8.604-5.818 11.352-4.962 5.81-12.165 9.075-20.574 12.831-10.167 4.518-21.707 9.747-30.645 20.709-.24.243-.455.559-.67.874-5.87 7.413-17.022 12.832-26.17 14.418-6.542 1.182-10.875.076-12.875-2.472z" stroke="url(#D)"/><path d="M300.307 184.366c-.617-1.808.879-5.71 5.535-10.286 2.185-2.118 4.925-4.264 7.738-6.434 3.894-3.024 7.932-6.098 11.747-10.064 11.758-12.166 18.041-29.49 16.812-46.35-.292-3.696-1.044-7.558-2.302-11.247-2.393-7.016-6.181-12.91-9.455-18.011-2.419-3.778-4.691-7.363-5.678-10.256-.74-2.17-.678-3.645.153-5.705 2.519-6.108 7.778-11.05 14.023-13.1l.217-.074c4.846-1.653 11.025.6 21.639 4.73 13.789 5.39 24.707 8.045 35.249 8.648 4.763.233 9.519-.501 14.081-1.33 7.338-1.212 14.29-2.372 20.186.946 3.494 1.958 8.245 7.362 10.145 12.932.764 2.242.997 4.343.573 5.94-1.06 3.996-5.204 5.813-11.448 8.105-.868.296-1.711.664-2.579.96-7.905 3.1-16.823 6.546-23.64 13.313-6.649 6.547-9.833 14.255-12.589 21.09-1.663 4.12-3.231 8.046-5.197 10.331-4.387 5.13-11.253 8.199-19.227 11.808-10.577 4.738-22.551 10.114-32.04 21.83-.24.243-.455.559-.743.899-4.791 6.075-14.59 11.437-23.811 13.048-5.406.956-8.313.009-9.167-1.072l-.222-.651z" stroke="url(#E)"/><path d="M349.864 110.689c-.296-4.42-1.246-8.861-2.726-13.2-1.481-4.34-3.421-8.846-5.817-12.793-2.127-3.393-5.289-6.27-7.03-9.956-1.571-3.42-1.818-7.697.432-10.807 1.867-2.574 5.242-3.806 8.456-3.853 5.1.037 10.121 2.684 14.774 4.49 14.613 5.673 26.233 8.492 37.669 9.113 5.584.275 11.016-.609 15.747-1.415 6.18-1.058 11.611-1.942 15.202.063 3.178 1.742 7.631 6.037 5.605 10.04-2.074 4.098-8.402 4.722-12.332 5.982a58.206 58.206 0 0 0-14.979 7.693c-6.421 4.613-11.889 10.596-15.878 17.367-3.535 5.97-4.707 14.606-9.19 19.93-3.211 3.841-9.379 6.591-16.535 9.759-10.817 4.981-12.081-13.402-13.398-32.413z" stroke="url(#F)"/><path d="M361.35 133.911c-.122-.12-.316-.215-.462-.408-1.048-1.177-1.301-2.867-1.433-4.437-.672-6.23-1.585-12.459-2.016-18.692l-.026-.314c-.931-12.198-5.364-24.01-13.26-33.428-.95-1.13-1.998-2.306-2.564-3.728-.565-1.422-.36-3.188.744-4.21 1.49-1.316 3.887-.68 5.728-.016 8.433 3.179 16.796 6.867 25.37 9.514 6.056 1.89 15.203 3.616 21.555 3.064 5.343.277 9.943-2.1 14.962-3.247 2.919-.672 6.036-.767 8.989-.16.702.165 3.703.676 3.974 1.472.814 2.387-7.146 4.617-8.689 5.063-4.848 1.412-9.819 2.46-13.955 5.487-7.262 5.223-13.499 12.033-17.989 19.702-1.911 3.155-3.071 6.619-4.305 9.866-2.158 5.985-5.428 11.784-11.402 14.629-1.54.929-3.715.944-5.221-.157z" stroke="url(#G)"/><path d="M321.38 177.25c1.849-1.681 3.139-3.817 4.867-5.617 3.358-3.649 7.91-5.928 11.876-8.977 2.548-1.999 2.799-4.104 3.964-6.843.166-.46.404-.945.401-1.429-.003-.483-.345-1.012-.781-1.106-.436-.093-.868.296-1.18.564a64.384 64.384 0 0 1-4.397 3.68c-8.489 6.126-18.855 9.823-25.566 17.846-1.078 1.336-1.982 3.421-.718 4.524.487.48 1.164.572 1.842.664 3.409.29 7.051-.871 9.692-3.306z" stroke="url(#H)"/><path d="M285.817 1c-5.642 15.652-11.425 32.078-9.038 48.544 3.019 20.449 18.445 38.685 16.268 59.291-.316 3.096-1.092 6.267-2.959 8.842-5.674 7.749-18.755 6.802-24.21 14.718-3.828 5.586-2.156 13.09.304 19.357 2.533 6.242 5.913 12.598 5.041 19.275-1.12 9.264-9.631 15.559-14.384 23.64-5.542 9.319-5.68 20.751-7.103 31.492-1.424 10.74-5.04 22.39-14.475 27.87-4.526 2.593-9.885 3.452-14.728 5.589-10.504 4.713-17.246 15.249-21.57 26.01-4.251 10.736-6.733 22.161-12.026 32.445-5.294 10.284-14.291 19.652-25.736 21.133-8.789 1.222-17.417-2.295-25.49-5.84-17.357-7.564-35.277-16.067-46.644-31.165-7.734-10.362-11.835-23.094-19.039-33.799-7.229-10.776-19.69-19.849-32.334-16.909" stroke="url(#I)" stroke-width="2"/><path d="M490.801 51.797c-8.718 7.819-15.416 17.774-19.399 28.823-3.532 9.764-4.982 20.191-8.443 29.93-3.46 9.74-9.556 19.329-19.171 23.335-3.615 1.476-7.574 2.18-11.042 3.848-13.56 6.644-15.288 25.724-26.382 36.049-11.453 10.69-29.878 9.465-42.599 18.569-9.475 6.784-15.817 19.203-27.357 20.878-8.547 1.22-16.413-3.849-24.801-4.056-5.704-.153-19.712 4.705-10.309 11.914 1.872 1.462 4.269 2.097 6.639 2.419 6.17 1.045 11.995 1.076 15.71 6.996 2.468 3.922 3.372 8.701 4.346 13.213 2.792 12.21 11.308 23.92 23.47 28.089 10.489 3.528 22.873 1.484 32.003 7.655 6.314 4.306 9.797 11.677 15.296 16.908 17.565 16.698 42.444 7.727 63.114 5.118 19.293-2.383 31.71 20.998 48.759 26.002 7.531 2.195 15.951.13 22.421-4.337 6.47-4.468 11.258-11.027 14.737-18.108" stroke="url(#J)" stroke-width="2"/></g><defs><linearGradient id="t" x1="138.104" y1="180.425" x2="176.877" y2="192.812" gradientUnits="userSpaceOnUse"><stop stop-color="#F68146" stop-opacity=".3"/><stop offset="1" stop-color="#F68146" stop-opacity=".8"/></linearGradient><linearGradient id="b" x1="193.371" y1="315.311" x2="447.273" y2="433.789" gradientUnits="userSpaceOnUse"><stop stop-color="#F68146" stop-opacity=".3"/><stop offset="1" stop-color="#F68146" stop-opacity=".8"/></linearGradient><linearGradient id="d" x1="337.26" y1="320.295" x2="407.241" y2="329.817" gradientUnits="userSpaceOnUse"><stop stop-color="#F68146" stop-opacity=".3"/><stop offset="1" stop-color="#F68146" stop-opacity=".8"/></linearGradient><linearGradient id="e" x1="342.559" y1="321.821" x2="397.063" y2="328.922" gradientUnits="userSpaceOnUse"><stop stop-color="#F68146" stop-opacity=".3"/><stop offset="1" stop-color="#F68146" stop-opacity=".8"/></linearGradient><linearGradient id="f" x1="345.353" y1="322.842" x2="392.047" y2="329.099" gradientUnits="userSpaceOnUse"><stop stop-color="#F68146" stop-opacity=".3"/><stop offset="1" stop-color="#F68146" stop-opacity=".8"/></linearGradient><linearGradient id="g" x1="241.765" y1="288.372" x2="313.45" y2="311.217" gradientUnits="userSpaceOnUse"><stop stop-color="#F68146" stop-opacity=".3"/><stop offset="1" stop-color="#F68146" stop-opacity=".8"/></linearGradient><linearGradient id="h" x1="244.447" y1="289.084" x2="307.914" y2="310.795" gradientUnits="userSpaceOnUse"><stop stop-color="#F68146" stop-opacity=".3"/><stop offset="1" stop-color="#F68146" stop-opacity=".8"/></linearGradient><linearGradient id="i" x1="264.863" y1="275.553" x2="275.37" y2="306.354" gradientUnits="userSpaceOnUse"><stop stop-color="#1079B4"/><stop offset="1" stop-color="#21B3E4"/></linearGradient><linearGradient id="j" x1="265.476" y1="293.163" x2="280.846" y2="299.883" gradientUnits="userSpaceOnUse"><stop stop-color="#F68146" stop-opacity=".3"/><stop offset="1" stop-color="#F68146" stop-opacity=".8"/></linearGradient><linearGradient id="k" x1="57.755" y1="160.986" x2="339.199" y2="209.676" gradientUnits="userSpaceOnUse"><stop stop-color="#F68146" stop-opacity=".3"/><stop offset="1" stop-color="#F68146" stop-opacity=".8"/></linearGradient><linearGradient id="l" x1="63.082" y1="162.501" x2="329.092" y2="208.934" gradientUnits="userSpaceOnUse"><stop stop-color="#F68146" stop-opacity=".3"/><stop offset="1" stop-color="#F68146" stop-opacity=".8"/></linearGradient><linearGradient id="m" x1="71.448" y1="165.751" x2="312.317" y2="208.142" gradientUnits="userSpaceOnUse"><stop stop-color="#F68146" stop-opacity=".3"/><stop offset="1" stop-color="#F68146" stop-opacity=".8"/></linearGradient><linearGradient id="n" x1="119.956" y1="83.106" x2="191.347" y2="292.397" gradientUnits="userSpaceOnUse"><stop stop-color="#1079B4"/><stop offset="1" stop-color="#21B3E4"/></linearGradient><linearGradient id="o" x1="83.245" y1="166.251" x2="283.924" y2="210.589" gradientUnits="userSpaceOnUse"><stop stop-color="#F68146" stop-opacity=".3"/><stop offset="1" stop-color="#F68146" stop-opacity=".8"/></linearGradient><linearGradient id="p" x1="129.039" y1="107.535" x2="173.977" y2="239.275" gradientUnits="userSpaceOnUse"><stop stop-color="#1079B4"/><stop offset="1" stop-color="#21B3E4"/></linearGradient><linearGradient id="q" x1="90.883" y1="179.072" x2="214.399" y2="216.354" gradientUnits="userSpaceOnUse"><stop stop-color="#F68146" stop-opacity=".3"/><stop offset="1" stop-color="#F68146" stop-opacity=".8"/></linearGradient><linearGradient id="r" x1="93.025" y1="179.874" x2="207.184" y2="214.565" gradientUnits="userSpaceOnUse"><stop stop-color="#F68146" stop-opacity=".3"/><stop offset="1" stop-color="#F68146" stop-opacity=".8"/></linearGradient><linearGradient id="s" x1="106.313" y1="183.64" x2="187.211" y2="212.865" gradientUnits="userSpaceOnUse"><stop stop-color="#F68146" stop-opacity=".3"/><stop offset="1" stop-color="#F68146" stop-opacity=".8"/></linearGradient><linearGradient id="c" x1="196.031" y1="316.007" x2="440.599" y2="433.071" gradientUnits="userSpaceOnUse"><stop stop-color="#F68146" stop-opacity=".3"/><stop offset="1" stop-color="#F68146" stop-opacity=".8"/></linearGradient><linearGradient id="u" x1="369.201" y1="177.346" x2="573.686" y2="225.917" gradientUnits="userSpaceOnUse"><stop stop-color="#F68146" stop-opacity=".3"/><stop offset="1" stop-color="#F68146" stop-opacity=".8"/></linearGradient><linearGradient id="v" x1="374.42" y1="178.844" x2="563.211" y2="225.119" gradientUnits="userSpaceOnUse"><stop stop-color="#F68146" stop-opacity=".3"/><stop offset="1" stop-color="#F68146" stop-opacity=".8"/></linearGradient><linearGradient id="w" x1="417.437" y1="117.85" x2="462.355" y2="249.532" gradientUnits="userSpaceOnUse"><stop stop-color="#1079B4"/><stop offset="1" stop-color="#21B3E4"/></linearGradient><linearGradient id="x" x1="393.556" y1="190.359" x2="513.98" y2="238.533" gradientUnits="userSpaceOnUse"><stop stop-color="#F68146" stop-opacity=".3"/><stop offset="1" stop-color="#F68146" stop-opacity=".8"/></linearGradient><linearGradient id="y" x1="396.22" y1="190.949" x2="507.8" y2="238.128" gradientUnits="userSpaceOnUse"><stop stop-color="#F68146" stop-opacity=".3"/><stop offset="1" stop-color="#F68146" stop-opacity=".8"/></linearGradient><linearGradient id="z" x1="412.479" y1="205.42" x2="480.031" y2="239.673" gradientUnits="userSpaceOnUse"><stop stop-color="#F68146" stop-opacity=".3"/><stop offset="1" stop-color="#F68146" stop-opacity=".8"/></linearGradient><linearGradient id="A" x1="420.791" y1="207.446" x2="468.084" y2="231.563" gradientUnits="userSpaceOnUse"><stop stop-color="#F68146" stop-opacity=".3"/><stop offset="1" stop-color="#F68146" stop-opacity=".8"/></linearGradient><linearGradient id="B" x1="279.421" y1="96.293" x2="486.125" y2="158.765" gradientUnits="userSpaceOnUse"><stop stop-color="#F68146" stop-opacity=".3"/><stop offset="1" stop-color="#F68146" stop-opacity=".8"/></linearGradient><linearGradient id="C" x1="292.893" y1="97.439" x2="473.083" y2="151.381" gradientUnits="userSpaceOnUse"><stop stop-color="#F68146" stop-opacity=".3"/><stop offset="1" stop-color="#F68146" stop-opacity=".8"/></linearGradient><linearGradient id="D" x1="304.268" y1="99.005" x2="459.866" y2="147.082" gradientUnits="userSpaceOnUse"><stop stop-color="#F68146" stop-opacity=".3"/><stop offset="1" stop-color="#F68146" stop-opacity=".8"/></linearGradient><linearGradient id="E" x1="343.53" y1="50.858" x2="381.542" y2="162.294" gradientUnits="userSpaceOnUse"><stop stop-color="#1079B4"/><stop offset="1" stop-color="#21B3E4"/></linearGradient><linearGradient id="F" x1="354.514" y1="81.954" x2="446.926" y2="99.508" gradientUnits="userSpaceOnUse"><stop stop-color="#F68146" stop-opacity=".3"/><stop offset="1" stop-color="#F68146" stop-opacity=".8"/></linearGradient><linearGradient id="G" x1="359.94" y1="84.021" x2="435.427" y2="98.379" gradientUnits="userSpaceOnUse"><stop stop-color="#F68146" stop-opacity=".3"/><stop offset="1" stop-color="#F68146" stop-opacity=".8"/></linearGradient><linearGradient id="H" x1="313.924" y1="167.976" x2="339.074" y2="183.101" gradientUnits="userSpaceOnUse"><stop stop-color="#F68146" stop-opacity=".3"/><stop offset="1" stop-color="#F68146" stop-opacity=".8"/></linearGradient><linearGradient id="I" x1="137.276" y1="50.549" x2="228.28" y2="317.336" gradientUnits="userSpaceOnUse"><stop stop-color="#1079B4"/><stop offset="1" stop-color="#21B3E4"/></linearGradient><linearGradient id="J" x1="379.846" y1="88.56" x2="468.009" y2="347.018" gradientUnits="userSpaceOnUse"><stop stop-color="#1079B4"/><stop offset="1" stop-color="#21B3E4"/></linearGradient><clipPath id="a"><path fill="#fff" d="M0 0h548.79v435.16H0z"/></clipPath></defs></svg>