<svg width="420" height="454" fill="none" xmlns="http://www.w3.org/2000/svg"><g clip-path="url(#a)"><path d="M103.065 371.749c-1.069-3.133-1.578-6.456-1.413-9.635.453-10.023 6.311-19.766 15.707-26.094 3.61-2.418 7.578-4.334 11.509-6.174 7.62-3.661 14.775-7.039 18.037-13.772 1.659-3.377 2.117-7.343 2.555-11.552.439-4.022.877-8.231 2.513-12.224 3.713-9.074 11.419-13.764 18.884-18.246 3.871-2.383 7.557-4.577 10.659-7.384 2.917-2.618 4.801-5.884 6.814-9.319 3.4-5.782 7.223-12.332 16.365-15.013 10.335-3.026 22.287.704 29.038 9.144 3.282 4.127 5.26 9.011 7.106 13.69 2.092 5.219 4.034 10.178 7.666 13.686 4.894 4.826 12.29 6.55 19.461 8.164.955.236 1.966.454 2.921.69 8.033 1.944 13.521 6.13 18.839 10.187 4.06 3.112 7.856 6.002 12.73 8.024 7.461 3.014 18.657 5.441 29.739-.338.521-.303 1.062-.55 1.639-.872 3.11-1.685 6.573-3.616 10.706-3.402 8.004.393 10.928 4.205 11.997 7.338 3.148 9.231-6.553 22.721-9.591 26.63-3.65 4.68-7.493 8.427-10.231 9.923-11.34 6.304-24.491 7.667-35.796 8.213-3.738.213-7.884.691-12.274 1.189-14.83 1.748-31.584 3.716-43.401-4.744-4.322-3.148-7.38-7.351-10.324-11.406-2.473-3.404-4.832-6.659-7.803-9.143-7.615-6.396-19.528-7.079-27.808-1.507-.651.472-1.302.944-2.008 1.435-2.046 1.51-4.333 3.227-7.188 4.013-4.515 1.228-8.844-.293-12.667-1.612-2.267-.788-4.329-1.522-6.405-1.75-6.885-.775-13.146 4.671-15.742 10.428-2.578 5.626-3.014 12.77-1.456 21.732.273 1.531.62 3.099.912 4.686.87 4.2 1.798 8.568 1.829 13.054.11 7.645-2.593 14.188-7.332 18.053-3.142 2.508-7.434 3.659-11.494 3.108-3.48-.499-6.446-2.235-8.297-4.914-.717-1.005-1.192-2.029-1.628-2.942-.474-1.025-.911-1.938-1.494-2.551-1.112-1.245-3.153-1.735-5.325-2.243-.88-.2-1.76-.399-2.622-.73-6.951-2.251-12.693-8.099-15.327-15.82z" stroke="url(#b)" stroke-miterlimit="10"/><path d="M344.577 333.463c8.763-11.296 16.345-28.435-.278-29.197-3.871-.179-7.332 2.126-10.778 3.926-10.337 5.399-21.67 4.768-32.206.43-11.904-4.87-17.881-14.886-31.138-18.046-8.445-2.053-17.578-3.56-23.77-9.629-7.53-7.425-8.436-19.42-15.055-27.655-5.997-7.51-16.694-10.856-25.891-8.156-12.891 3.772-13.535 15.984-22.024 23.689-9.343 8.496-23.638 11.998-28.784 24.558-3.107 7.555-1.53 16.573-5.142 23.926-5.51 11.311-20.072 14.029-30.529 21.094-7.982 5.346-13.958 14.192-14.377 23.766-.419 9.574 5.483 19.552 14.7 22.404 3.222 1.025 7 1.297 9.279 3.768 1.507 1.671 2.103 3.967 3.368 5.846 3.324 4.799 10.97 4.877 15.524 1.2 4.555-3.677 6.306-9.896 6.209-15.671-.059-5.851-1.669-11.485-2.7-17.254-1.419-7.823-1.646-16.177 1.687-23.435 3.277-7.238 10.864-13.011 18.777-12.151 6.155.649 12.017 5.02 17.97 3.427 3.153-.826 5.585-3.217 8.339-5.031 9.284-6.29 22.786-5.524 31.361 1.669 6.938 5.877 10.592 15.124 17.957 20.419 14.241 10.256 37.581 3.794 53.746 3.027 11.922-.57 24.081-2.094 34.547-7.85 2.272-1.212 5.837-4.676 9.208-9.074z" stroke="url(#c)" stroke-miterlimit="10"/><path d="M240.276 322.135c-.992-2.909-1.162-5.786-1.294-8.739l-.293-7.083c-.065-1.289-.198-4.242 1.934-6.78 2.355-2.802 6.256-3.633 10.471-2.261 4.385 1.503 7.842 3.946 11.223 6.353 2.8 1.98 5.374 3.85 8.128 4.784 1.986.697 4.288 1.036 6.758 1.318 2.488.338 5.033.656 7.674 1.442 5.263 1.514 9.518 5.747 11.388 11.23.63 1.846.961 3.732.955 5.545.03 4.299-1.758 8.032-4.808 10.259-2.25 1.642-6.277 3.203-12.254 1.244a131.437 131.437 0 0 1-5.997-2.201c-4.03-1.561-7.498-2.939-11.557-3.303-.655-.089-1.291-.122-2.002-.191-5.91-.483-13.298-1.085-17.939-7.184-.981-1.227-1.814-2.754-2.387-4.433z" stroke="url(#d)" stroke-miterlimit="10"/><path d="M291.265 328.032c.007-4.374-2.908-9.625-8.116-11.159-4.851-1.406-10.028-1.201-14.788-2.888-7.027-2.474-12.211-8.7-19.275-11.1-1.35-.477-3.108-.689-3.979.42-.631.715-.623 1.837-.56 2.752.109 2.336.238 4.728.292 7.083.118 3.457.387 7.176 2.518 9.946 3.471 4.5 10.089 4.491 15.775 5.049 7.034.661 12.364 3.653 18.828 5.757 6.407 2.124 9.318-1.43 9.305-5.86z" stroke="url(#e)" stroke-miterlimit="10"/><path d="M248.677 319.265c-1.482-3.429-1.122-8.049-1.539-11.654-.098-.653-.123-1.457.416-1.891.632-.528 1.608-.048 2.321.395 5.615 3.644 11.182 8.428 17.516 10.701 2.848 1.027 5.73 1.418 8.536 1.773 2.227.302 4.379.567 6.402 1.189 3.54 1.041 9.39 8.851 4.211 11.429-2.031 1.005-4.469-.099-6.55-1.075a58.141 58.141 0 0 0-18.879-5.178c-2.844-.279-5.798-.333-8.386-1.511-2.062-.921-3.269-2.445-4.048-4.178z" stroke="url(#f)" stroke-miterlimit="10"/><path d="M208.738 307.286c7.427-7.155 23.178-51.063.417-44.736-5.989 1.668-9.159 8.121-14.389 11.466-3.368 2.211-7.475 2.987-11.108 4.789-5.943 2.901-12.809 10.053-16.416 15.592-1.683 2.573-2.351 5.924-.93 8.624 3.58 6.836 10.952 2.448 16.471 3.063 6.249.742 11.522 6.313 18.022 5.595 3.064-.358 5.723-2.265 7.933-4.393z" stroke="url(#g)" stroke-miterlimit="10"/><path d="M168.727 301.135c-.496-1.455-.117-3.457.993-5.148 3.329-5.07 9.805-11.901 15.208-14.556 1.341-.645 2.777-1.197 4.287-1.712 2.387-.877 4.83-1.772 7.137-3.247 2.345-1.549 4.294-3.525 6.131-5.463 2.394-2.503 4.639-4.893 7.438-5.66 6.045-1.688 7.018 1.166 7.495 2.564 3.168 9.288-5.737 32.436-10.713 37.256-2.302 2.222-4.295 3.339-6.219 3.558-2.82.338-5.615-1.082-8.597-2.501-2.701-1.327-5.534-2.672-8.733-3.079-2.076-.229-4.224.067-6.241.38-4.631.705-6.556.737-7.958-1.908-.113-.148-.17-.316-.228-.484z" stroke="url(#h)" stroke-miterlimit="10"/><path d="M175.713 297.816c-1.288-2.309 2.516-6.354 4.135-7.469 2.772-1.944 6.15-2.66 9.339-3.747 7.049-2.405 13.45-6.712 18.421-12.28.723-.809 1.428-1.673 2.377-2.185.95-.511 2.24-.576 3.048.147 1.242 1.076.769 2.986.163 4.504-2.073 5.641-4.221 11.246-6.294 16.887-1.157 3.018-2.517 6.354-5.424 7.721-2.682 1.29-5.921.583-8.659-.669-2.738-1.252-5.255-2.954-8.139-3.719-1.573-.4-3.406-.462-4.972.072-1.399.477-2.936 2.563-3.957.85l-.038-.112z" stroke="url(#i)" stroke-miterlimit="10"/><path d="M189.844 292.554a.399.399 0 0 1 .109-.412c.149-.113.411-.077.654-.098 1.366.159 2.89-1.048 4.044-1.692 1.248-.737 2.457-1.587 3.685-2.381 1.024-.661 2.028-1.379 3.165-1.891.484-.228 1.378-.72 1.941-.35.02.056.075.037.095.092.904 1.004-.297 2.975-.871 3.857-.37.564-.815 1.09-1.129 1.635-.517.863-.828 1.781-1.215 2.663-.276.656-.68 1.668-1.369 2.028-.317.17-1.494.197-3.613-.704a57.1 57.1 0 0 1-2.345-1.199c-.844-.461-1.779-.454-2.567-.935-.169-.13-.339-.259-.452-.408a.447.447 0 0 1-.132-.205z" stroke="url(#j)" stroke-miterlimit="10"/><path d="M17.247 240.638C8.06 233.841.351 224.978-4.86 214.827c-10.669-20.657-7.602-39.315-3.697-61.008 4.372-24.351 22.017-21.876 42.908-17.76 21.62 4.242 44.653-.741 63.228-12.386 19.189-12.042 29.422-37.704 55.649-34.971 17.921 1.819 31.895 19.349 39.719 34.23 1.781 3.39 3.379 7.342 2.339 11.069-1.203 4.345-5.578 6.9-9.375 9.319-8.485 5.517-12.235 19.975-7.33 29.044 3.106 5.811 9.12 10.442 9.353 16.983.341 8.691-9.36 14.123-12.763 22.092-4.671 11.024 3.131 25.476-4.186 34.967-5.28 6.86-15.486 6.968-23.027 11.227-20.295 11.545-14.026 47.318-34.265 58.843-9.719 5.564-23.52 2.277-29.716-7.101-9.315-14.124 3.198-39.877-12.327-49.321-6.927-4.195-15.434-4.416-23.37-5.893-11.175-1.997-21.844-6.727-31.033-13.523z" stroke="url(#k)" stroke-miterlimit="10"/><path d="M-3.163 203.877c-5.535-16.225-2.655-32.134.386-49.036 1.151-6.513 3.383-10.772 6.676-13.02 6.028-4.117 16.789-2.416 29.312.057 22.5 4.442 47.086-.384 67.503-13.22 7.054-4.405 12.826-10.371 18.431-16.093 10.171-10.464 18.95-19.517 33.504-18.048 18.37 1.853 31.518 24.287 35.099 31.122.701 1.322 1.195 2.403 1.519 3.354.477 1.399.597 2.482.378 3.306-.548 1.874-3.357 3.706-6.075 5.445l-.874.548c-9.807 6.406-14.766 21.713-10.797 33.35a25.593 25.593 0 0 0 1.483 3.429c1.306 2.365 2.835 4.467 4.381 6.438 1.698 2.231 3.302 4.37 3.97 6.328.21.615.326 1.138.33 1.698.113 2.897-2.427 5.887-5.356 9.385-2.447 2.895-5.247 6.224-6.957 10.18-2.704 6.356-2.152 13.1-1.681 19.06.491 6.016.882 11.191-1.73 14.518-2.168 2.801-6.215 4.119-10.897 5.591-3.432 1.108-6.994 2.199-10.383 4.166-12.233 6.984-16.287 20.733-19.884 32.89-3.251 10.977-6.319 21.392-14.381 25.953-7.001 4.012-17.412 1.505-21.833-5.231-.623-.911-1.098-1.936-1.499-3.111-1.546-4.532-1.455-10.309-1.423-16.44.103-6.656.186-13.554-1.895-19.653-1.774-5.203-4.943-9.181-9.448-11.954-6.308-3.844-13.27-4.842-20.024-5.786-1.909-.285-3.667-.497-5.408-.84-10.126-1.855-20.026-6.16-28.613-12.475-8.607-6.37-15.655-14.583-20.411-23.766-1.271-2.627-2.45-5.348-3.403-8.145z" stroke="url(#l)" stroke-miterlimit="10"/><path d="M5.57 200.906c-4.001-10.815-5.075-22.752-2.818-34.077 1.03-5.223 2.899-10.545 6.686-14.273 6.071-6.005 13.201-4.877 20.469-2.797 7.08 2.081 14.226 2.705 21.683 2.596 18.954-.282 37.775-6.077 53.837-16.115 7.966-5.028 14.128-11.315 20.03-17.45 10.486-10.822 16.448-16.416 26.287-15.4 6.978.68 13.316 6.262 17.423 10.795 3.297 3.622 9.191 9.731 8.93 15.191-.142 3.796-1.802 4.425-4.422 6.63-4.238 3.507-6.614 5.879-8.93 11.54-3.417 8.473-4.134 18.274-1.157 27.002 1.947 5.706 7.915 9.104 7.176 15.727-.669 5.911-5.783 9.779-8.703 14.585-3.511 5.82-3.754 11.149-2.587 17.683.934 5.303 1.519 11.412-2.211 15.307-2.394 2.503-5.921 3.332-9.222 4.457-18.48 6.429-26.159 23.101-31.328 40.541-1.716 5.769-3.324 13.875-7.385 18.446-2.523 2.859-7.037 4.274-10.229 2.24-3.136-2.053-3.67-6.368-3.903-10.161-.885-17.061.834-35.822-15.874-45.987-11.189-6.801-23.835-5.423-35.715-9.49-12.46-4.306-23.604-12.621-31.12-23.486-2.795-4.168-5.164-8.731-6.917-13.504z" stroke="url(#m)" stroke-miterlimit="10"/><path d="M7.756 198.344c-3.435-10.07-4.145-20.758-2.122-30.941 1.193-5.841 3.07-10.041 5.892-12.753 4.679-4.594 9.99-4.22 17.595-2.067 6.856 1.971 14.021 2.837 22.6 2.721 19.44-.323 38.598-6.046 55.367-16.575 8.282-5.199 14.518-11.635 20.569-17.884 12.936-13.344 25.055-20.476 40.567-5.031 3.877 3.861 6.293 9.845 4.366 14.999-.661 1.724-1.697 3.264-2.733 4.804-8.791 12.68-14.469 24.048-9.049 39.937.897 2.629 2.445 4.787 3.842 6.684 1.189 1.655 2.321 3.143 2.874 4.765.344 1.007.425 1.979.339 3.007-.371 3.125-2.465 5.775-4.707 8.539-1.223 1.541-2.502 3.102-3.537 4.829-4.398 7.246-4.035 13.805-2.946 19.742.799 4.724 1.321 9.917-1.407 12.721-1.466 1.562-3.891 2.327-6.408 3.185l-1.623.554c-20.27 7.039-28.161 25.47-33.164 42.478-.33 1.05-.64 2.155-.931 3.316-1.404 5.038-2.953 10.75-5.827 14.042-1.577 1.787-4.56 2.929-6.4 1.746-.732-.5-1.318-1.3-1.737-2.531-.535-1.566-.717-3.565-.823-5.34-.108-2.149-.18-4.373-.288-6.522-.264-8.28-.548-16.802-3.162-24.466-2.596-7.609-7.084-13.261-13.861-17.382-7.171-4.362-14.881-5.542-22.293-6.761-4.884-.77-9.487-1.448-13.966-3.043-12.03-4.141-22.554-12.105-29.692-22.412-2.72-3.944-4.956-8.302-6.688-12.833-.284-.465-.475-1.024-.647-1.528z" stroke="url(#n)" stroke-miterlimit="10"/><path d="M18.56 196.528c-2.728-7.814-3.723-16.406-2.53-24.994.407-3.2 1.318-6.571 3.828-8.551 2.12-1.66 4.996-2.016 7.654-1.549 4.117.719 21.525 3.962 26.497 3.89 17.831-.274 35.502-4.865 51.334-13.014 6.855-3.525 13.423-7.889 19.672-12.456 5.505-4.001 7.853-10.486 12.586-15.286 4.177-4.235 9.95-7.266 15.861-6.784 5.91.482 11.608 5.284 11.874 11.189.245 5.663-4.097 10.329-7.167 15.061-4.734 7.361-6.227 15.802-6.167 24.401.039 8.168 7.279 14.38 6.774 22.422-.474 7.032-7.955 11.832-9.346 18.74-1.121 5.504 1.779 11.26.378 16.672-1.548 5.899-7.487 9.361-12.378 12.966-9.485 6.983-16.743 17.016-20.422 28.201-.824 2.53-1.534 5.208-3.296 7.183-1.762 1.975-5.045 2.97-7.113 1.302-3.515-2.798-1.022-9.77-1.666-13.672-.899-5.564-3.328-10.856-6.873-15.206-8.24-10.242-23.319-14.53-35.857-16.499-4.678-.715-8.702-1.341-12.469-2.679-15.028-5.242-26.121-17.072-31.175-31.337z" stroke="url(#o)" stroke-miterlimit="10"/><path d="M26.464 193.332a33.263 33.263 0 0 1-1.3-3.991c-1.092-3.937-1.46-8.495.815-11.895 1.942-2.911 5.484-4.431 8.977-4.81 3.493-.38 6.992.175 10.453.618 35.921 4.236 73.611-11.244 96.201-39.498 1.446-1.804 2.909-3.74 4.825-5.081 1.916-1.34 4.491-2.031 6.61-1.13 9.56 3.859-3.772 14.028-5.874 18.118-4.465 8.518-5.863 19.799-2.397 28.86 2.246 5.854 5.02 12.153 3.267 18.185-1.404 5.038-5.789 8.845-7.043 13.957-1.145 4.7.497 9.698-.386 14.434-1.116 6.064-5.71 9.442-10.02 13.286-4.942 4.371-8.809 10.062-12.979 15.232-1.186 1.467-2.596 3.009-4.484 2.966-4.469-.099-5.887-7.735-7.87-10.619-3.192-4.781-7.91-8.543-12.995-11.181-7.673-4.003-16.285-5.812-24.748-7.734-17.264-4.105-34.447-12.733-41.052-29.717z" stroke="url(#p)" stroke-width="2" stroke-miterlimit="10"/><path d="M32.004 194.006c-.853-4.331 1.74-7.714 8.118-7.329 9.556.551 18.666 1.44 28.285.345 11.768-1.391 23.26-4.686 34.069-9.435 9.113-4.045 16.778-9.221 24.756-15.128 1.395-1.037 3.145-2.134 4.757-1.435 1.819.754 2.098 3.22 2.093 5.22-.002 5.122-1.132 9.317.641 14.146 2.077 5.725 3.366 10.968 1.427 17.001-1.41 4.291-4.093 8.142-5.166 12.505-.961 4.138-.408 8.508-1.35 12.702-1.633 7.115-10.094 21.493-18.879 18.993-3.802-1.076-6.646-4.103-9.265-7.02-3.862-4.366-8.717-8.893-14.43-10.629-8.992-2.741-18.326-3.555-27.23-6.951-9.54-3.616-18.55-9.161-24.887-17.117-1.622-2.008-2.627-4.038-2.939-5.868z" stroke="url(#q)" stroke-miterlimit="10"/><path d="M35.133 194.373c-.114-.336-.21-.616-.269-.971-.155-.821-.218-1.923.449-2.713.76-.884 2.44-1.27 4.61-1.135 1.645.063 3.253.201 4.843.284 8.041.504 15.71 1.012 23.928.02 11.71-1.372 23.465-4.632 34.926-9.666 4.118-1.842 7.67-4.615 11.315-7.294 2.789-2.076 9.085-7.971 12.901-7.587 4.022.44 2.605 11.666 3.941 15.582l.134.392.515 1.51c1.622 4.756 2.399 8.863.88 13.565-.549 1.687-1.341 3.393-2.189 5.119-1.124 2.382-2.34 4.858-2.975 7.573-.563 2.378-.64 4.715-.812 6.959-.116 2.039-.215 3.946-.595 5.762-1.071 4.55-5.425 12.843-10.619 15.926-1.657 1.003-3.187 1.275-4.63.893-2.978-.858-5.407-3.402-7.893-6.114-3.523-3.92-8.964-9.434-15.783-11.48-3.972-1.206-8.015-2.075-11.91-2.87-5.24-1.085-10.22-2.135-15.094-3.97-10.271-3.929-18.235-9.332-23.629-16.173-.905-1.19-1.643-2.437-2.044-3.612z" stroke="url(#r)" stroke-miterlimit="10"/><path d="M51.6 199.254c.59-3.762 12.17.158 18.185-.52 12.552-1.471 25.164-4.961 37.371-10.374 3.69-1.633 7.803-4.223 10.511-7.27 1.075-1.241 2.769-2.319 4.214-1.562 1.275.626 1.53 2.288 1.614 3.634.138 3.7 2.701 6.635 1.456 10.495-.366 1.124-1.029 2.475-1.747 4.031-1.271 2.682-2.746 5.684-3.654 9.429-.726 3.183-.874 6.044-1.006 8.587-.1 1.72-.165 3.179-.382 4.19-.598 2.64-1.906 8.145-5.459 7.983-3.291-.127-7.052-6.026-9.496-8.066-3.761-3.151-7.967-5.776-12.706-7.22-4.328-1.334-8.558-2.202-12.658-3.052-5.11-1.067-9.548-1.99-13.784-3.605-4.31-1.653-13.05-2.919-12.459-6.68z" stroke="url(#s)" stroke-miterlimit="10"/><path d="M86.444 202.725c-.327-1.325.47-2.284 1.567-3.095 2.586-1.757 6.136-1.968 9.123-2.55 4.163-.795 8.52-.658 12.453-2.311 2.032-.818 3.294-2.061 4.629-3.641 1.242-1.485 1.986-2.051 3.586-.473 3.576 3.526-3.905 8.327-5.267 14.038-.526 2.303 3.163 11.287-1.377 11.712-.485.04-.936-.181-1.33-.421-1.596-1.017-2.654-2.655-4.176-3.822a50.87 50.87 0 0 0-5.203-3.534c-2.121-1.275-4.335-2.456-6.604-3.431-1.106-.497-2.307-1.087-3.449-1.322-1.816-.38-3.017 1.592-3.857-.87l-.095-.28z" stroke="url(#t)" stroke-miterlimit="10"/><path d="M320.493 286.653c5.306-5.87 7.332-15.492 14.867-17.938 4.271-1.394 8.862.163 13.371.748 18 2.417 33.297-12.794 35.905-30.235 1.392-9.468-3.711-17.471-2.635-26.582 1.182-10.084 8.227-18.545 12.201-27.583 2.944-6.75 4.37-14.107 4.244-21.434-.292-14.952-13.087-40.379-31.972-35.686-5.822 1.424-10.538 6.093-12.986 11.549-5.742 13.014-.842 37.449-20.593 41.251-4.462.835-9.404-.29-13.427 1.832-6.5 3.466-6.323 12.775-9.867 19.23-3.36 6.08-10.103 9.567-16.782 11.408-6.66 1.897-13.721 2.619-20.172 5.132-8.501 3.274-16.025 9.963-18.656 18.73-2.649 8.711.341 19.308 8.095 24.095 7.753 4.788 19.168 3.829 24.398 11.289 2.058 2.92 2.701 6.636 4.238 9.859 5.14 10.676 21.813 13.045 29.771 4.335z" stroke="url(#u)" stroke-miterlimit="10"/><path d="M259.774 249.091c-1.125-3.301-1.208-7.02-.202-10.298 1.992-6.426 7.636-12.036 15.149-14.911 3.487-1.315 7.257-2.163 11.233-2.958 2.744-.561 5.6-1.16 8.436-2.003 9.85-2.798 16.715-7.575 20.369-14.255 1.532-2.834 2.483-5.906 3.286-8.678 1.296-4.44 2.286-7.213 4.186-8.236 1.266-.682 3.247-.733 5.546-.768 1.87-.013 3.963-.102 6.147-.473 17.773-3.376 20.219-19.825 22.004-31.801.751-4.94 1.429-9.544 2.864-12.844 1.841-4.125 5.258-7.29 8.99-8.25 4.61-1.135 8.862.162 13.058 4.04 3.913 3.599 7.43 9.332 9.587 15.654 1.259 3.692 1.958 7.389 2.054 10.417.138 6.448-1.18 13.018-3.775 18.962-1.177 2.775-2.783 5.572-4.408 8.499-3.582 6.344-7.275 12.912-8.211 20.788-.654 5.407.484 10.391 1.468 14.739.888 4.069 1.756 7.895 1.165 11.657-2.09 13.829-14.315 27.243-29.247 25.216-.917-.125-1.928-.342-2.976-.484-3.874-.74-8.329-1.531-12.991-.003-6.976 2.255-10.448 8.373-13.218 13.253-1.366 2.402-2.659 4.654-4.162 6.291-2.411 2.634-6.422 3.877-10.707 3.215-4.267-.606-7.797-2.899-9.353-6.178-.455-.969-.837-2.088-1.313-3.3-.782-2.294-1.735-4.904-3.434-7.322-4.362-6.195-11.235-8.035-17.247-9.731-3.372-.911-6.537-1.768-8.902-3.209-2.422-1.423-4.346-3.952-5.396-7.029z" stroke="url(#v)" stroke-miterlimit="10"/><path d="M266.419 240.583a5.774 5.774 0 0 1-.649-1.902c-.767-5.547 5.779-10.34 10.254-12.054 2.815-1.085 6.082-1.762 9.871-2.555 2.912-.619 5.879-1.256 9.07-2.157 6.828-1.955 13.517-5.048 18.811-9.852 5.87-5.313 7.411-12.147 10.992-18.677.85-1.539 2.13-2.912 3.752-3.466 2.406-.82 4.898.078 7.344-.443 2.557-.56 5.388-1.964 7.716-3.195 5.867-3.125 10.412-8.111 13.399-14.001 4.739-9.361 5.096-19.851 7.343-29.924.509-2.172 1.295-4.626 3.327-5.444 1.492-.571 3.29-.06 4.568.94 3.796 2.89 6.414 8.368 7.903 12.731.954 2.798 1.534 5.598 1.568 7.71.092 5.215-.918 10.493-3.034 15.275-1.012 2.344-2.508 4.915-4.003 7.673-3.803 6.794-8.18 14.47-9.328 24.105-.83 6.904.52 12.876 1.6 17.692.772 3.359 1.39 6.271 1.069 8.442-1.411 9.412-9.681 19.041-19.299 17.762-.71-.07-1.59-.269-2.526-.45-4.474-.847-10.538-1.964-17.383.309-4.998 1.642-9.015 4.699-12.427 8.611-1.169 1.335-2.58 2.691-3.373 4.211-1.144 2.139-1.202 4.532-2.777 6.506-1.649 2.123-4.8 3.323-7.127 1.994-2.027-1.183-2.68-3.646-3.499-5.864-3.259-8.82-11.084-15.831-20.203-18.029-2.734-.692-5.558-.915-8.183-2.018-1.986-.697-3.847-2.123-4.776-3.93z" stroke="url(#w)" stroke-width="2" stroke-miterlimit="10"/><path d="M275.78 236.511c-.153-.448-.193-.934-.215-1.364.232-4.263 5.382-5.645 7.098-6.106 2.575-.691 5.117-.746 7.603-.782 2.224-.072 4.336-.105 6.22-.623 8.601-2.434 15.697-6.166 21.177-11.158 2.768-2.506 5.195-5.644 7.263-9.285.424-.77.866-1.857 1.268-3.056.881-2.362 1.89-5.079 3.916-6.832 2.062-1.828 4.472-2.087 6.395-2.307.729-.061 1.327-.14 1.905-.275 2.37-.558 4.906-1.548 7.867-3.12 5.122-2.747 7.683-8.055 10.631-14.244.663-1.351 1.308-2.757 2.027-4.127.037-.075 5.025-8.522 10.091-8.501 1.814.006 3.279 1.005 4.113 2.719.076.224.19.373.266.597.553 1.622.209 3.176.029 4.112-.108.599-.235 1.142-.343 1.741-.578 2.883-1.193 5.841-2.856 8.656-.868 1.483-1.794 2.798-2.775 4.132a96.84 96.84 0 0 0-1.832 2.686c-3.773 5.784-5.72 10.695-6.229 15.428-.917 7.933.588 14.726 1.726 19.71 1.236 5.636 1.307 13.169-5.807 17.032-4.953 2.69-10.606 1.682-15.116.91-4.642-.79-8.098-.486-13.264 1.214-3.992 1.299-7.658 3.549-11.242 6.958a18.9 18.9 0 0 0-1.465 1.748c-2.428 2.952-5.468 6.675-8.906 6.848-1.402.104-2.77-.429-3.805-1.45-1.205-1.15-1.738-2.53-2.158-3.761l-.229-.671-.095-.28c-1.144-3.17-4.211-6.121-9.484-8.944-.394-.24-2.005-.752-3.205-1.155-4.59-1.557-7.945-2.786-9.583-4.476-.454-.782-.776-1.359-.986-1.974z" stroke="url(#x)" stroke-miterlimit="10"/><path d="M278.957 236.115c-.282-.278-.453-.595-.417-.857.117-2.038 3.475-2.996 4.948-3.437 4.516-1.227 9.439-.159 13.88-1.424 9.048-2.586 16.572-6.527 22.387-11.821 3.195-2.901 5.769-6.34 7.874-10.056 1.514-2.702 2.249-7.137 4.516-9.097 1.97-1.734 4.664-1.342 7.09-1.919 2.949-.694 5.875-2.004 8.576-3.425 7.244-3.845 9.936-11.884 13.901-19.669.7-1.426 6.96-9.807 8.951-5.801.417.857.2 1.868.02 2.803-.725 3.37-1.169 6.645-2.869 9.535-1.348 2.272-3.053 4.415-4.514 6.724-3.273 5.052-6.057 10.623-6.669 16.703-1.007 8.4.594 15.474 1.733 20.644 1.158 5.226 1.01 10.835-4.353 13.788-3.948 2.159-8.776 1.37-13.231.579-5.502-.934-9.499-.383-14.684 1.261-4.718 1.547-8.738 4.23-12.341 7.583-1.931 1.845-7.107 10.106-10.1 7.192-.941-.928-1.306-2.365-1.745-3.651-1.716-4.849-6.488-8.218-10.841-10.543-1.82-.94-10.172-3.088-12.112-5.112z" stroke="url(#y)" stroke-miterlimit="10"/><path d="M295.336 235.776c.092-.281.314-.544.723-.809.707-.491 1.624-.366 2.466-.279 5.8.708 10.624-1.812 15.654-4.278 4.49-2.218 8.732-4.977 12.391-8.349 2.768-2.505 5.14-5.438 7.194-8.574 1.867-2.948 2.511-7.102 4.905-9.605 1.93-2.033 4.493-1.658 6.92-2.236 3.191-.714 6.414-2.25 8.716-4.659.649-.659 1.298-1.505 2.269-1.586.654-.098 1.404.27 1.782.829 1.305 2.178-2.344 7.045-2.87 9.348-1.466 6.87.413 13.662 1.9 20.399 1.467 6.682-.842 7.97-1.996 8.613-2.589 1.383-6.576.682-10.15.09-6.776-1.187-11.704-.255-16.982 1.483-3.488 1.127-6.654 2.832-9.686 4.928-2.382 1.624-5.834 7.799-8.449 8.191-1.307.196-2.621-.543-3.45-1.509-1.169-1.413-1.536-3.223-2.705-4.636-1.471-1.747-3.277-3.379-5.321-4.43-.752-.556-3.899-1.543-3.311-2.931z" stroke="url(#z)" stroke-miterlimit="10"/><path d="M307.402 239.84c.183-.562.553-1.126 1.186-1.467 7.207-3.957 14.592-6.476 20.889-12.184 2.712-2.486 5.179-5.326 7.195-8.387 1.036-1.541 1.922-3.154 2.733-4.805 1.529-3.207 2.41-5.569 6.252-6.755 1.362-.402 3.065-.171 3.951.964.641.78.761 1.864.843 2.835.442 4.409.847 8.892 1.289 13.301.2 1.868.624 3.659.916 5.433.292 1.587.301 2.895-2.001 2.556-7.54-1.05-14.462-1.749-21.924.359-4.441 1.265-8.708 3.22-12.484 5.882-1.767 1.228-3.693 3.821-5.594 4.657-1.677.759-3.816-.385-3.251-2.389z" stroke="url(#A)" stroke-miterlimit="10"/><path d="M261.677 211.474c.129-.169.259-.339.444-.527 5.06-6.223 10.155-10.146 17.761-13.116 8.538-3.349 18.033-6.276 23.27-13.808 4.405-6.312 4.962-14.934 10.232-20.541 4.434-4.761 11.265-6.341 17.419-8.44 12.401-4.293 20.313-16.985 17.735-30.221-1.436-7.504-8.591-20.241-14.443-25.677-9.163-8.553-22.039-5.286-33.038-3.657-20.877 3.062-37.37-16.358-57.958-9.335-10.5 3.457-19.303 11.706-23.494 21.942-1.764 4.349-2.759 9.123-2.166 13.792 1.698 12.849 14.925 22.515 14.605 35.49-.177 6.806-4.246 13.003-9.506 17.358-5.465 4.487-12.763 5.978-16.517 11.817-2.404 3.756-3.385 10.586-4.85 14.896-1.501 4.571-9.763 23.378-4.277 27.378 5.148 3.74 17.071-2.138 22.765-3.206 15.476-2.968 31.937-1.401 42.018-14.145z" stroke="url(#B)" stroke-miterlimit="10"/><path d="M207.412 217.372c-3.467-6.687 3.624-21.785 8.322-26.323 4.642-4.519 10.376-7.849 14.849-12.497 6.792-7.002 10.443-16.991 9.739-26.744-1.099-15.489-19.052-24.542-12.507-40.327 3.254-7.856 9.977-14.146 18.052-16.838l.056-.02c8.001-2.728 15.78.302 24.796 3.847 10.947 4.26 21.622 7.176 33.443 5.393 5.284-.804 10.66-1.888 15.919-1.121 10.31 1.48 15.901 12.376 18.973 21.384.401 1.175.612 1.977.728 2.5 4.054 21.039-21.643 19.311-32.133 29.573-6.405 6.307-7.193 16.631-12.978 23.476-10.531 12.336-28.626 12.388-39.487 25.773-.186.188-.296.413-.482.602-5.856 7.368-16.99 10.979-25.8 12.985-4.815 1.08-10.359 2.222-15.317 1.602-3.461-.443-5.302-1.627-6.173-3.265z" stroke="url(#C)" stroke-miterlimit="10"/><path d="M217.603 209.708c-2.093-2.659-.818-7.341 4.344-12.35 1.839-1.751 4.014-3.43 6.282-5.203 2.919-2.245 5.931-4.584 8.753-7.482 8.5-8.771 13.086-21.327 12.215-33.584a32.661 32.661 0 0 0-1.663-7.989c-1.737-5.091-4.534-9.446-6.972-13.299-1.985-3.07-3.837-5.936-4.734-8.565-.801-2.35-.758-4.239.161-6.488 2.242-5.512 6.978-9.938 12.647-11.809l.112-.038c4.7-1.603 9.891.248 18.701 3.739 8.435 3.305 17.277 5.973 26.365 6.433 9.295.515 19.24-4.752 27.836.123 5.01 2.788 11.334 11.623 9.714 17.859-1.438 5.488-7.745 7.139-12.592 9.043-5.835 2.302-12.453 4.872-17.318 9.654-4.734 4.613-7.031 10.331-9.015 15.317-1.397 3.412-2.664 6.655-4.5 8.78-3.838 4.494-9.41 7.019-15.914 9.925-7.864 3.494-16.79 7.538-23.703 16.017-.186.189-.352.433-.519.677-4.54 5.733-13.165 9.925-20.242 11.152-5.059.914-8.411.058-9.958-1.912z" stroke="url(#D)" stroke-miterlimit="10"/><path d="M219.717 207.49c-.477-1.399.68-4.417 4.282-7.956 1.689-1.638 3.809-3.298 5.984-4.977 3.012-2.339 6.136-4.716 9.087-7.784 9.094-9.41 13.954-22.81 13.003-35.851a35.955 35.955 0 0 0-1.78-8.699c-1.852-5.426-4.781-9.986-7.313-13.931-1.871-2.922-3.629-5.695-4.393-7.933-.572-1.678-.524-2.819.119-4.412 1.949-4.725 6.016-8.548 10.846-10.133l.168-.057c3.749-1.279 8.528.463 16.738 3.659 10.665 4.169 19.11 6.222 27.264 6.689 3.684.179 7.362-.388 10.891-1.03 5.676-.937 11.054-1.834 15.614.732 2.702 1.514 6.377 5.695 7.846 10.003.592 1.734.772 3.359.444 4.595-.82 3.09-4.025 4.496-8.855 6.268-.671.229-1.323.514-1.995.743-6.114 2.398-13.012 5.063-18.285 10.297-5.142 5.064-7.606 11.026-9.737 16.312-1.286 3.187-2.499 6.224-4.02 7.992-3.393 3.968-8.704 6.342-14.872 9.133-8.181 3.665-17.442 7.823-24.781 16.885-.186.188-.353.432-.575.695-3.706 4.699-11.285 8.846-18.417 10.092-4.183.74-6.431.008-7.091-.829l-.172-.503z" stroke="url(#E)" stroke-miterlimit="10"/><path d="M258.049 150.504c-.23-3.42-.964-6.854-2.109-10.211s-2.646-6.842-4.5-9.895c-1.644-2.624-4.09-4.85-5.437-7.701-1.215-2.646-1.406-5.953.334-8.358 1.444-1.992 4.055-2.945 6.541-2.981 3.944.029 7.828 2.077 11.427 3.472 11.303 4.389 20.291 6.569 29.136 7.05 4.32.213 8.521-.471 12.18-1.095 4.78-.818 8.981-1.502 11.759.049 2.458 1.348 5.902 4.67 4.335 7.765-1.604 3.17-6.499 3.653-9.539 4.628a45.05 45.05 0 0 0-11.586 5.95 44.387 44.387 0 0 0-12.281 13.433c-2.734 4.618-3.641 11.298-7.108 15.416-2.484 2.971-7.255 5.098-12.789 7.548-8.367 3.853-9.345-10.366-10.363-25.07z" stroke="url(#F)" stroke-miterlimit="10"/><path d="M266.932 168.463c-.094-.092-.244-.166-.357-.315-.81-.91-1.006-2.217-1.108-3.432-.52-4.819-1.226-9.637-1.559-14.458l-.021-.242c-.72-9.436-4.148-18.571-10.256-25.857-.735-.873-1.545-1.783-1.983-2.883-.437-1.1-.279-2.466.576-3.257 1.152-1.017 3.006-.526 4.43-.012 6.522 2.459 12.991 5.312 19.623 7.359 4.684 1.463 11.759 2.797 16.673 2.37 4.132.214 7.69-1.624 11.572-2.511 2.258-.521 4.669-.594 6.953-.124.543.128 2.864.523 3.074 1.138.629 1.846-5.527 3.572-6.721 3.916-3.75 1.092-7.595 1.904-10.794 4.244-5.617 4.04-10.441 9.308-13.914 15.239-1.478 2.441-2.375 5.12-3.33 7.632-1.669 4.629-4.198 9.114-8.819 11.315-1.191.718-2.874.73-4.039-.122z" stroke="url(#G)" stroke-miterlimit="10"/><path d="M236.017 201.985c1.43-1.3 2.428-2.952 3.764-4.344 2.597-2.822 6.118-4.585 9.186-6.944 1.971-1.546 2.165-3.174 3.066-5.292.129-.357.313-.732.31-1.106-.002-.373-.267-.783-.604-.855-.337-.073-.671.229-.913.436a50.126 50.126 0 0 1-3.401 2.847c-6.566 4.737-14.584 7.597-19.775 13.802-.834 1.034-1.533 2.647-.555 3.5.377.371.901.442 1.425.513 2.637.225 5.453-.673 7.497-2.557z" stroke="url(#H)" stroke-miterlimit="10"/><path d="M208.51 65.66c-4.365 12.107-8.837 24.812-6.991 37.548 2.335 15.817 14.266 29.922 12.583 45.86-.245 2.395-.845 4.848-2.289 6.839-4.389 5.994-14.507 5.261-18.726 11.385-2.961 4.32-1.668 10.124.235 14.971 1.959 4.828 4.573 9.745 3.899 14.909-.866 7.166-7.449 12.035-11.126 18.285-4.286 7.208-4.393 16.051-5.494 24.359-1.101 8.307-3.898 17.318-11.196 21.557-3.5 2.006-7.646 2.67-11.392 4.323-8.124 3.645-13.339 11.795-16.683 20.118-3.288 8.304-5.208 17.141-9.303 25.095-4.094 7.955-11.053 15.2-19.906 16.346-6.798.945-13.472-1.775-19.716-4.517-13.425-5.85-27.285-12.427-36.078-24.105-5.982-8.015-9.154-17.863-14.726-26.143-5.591-8.335-15.23-15.353-25.01-13.079" stroke="url(#I)" stroke-width="2" stroke-miterlimit="10"/><path d="M367.061 104.95a55.127 55.127 0 0 0-15.005 22.294c-2.733 7.553-3.854 15.617-6.531 23.151-2.676 7.533-7.391 14.95-14.828 18.049-2.796 1.141-5.858 1.686-8.541 2.976-10.489 5.139-11.825 19.897-20.405 27.883-8.859 8.268-23.11 7.321-32.95 14.362-7.329 5.248-12.234 14.854-21.16 16.15-6.611.943-12.695-2.977-19.183-3.138-4.412-.119-15.247 3.64-7.974 9.216 1.448 1.13 3.302 1.622 5.135 1.871 4.773.807 9.278.832 12.151 5.411 1.91 3.033 2.608 6.73 3.362 10.22 2.159 9.444 8.747 18.501 18.153 21.726 8.113 2.729 17.692 1.147 24.754 5.921 4.884 3.331 7.578 9.032 11.831 13.078 13.587 12.915 32.83 5.977 48.817 3.958 14.923-1.842 24.527 16.242 37.714 20.113 5.826 1.697 12.339.1 17.343-3.355 5.005-3.456 8.708-8.529 11.399-14.007" stroke="url(#J)" stroke-width="2" stroke-miterlimit="10"/><rect x="100" y="117" width="220" height="220" rx="37" fill="#fff" fill-opacity=".92"/><rect x="100.5" y="117.5" width="219" height="219" rx="36.5" stroke="#F68146" stroke-opacity=".8"/></g><circle cx="99.667" cy="335.667" r="75.667" fill="url(#K)"/><path d="M52.08 329.925v2.877h-3.906v11.865h-3.59v-11.865h-3.907v-2.877H52.08zm10.98 12.138h-5.502l-.882 2.604h-3.76l5.335-14.742h4.158l5.334 14.742h-3.801l-.882-2.604zm-.924-2.772-1.827-5.397-1.806 5.397h3.633zm12.564 5.523c-1.078 0-2.044-.175-2.898-.525-.854-.35-1.54-.868-2.058-1.554-.504-.686-.77-1.512-.798-2.478h3.822c.056.546.245.966.567 1.26.322.28.742.42 1.26.42.532 0 .952-.119 1.26-.357.308-.252.462-.595.462-1.029 0-.364-.126-.665-.378-.903a2.803 2.803 0 0 0-.903-.588c-.35-.154-.854-.329-1.512-.525-.952-.294-1.729-.588-2.331-.882a4.307 4.307 0 0 1-1.554-1.302c-.434-.574-.651-1.323-.651-2.247 0-1.372.497-2.443 1.491-3.213.994-.784 2.289-1.176 3.885-1.176 1.624 0 2.933.392 3.927 1.176.994.77 1.526 1.848 1.596 3.234h-3.885c-.028-.476-.203-.847-.525-1.113-.322-.28-.735-.42-1.239-.42-.434 0-.784.119-1.05.357-.266.224-.399.553-.399.987 0 .476.224.847.672 1.113.448.266 1.148.553 2.1.861.952.322 1.722.63 2.31.924a4.39 4.39 0 0 1 1.554 1.281c.434.56.651 1.281.651 2.163 0 .84-.217 1.603-.651 2.289-.42.686-1.036 1.232-1.848 1.638-.812.406-1.771.609-2.877.609zm16.763-2.751H85.96l-.882 2.604h-3.76l5.335-14.742h4.158l5.334 14.742h-3.801l-.882-2.604zm-.924-2.772-1.827-5.397-1.806 5.397h3.633zm14.748 5.376-3.066-5.565h-.861v5.565h-3.59v-14.742h6.026c1.162 0 2.149.203 2.961.609.826.406 1.442.966 1.848 1.68.406.7.609 1.484.609 2.352 0 .98-.28 1.855-.84 2.625-.546.77-1.358 1.316-2.436 1.638l3.402 5.838h-4.053zm-3.927-8.106h2.226c.658 0 1.148-.161 1.47-.483.336-.322.504-.777.504-1.365 0-.56-.168-1.001-.504-1.323-.322-.322-.812-.483-1.47-.483h-2.226v3.654zm13.7-6.636v14.742h-3.591v-14.742h3.591zm19.297 0v14.742h-3.591v-8.841l-3.297 8.841h-2.898l-3.318-8.862v8.862h-3.591v-14.742h4.242l4.137 10.206 4.095-10.206h4.221zm1.973 7.35c0-1.456.315-2.751.945-3.885a6.684 6.684 0 0 1 2.625-2.667c1.134-.644 2.415-.966 3.843-.966 1.75 0 3.248.462 4.494 1.386 1.246.924 2.079 2.184 2.499 3.78h-3.948c-.294-.616-.714-1.085-1.26-1.407-.532-.322-1.141-.483-1.827-.483-1.106 0-2.002.385-2.688 1.155-.686.77-1.029 1.799-1.029 3.087 0 1.288.343 2.317 1.029 3.087.686.77 1.582 1.155 2.688 1.155.686 0 1.295-.161 1.827-.483.546-.322.966-.791 1.26-1.407h3.948c-.42 1.596-1.253 2.856-2.499 3.78-1.246.91-2.744 1.365-4.494 1.365-1.428 0-2.709-.315-3.843-.945a6.866 6.866 0 0 1-2.625-2.667c-.63-1.134-.945-2.429-.945-3.885zm20.196-7.35v14.742h-3.591v-14.742h3.591z" fill="#fff"/><path d="m221.083 336.434-10.089 9.649-2.375-2.27 7.722-7.386-7.722-7.385 2.375-2.258 10.089 9.648v.002zm-9.105 0-10.09 9.649-2.374-2.27 7.722-7.386-7.722-7.385 2.374-2.258 10.088 9.648.002.002z" fill="url(#L)"/><circle cx="319.667" cy="336.667" r="75.667" fill="url(#M)"/><path d="M288.269 328.926v14.742h-3.591v-8.841l-3.297 8.841h-2.898l-3.318-8.862v8.862h-3.591v-14.742h4.242l4.137 10.206 4.095-10.206h4.221zm6.11 0v8.82c0 .882.217 1.561.651 2.037.434.476 1.071.714 1.911.714.84 0 1.484-.238 1.932-.714.448-.476.672-1.155.672-2.037v-8.82h3.591v8.799c0 1.316-.28 2.429-.84 3.339a5.364 5.364 0 0 1-2.268 2.058c-.938.462-1.988.693-3.15.693s-2.205-.224-3.129-.672a5.187 5.187 0 0 1-2.163-2.058c-.532-.924-.798-2.044-.798-3.36v-8.799h3.591zm.462-1.344c-.434 0-.798-.147-1.092-.441a1.483 1.483 0 0 1-.441-1.092c0-.434.147-.798.441-1.092a1.449 1.449 0 0 1 1.092-.462c.448 0 .819.147 1.113.441.294.294.441.665.441 1.113 0 .434-.154.798-.462 1.092a1.483 1.483 0 0 1-1.092.441zm4.2 0c-.434 0-.798-.147-1.092-.441a1.483 1.483 0 0 1-.441-1.092c0-.434.147-.798.441-1.092a1.449 1.449 0 0 1 1.092-.462c.448 0 .819.147 1.113.441.294.294.441.665.441 1.113 0 .434-.154.798-.462 1.092a1.483 1.483 0 0 1-1.092.441zm17.327 11.697a4.166 4.166 0 0 1-1.155 2.94c-.756.826-1.806 1.337-3.15 1.533v.84c.728 0 1.365.196 1.911.588.546.406.819 1.008.819 1.806s-.287 1.4-.861 1.806c-.574.42-1.26.63-2.058.63h-3.234v-1.974h2.751c.28 0 .49-.042.63-.126.14-.084.21-.224.21-.42 0-.196-.07-.336-.21-.42-.14-.07-.35-.105-.63-.105H309.9v-2.625c-1.358-.168-2.464-.637-3.318-1.407-.854-.784-1.302-1.813-1.344-3.087h3.822c.056.546.245.966.567 1.26.322.28.742.42 1.26.42.532 0 .952-.119 1.26-.357.308-.252.462-.595.462-1.029 0-.364-.126-.665-.378-.903a2.803 2.803 0 0 0-.903-.588c-.35-.154-.854-.329-1.512-.525-.952-.294-1.729-.588-2.331-.882a4.307 4.307 0 0 1-1.554-1.302c-.434-.574-.651-1.323-.651-2.247 0-1.372.497-2.443 1.491-3.213.994-.784 2.289-1.176 3.885-1.176 1.624 0 2.933.392 3.927 1.176.994.77 1.526 1.848 1.596 3.234h-3.885c-.028-.476-.203-.847-.525-1.113-.322-.28-.735-.42-1.239-.42-.434 0-.784.119-1.05.357-.266.224-.399.553-.399.987 0 .476.224.847.672 1.113.448.266 1.148.553 2.1.861.952.322 1.722.63 2.31.924a4.39 4.39 0 0 1 1.554 1.281c.434.56.651 1.281.651 2.163zm11.387 1.785h-5.502l-.882 2.604h-3.759l5.334-14.742h4.158l5.334 14.742h-3.801l-.882-2.604zm-.924-2.772-1.827-5.397-1.806 5.397h3.633zm21.069-9.366-5.229 14.742h-4.494l-5.229-14.742h3.822l3.654 11.13 3.675-11.13h3.801zm5.092 0v14.742h-3.591v-14.742h3.591zm-1.806-1.344c-.434 0-.798-.147-1.092-.441a1.483 1.483 0 0 1-.441-1.092c0-.434.147-.798.441-1.092a1.449 1.449 0 0 1 1.092-.462c.448 0 .819.147 1.113.441.294.294.441.665.441 1.113 0 .434-.154.798-.462 1.092a1.483 1.483 0 0 1-1.092.441zm11.926 16.086-3.066-5.565h-.861v5.565h-3.591v-14.742h6.027c1.162 0 2.149.203 2.961.609.826.406 1.442.966 1.848 1.68.406.7.609 1.484.609 2.352 0 .98-.28 1.855-.84 2.625-.546.77-1.358 1.316-2.436 1.638l3.402 5.838h-4.053zm-3.927-8.106h2.226c.658 0 1.148-.161 1.47-.483.336-.322.504-.777.504-1.365 0-.56-.168-1.001-.504-1.323-.322-.322-.812-.483-1.47-.483h-2.226v3.654z" fill="#fff"/><circle cx="319.667" cy="116.667" r="75.667" fill="url(#N)"/><path d="m278.535 111.926-5.103 9.87v4.872h-3.591v-4.872l-5.103-9.87h4.074l2.856 6.174 2.835-6.174h4.032zm4.975 0v8.82c0 .882.217 1.561.651 2.037.434.476 1.071.714 1.911.714.84 0 1.484-.238 1.932-.714.448-.476.672-1.155.672-2.037v-8.82h3.591v8.799c0 1.316-.28 2.429-.84 3.339a5.364 5.364 0 0 1-2.268 2.058c-.938.462-1.988.693-3.15.693s-2.205-.224-3.129-.672a5.187 5.187 0 0 1-2.163-2.058c-.532-.924-.798-2.044-.798-3.36v-8.799h3.591zm.462-1.344c-.434 0-.798-.147-1.092-.441a1.483 1.483 0 0 1-.441-1.092c0-.434.147-.798.441-1.092a1.449 1.449 0 0 1 1.092-.462c.448 0 .819.147 1.113.441.294.294.441.665.441 1.113 0 .434-.154.798-.462 1.092a1.483 1.483 0 0 1-1.092.441zm4.2 0c-.434 0-.798-.147-1.092-.441a1.483 1.483 0 0 1-.441-1.092c0-.434.147-.798.441-1.092a1.449 1.449 0 0 1 1.092-.462c.448 0 .819.147 1.113.441.294.294.441.665.441 1.113 0 .434-.154.798-.462 1.092a1.483 1.483 0 0 1-1.092.441zm15.163 16.086-4.956-6.51v6.51h-3.591v-14.742h3.591v6.468l4.914-6.468h4.221l-5.712 7.224 5.922 7.518h-4.389zm9.687-2.772h4.704v2.772h-8.295v-14.742h3.591v11.97zm10.008-9.093v2.982h4.809v2.772h-4.809v3.234h5.439v2.877h-9.03v-14.742h9.03v2.877h-5.439zm20.958 11.865h-3.591l-6.006-9.093v9.093H330.8v-14.742h3.591l6.006 9.135v-9.135h3.591v14.742zm6.194-14.742v14.742h-3.591v-14.742h3.591zm-1.806-1.344c-.434 0-.798-.147-1.092-.441a1.483 1.483 0 0 1-.441-1.092c0-.434.147-.798.441-1.092a1.449 1.449 0 0 1 1.092-.462c.448 0 .819.147 1.113.441.294.294.441.665.441 1.113 0 .434-.154.798-.462 1.092a1.483 1.483 0 0 1-1.092.441zm3.799 8.694c0-1.456.315-2.751.945-3.885a6.684 6.684 0 0 1 2.625-2.667c1.134-.644 2.415-.966 3.843-.966 1.75 0 3.248.462 4.494 1.386 1.246.924 2.079 2.184 2.499 3.78h-3.948c-.294-.616-.714-1.085-1.26-1.407-.532-.322-1.141-.483-1.827-.483-1.106 0-2.002.385-2.688 1.155-.686.77-1.029 1.799-1.029 3.087 0 1.288.343 2.317 1.029 3.087.686.77 1.582 1.155 2.688 1.155.686 0 1.295-.161 1.827-.483.546-.322.966-.791 1.26-1.407h3.948c-.42 1.596-1.253 2.856-2.499 3.78-1.246.91-2.744 1.365-4.494 1.365-1.428 0-2.709-.315-3.843-.945a6.866 6.866 0 0 1-2.625-2.667c-.63-1.134-.945-2.429-.945-3.885zm20.197-7.35v14.742h-3.591v-14.742h3.591zm-1.806-1.344c-.434 0-.798-.147-1.092-.441a1.483 1.483 0 0 1-.441-1.092c0-.434.147-.798.441-1.092a1.449 1.449 0 0 1 1.092-.462c.448 0 .819.147 1.113.441.294.294.441.665.441 1.113 0 .434-.154.798-.462 1.092a1.483 1.483 0 0 1-1.092.441z" fill="#fff"/><path fill-rule="evenodd" clip-rule="evenodd" d="M99.667 192.333c41.789 0 75.666-33.877 75.666-75.666 0-41.79-33.877-75.667-75.666-75.667C57.877 41 24 74.877 24 116.667c0 41.789 33.877 75.666 75.667 75.666zm77.494-90.139a82.462 82.462 0 0 1-2.975 41.125c-4.457 13.21-12.188 24.995-22.426 34.203-10.237 9.207-22.628 15.52-35.954 18.329a76.63 76.63 0 0 1-40.072-2.294l-2.214 6.641a83.642 83.642 0 0 0 43.73 2.503c14.543-3.066 28.048-9.953 39.191-19.975 11.143-10.021 19.541-22.832 24.377-37.169a89.45 89.45 0 0 0 3.229-44.62l-6.886 1.257z" fill="url(#O)"/><path d="M61.616 109.258V124h-3.59v-14.742h3.59zm-1.806-1.344c-.434 0-.798-.147-1.092-.441a1.483 1.483 0 0 1-.44-1.092c0-.434.146-.798.44-1.092a1.449 1.449 0 0 1 1.092-.462c.448 0 .82.147 1.113.441.294.294.441.665.441 1.113 0 .434-.154.798-.462 1.092a1.483 1.483 0 0 1-1.092.441zm15.119 11.697a4.166 4.166 0 0 1-1.155 2.94c-.756.826-1.806 1.337-3.15 1.533v.84c.728 0 1.365.196 1.91.588.547.406.82 1.008.82 1.806s-.287 1.4-.861 1.806c-.574.42-1.26.63-2.058.63H67.2v-1.974h2.75c.28 0 .49-.042.63-.126.14-.084.21-.224.21-.42 0-.196-.07-.336-.21-.42-.14-.07-.35-.105-.63-.105h-1.49v-2.625c-1.358-.168-2.464-.637-3.318-1.407-.854-.784-1.302-1.813-1.344-3.087h3.822c.056.546.245.966.567 1.26.322.28.742.42 1.26.42.532 0 .952-.119 1.26-.357.308-.252.462-.595.462-1.029 0-.364-.126-.665-.378-.903a2.803 2.803 0 0 0-.903-.588c-.35-.154-.854-.329-1.512-.525-.952-.294-1.73-.588-2.331-.882a4.307 4.307 0 0 1-1.554-1.302c-.434-.574-.651-1.323-.651-2.247 0-1.372.497-2.443 1.49-3.213.995-.784 2.29-1.176 3.886-1.176 1.624 0 2.933.392 3.927 1.176.994.77 1.526 1.848 1.596 3.234h-3.885c-.028-.476-.203-.847-.525-1.113-.322-.28-.735-.42-1.24-.42-.433 0-.783.119-1.05.357-.265.224-.398.553-.398.987 0 .476.224.847.672 1.113.448.266 1.148.553 2.1.861.952.322 1.722.63 2.31.924a4.39 4.39 0 0 1 1.554 1.281c.434.56.65 1.281.65 2.163zm16.049-10.353L85.748 124h-4.494l-5.229-14.742h3.822l3.654 11.13 3.675-11.13h3.802zm5.091 2.877v2.982h4.809v2.772h-4.809v3.234h5.439V124h-9.03v-14.742h9.03v2.877h-5.439zM111.358 124l-3.066-5.565h-.861V124h-3.591v-14.742h6.027c1.162 0 2.149.203 2.961.609.826.406 1.442.966 1.848 1.68.406.7.609 1.484.609 2.352 0 .98-.28 1.855-.84 2.625-.546.77-1.358 1.316-2.436 1.638l3.402 5.838h-4.053zm-3.927-8.106h2.226c.658 0 1.148-.161 1.47-.483.336-.322.504-.777.504-1.365 0-.56-.168-1.001-.504-1.323-.322-.322-.812-.483-1.47-.483h-2.226v3.654zm13.699-3.759v2.982h4.809v2.772h-4.809v3.234h5.439V124h-9.03v-14.742h9.03v2.877h-5.439zM142.088 124h-3.591l-6.006-9.093V124H128.9v-14.742h3.591l6.006 9.135v-9.135h3.591V124z" fill="#fff"/><defs><linearGradient id="v" x1="277.042" y1="203.219" x2="423.068" y2="239.011" gradientUnits="userSpaceOnUse"><stop stop-color="#F68146" stop-opacity=".3"/><stop offset="1" stop-color="#F68146" stop-opacity=".8"/></linearGradient><linearGradient id="b" x1="137.004" y1="308.772" x2="333.391" y2="400.413" gradientUnits="userSpaceOnUse"><stop stop-color="#F68146" stop-opacity=".3"/><stop offset="1" stop-color="#F68146" stop-opacity=".8"/></linearGradient><linearGradient id="d" x1="248.299" y1="312.628" x2="302.428" y2="319.993" gradientUnits="userSpaceOnUse"><stop stop-color="#F68146" stop-opacity=".3"/><stop offset="1" stop-color="#F68146" stop-opacity=".8"/></linearGradient><linearGradient id="e" x1="252.398" y1="313.808" x2="294.555" y2="319.301" gradientUnits="userSpaceOnUse"><stop stop-color="#F68146" stop-opacity=".3"/><stop offset="1" stop-color="#F68146" stop-opacity=".8"/></linearGradient><linearGradient id="f" x1="254.558" y1="314.598" x2="290.676" y2="319.438" gradientUnits="userSpaceOnUse"><stop stop-color="#F68146" stop-opacity=".3"/><stop offset="1" stop-color="#F68146" stop-opacity=".8"/></linearGradient><linearGradient id="g" x1="174.435" y1="287.935" x2="229.882" y2="305.606" gradientUnits="userSpaceOnUse"><stop stop-color="#F68146" stop-opacity=".3"/><stop offset="1" stop-color="#F68146" stop-opacity=".8"/></linearGradient><linearGradient id="h" x1="176.51" y1="288.489" x2="225.6" y2="305.281" gradientUnits="userSpaceOnUse"><stop stop-color="#F68146" stop-opacity=".3"/><stop offset="1" stop-color="#F68146" stop-opacity=".8"/></linearGradient><linearGradient id="i" x1="192.301" y1="278.021" x2="200.428" y2="301.845" gradientUnits="userSpaceOnUse"><stop stop-color="#1079B4"/><stop offset="1" stop-color="#21B3E4"/></linearGradient><linearGradient id="j" x1="192.775" y1="291.641" x2="204.664" y2="296.839" gradientUnits="userSpaceOnUse"><stop stop-color="#F68146" stop-opacity=".3"/><stop offset="1" stop-color="#F68146" stop-opacity=".8"/></linearGradient><linearGradient id="k" x1="32.109" y1="189.405" x2="249.8" y2="227.066" gradientUnits="userSpaceOnUse"><stop stop-color="#F68146" stop-opacity=".3"/><stop offset="1" stop-color="#F68146" stop-opacity=".8"/></linearGradient><linearGradient id="l" x1="36.229" y1="190.578" x2="241.982" y2="226.493" gradientUnits="userSpaceOnUse"><stop stop-color="#F68146" stop-opacity=".3"/><stop offset="1" stop-color="#F68146" stop-opacity=".8"/></linearGradient><linearGradient id="m" x1="42.7" y1="193.092" x2="229.007" y2="225.88" gradientUnits="userSpaceOnUse"><stop stop-color="#F68146" stop-opacity=".3"/><stop offset="1" stop-color="#F68146" stop-opacity=".8"/></linearGradient><linearGradient id="n" x1="80.22" y1="129.167" x2="135.44" y2="291.049" gradientUnits="userSpaceOnUse"><stop stop-color="#1079B4"/><stop offset="1" stop-color="#21B3E4"/></linearGradient><linearGradient id="o" x1="51.825" y1="193.478" x2="207.046" y2="227.772" gradientUnits="userSpaceOnUse"><stop stop-color="#F68146" stop-opacity=".3"/><stop offset="1" stop-color="#F68146" stop-opacity=".8"/></linearGradient><linearGradient id="p" x1="87.246" y1="148.062" x2="122.004" y2="249.96" gradientUnits="userSpaceOnUse"><stop stop-color="#1079B4"/><stop offset="1" stop-color="#21B3E4"/></linearGradient><linearGradient id="q" x1="57.733" y1="203.395" x2="153.27" y2="232.231" gradientUnits="userSpaceOnUse"><stop stop-color="#F68146" stop-opacity=".3"/><stop offset="1" stop-color="#F68146" stop-opacity=".8"/></linearGradient><linearGradient id="r" x1="59.39" y1="204.014" x2="147.689" y2="230.847" gradientUnits="userSpaceOnUse"><stop stop-color="#F68146" stop-opacity=".3"/><stop offset="1" stop-color="#F68146" stop-opacity=".8"/></linearGradient><linearGradient id="s" x1="69.668" y1="206.928" x2="132.24" y2="229.533" gradientUnits="userSpaceOnUse"><stop stop-color="#F68146" stop-opacity=".3"/><stop offset="1" stop-color="#F68146" stop-opacity=".8"/></linearGradient><linearGradient id="t" x1="94.257" y1="204.441" x2="124.247" y2="214.022" gradientUnits="userSpaceOnUse"><stop stop-color="#F68146" stop-opacity=".3"/><stop offset="1" stop-color="#F68146" stop-opacity=".8"/></linearGradient><linearGradient id="u" x1="273.006" y1="202.06" x2="431.171" y2="239.629" gradientUnits="userSpaceOnUse"><stop stop-color="#F68146" stop-opacity=".3"/><stop offset="1" stop-color="#F68146" stop-opacity=".8"/></linearGradient><linearGradient id="c" x1="139.062" y1="309.31" x2="328.229" y2="399.857" gradientUnits="userSpaceOnUse"><stop stop-color="#F68146" stop-opacity=".3"/><stop offset="1" stop-color="#F68146" stop-opacity=".8"/></linearGradient><linearGradient id="w" x1="310.315" y1="156.04" x2="345.058" y2="257.893" gradientUnits="userSpaceOnUse"><stop stop-color="#1079B4"/><stop offset="1" stop-color="#21B3E4"/></linearGradient><linearGradient id="x" x1="291.844" y1="212.126" x2="384.989" y2="249.388" gradientUnits="userSpaceOnUse"><stop stop-color="#F68146" stop-opacity=".3"/><stop offset="1" stop-color="#F68146" stop-opacity=".8"/></linearGradient><linearGradient id="y" x1="293.904" y1="212.581" x2="380.209" y2="249.073" gradientUnits="userSpaceOnUse"><stop stop-color="#F68146" stop-opacity=".3"/><stop offset="1" stop-color="#F68146" stop-opacity=".8"/></linearGradient><linearGradient id="z" x1="306.481" y1="223.776" x2="358.731" y2="250.269" gradientUnits="userSpaceOnUse"><stop stop-color="#F68146" stop-opacity=".3"/><stop offset="1" stop-color="#F68146" stop-opacity=".8"/></linearGradient><linearGradient id="A" x1="312.909" y1="225.342" x2="349.49" y2="243.995" gradientUnits="userSpaceOnUse"><stop stop-color="#F68146" stop-opacity=".3"/><stop offset="1" stop-color="#F68146" stop-opacity=".8"/></linearGradient><linearGradient id="B" x1="203.562" y1="139.367" x2="363.443" y2="187.688" gradientUnits="userSpaceOnUse"><stop stop-color="#F68146" stop-opacity=".3"/><stop offset="1" stop-color="#F68146" stop-opacity=".8"/></linearGradient><linearGradient id="C" x1="213.982" y1="140.253" x2="353.355" y2="181.976" gradientUnits="userSpaceOnUse"><stop stop-color="#F68146" stop-opacity=".3"/><stop offset="1" stop-color="#F68146" stop-opacity=".8"/></linearGradient><linearGradient id="D" x1="222.781" y1="141.466" x2="343.132" y2="178.652" gradientUnits="userSpaceOnUse"><stop stop-color="#F68146" stop-opacity=".3"/><stop offset="1" stop-color="#F68146" stop-opacity=".8"/></linearGradient><linearGradient id="E" x1="253.149" y1="104.224" x2="282.551" y2="190.418" gradientUnits="userSpaceOnUse"><stop stop-color="#1079B4"/><stop offset="1" stop-color="#21B3E4"/></linearGradient><linearGradient id="F" x1="261.645" y1="128.277" x2="333.124" y2="141.855" gradientUnits="userSpaceOnUse"><stop stop-color="#F68146" stop-opacity=".3"/><stop offset="1" stop-color="#F68146" stop-opacity=".8"/></linearGradient><linearGradient id="G" x1="265.842" y1="129.875" x2="324.23" y2="140.98" gradientUnits="userSpaceOnUse"><stop stop-color="#F68146" stop-opacity=".3"/><stop offset="1" stop-color="#F68146" stop-opacity=".8"/></linearGradient><linearGradient id="H" x1="230.249" y1="194.812" x2="249.703" y2="206.511" gradientUnits="userSpaceOnUse"><stop stop-color="#F68146" stop-opacity=".3"/><stop offset="1" stop-color="#F68146" stop-opacity=".8"/></linearGradient><linearGradient id="I" x1="93.616" y1="103.985" x2="164.005" y2="310.339" gradientUnits="userSpaceOnUse"><stop stop-color="#1079B4"/><stop offset="1" stop-color="#21B3E4"/></linearGradient><linearGradient id="J" x1="281.239" y1="133.386" x2="349.431" y2="333.298" gradientUnits="userSpaceOnUse"><stop stop-color="#1079B4"/><stop offset="1" stop-color="#21B3E4"/></linearGradient><linearGradient id="K" x1="24.682" y1="335.803" x2="175.333" y2="335.803" gradientUnits="userSpaceOnUse"><stop stop-color="#272B35"/><stop offset="1" stop-color="#3A3F49"/></linearGradient><linearGradient id="L" x1="210.318" y1="345.996" x2="210.318" y2="326.784" gradientUnits="userSpaceOnUse"><stop stop-color="#272B35"/><stop offset="1" stop-color="#3A3F49"/></linearGradient><linearGradient id="M" x1="244.682" y1="336.803" x2="395.333" y2="336.803" gradientUnits="userSpaceOnUse"><stop stop-color="#272B35"/><stop offset="1" stop-color="#3A3F49"/></linearGradient><linearGradient id="N" x1="244.682" y1="116.803" x2="395.333" y2="116.803" gradientUnits="userSpaceOnUse"><stop stop-color="#272B35"/><stop offset="1" stop-color="#3A3F49"/></linearGradient><linearGradient id="O" x1="24.728" y1="122.897" x2="185.5" y2="122.897" gradientUnits="userSpaceOnUse"><stop stop-color="#272B35"/><stop offset="1" stop-color="#3A3F49"/></linearGradient><clipPath id="a"><rect x="100" y="117" width="220" height="220" rx="37" fill="#fff"/></clipPath></defs></svg>