<svg width="237" height="124" viewBox="0 0 237 124" fill="none" xmlns="http://www.w3.org/2000/svg">
<g clip-path="url(#clip0_1272_5632)">
<path d="M122.082 35.0959H220.824V101.887H122.082V35.0959Z" fill="#FFC253"/>
<path d="M122.082 35.0959L168.406 77.3972C170.125 78.9595 172.742 78.9595 174.461 77.3972L220.785 35.135H122.082V35.0959Z" fill="#E09736"/>
<path d="M220.824 101.887L171.453 50.3682L220.824 97.4737V101.887Z" fill="#E09736"/>
<path d="M122.082 101.887L171.453 50.3682L122.082 97.4737V101.887Z" fill="#E09736"/>
<path d="M122.082 35.0959L167.703 73.6475C169.852 75.4833 173.015 75.4833 175.164 73.6475L220.785 35.0959H122.082Z" fill="#FFC854"/>
<path opacity="0.4" d="M212.932 101.887C212.932 101.887 209.807 100.481 210.042 97.1221C210.276 93.763 212.542 93.0989 214.534 91.849C216.526 90.6382 216.682 88.5681 216.76 86.0683C216.838 83.5685 218.518 81.0296 221.877 81.1859C225.236 81.3421 226.486 82.0061 228.908 79.1157C231.329 76.2253 234.61 76.3034 235.977 77.9049C237.344 79.5063 237.422 82.2405 235.352 84.1544C232.813 86.4589 232.149 87.0448 231.446 89.5836C230.47 93.0208 231.876 96.3799 230.626 97.9814C228.907 100.13 227.072 99.5828 225.314 100.286C223.556 100.989 223.478 101.848 223.478 101.848H212.932V101.887Z" fill="#0FC6C3"/>
<path d="M232.891 80.1312C227.775 83.1388 218.83 92.2006 217.346 101.848L232.891 80.1312Z" fill="#0FC6C3"/>
<path d="M232.891 80.1312C227.775 83.1388 218.83 92.2006 217.346 101.848" stroke="#9FE8E7" stroke-width="0.410123" stroke-miterlimit="10" stroke-linecap="round"/>
<path d="M57.9081 34.1977C60.8376 36.8928 64.0404 38.6895 67.7511 37.9864C72.985 37.0099 77.0472 31.6588 77.0472 31.6588C77.0472 31.6588 78.3752 33.4165 78.3752 33.5727C78.3752 33.729 74.938 40.6034 68.6494 42.0095C62.3999 43.4157 56.7363 38.9238 56.7363 38.9238L57.9081 34.1977Z" fill="#DD7A79"/>
<path d="M111.614 71.1868C114.075 74.663 118.723 75.8739 122.59 73.96L129.581 70.5228C130.909 69.8587 132.511 70.3275 133.292 71.5774L145.908 91.3804C146.806 92.7866 146.338 94.6224 144.892 95.4426C140.83 97.7471 132.393 101.653 123.136 100.911C110.13 99.8563 101.654 87.7479 87.319 65.2107C72.9842 42.6735 65.602 29.9011 70.1719 17.6365C73.4139 8.92623 80.5226 2.95016 84.3505 0.216005C85.7175 -0.760477 87.5924 -0.369885 88.4517 1.03625L101.068 20.8393C101.849 22.0892 101.576 23.7297 100.443 24.6671L94.3887 29.5495C91.0296 32.2446 90.1312 36.9318 92.2795 40.6424L111.614 71.1868Z" fill="#00AEAC"/>
<path d="M95.2487 28.7684L100.365 24.6671C101.498 23.7297 101.772 22.0892 100.99 20.8393L94.3113 10.3714L88.2962 0.919086C87.3978 -0.40893 85.562 -0.721403 84.2731 0.216021C82.9841 1.15344 81.3045 2.4424 79.5469 4.08289L95.2487 28.7684Z" fill="#047573"/>
<path d="M139.346 98.0987C141.573 97.2003 143.487 96.2239 144.854 95.4427C146.26 94.6615 146.729 92.8648 145.947 91.4977L132.98 71.1868C132.561 70.7115 131.996 70.3884 131.374 70.2683C130.752 70.1481 130.108 70.2376 129.542 70.5228L123.605 73.4523L139.346 98.0987Z" fill="#047573"/>
<path d="M58.1034 34.3148L60.486 36.1115C60.486 36.1115 61.5797 39.3925 59.7439 41.1111L56.5801 39.1972L58.1034 34.3148Z" fill="#E09736"/>
<path opacity="0.5" d="M16.9336 101.887C16.9336 101.887 19.2772 100.13 20.8005 96.9659C22.3629 93.6849 20.9568 90.8336 18.7694 91.2632C16.4259 91.6929 16.1134 89.818 15.4885 87.3964C14.7073 84.506 10.9576 80.3657 7.91095 80.7953C3.96596 81.3422 6.46575 85.5606 6.85635 87.0839C7.24694 88.6072 8.26248 90.3649 5.80174 90.5992C3.57536 90.8336 2.59888 92.8256 4.31749 94.8957C5.95798 96.8487 7.75471 96.8487 7.83283 98.8407C7.91095 100.833 9.16084 101.419 10.2154 101.887H16.9336Z" fill="#9FE8E7"/>
<path d="M9.55078 84.2716C9.55078 84.2716 14.941 91.3023 13.5739 101.887L9.55078 84.2716Z" fill="#9FE8E7"/>
<path opacity="0.5" d="M64.8984 101.887C64.8984 101.887 66.4217 99.8563 65.4842 96.8878C64.3125 93.06 60.7581 91.3023 62.047 88.8416C63.1016 86.7714 66.2654 87.826 67.945 90.5993C69.5464 93.2943 69.7026 98.958 67.1247 101.887H64.8984Z" fill="#9FE8E7"/>
<path d="M64.5469 89.8962C64.5469 89.8962 69.4293 95.1693 66.2264 101.887" stroke="#9FE8E7" stroke-width="0.410123" stroke-miterlimit="10" stroke-linecap="round"/>
<path opacity="0.5" d="M68.531 101.887C68.531 101.887 72.2026 99.6609 74.2337 95.0129C76.2648 90.3648 76.3429 84.9356 74.2337 83.0217C72.2807 81.2249 69.9372 82.3186 69.3513 85.4824C68.7263 88.6462 70.1325 96.6143 66.0312 101.926H68.531V101.887Z" fill="#9FE8E7"/>
<path d="M72.359 83.881C72.359 83.881 72.9839 88.6462 71.5778 93.6849C70.1717 98.7626 67.5547 101.887 67.5547 101.887" stroke="#9FE8E7" stroke-width="0.410123" stroke-miterlimit="10" stroke-linecap="round"/>
<path d="M227.972 102.747H0.646414C0.177702 102.747 -0.212891 102.356 -0.212891 101.887C-0.212891 101.419 0.177702 101.028 0.646414 101.028H227.972C228.44 101.028 228.831 101.419 228.831 101.887C228.87 102.356 228.479 102.747 227.972 102.747Z" fill="#0FC6C3"/>
<path d="M201.684 124.424H50.9541C44.1187 124.424 38.6113 118.878 38.6113 112.082V102.786H214.066V112.082C214.066 118.878 208.519 124.424 201.684 124.424Z" fill="#F1F6F9"/>
<path d="M63.1414 100.09C63.2976 100.364 63.1805 100.872 62.1259 101.34C61.0713 101.77 59.1574 101.614 58.3762 101.458C57.595 101.301 57.1653 101.067 56.0326 101.34C54.8999 101.575 53.0641 101.458 52.4782 100.989C52.2829 100.754 52.4001 100.286 52.4001 100.286L63.1414 100.09Z" fill="#8FC9C6"/>
<path d="M53.0257 96.7704C52.8694 97.5516 52.2445 99.3873 52.4398 100.247C53.221 100.911 54.9396 100.95 56.1895 100.637C57.4394 100.325 58.3768 100.95 59.9392 101.067C61.5015 101.145 62.8295 100.715 63.142 100.051C63.4936 99.3483 60.7594 98.7624 58.8846 98.2156C56.8144 97.5906 55.7208 96.536 55.7208 96.536L53.0257 96.7704Z" fill="#228C7E"/>
<mask id="mask0_1272_5632" style="mask-type:luminance" maskUnits="userSpaceOnUse" x="52" y="96" width="12" height="6">
<path d="M53.0218 96.7705C52.8655 97.5517 52.2406 99.3875 52.4359 100.247C53.2171 100.911 54.9357 100.95 56.1856 100.637C57.4355 100.325 58.3729 100.95 59.9353 101.067C61.4976 101.145 62.8256 100.715 63.1381 100.051C63.4896 99.3484 60.7555 98.7625 58.8807 98.2157C56.8105 97.5907 55.7168 96.5361 55.7168 96.5361L53.0218 96.7705Z" fill="white"/>
</mask>
<g mask="url(#mask0_1272_5632)">
<path d="M56.3418 98.2937C56.3418 98.2937 56.7324 97.2391 57.2011 96.8876" stroke="#8FC9C6" stroke-width="0.205061" stroke-miterlimit="10" stroke-linecap="round"/>
</g>
<mask id="mask1_1272_5632" style="mask-type:luminance" maskUnits="userSpaceOnUse" x="52" y="96" width="12" height="6">
<path d="M53.0218 96.7705C52.8655 97.5517 52.2406 99.3875 52.4359 100.247C53.2171 100.911 54.9357 100.95 56.1856 100.637C57.4355 100.325 58.3729 100.95 59.9353 101.067C61.4976 101.145 62.8256 100.715 63.1381 100.051C63.4896 99.3484 60.7555 98.7625 58.8807 98.2157C56.8105 97.5907 55.7168 96.5361 55.7168 96.5361L53.0218 96.7705Z" fill="white"/>
</mask>
<g mask="url(#mask1_1272_5632)">
<path d="M57.748 98.8406C57.748 98.8406 58.1386 97.786 58.6074 97.4344" stroke="#8FC9C6" stroke-width="0.205061" stroke-miterlimit="10" stroke-linecap="round"/>
</g>
<mask id="mask2_1272_5632" style="mask-type:luminance" maskUnits="userSpaceOnUse" x="52" y="96" width="12" height="6">
<path d="M53.0218 96.7705C52.8655 97.5517 52.2406 99.3875 52.4359 100.247C53.2171 100.911 54.9357 100.95 56.1856 100.637C57.4355 100.325 58.3729 100.95 59.9353 101.067C61.4976 101.145 62.8256 100.715 63.1381 100.051C63.4896 99.3484 60.7555 98.7625 58.8807 98.2157C56.8105 97.5907 55.7168 96.5361 55.7168 96.5361L53.0218 96.7705Z" fill="white"/>
</mask>
<g mask="url(#mask2_1272_5632)">
<path d="M59.1953 99.3874C59.1953 99.3874 59.5859 98.3329 60.0546 97.9813" stroke="#8FC9C6" stroke-width="0.205061" stroke-miterlimit="10" stroke-linecap="round"/>
</g>
<path d="M53.0254 93.6847V96.7704C53.0254 96.7704 53.3769 96.8875 53.5332 97.0828C53.6894 97.2391 53.8847 97.825 54.119 97.864C55.1346 97.9031 55.7205 96.5751 55.7205 96.5751L56.1111 93.7628L53.0254 93.6847Z" fill="#FF9A8D"/>
<path d="M28.1053 100.872C27.8709 101.067 27.3631 101.106 26.621 100.208C25.9179 99.3095 25.6055 97.3956 25.5273 96.6144C25.4883 95.8332 25.5664 95.3254 25.0196 94.3099C24.5118 93.2943 24.1212 91.4585 24.3946 90.7945C24.5509 90.5602 25.0586 90.5602 25.0586 90.5602L28.1053 100.872Z" fill="#AAEEED"/>
<path d="M28.6115 90.2477C27.8304 90.2867 25.9164 90.1696 25.0962 90.5992C24.6665 91.5366 25.0571 93.1771 25.7212 94.3489C26.3852 95.4816 25.9555 96.5362 26.307 98.0986C26.6195 99.6219 27.4007 100.794 28.1038 100.911C28.885 101.067 28.6897 98.2548 28.7678 96.3019C28.8459 94.1146 29.549 92.7865 29.549 92.7865L28.6115 90.2477Z" fill="#03AA99"/>
<mask id="mask3_1272_5632" style="mask-type:luminance" maskUnits="userSpaceOnUse" x="24" y="90" width="6" height="11">
<path d="M28.6115 90.2477C27.8304 90.2867 25.9164 90.1696 25.0962 90.5992C24.6665 91.5366 25.0571 93.1771 25.7212 94.3489C26.3852 95.4816 25.9555 96.5362 26.307 98.0986C26.6195 99.6219 27.4007 100.794 28.1038 100.911C28.885 101.067 28.6897 98.2548 28.7678 96.3019C28.8459 94.1146 29.549 92.7865 29.549 92.7865L28.6115 90.2477Z" fill="white"/>
</mask>
<g mask="url(#mask3_1272_5632)">
<path d="M28.0645 93.8411C28.0645 93.8411 29.1972 93.9192 29.6268 94.3098" stroke="#AAEEED" stroke-width="0.205061" stroke-miterlimit="10" stroke-linecap="round"/>
</g>
<mask id="mask4_1272_5632" style="mask-type:luminance" maskUnits="userSpaceOnUse" x="24" y="90" width="6" height="11">
<path d="M28.6115 90.2477C27.8304 90.2867 25.9164 90.1696 25.0962 90.5992C24.6665 91.5366 25.0571 93.1771 25.7212 94.3489C26.3852 95.4816 25.9555 96.5362 26.307 98.0986C26.6195 99.6219 27.4007 100.794 28.1038 100.911C28.885 101.067 28.6897 98.2548 28.7678 96.3019C28.8459 94.1146 29.549 92.7865 29.549 92.7865L28.6115 90.2477Z" fill="white"/>
</mask>
<g mask="url(#mask4_1272_5632)">
<path d="M27.8691 95.3645C27.8691 95.3645 29.0019 95.4426 29.4315 95.8332" stroke="#AAEEED" stroke-width="0.205061" stroke-miterlimit="10" stroke-linecap="round"/>
</g>
<mask id="mask5_1272_5632" style="mask-type:luminance" maskUnits="userSpaceOnUse" x="24" y="90" width="6" height="11">
<path d="M28.6115 90.2477C27.8304 90.2867 25.9164 90.1696 25.0962 90.5992C24.6665 91.5366 25.0571 93.1771 25.7212 94.3489C26.3852 95.4816 25.9555 96.5362 26.307 98.0986C26.6195 99.6219 27.4007 100.794 28.1038 100.911C28.885 101.067 28.6897 98.2548 28.7678 96.3019C28.8459 94.1146 29.549 92.7865 29.549 92.7865L28.6115 90.2477Z" fill="white"/>
</mask>
<g mask="url(#mask5_1272_5632)">
<path d="M27.7129 96.8877C27.7129 96.8877 28.8456 96.9658 29.2753 97.3564" stroke="#AAEEED" stroke-width="0.205061" stroke-miterlimit="10" stroke-linecap="round"/>
</g>
<path d="M30.6054 88.8025L28.6134 90.2477C28.6134 90.2477 28.5743 90.6383 28.4572 90.8336C28.34 91.0289 27.8322 91.3804 27.8713 91.6148C28.1056 92.5912 29.5118 92.8256 29.5118 92.8256L32.285 91.3413L30.6054 88.8025Z" fill="#FF9A8D"/>
<path d="M58.9625 49.665C55.4862 49.665 52.9083 49.9385 52.9083 49.9385C51.8146 50.4072 49.9007 52.946 49.3539 54.5475C48.807 56.1489 49.6273 58.3753 49.9007 59.7423C51.5412 67.398 53.1817 72.71 53.8066 75.7567C54.1972 77.6315 52.8301 77.9049 52.7911 80.8344C52.7911 85.0528 52.9473 93.9973 52.9473 93.9973C52.9473 93.9973 54.2363 94.7395 55.9549 94.2317C55.9549 94.2317 58.5328 79.4282 58.8453 77.7487C59.314 75.0145 59.4702 73.8427 59.5093 69.1166C59.6265 62.4374 58.9625 49.665 58.9625 49.665Z" fill="#1E4174"/>
<path d="M58.9235 55.4848C58.3376 58.1799 54.4707 61.4609 54.4707 61.4609C54.0411 62.7108 48.3384 82.2014 47.401 82.9435C46.4635 83.6856 32.3241 91.3413 32.3241 91.3413C31.6601 90.9897 31.2304 90.4038 30.9961 89.9351C30.8008 89.5445 30.7226 89.193 30.6836 88.9977C30.6836 88.9196 30.6445 88.8805 30.6445 88.8805V88.8415C30.6445 88.8415 37.8705 81.1858 39.5891 80.3656C41.464 79.4672 42.5186 79.2329 42.5186 79.2329C44.4715 70.1711 44.3934 63.1014 45.9948 58.1018C46.2683 57.1644 46.5807 56.3441 46.8932 55.6411C47.2838 54.7427 47.5963 54.0006 47.8697 53.3756C47.9869 53.1022 48.065 52.8678 48.1431 52.6335C48.2212 52.3991 48.2993 52.1648 48.3775 51.9695C48.4165 51.8132 48.4556 51.6961 48.4946 51.5789C48.6899 50.993 48.8071 50.5633 48.9243 50.1337C49.0024 49.9384 49.0415 49.7431 49.1196 49.5478C49.1586 49.4697 49.1977 49.3525 49.2368 49.2744C49.2758 49.1572 49.3149 49.0791 49.3539 48.9619L52.049 50.993L53.338 51.9695L58.9235 55.4848Z" fill="#85B8ED"/>
<path d="M53.338 51.9304C52.9474 52.4382 52.4006 53.0631 51.6975 53.6881C49.7055 55.4458 48.4946 58.1409 47.401 63.8045C46.1901 70.1711 44.1591 79.5844 43.9247 80.1703C43.6903 80.7562 41.8936 80.5218 38.6517 82.9044C36.191 84.7012 32.5975 88.4509 30.9961 89.8961C30.8008 89.5055 30.7226 89.1539 30.6836 88.9586C30.6836 88.8805 30.6836 88.8415 30.6445 88.8415V88.8024C30.6445 88.8024 37.8705 81.1468 39.5891 80.3265C41.464 79.4282 42.5186 79.1938 42.5186 79.1938C44.3934 70.1321 44.3934 63.0623 45.9948 58.0627C46.2683 57.1253 46.5807 56.3051 46.9323 55.602C47.3229 54.7036 47.6353 53.9615 47.8697 53.3366C47.9869 53.0631 48.065 52.8288 48.1431 52.5944C48.2212 52.3601 48.2993 52.1257 48.3775 51.9304C48.4165 51.7742 48.4556 51.657 48.4946 51.5398C48.6899 50.9539 48.8071 50.5243 48.9243 50.0946C49.0024 49.8993 49.0415 49.704 49.1196 49.5087C49.1586 49.4306 49.1977 49.3134 49.2368 49.2353C49.2758 49.1182 49.3149 49.04 49.3539 48.9619L52.049 50.993L53.338 51.9304Z" fill="#4E7EAC"/>
<path d="M58.9248 55.4848C58.9248 55.4848 57.1671 57.7893 52.2847 57.9846C48.9256 58.1018 46.7773 56.7738 46.7773 56.7738L48.1054 54.7036L58.9248 55.4848Z" fill="#4E7EAC"/>
<mask id="mask6_1272_5632" style="mask-type:luminance" maskUnits="userSpaceOnUse" x="30" y="48" width="30" height="44">
<path d="M32.3182 91.3022C32.3182 91.3022 46.4577 83.6466 47.3951 82.9045C48.3325 82.1623 54.0352 62.6717 54.4648 61.4218C54.4648 61.4218 58.6442 58.0237 59.2301 55.2895L49.5434 48.9619C48.8012 50.5633 48.8012 51.6179 46.8483 55.602C44.9734 59.3907 44.2704 70.093 42.4736 79.1938C42.4736 79.1938 41.419 79.4282 39.5442 80.3265C37.8256 81.1468 30.5996 88.8024 30.5996 88.8024C30.5996 88.8024 30.7949 90.521 32.3182 91.3022Z" fill="white"/>
</mask>
<g mask="url(#mask6_1272_5632)">
<path d="M56.8885 50.1338C54.8574 52.7508 52.2404 54.3522 51.1858 56.1099C50.0921 57.9066 49.5063 61.7735 48.1001 68.8432C46.694 75.8739 45.4441 80.6782 45.0535 81.1078C44.6629 81.5375 42.2803 81.9671 38.5697 84.4669C34.859 86.9667 30.5234 90.9898 30.5234 90.9898" stroke="#274D79" stroke-width="0.205061" stroke-miterlimit="10"/>
</g>
<mask id="mask7_1272_5632" style="mask-type:luminance" maskUnits="userSpaceOnUse" x="30" y="48" width="30" height="44">
<path d="M32.3182 91.3022C32.3182 91.3022 46.4577 83.6466 47.3951 82.9045C48.3325 82.1623 54.0352 62.6717 54.4648 61.4218C54.4648 61.4218 58.6442 58.0237 59.2301 55.2895L49.5434 48.9619C48.8012 50.5633 48.8012 51.6179 46.8483 55.602C44.9734 59.3907 44.2704 70.093 42.4736 79.1938C42.4736 79.1938 41.419 79.4282 39.5442 80.3265C37.8256 81.1468 30.5996 88.8024 30.5996 88.8024C30.5996 88.8024 30.7949 90.521 32.3182 91.3022Z" fill="white"/>
</mask>
<g mask="url(#mask7_1272_5632)">
<path d="M54.6227 56.3441C54.6227 56.3441 53.8024 60.7969 49.8574 60.0548" stroke="#274D79" stroke-width="0.205061" stroke-miterlimit="10"/>
</g>
<mask id="mask8_1272_5632" style="mask-type:luminance" maskUnits="userSpaceOnUse" x="30" y="48" width="30" height="44">
<path d="M32.3182 91.3022C32.3182 91.3022 46.4577 83.6466 47.3951 82.9045C48.3325 82.1623 54.0352 62.6717 54.4648 61.4218C54.4648 61.4218 58.6442 58.0237 59.2301 55.2895L49.5434 48.9619C48.8012 50.5633 48.8012 51.6179 46.8483 55.602C44.9734 59.3907 44.2704 70.093 42.4736 79.1938C42.4736 79.1938 41.419 79.4282 39.5442 80.3265C37.8256 81.1468 30.5996 88.8024 30.5996 88.8024C30.5996 88.8024 30.7949 90.521 32.3182 91.3022Z" fill="white"/>
</mask>
<g mask="url(#mask8_1272_5632)">
<path d="M31.3809 87.4353C31.3809 88.6461 32.2402 90.3647 33.7635 91.3022" stroke="#274D79" stroke-width="0.205061" stroke-miterlimit="10"/>
</g>
<path d="M54.002 29.7836L57.361 32.674L59.275 28.1041L55.2909 25.7996L54.002 29.7836Z" fill="#FF9A8D"/>
<path d="M58.7284 29.4322C58.7284 29.4322 54.7834 28.3385 55.2912 25.7606L59.2753 28.0651L58.7284 29.4322Z" fill="#BA5964"/>
<path d="M57.2824 32.5569C58.0636 33.2209 58.5323 34.1193 58.6495 35.1348C58.8448 36.7363 58.9619 39.197 59.1182 42.7123C59.2354 45.9152 59.5478 55.1722 59.5478 55.1722C59.5478 55.1722 57.0871 56.7737 52.9859 56.4612C49.0409 56.1487 47.3613 54.2348 47.3613 54.2348C47.3613 54.2348 47.7519 41.189 49.0799 36.0722C50.9938 30.7992 54.0014 29.8618 54.0014 29.8618L57.2824 32.5569Z" fill="#FFC253"/>
<path d="M61.3066 22.05C61.5019 22.4016 62.5956 23.9249 62.9471 24.3545C63.2987 24.7842 61.8925 24.9014 61.8925 24.9014L61.3066 22.05Z" fill="#BA5964"/>
<path d="M55.2904 25.7997C55.2904 25.7997 55.5247 26.3074 55.7591 26.698C55.9934 27.0886 59.2744 28.4166 60.1337 28.5338C60.993 28.651 62.1648 28.4557 61.9304 25.5653C61.6961 22.6749 60.954 20.1751 59.0401 18.8471C57.0871 17.5191 54.392 18.9643 53.2202 20.8391C52.0484 22.6749 53.2983 26.3465 55.2904 25.7997Z" fill="#FF9A8D"/>
<path d="M55.2911 25.7997L54.8615 27.1277C54.8615 27.1277 54.549 27.284 53.6897 26.2294C52.7913 25.0966 51.1118 23.1437 51.268 21.8938C51.5024 20.2533 53.3381 19.7064 53.3381 19.7064C53.3381 19.7064 54.2756 16.6989 57.9862 15.1365C61.6968 13.5351 63.3373 16.2302 60.486 18.1831C60.486 18.1831 62.478 19.1596 61.2281 19.9408C59.9782 20.6829 56.3848 20.6048 56.3848 20.6048C56.3848 20.6048 58.1424 21.2688 57.6347 21.7766C57.1269 22.2844 54.8615 22.05 54.8615 22.05L55.1349 23.1827C55.1349 23.1827 54.1974 22.9093 53.7287 23.4952C53.1038 24.2373 54.0412 26.1512 55.2911 25.7997Z" fill="#001C45"/>
<path d="M52.9862 16.2301C52.9862 16.2301 51.8925 18.6127 53.9627 20.2142C53.9627 20.2142 51.8925 20.136 51.4629 18.1831" stroke="#001C45" stroke-width="0.307592" stroke-miterlimit="10" stroke-linecap="round"/>
<path d="M59.8203 22.6358C59.7421 22.4405 59.5468 22.3624 59.3515 22.4015C59.1562 22.4796 59.0781 22.6749 59.1172 22.8702C59.1953 23.0655 59.3906 23.1436 59.5859 23.1046C59.7812 23.0264 59.8984 22.8311 59.8203 22.6358Z" fill="#001C45"/>
<path d="M59.8592 21.6595L58.414 22.5969C58.414 22.5969 58.2969 22.0501 58.8046 21.7376C59.4296 21.347 59.8592 21.6595 59.8592 21.6595Z" fill="#001C45"/>
<path d="M54.1579 23.8467C54.3531 23.7296 54.6656 23.6124 54.9 23.7296C54.9781 23.7686 54.9 23.9249 54.8219 23.8858C54.4313 23.8467 53.9626 23.9639 53.9235 24.4326C53.9235 24.4717 53.8844 24.4326 53.8844 24.4326C53.8454 24.1983 53.9626 24.003 54.1579 23.8467Z" fill="#BA5964"/>
<path d="M54.3157 23.8467C54.3548 23.8076 54.472 23.8858 54.472 23.9248C54.4329 23.9639 54.3548 24.0811 54.3157 24.1592C54.2767 24.3154 54.2767 24.4326 54.3548 24.5888C54.472 24.9404 54.7454 25.1357 55.136 25.1357C55.136 25.1357 55.1751 25.1357 55.136 25.1747C54.8626 25.331 54.4329 25.1357 54.2767 24.8622C54.1205 24.5498 54.0423 24.1201 54.3157 23.8467Z" fill="#BA5964"/>
<path d="M52.5565 32.6741C51.7363 33.1038 50.6817 35.4473 51.4238 37.9862C52.1659 40.525 53.1424 43.142 53.1424 43.142C53.1424 43.142 57.0484 42.2046 58.0639 39.7438C58.0639 39.7438 56.6968 36.3847 56.0328 35.0177C55.3688 33.6506 54.6267 31.6195 52.5565 32.6741Z" fill="#E09736"/>
<path d="M56.658 47.3604C57.5173 48.2197 58.7281 49.1962 59.3921 49.4696C59.353 47.9854 59.2749 46.7355 59.2359 45.3684L56.3064 41.5015L54.3925 40.9938L53.6895 42.9858C53.6895 42.9858 55.2518 45.9543 56.658 47.3604Z" fill="#E09736"/>
<path d="M53.4941 32.6742C51.6583 33.182 51.0334 35.799 52.8691 39.9002C54.6659 43.8452 57.5172 47.4386 59.2749 48.6495C61.0325 49.8603 67.8679 49.4697 73.6096 47.7902C73.6096 47.7902 76.8516 46.6184 77.789 45.7981C79.8201 44.0014 79.8982 41.6188 78.4139 41.9703C76.9297 42.3219 74.5861 43.9233 74.5861 43.9233C74.5861 43.9233 73.9612 42.7124 73.5315 41.736C73.5315 41.736 73.1409 41.8531 72.9847 42.6734C72.8284 43.5327 72.8675 44.7045 72.5941 44.8607C71.9301 45.3294 62.7511 46.0716 61.6575 45.0169C60.4076 43.8061 58.6109 40.5642 57.361 37.5566C55.9548 34.3147 55.3689 32.1664 53.4941 32.6742Z" fill="#FF9A8D"/>
<path d="M52.869 32.2445C52.0488 32.6741 50.9942 35.0177 51.7363 37.5565C52.4784 40.0954 53.4549 42.7124 53.4549 42.7124C53.4549 42.7124 57.1265 42.1655 58.6889 40.0563C58.6889 40.0563 57.0093 35.916 56.3844 34.588C55.7594 33.1819 54.9001 31.1508 52.869 32.2445Z" fill="#FFC253"/>
</g>
<defs>
<clipPath id="clip0_1272_5632">
<rect width="237" height="124" fill="white"/>
</clipPath>
</defs>
</svg>
