<svg width="40" height="40" fill="none" xmlns="http://www.w3.org/2000/svg"><path d="M6.087.87H.87v5.217h5.217V.869zM33.913 6.087h5.217V.87h-5.217v5.217zM6.087 33.913H.87v5.218h5.217v-5.218zM33.913 39.13h5.217v-5.217h-5.217v5.218z" fill="#1079B4"/><path d="M29.565 28.695a.87.87 0 0 1-.243.583c-2.461 3-18.887 2.53-18.887-.583l.87-1.739c.321-.687-.74 1.53 8.695-18.26 10.33 21.6 8.409 17.59 9.565 20z" fill="#21B3E4"/><path d="M20 13.044a38.043 38.043 0 0 0-6.087.46l.235-.417a.869.869 0 1 0-1.505-.87c-1.295 2.235-1.173 2.035-1.182 2.053a.868.868 0 0 0 .27 1.27c2.295 1.321 2.252 1.338 2.565 1.338a.87.87 0 0 0 .434-1.617l-.165-.096c1.8-.262 3.616-.39 5.435-.382 7.46 0 11.304 1.826 11.304 2.608 0 .783-3.843 2.61-11.304 2.61-7.46 0-11.304-1.827-11.304-2.61 0-.113.13-.321.504-.582a.874.874 0 0 0-1.009-1.426 2.496 2.496 0 0 0-1.234 2.008c0 5.8 26.087 5.8 26.087 0 0-2.99-6.766-4.347-13.044-4.347z" fill="#1079B4"/><path d="M22.956 14.887c-1.97-.139-3.95-.139-5.921 0l.87-1.79c1.356-.07 2.79-.07 4.208 0l.843 1.79z" fill="#6457FF"/><path d="M39.13 6.957a.87.87 0 0 0 .87-.87V.87a.87.87 0 0 0-.87-.87h-5.217a.87.87 0 0 0-.87.87v1.739H6.958V.869A.87.87 0 0 0 6.087 0H.87A.87.87 0 0 0 0 .87v5.217a.87.87 0 0 0 .87.87h1.739v26.087H.869a.87.87 0 0 0-.869.869v5.217a.87.87 0 0 0 .87.87h5.217a.87.87 0 0 0 .87-.87v-1.739h26.087v1.74a.87.87 0 0 0 .869.869h5.217a.87.87 0 0 0 .87-.87v-5.217a.87.87 0 0 0-.87-.87h-1.739V6.958h1.74zm-4.347-5.218h3.478v3.478h-3.478V1.74zm-33.044 0h3.478v3.478H1.74V1.74zm3.478 36.522H1.74v-3.478h3.478v3.478zm33.044 0h-3.478v-3.478h3.478v3.478zm-2.609-5.218h-1.739a.87.87 0 0 0-.87.87v1.74H6.958v-1.74a.87.87 0 0 0-.87-.87h-1.74V6.958h1.74a.87.87 0 0 0 .87-.87v-1.74h26.087v1.74a.87.87 0 0 0 .869.87h1.74v26.087z" fill="#1079B4"/></svg>