<svg width="40" height="40" fill="none" xmlns="http://www.w3.org/2000/svg"><path d="M20 0C8.972 0 0 8.972 0 20s8.972 20 20 20 20-8.972 20-20S31.028 0 20 0zm0 38.857C9.602 38.857 1.143 30.397 1.143 20 1.143 9.602 9.603 1.143 20 1.143c10.398 0 18.857 8.46 18.857 18.857 0 10.398-8.46 18.857-18.857 18.857z" fill="#fff"/><path d="M20 4C11.178 4 4 11.178 4 20c0 8.823 7.178 16 16 16 8.823 0 16-7.177 16-16 0-8.822-7.177-16-16-16zm0 30.857c-8.193 0-14.857-6.665-14.857-14.857S11.807 5.143 20 5.143c8.192 0 14.857 6.665 14.857 14.857S28.192 34.857 20 34.857z" fill="#fff"/><path d="M26.407 12.627 16.368 22.666l-2.774-2.774c-.809-.809-2.22-.81-3.03 0a2.145 2.145 0 0 0 0 3.03l4.567 4.565c.341.341.79.512 1.237.512.448 0 .896-.17 1.237-.512l11.831-11.83a2.145 2.145 0 0 0 0-3.03c-.81-.809-2.22-.808-3.03 0zm2.221 2.222-11.83 11.83a.608.608 0 0 1-.859 0l-4.566-4.566a1 1 0 0 1 0-1.413 1.024 1.024 0 0 1 1.413 0l3.582 3.582 10.847-10.847a1.023 1.023 0 0 1 1.413 0 1 1 0 0 1 0 1.414z" fill="#fff"/></svg>