<svg width="40" height="34" fill="none" xmlns="http://www.w3.org/2000/svg"><path fill-rule="evenodd" clip-rule="evenodd" d="M12.776 16.681a.883.883 0 1 1-.263-.627l.009.009a.875.875 0 0 1 .254.619zm-.883 9.117c5.027 0 9.117-4.09 9.117-9.116 0-5.027-4.09-9.117-9.117-9.117-5.026 0-9.116 4.09-9.116 9.116 0 5.027 4.09 9.117 9.116 9.117zM.968 16.682c0 6.024 4.9 10.925 10.925 10.925s10.925-4.901 10.925-10.925c0-6.024-4.9-10.925-10.925-10.925-6.024 0-10.925 4.9-10.925 10.925zm31.375 10.205c0-.626.51-1.135 1.136-1.135h4.418c.626 0 1.135.509 1.135 1.135v4.418c0 .626-.509 1.135-1.135 1.135h-4.418c-.627 0-1.136-.509-1.136-1.135v-4.418zm1.136-6.839c-.627 0-1.136-.509-1.136-1.135v-4.418c0-.626.51-1.135 1.136-1.135h4.418c.626 0 1.135.509 1.135 1.135v4.418c0 .626-.51 1.135-1.135 1.135h-4.418zm0-12.391c-.627 0-1.136-.51-1.136-1.136V2.103c0-.626.51-1.135 1.136-1.135h4.418c.626 0 1.135.509 1.135 1.135v4.418c0 .626-.51 1.136-1.135 1.136h-4.418zM9.628 3.144V1.612h4.53v1.532h-4.53z" fill="#21B3E4"/><path fill-rule="evenodd" clip-rule="evenodd" d="M11.893 17.242a.561.561 0 1 1 .393-.959l.007.006a.56.56 0 0 1-.4.952zm2.458-3.93-1.688 1.686a1.852 1.852 0 0 0-2.62 1.683c0 1.021.83 1.851 1.85 1.851a1.852 1.852 0 0 0 1.684-2.622l1.686-1.686a.645.645 0 0 0-.912-.912zm-8.055 3.37c0 .356-.29.645-.645.645h-.76a.645.645 0 1 1 0-1.29h.76c.355 0 .645.289.645.644zm6.243 6.242v.759a.645.645 0 0 1-1.29 0v-.759a.645.645 0 1 1 1.29 0zm4.951-6.243c0-.355.29-.645.646-.645h.758a.646.646 0 0 1 0 1.29h-.758a.645.645 0 0 1-.646-.645zm-9.555-4.87a.645.645 0 0 1-.913.912l-.536-.536a.645.645 0 1 1 .912-.913l.537.537zm0 8.828a.646.646 0 0 1 0 .913l-.537.537a.643.643 0 0 1-.912 0 .644.644 0 0 1 0-.912l.537-.537a.646.646 0 0 1 .912 0zm9.365.538a.644.644 0 1 1-.912.912l-.537-.537a.646.646 0 0 1 .912-.913l.537.538zm0-9.903a.645.645 0 0 1 0 .913l-.537.536a.64.64 0 0 1-.912 0 .645.645 0 0 1 0-.912l.537-.536a.645.645 0 0 1 .912 0zm-6.052-.835v-.76a.646.646 0 0 1 1.29 0v.76a.646.646 0 0 1-1.29 0zm.645 14.392c4.493 0 8.149-3.656 8.149-8.15 0-4.492-3.656-8.148-8.149-8.148-4.493 0-8.149 3.656-8.149 8.148 0 4.494 3.656 8.15 8.15 8.15zm0-17.588c-5.205 0-9.439 4.234-9.439 9.438 0 5.205 4.234 9.44 9.44 9.44 5.204 0 9.438-4.235 9.438-9.44 0-5.205-4.235-9.438-9.439-9.438zm20.773-5.14c0-.448.365-.813.813-.813h4.418c.448 0 .813.365.813.813v4.418a.814.814 0 0 1-.813.813h-4.418a.814.814 0 0 1-.813-.813V2.103zm0 12.392c0-.448.365-.813.813-.813h4.418c.448 0 .813.365.813.813v4.418a.814.814 0 0 1-.813.813h-4.418a.814.814 0 0 1-.813-.813v-4.418zm0 12.392c0-.448.365-.813.813-.813h4.418c.448 0 .813.364.813.813v4.418a.814.814 0 0 1-.813.813h-4.418a.814.814 0 0 1-.813-.813v-4.418zm-20.773.398c5.846 0 10.603-4.757 10.603-10.604 0-5.845-4.757-10.602-10.603-10.602S1.29 10.835 1.29 16.681c0 5.847 4.757 10.604 10.603 10.604zM2.582 8.502 3.714 7.37l.358.359c-.401.352-.78.73-1.132 1.132l-.358-.359zm8.51-4.39h1.601v.704a12.01 12.01 0 0 0-1.6 0v-.705zM9.952 1.934h3.884v.886H9.951v-.886zM20.072 7.37l1.133 1.132-.36.36c-.35-.403-.729-.781-1.131-1.133l.358-.359zM33.48 8.624h4.418c1.16 0 2.103-.943 2.103-2.103V2.103C40 .943 39.056 0 37.897 0h-4.418c-1.16 0-2.103.943-2.103 2.103v1.564h-3.928a.645.645 0 0 0-.645.645v11.722l-3.036-.011a11.823 11.823 0 0 0-2.12-6.138l.547-.547c.223-.224.346-.52.346-.836 0-.315-.123-.612-.346-.834L20.907 6.38c-.46-.46-1.21-.46-1.67 0l-.547.546a11.842 11.842 0 0 0-4.706-1.954v-.864c.633-.023 1.142-.577 1.142-1.256v-.95c0-.694-.53-1.259-1.18-1.259H9.84c-.65 0-1.18.565-1.18 1.258v.951c0 .68.508 1.233 1.141 1.256v.864a11.833 11.833 0 0 0-4.705 1.954l-.548-.546c-.46-.46-1.21-.46-1.67 0L1.592 7.668a1.176 1.176 0 0 0 0 1.67l.547.547A11.827 11.827 0 0 0 0 16.68c0 6.559 5.335 11.894 11.893 11.894 6.346 0 11.547-4.996 11.876-11.262l3.034.011v11.772c0 .356.289.645.645.645h3.928v1.564c0 1.16.943 2.103 2.103 2.103h4.418c1.16 0 2.103-.944 2.103-2.103v-4.418c0-1.16-.944-2.103-2.103-2.103h-4.418c-1.16 0-2.103.943-2.103 2.103v1.564h-3.283V17.329l3.283.011v1.573c0 1.16.943 2.103 2.103 2.103h4.418c1.16 0 2.103-.943 2.103-2.103v-4.418c0-1.16-.944-2.103-2.103-2.103h-4.418c-1.16 0-2.103.943-2.103 2.103v1.555l-3.283-.011V4.957h3.283v1.564c0 1.16.943 2.103 2.103 2.103z" fill="#1079B4"/></svg>