<svg width="29" height="40" fill="none" xmlns="http://www.w3.org/2000/svg"><path d="M20.892 12.311a.938.938 0 0 0-1.324.061l-7.963 8.73-2.12-2.275a.938.938 0 0 0-1.372 1.278l2.813 3.02c.177.19.426.298.686.298h.005a.94.94 0 0 0 .688-.305l8.649-9.482a.938.938 0 0 0-.062-1.325z" fill="#21B3E4"/><path d="M23.797 37.787c-.864-.122-1.463-.46-1.832-1.032-.798-1.238-.426-3.374-.215-4.094 0-.003 0-.004.002-.007 2.013-1.883 3.602-4.161 4.596-6.64 1.364-3.401 2.03-7.082 2.037-11.267-.001-.132.001-.264.003-.396.004-.238.008-.477-.004-.716-.113-2.352-.837-4.618-2.153-6.733a14.869 14.869 0 0 0-4.923-4.88C19.24.763 16.996.085 14.635.008A13.507 13.507 0 0 0 8.04 1.472c-2.646 1.34-4.735 3.342-6.21 5.95C.67 9.482.056 11.645.009 13.85c-.033 1.559.035 3.13.202 4.67.287 2.667.804 5.003 1.582 7.14 1.115 3.067 3.107 5.463 4.858 7.118.13.519.593 2.667-.244 3.972-.368.575-.968.914-1.834 1.037a1.112 1.112 0 0 0 .31 2.202c1.503-.212 2.677-.917 3.396-2.038.622-.97.822-2.102.84-3.118 1.053.755 2.134 1.3 3.615 1.542.49.08.95.12 1.4.12 1.962 0 3.467-.792 4.802-1.648.106-.067.21-.139.313-.209-.006 1.064.18 2.28.842 3.313.72 1.12 1.893 1.826 3.396 2.038a1.112 1.112 0 1 0 .31-2.202zm-6.062-4.812c-1.896 1.215-2.973 1.48-4.643 1.206-1.646-.269-2.601-1.02-4.025-2.221-1.724-1.455-4.022-3.86-5.186-7.059-.715-1.966-1.193-4.131-1.46-6.619a34.143 34.143 0 0 1-.19-4.384c.04-1.834.556-3.645 1.536-5.382 1.254-2.218 3.029-3.92 5.276-5.059a11.272 11.272 0 0 1 5.519-1.226c1.972.064 3.852.633 5.586 1.69a12.657 12.657 0 0 1 4.194 4.156c1.114 1.79 1.726 3.695 1.82 5.664.009.192.006.383.002.574-.003.153-.005.305-.004.443-.006 3.883-.62 7.294-1.877 10.428-1.25 3.117-3.576 5.884-6.548 7.79z" fill="#1079B4"/></svg>