<svg width="40" height="40" fill="none" xmlns="http://www.w3.org/2000/svg"><path fill-rule="evenodd" clip-rule="evenodd" d="M20.616 2.127a.833.833 0 0 1 .567.79v11.865h9.65a.834.834 0 0 1 .682 1.313L16.999 36.73a.833.833 0 0 1-1.515-.48V22.798h-9.65a.833.833 0 0 1-.663-1.339L19.687 2.412a.833.833 0 0 1 .929-.285zm-13.1 19.004h8.801c.46 0 .834.373.834.833v11.653L29.227 16.45H20.35a.833.833 0 0 1-.833-.834V5.385l-12 15.746zM30 25.417c.336 0 .64.202.769.512l4.167 10a.833.833 0 1 1-1.539.642L30 28.417l-3.398 8.154a.833.833 0 1 1-1.538-.642l4.166-10a.833.833 0 0 1 .77-.512z" fill="#fff"/><path fill-rule="evenodd" clip-rule="evenodd" d="M26.667 32.917c0-.46.373-.834.833-.834h5a.833.833 0 0 1 0 1.667h-5a.833.833 0 0 1-.833-.833z" fill="#fff"/></svg>