<svg width="32" height="40" fill="none" xmlns="http://www.w3.org/2000/svg"><path d="M15.713 40a7.15 7.15 0 0 1-7.143-7.143 1.429 1.429 0 1 1 2.857 0 4.285 4.285 0 1 0 8.572 0 1.428 1.428 0 1 1 2.857 0A7.152 7.152 0 0 1 15.713 40z" fill="#21B3E4"/><path d="m31.12 28.411-.877-2.202a4.3 4.3 0 0 1-.306-1.596v-7.03A14.534 14.534 0 0 0 17.142 2.944V1.43a1.429 1.429 0 1 0-2.858 0v1.517a14.079 14.079 0 0 0-8.274 3.75A14.37 14.37 0 0 0 1.49 17.143v7.47a4.3 4.3 0 0 1-.306 1.596L.306 28.41a4.286 4.286 0 0 0 3.967 5.876h22.88a4.285 4.285 0 0 0 3.967-5.875zm-2.8 2.396a1.396 1.396 0 0 1-1.167.622H4.273a1.396 1.396 0 0 1-1.167-.622 1.417 1.417 0 0 1-.143-1.34l.877-2.203a7.166 7.166 0 0 0 .507-2.651v-7.47A11.501 11.501 0 0 1 7.966 8.78a11.231 11.231 0 0 1 7.747-3.066c.253 0 .509.009.764.026a11.659 11.659 0 0 1 10.609 11.843v7.03c0 .908.172 1.808.508 2.651l.876 2.203a1.418 1.418 0 0 1-.15 1.34z" fill="#1079B4"/></svg>