<svg width="70" height="70" fill="none" xmlns="http://www.w3.org/2000/svg"><path fill-rule="evenodd" clip-rule="evenodd" d="M35 0C15.683 0 0 15.683 0 35s15.683 35 35 35 35-15.683 35-35S54.317 0 35 0zM16.181 38.182h-3.454c-.878 0-1.59.712-1.59 1.59v9.546c0 .878.712 1.591 1.59 1.591h3.182v4.773c0 .878.713 1.59 1.591 1.59h6.364c.878 0 1.59-.712 1.59-1.59v-4.773h19.091v4.773c0 .878.713 1.59 1.591 1.59H52.5c.878 0 1.59-.712 1.59-1.59v-4.773h3.183c.878 0 1.59-.713 1.59-1.59v-9.546c0-.879-.712-1.591-1.59-1.591h-3.454a4.746 4.746 0 0 0 .272-1.591V23.864c0-.879-.713-1.591-1.591-1.591H39.773c-.879 0-1.591.712-1.591 1.59v12.728c0 .558.095 1.093.272 1.59h-6.908a4.746 4.746 0 0 0 .272-1.59V23.864c0-.879-.713-1.591-1.59-1.591H17.5c-.878 0-1.59.712-1.59 1.59v12.728c0 .558.095 1.093.271 1.59zM50.91 50.909v3.182h-3.182v-3.182h3.182zm-28.636 0v3.182H19.09v-3.182h3.182zm33.409-9.545v6.363H14.318v-6.363h41.364zm-27.046-7.955v-7.954h-9.545v1.59h1.59a1.591 1.591 0 0 1 0 3.182h-1.59v6.364c0 .878.713 1.59 1.59 1.59h6.364c.879 0 1.591-.712 1.591-1.59h-1.59a1.592 1.592 0 0 1 0-3.182h1.59zm22.273 0v-7.954h-9.545v1.59h1.59a1.592 1.592 0 0 1 0 3.182h-1.59v6.364c0 .878.712 1.59 1.59 1.59h6.364c.878 0 1.591-.712 1.591-1.59h-1.59a1.591 1.591 0 0 1 0-3.182h1.59zm-6.364-19.09V17.5a1.591 1.591 0 0 0 3.182 0v-3.182a1.592 1.592 0 0 0-3.181 0zm-17.5 0V17.5a1.591 1.591 0 0 0 3.182 0v-3.182a1.592 1.592 0 0 0-3.181 0zm-9.545 0V17.5a1.591 1.591 0 0 0 3.182 0v-3.182a1.591 1.591 0 0 0-3.182 0zm4.773 0V17.5a1.592 1.592 0 0 0 3.181 0v-3.182a1.591 1.591 0 0 0-3.181 0zm27.045 0V17.5a1.591 1.591 0 0 0 3.182 0v-3.182a1.591 1.591 0 0 0-3.182 0zm-9.545 0V17.5a1.592 1.592 0 0 0 3.181 0v-3.182a1.591 1.591 0 0 0-3.181 0z" fill="url(#a)"/><defs><linearGradient id="a" x1="-.265" y1="34.718" x2="70.115" y2="34.718" gradientUnits="userSpaceOnUse"><stop stop-color="#1079B4"/><stop offset="1" stop-color="#21B3E4"/></linearGradient></defs></svg>