<svg width="70" height="70" fill="none" xmlns="http://www.w3.org/2000/svg"><path d="M49.287 42.846v11.439h5.208v-11.44h-5.208zM32.492 54.285h5.193V32.03h-5.193v22.255zm-16.81 0h5.193v-18.13h-5.193v18.13zm2.596-29.303a1.543 1.543 0 1 0 0 3.086 1.543 1.543 0 0 0 0-3.086zm16.81-9.6a2.596 2.596 0 1 0 0 5.193 2.596 2.596 0 0 0 0-5.192zm16.795 17.553a.326.326 0 0 0-.326.326.342.342 0 1 0 .326-.326z" fill="url(#a)"/><path d="M66.023 18.795a34.345 34.345 0 0 0-6.247-8.516 35 35 0 1 0 6.247 8.516zm-47.745 3.576a4.154 4.154 0 0 1 2.967 1.202l8.799-4.451a4.776 4.776 0 0 1-.134-1.128 5.223 5.223 0 1 1 10.386 0c.004.848-.2 1.683-.594 2.433l11.113 10.104a3.25 3.25 0 0 1 1.068-.208 2.968 2.968 0 1 1-2.967 2.968c.006-.272.05-.542.134-.801L37.922 22.37a5.222 5.222 0 0 1-6.75-.904l-8.814 4.45c.022.208.022.417 0 .624a4.168 4.168 0 1 1-4.169-4.154l.089-.015zm38.828 32.285a2.27 2.27 0 0 1-2.255 2.255H14.895a1.84 1.84 0 0 1-1.825-1.825V35.398a1.825 1.825 0 0 1 1.825-1.825h6.78a1.84 1.84 0 0 1 1.825 1.825v18.887h6.366V31.54a2.122 2.122 0 0 1 2.121-2.122h6.187a2.122 2.122 0 0 1 2.122 2.122v22.745h6.38v-11.87a2.256 2.256 0 0 1 2.255-2.255h5.934a2.256 2.256 0 0 1 2.256 2.255l-.015 12.24z" fill="url(#b)"/><defs><linearGradient id="a" x1="15.535" y1="34.677" x2="54.559" y2="34.677" gradientUnits="userSpaceOnUse"><stop stop-color="#1079B4"/><stop offset="1" stop-color="#21B3E4"/></linearGradient><linearGradient id="b" x1="-.265" y1="34.718" x2="70.115" y2="34.718" gradientUnits="userSpaceOnUse"><stop stop-color="#1079B4"/><stop offset="1" stop-color="#21B3E4"/></linearGradient></defs></svg>