<svg width="42" height="40" fill="none" xmlns="http://www.w3.org/2000/svg"><path d="M19.26 7.907h.5V1.481A.982.982 0 0 1 20.74.5H40a.982.982 0 0 1 .981.981V38.52A.981.981 0 0 1 40 39.5H1.481a.981.981 0 0 1-.981-.981V16.296c0-.26.103-.51.287-.694l-.35-.35.35.35a.981.981 0 0 1 .694-.287h8.649V8.889a.981.981 0 0 1 .981-.982h8.148zM12.092 29.63v.5h17.296v-5.445H12.093v4.945zm-9.63 0v.5h7.667v-5.445H2.463v4.945zm19.76-12.352h-.5v5.444h17.296v-5.444H22.222zm9.629-7.408h-.5v5.445h7.667V9.87h-7.167zm0 14.815h-.5v5.445h7.667v-5.445h-7.167zm-9.63-22.222h-.5v5.444H39.02V2.463H22.222zm-9.63 7.407h-.5v5.445H29.39V9.87H12.593zm-9.629 7.408h-.5v5.444h17.296v-5.444H2.963zm0 14.815h-.5v5.444h17.296v-5.444H2.963zm35.556 5.444h.5v-5.444H21.722v5.444H38.52z" stroke="#1079B4"/><path d="M12.593 29.63h16.296v-4.445H12.593v4.444zM38.519 17.777H22.222v4.445H38.52v-4.445zM28.889 10.37H12.593v4.445h16.296V10.37zM19.26 32.592H2.962v4.445h16.296v-4.445zM22.222 37.037H38.52v-4.445H22.222v4.445z" fill="#21B3E4"/></svg>