<svg width="17" height="21" fill="none" xmlns="http://www.w3.org/2000/svg"><path d="M6.75 21h9.75c.275 0 .5-.225.5-.5V.5c0-.275-.225-.5-.5-.5H.5C.225 0 0 .225 0 .5v20c0 .275.225.5.5.5h6.25zm3-1h-2.5v-3.5h2.5V20zM1 1h15v19h-5.25v-4c0-.275-.225-.5-.5-.5h-3.5c-.275 0-.5.225-.5.5v4H1V1z" fill="#1079B4"/><path d="M5 2.5H3c-.275 0-.5.225-.5.5v2c0 .275.225.5.5.5h2c.275 0 .5-.225.5-.5V3c0-.275-.225-.5-.5-.5zm-.5 2h-1v-1h1v1zm3 1h2c.275 0 .5-.225.5-.5V3c0-.275-.225-.5-.5-.5h-2c-.275 0-.5.225-.5.5v2c0 .275.225.5.5.5zm.5-2h1v1H8v-1zm4 2h2c.275 0 .5-.225.5-.5V3c0-.275-.225-.5-.5-.5h-2c-.275 0-.5.225-.5.5v2c0 .275.225.5.5.5zm.5-2h1v1h-1v-1zM5 6.5H3c-.275 0-.5.225-.5.5v2c0 .275.225.5.5.5h2c.275 0 .5-.225.5-.5V7c0-.275-.225-.5-.5-.5zm-.5 2h-1v-1h1v1zm3 1h2c.275 0 .5-.225.5-.5V7c0-.275-.225-.5-.5-.5h-2c-.275 0-.5.225-.5.5v2c0 .275.225.5.5.5zm.5-2h1v1H8v-1zm4 2h2c.275 0 .5-.225.5-.5V7c0-.275-.225-.5-.5-.5h-2c-.275 0-.5.225-.5.5v2c0 .275.225.5.5.5zm.5-2h1v1h-1v-1zm-7.5 3H3c-.275 0-.5.225-.5.5v2c0 .275.225.5.5.5h2c.275 0 .5-.225.5-.5v-2c0-.275-.225-.5-.5-.5zm-.5 2h-1v-1h1v1zm3 1h2c.275 0 .5-.225.5-.5v-2c0-.275-.225-.5-.5-.5h-2c-.275 0-.5.225-.5.5v2c0 .275.225.5.5.5zm.5-2h1v1H8v-1zm4 2h2c.275 0 .5-.225.5-.5v-2c0-.275-.225-.5-.5-.5h-2c-.275 0-.5.225-.5.5v2c0 .275.225.5.5.5zm.5-2h1v1h-1v-1z" fill="#1079B4"/></svg>