<svg width="40" height="33" fill="none" xmlns="http://www.w3.org/2000/svg"><path d="M10.698 13.954H3.256A3.26 3.26 0 0 1 0 10.697V3.256A3.26 3.26 0 0 1 3.256 0h7.442a3.26 3.26 0 0 1 3.255 3.256v7.442a3.26 3.26 0 0 1-3.255 3.255zM3.256 2.79a.465.465 0 0 0-.465.465v7.442a.465.465 0 0 0 .465.465h7.442a.465.465 0 0 0 .465-.465V3.256a.465.465 0 0 0-.465-.465H3.256zm7.442 29.767H3.256A3.259 3.259 0 0 1 0 29.302V21.86a3.26 3.26 0 0 1 3.256-3.255h7.442a3.26 3.26 0 0 1 3.255 3.255v7.442a3.26 3.26 0 0 1-3.255 3.256zM3.256 21.395a.465.465 0 0 0-.465.465v7.442a.465.465 0 0 0 .465.465h7.442a.465.465 0 0 0 .465-.465V21.86a.465.465 0 0 0-.465-.465H3.256z" fill="#1079B4"/><path d="M38.605 4.651H20a1.395 1.395 0 0 1 0-2.79h18.605a1.395 1.395 0 1 1 0 2.79zm-9.303 7.442H20a1.395 1.395 0 0 1 0-2.79h9.302a1.395 1.395 0 1 1 0 2.79zm9.303 11.163H20a1.395 1.395 0 0 1 0-2.791h18.605a1.395 1.395 0 1 1 0 2.79zm-3.721-11.163h-1.86a1.395 1.395 0 1 1 0-2.79h1.86a1.395 1.395 0 0 1 0 2.79zm-5.582 18.605H20a1.395 1.395 0 0 1 0-2.791h9.302a1.395 1.395 0 0 1 0 2.79zm5.582 0h-1.86a1.395 1.395 0 1 1 0-2.791h1.86a1.396 1.396 0 0 1 0 2.79z" fill="#21B3E4"/></svg>