<svg width="33" height="40" fill="none" xmlns="http://www.w3.org/2000/svg"><path d="M29.524 40H2.857A2.857 2.857 0 0 1 0 37.143V2.857A2.857 2.857 0 0 1 2.857 0h18.26a2.84 2.84 0 0 1 2.02.837l8.407 8.408a2.836 2.836 0 0 1 .837 2.02v25.878A2.857 2.857 0 0 1 29.524 40zM2.857 1.905a.952.952 0 0 0-.952.952v34.286a.952.952 0 0 0 .952.952h26.667a.952.952 0 0 0 .952-.952V11.265c0-.253-.1-.495-.279-.674L21.79 2.184a.952.952 0 0 0-.674-.28H2.857z" fill="#1079B4"/><path d="M31.429 11.428h-7.62a2.857 2.857 0 0 1-2.857-2.857V.952A.952.952 0 0 1 22.578.28l9.524 9.524a.953.953 0 0 1-.673 1.625zm-8.572-8.177v5.32a.952.952 0 0 0 .953.953h5.32L22.857 3.25z" fill="#1079B4"/><path d="M8.571 16.19a.953.953 0 0 1-.673-.278l-1.905-1.905A.953.953 0 0 1 7.34 12.66l1.231 1.232 3.137-3.136a.952.952 0 0 1 1.346 1.346l-3.81 3.81a.953.953 0 0 1-.673.279zM25.714 15.238H16.19a.952.952 0 0 1 0-1.905h9.524a.952.952 0 1 1 0 1.905zM8.571 24.762a.953.953 0 0 1-.673-.279l-1.905-1.905a.952.952 0 0 1 1.347-1.346l1.231 1.231 3.137-3.136a.952.952 0 0 1 1.346 1.347l-3.81 3.81a.953.953 0 0 1-.673.278zM25.714 23.81H16.19a.952.952 0 0 1 0-1.906h9.524a.952.952 0 1 1 0 1.905zM8.571 33.333a.952.952 0 0 1-.673-.279L5.993 31.15a.952.952 0 0 1 1.347-1.347l1.231 1.231 3.137-3.136a.952.952 0 0 1 1.346 1.347l-3.81 3.81a.952.952 0 0 1-.673.278zM25.714 32.381H16.19a.952.952 0 1 1 0-1.904h9.524a.952.952 0 1 1 0 1.904z" fill="#21B3E4"/></svg>