<svg width="40" height="40" fill="none" xmlns="http://www.w3.org/2000/svg"><path d="M7.5 10h25A2.5 2.5 0 0 0 35 7.5v-5A2.5 2.5 0 0 0 32.5 0h-25A2.5 2.5 0 0 0 5 2.5v5A2.5 2.5 0 0 0 7.5 10zm-.833-7.5a.833.833 0 0 1 .833-.833h25a.833.833 0 0 1 .833.833v5a.834.834 0 0 1-.833.833h-25a.833.833 0 0 1-.833-.833v-5z" fill="#1079B4"/><path d="M10.833 3.333H9.166a.833.833 0 0 0-.833.834v1.666c0 .46.373.834.833.834h1.667c.46 0 .833-.374.833-.834V4.167a.833.833 0 0 0-.833-.834zM15.833 3.333h-1.667a.833.833 0 0 0-.833.834v1.666c0 .46.373.834.833.834h1.667c.46 0 .833-.374.833-.834V4.167a.833.833 0 0 0-.833-.834zM10.833 26.667H9.166a.833.833 0 0 0-.833.833v1.667c0 .46.373.833.833.833h1.667c.46 0 .833-.373.833-.833V27.5a.833.833 0 0 0-.833-.833zM15.833 26.667h-1.667a.833.833 0 0 0-.833.833v1.667c0 .46.373.833.833.833h1.667c.46 0 .833-.373.833-.833V27.5a.833.833 0 0 0-.833-.833z" fill="#21B3E4"/><path d="M7.5 21.667h25a2.5 2.5 0 0 0 2.5-2.5v-5a2.5 2.5 0 0 0-2.5-2.5h-25a2.5 2.5 0 0 0-2.5 2.5v5a2.5 2.5 0 0 0 2.5 2.5zm-.833-7.5a.833.833 0 0 1 .833-.834h25a.833.833 0 0 1 .833.834v5A.834.834 0 0 1 32.5 20h-25a.833.833 0 0 1-.833-.833v-5z" fill="#1079B4"/><path d="M10.833 15H9.166a.833.833 0 0 0-.833.833V17.5c0 .46.373.833.833.833h1.667c.46 0 .833-.373.833-.833v-1.667a.833.833 0 0 0-.833-.833zM15.833 15h-1.667a.833.833 0 0 0-.833.833V17.5c0 .46.373.833.833.833h1.667c.46 0 .833-.373.833-.833v-1.667a.833.833 0 0 0-.833-.833z" fill="#21B3E4"/><path d="M39.167 37.5H22.5a.833.833 0 0 0-.833-.833h-.834v-3.334H32.5a2.5 2.5 0 0 0 2.5-2.5v-5a2.5 2.5 0 0 0-2.5-2.5h-25a2.5 2.5 0 0 0-2.5 2.5v5a2.5 2.5 0 0 0 2.5 2.5h11.667v3.334h-.834a.833.833 0 0 0-.833.833H.833a.833.833 0 1 0 0 1.667H17.5a.833.833 0 0 0 .833.833h3.334a.833.833 0 0 0 .833-.833h16.667a.833.833 0 0 0 0-1.667zm-32.5-6.667v-5A.833.833 0 0 1 7.5 25h25a.833.833 0 0 1 .833.833v5a.834.834 0 0 1-.833.834h-25a.833.833 0 0 1-.833-.834z" fill="#1079B4"/><path d="M24.166 4.167h1.667a.833.833 0 0 0 0-1.667h-1.667a.833.833 0 0 0 0 1.667zm0 3.333h1.667a.833.833 0 0 0 0-1.667h-1.667a.833.833 0 0 0 0 1.667zm5-3.333h1.667a.833.833 0 0 0 0-1.667h-1.667a.833.833 0 0 0 0 1.667zm0 3.333h1.667a.833.833 0 0 0 0-1.667h-1.667a.833.833 0 0 0 0 1.667zm-5 8.333h1.667a.834.834 0 0 0 0-1.666h-1.667a.834.834 0 0 0 0 1.666zm0 3.334h1.667a.833.833 0 0 0 0-1.667h-1.667a.833.833 0 0 0 0 1.667zm5-3.334h1.667a.834.834 0 0 0 0-1.666h-1.667a.834.834 0 0 0 0 1.666zm0 3.334h1.667a.833.833 0 0 0 0-1.667h-1.667a.833.833 0 0 0 0 1.667zm-5 8.333h1.667a.833.833 0 0 0 0-1.667h-1.667a.833.833 0 0 0 0 1.667zm0 3.333h1.667a.834.834 0 0 0 0-1.666h-1.667a.834.834 0 0 0 0 1.666zm5-3.333h1.667a.833.833 0 0 0 0-1.667h-1.667a.833.833 0 0 0 0 1.667zm0 3.333h1.667a.834.834 0 0 0 0-1.666h-1.667a.834.834 0 0 0 0 1.666z" fill="#21B3E4"/></svg>