<svg width="40" height="34" fill="none" xmlns="http://www.w3.org/2000/svg"><path d="M39.552 5.672 32.945 6.92c-.32.056-.416.463-.168.663l2.104 1.696c-.04.04-.088.056-.12.104l-7.615 9.383a3.234 3.234 0 0 0-.928-.176 3.425 3.425 0 0 0-2.576 1.056L16.38 15.63a3.408 3.408 0 0 0-3.295-3.455 3.413 3.413 0 0 0-3.52 3.183l-8.51 3.16a1.623 1.623 0 0 0-.952 2.08 1.623 1.623 0 0 0 2.08.951l8.71-3.239a3.389 3.389 0 0 0 3.92.16l7.982 4.415c.376 1.416 1.632 2.496 3.176 2.544a3.416 3.416 0 0 0 3.536-3.296 3.766 3.766 0 0 0-.128-1l7.878-9.71c.04-.048.048-.104.08-.144l2.008 1.624c.248.2.616.024.616-.288l.04-6.56a.38.38 0 0 0-.448-.383z" fill="#21B3E4"/><path d="M3.749 33.627h5.335V20.621L3.75 22.605v11.022zM12.796 20.541a4.848 4.848 0 0 1-2.064-.536l-.184.072v13.55h5.343V20.805l-1.096-.608c-.64.248-1.32.368-2 .344zm8.742 3.392-4.207-2.328v12.014h5.343v-8.03a4.891 4.891 0 0 1-1.136-1.656zm4.384 3.023a4.964 4.964 0 0 1-1.792-.4v7.071h5.343v-7.99a4.937 4.937 0 0 1-3.367 1.327c-.064 0-.128 0-.184-.008zm5.127-4.783a4.862 4.862 0 0 1-.128.976v10.478h5.343V15.094l-5.231 6.447c.016.216.024.424.016.632zM22.786 0a7.478 7.478 0 0 0-7.479 7.479 7.478 7.478 0 0 0 7.48 7.479 7.478 7.478 0 0 0 7.478-7.479C30.273 3.352 26.922 0 22.786 0zm.848 11.79v1.072h-1.592V11.79c-1.536-.232-2.423-1.175-2.527-2.455h1.887c.152.688.68 1.12 1.48 1.12.984 0 1.296-.472 1.296-1.008 0-.656-.344-.976-1.576-1.328C20.355 7.47 19.7 6.639 19.7 5.39c0-1.352.983-2.183 2.247-2.423v-.864h1.576v.856c1.656.248 2.24 1.271 2.344 2.311h-1.888c-.096-.368-.272-.968-1.288-.968-.856 0-1.096.504-1.096.912 0 .584.312.84 1.736 1.24 1.992.552 2.736 1.36 2.736 2.776 0 1.504-.976 2.343-2.432 2.56z" fill="#1079B4"/></svg>