<svg width="40" height="35" fill="none" xmlns="http://www.w3.org/2000/svg"><path d="M22.326 28.438H2.79C1.209 28.438 0 27.015 0 25.155V3.281C0 1.421 1.21 0 2.79 0h29.768c1.581 0 2.79 1.422 2.79 3.281v6.563c0 .656-.371 1.094-.93 1.094-.557 0-.93-.438-.93-1.094V3.28c0-.656-.372-1.094-.93-1.094H2.791c-.558 0-.93.438-.93 1.094v21.875c0 .657.372 1.094.93 1.094h19.535c.558 0 .93.438.93 1.094 0 .656-.372 1.093-.93 1.093z" fill="#1079B4"/><path d="M23.442 35H11.907l1.21-8.75h9.023L23.442 35zm-9.302-2.188h7.07l-.652-4.374h-5.86l-.558 4.375z" fill="#1079B4"/><path d="M25.117 35H10.233c-.558 0-.93-.438-.93-1.094 0-.656.372-1.094.93-1.094h14.884c.558 0 .93.438.93 1.094 0 .656-.372 1.094-.93 1.094zM14.884 19.687c-.279 0-.558-.109-.651-.328-.372-.437-.28-1.093.093-1.53l8.372-8.75c.372-.438.93-.33 1.302.108s.28 1.094-.093 1.532l-8.372 8.75c-.186.11-.465.218-.65.218zm-1.86-5.468a.811.811 0 0 1-.744-.438c-.373-.437-.28-1.203.093-1.531l5.58-5.469c.373-.437 1.024-.328 1.303.11.372.437.28 1.203-.093 1.53l-5.581 5.47c-.093.218-.372.328-.558.328z" fill="#1079B4"/><path d="M31.372 28.74A8.336 8.336 0 0 1 23 20.37c0-4.65 3.72-8.37 8.372-8.37a8.336 8.336 0 0 1 8.372 8.37c0 4.65-3.72 8.37-8.372 8.37zm0-14.88a6.47 6.47 0 0 0-6.512 6.51 6.47 6.47 0 0 0 6.512 6.51 6.47 6.47 0 0 0 6.512-6.51 6.47 6.47 0 0 0-6.512-6.51z" fill="#21B3E4"/><path d="M31.372 21.3c-.558 0-.93-.372-.93-.93v-4.65c0-.558.372-.93.93-.93s.93.372.93.93v4.65c0 .558-.372.93-.93.93z" fill="#21B3E4"/><path d="M35.093 21.3h-3.721c-.558 0-.93-.372-.93-.93s.372-.93.93-.93h3.72c.559 0 .93.372.93.93s-.371.93-.93.93z" fill="#21B3E4"/></svg>