<svg width="20" height="20" fill="none" xmlns="http://www.w3.org/2000/svg"><path d="M7.95 8.038 6.75 12.046a.968.968 0 0 0 1.205 1.204l4.008-1.201a.965.965 0 0 0 .406-.243l7.348-7.348a.968.968 0 0 0 0-1.368L16.91.284a.967.967 0 0 0-1.369 0L8.193 7.632a.969.969 0 0 0-.243.406zm1.784.79 6.491-6.492 1.438 1.438-6.49 6.491-2.054.616.615-2.053z" fill="#1079B4"/><path d="M19.032 9.032a.968.968 0 0 0-.968.968v6.452c0 .89-.723 1.612-1.612 1.612H3.548c-.889 0-1.613-.723-1.613-1.612V3.548c0-.89.724-1.613 1.613-1.613H10A.968.968 0 0 0 10 0H3.548A3.553 3.553 0 0 0 0 3.548v12.904A3.553 3.553 0 0 0 3.548 20h12.904A3.553 3.553 0 0 0 20 16.452V10a.968.968 0 0 0-.968-.968z" fill="#1079B4"/></svg>