<svg width="40" height="40" fill="none" xmlns="http://www.w3.org/2000/svg"><g clip-path="url(#a)" fill="#fff"><path d="M22.5 39.167a.827.827 0 0 1-.127-.01L.707 35.823A.833.833 0 0 1 0 35V6.667a.833.833 0 0 1 .647-.812l21.666-5a.828.828 0 0 1 1.02.812v36.666a.826.826 0 0 1-.833.834zM1.667 34.285l20 3.077V2.713l-20 4.617v26.955z"/><path d="M39.167 35.833H22.5a.833.833 0 1 1 0-1.666h15.834V5.833H22.5a.833.833 0 1 1 0-1.666h16.667A.833.833 0 0 1 40 5v30a.833.833 0 0 1-.833.833zM15.834 27.5a.829.829 0 0 1-.707-.392L6.794 13.775a.833.833 0 1 1 1.413-.883l8.333 13.333a.833.833 0 0 1-.706 1.275z"/><path d="M7.5 27.5a.833.833 0 0 1-.706-1.275l8.333-13.333a.833.833 0 1 1 1.413.883L8.207 27.108a.833.833 0 0 1-.707.392zM29.166 35.833a.833.833 0 0 1-.833-.833V5A.833.833 0 1 1 30 5v30a.833.833 0 0 1-.834.833z"/><path d="M39.167 30.833H22.5a.833.833 0 1 1 0-1.666h16.667a.833.833 0 1 1 0 1.666zM39.167 25.833H22.5a.833.833 0 1 1 0-1.666h16.667a.833.833 0 1 1 0 1.666zM39.167 20.833H22.5a.833.833 0 1 1 0-1.666h16.667a.833.833 0 1 1 0 1.666zM39.167 15.833H22.5a.833.833 0 1 1 0-1.666h16.667a.833.833 0 1 1 0 1.666zM39.167 10.833H22.5a.833.833 0 1 1 0-1.666h16.667a.833.833 0 1 1 0 1.666z"/></g><defs><clipPath id="a"><path fill="#fff" d="M0 0h40v40H0z"/></clipPath></defs></svg>