<svg width="41" height="40" fill="none" xmlns="http://www.w3.org/2000/svg"><path d="M20.002 32.557a12.56 12.56 0 1 1 12.559-12.56A12.574 12.574 0 0 1 20 32.558zm0-22.328a9.768 9.768 0 1 0 9.768 9.769 9.78 9.78 0 0 0-9.768-9.769z" fill="#21B3E4"/><path d="M23.723 21.393h-3.721a1.395 1.395 0 0 1-1.396-1.395v-5.582a1.396 1.396 0 0 1 2.791 0v4.186h2.326a1.396 1.396 0 1 1 0 2.791z" fill="#21B3E4"/><path d="M38.608 21.394a1.395 1.395 0 0 1-1.396-1.396A17.21 17.21 0 0 0 6.227 9.676 1.396 1.396 0 0 1 3.995 8a20.905 20.905 0 0 1 1.86-2.14 20.001 20.001 0 0 1 34.148 14.137 1.395 1.395 0 0 1-1.395 1.396zM20.002 40A19.997 19.997 0 0 1 0 19.998a1.395 1.395 0 0 1 2.79 0 17.21 17.21 0 0 0 30.984 10.325 1.397 1.397 0 0 1 2.233 1.674 20.628 20.628 0 0 1-1.861 2.142 19.877 19.877 0 0 1-14.144 5.86z" fill="#1079B4"/><path d="M35.788 37.18a1.395 1.395 0 0 1-1.395-1.395v-3.867h-3.868a1.395 1.395 0 1 1 0-2.79h5.264a1.395 1.395 0 0 1 1.395 1.395v5.262a1.395 1.395 0 0 1-1.395 1.395zM9.476 10.867H4.214a1.395 1.395 0 0 1-1.396-1.395V4.21a1.395 1.395 0 1 1 2.791 0v3.866h3.867a1.395 1.395 0 1 1 0 2.791z" fill="#1079B4"/></svg>