<svg width="42" height="40" fill="none" xmlns="http://www.w3.org/2000/svg"><path fill-rule="evenodd" clip-rule="evenodd" d="M26.164 26.34a.438.438 0 0 1-.232.227l-.06.025H14.311l1.217-4.543.009-.02a.44.44 0 0 1 .23-.225l.06-.024h11.56l-1.216 4.541-.007.019zM14.944 5.79V.979h11.811V5.79H14.944zM34.16 21.78h4.984c.871 0 1.578.706 1.578 1.577v1.658c0 .871-.708 1.577-1.578 1.577H34.16c-.87 0-1.577-.707-1.577-1.577v-1.658c0-.87.707-1.577 1.577-1.577zM7.54 26.592H2.554c-.87 0-1.578-.707-1.578-1.577v-1.658c0-.87.707-1.577 1.578-1.577h4.984c.87 0 1.577.707 1.577 1.577v1.658c0 .87-.707 1.577-1.577 1.577z" fill="#21B3E4"/><path fill-rule="evenodd" clip-rule="evenodd" d="M40.397 25.015c0 .69-.561 1.251-1.253 1.251H34.16c-.69 0-1.251-.56-1.251-1.25v-1.659c0-.69.561-1.252 1.25-1.252h4.985c.692 0 1.253.561 1.253 1.252v1.658zM36 35.965v-8.396h-1.84a2.557 2.557 0 0 1-2.554-2.554v-1.658a2.557 2.557 0 0 1 2.554-2.555H36v-6.365h-8.062L21.5 18.14v2.662h5.784c.34 0 .647.148.843.403.2.262.263.605.173.944l-1.182 4.41c-.154.576-.713 1.01-1.298 1.01H21.5v5.663h2.601a2.731 2.731 0 0 1 2.728 2.728v.005H36zm-10.473 1.307c0 .786-.639 1.425-1.425 1.425h-6.505c-.786 0-1.425-.64-1.425-1.425V35.96c0-.786.639-1.425 1.425-1.425h6.505c.786 0 1.425.64 1.425 1.425v1.312zM14.869 35.96a2.731 2.731 0 0 1 2.728-2.728h2.601v-5.663h-5.784c-.339 0-.647-.146-.843-.403a1.08 1.08 0 0 1-.173-.944l1.182-4.41c.154-.575.712-1.01 1.299-1.01h4.32V18.14l-6.437-3.703H5.699v6.365h1.84a2.557 2.557 0 0 1 2.555 2.555v1.658A2.557 2.557 0 0 1 7.54 27.57H5.699v8.396h9.17v-.005zM1.303 25.015v-1.658c0-.69.561-1.252 1.252-1.252h4.984c.69 0 1.251.561 1.251 1.252v1.658c0 .69-.561 1.251-1.25 1.251H2.554c-.69 0-1.252-.56-1.252-1.25zm13.433 1.251 1.102-4.112a.124.124 0 0 1 .053-.049h11.072l-1.102 4.112a.122.122 0 0 1-.053.05H14.736zm6.114-15.708 5.607 3.227-5.607 3.227-5.608-3.227 5.608-3.227zm-5.58-9.255h11.16v4.162H15.27V1.303zm23.874 19.5h-1.84v-7.018a.652.652 0 0 0-.653-.652h-8.713L21.5 9.43V6.768h5.052c.65 0 1.18-.53 1.18-1.18V1.18c0-.65-.53-1.179-1.18-1.179H15.146c-.65 0-1.18.53-1.18 1.18v4.409c0 .65.53 1.18 1.18 1.18h5.052v2.66l-6.437 3.704H5.047a.651.651 0 0 0-.651.652v7.017H2.555A2.557 2.557 0 0 0 0 23.357v1.658a2.557 2.557 0 0 0 2.555 2.554h1.84v9.047c0 .36.292.652.652.652h9.822v.004A2.73 2.73 0 0 0 17.597 40h6.505a2.73 2.73 0 0 0 2.728-2.728v-.004h9.82a.652.652 0 0 0 .654-.652v-9.047h1.84a2.556 2.556 0 0 0 2.555-2.554v-1.658a2.557 2.557 0 0 0-2.555-2.555z" fill="#1079B4"/></svg>