<svg width="40" height="32" fill="none" xmlns="http://www.w3.org/2000/svg"><path d="M35.833 31.667H4.167A4.171 4.171 0 0 1 0 27.5V4.167A4.171 4.171 0 0 1 4.167 0h31.666A4.171 4.171 0 0 1 40 4.167V27.5a4.171 4.171 0 0 1-4.167 4.167zm-31.666-30a2.503 2.503 0 0 0-2.5 2.5V27.5c0 1.378 1.121 2.5 2.5 2.5h31.666c1.379 0 2.5-1.122 2.5-2.5V4.167c0-1.379-1.121-2.5-2.5-2.5H4.167z" fill="#fff"/><path d="M39.167 10H.833a.833.833 0 1 1 0-1.667h38.334a.833.833 0 0 1 0 1.667zM6.667 6.667a1.667 1.667 0 1 0 0-3.334 1.667 1.667 0 0 0 0 3.334zM11.667 6.667a1.667 1.667 0 1 0 0-3.334 1.667 1.667 0 0 0 0 3.334zM16.667 6.667a1.667 1.667 0 1 0 0-3.334 1.667 1.667 0 0 0 0 3.334z" fill="#fff"/></svg>