<svg width="291" height="74" fill="none" xmlns="http://www.w3.org/2000/svg"><path d="M121.23 64.4v-8.16h11.844c2.977 0 5.043-1.434 6.199-4.302.394-.964.591-2.089.591-3.375 0-3.016-.615-5.229-1.845-6.638-1.132-1.261-2.78-1.892-4.945-1.892h-3.69v14.02h-8.154V30.278c1.426-4.302 4.145-7.504 8.154-9.605v11.46h3.69c2.731 0 4.563-1.249 5.498-3.746.344-.94.517-2.09.517-3.45 0-2.25-.591-3.967-1.771-5.154-1.107-1.063-2.522-1.595-4.244-1.595h-3.69c-3.296 1.459-6.014 3.684-8.154 6.676v.26V9.88h11.549c3.198 0 6.101.854 8.708 2.56 2.239 1.458 3.825 3.696 4.76 6.712.517 1.632.775 3.56.775 5.786 0 3.66-.96 6.589-2.878 8.79a8.271 8.271 0 0 1-2.841 2.15c1.795.693 3.333 2.065 4.612 4.117.836 1.41 1.451 3.202 1.845 5.378.197 1.137.295 2.398.295 3.783 0 3.461-.652 6.391-1.956 8.79-.984 1.878-2.398 3.387-4.243 4.524-2.091 1.286-4.157 1.929-6.199 1.929H121.23z" fill="url(#a)"/><path d="M170.932 23.047c0-3.164-1.562-4.747-4.686-4.747h-4.944c-3.296 1.459-6.015 3.697-8.155 6.713v.222V9.92h12.915c4.551 0 7.896 1.26 10.036 3.782 1.87 2.201 2.804 5.28 2.804 9.235v7.9c0 3.857-1.463 7.12-4.391 9.79l2.214 8.68c-2.73-2.325-6.039-4.13-9.925-5.416h-5.498V64.4h-8.155V30.39c1.452-4.277 4.17-7.479 8.155-9.605v14.946h4.944c1.304 0 2.411-.457 3.321-1.372.91-.915 1.365-2.028 1.365-3.338v-7.974zm9.631 41.353h-8.782l-4.317-17.765c5.535 2.3 9.261 5.699 11.18 10.199l1.919 7.566z" fill="url(#b)"/><path d="M192.555 64.4H184.4V27.869c1.427-4.302 4.145-7.504 8.155-9.606V64.4zM184.4 9.919h8.155v5.86c-3.297 1.458-6.015 3.683-8.155 6.675v.26V9.919z" fill="url(#c)"/><path d="M210.34 65.067c-3.592 0-6.642-1.273-9.151-3.82-2.534-2.522-3.801-5.588-3.801-9.197v-9.161c1.452-4.129 4.133-7.22 8.044-9.272v18.358c0 1.31.455 2.423 1.366 3.338.836.84 1.894 1.273 3.173 1.298h12.545c-.639 1.731-1.66 3.289-3.062 4.673-2.509 2.522-5.547 3.783-9.114 3.783zm3.8-10.644c.443-.717.665-1.533.665-2.448v-7.491h8.449v7.603c0 .79-.061 1.57-.184 2.336h-8.93zm-16.752-32.08c0-3.61 1.267-6.688 3.801-9.235 2.534-2.522 5.584-3.783 9.151-3.783 3.616 0 6.678 1.274 9.188 3.82 2.484 2.547 3.726 5.613 3.726 9.198v6.23h-8.449v-6.379c0-1.31-.456-2.423-1.366-3.337-.934-.94-2.054-1.41-3.357-1.41-1.28 0-2.374.47-3.284 1.41-.911.914-1.366 2.027-1.366 3.337v8.938c-3.247 1.434-5.928 3.61-8.044 6.528V22.343z" fill="url(#d)"/><path d="M227.793 9.881h8.154v5.897c-3.296 1.46-6.014 3.684-8.154 6.676v.26V9.88zM256.574 64.4h-9.594l-7.269-18.767c7.699 5.44 12.976 10.83 15.829 16.17l1.034 2.597zm-20.627 0h-8.154V27.869c1.426-4.302 4.145-7.504 8.154-9.606v11.052l10-19.434h8.745l-11.217 22.216 8.302 20.435c-3.788-3.56-8.253-6.985-13.394-10.273l-2.436 4.895v17.245z" fill="url(#e)"/><path d="m271.849 41.554-6.014-17.431c1.501-2.522 3.69-4.537 6.568-6.045h.037l2.435 7.825h-.037l.332 1.039.775 2.521v-.037l4.059 12.758V64.4h-8.155V41.553zM281.96 9.88H291l-9.889 28.483-4.022-12.683 4.871-15.8zm-21.069 0h9.003l1.882 6.009a19.381 19.381 0 0 0-6.863 5.526L260.891 9.88z" fill="url(#f)"/><path d="m66.744 22.182-1.966 7.454H19.031L7.237 74h68.531l9.56-7.454 5.987-22.182L85.686 37l9.56-7.364 5.897-22.182L95.514 0H0l21.086 22.182h45.658zM58.88 51.818H43.602l1.966-7.454h15.279l-1.966 7.454z" fill="url(#g)"/><defs><linearGradient id="a" x1="121.23" y1="-9.535" x2="291" y2="-9.535" gradientUnits="userSpaceOnUse"><stop stop-color="#8360C3"/><stop offset="1" stop-color="#2EBF91"/></linearGradient><linearGradient id="b" x1="121.23" y1="-9.535" x2="291" y2="-9.535" gradientUnits="userSpaceOnUse"><stop stop-color="#8360C3"/><stop offset="1" stop-color="#2EBF91"/></linearGradient><linearGradient id="c" x1="121.23" y1="-9.535" x2="291" y2="-9.535" gradientUnits="userSpaceOnUse"><stop stop-color="#8360C3"/><stop offset="1" stop-color="#2EBF91"/></linearGradient><linearGradient id="d" x1="121.23" y1="-9.534" x2="291" y2="-9.534" gradientUnits="userSpaceOnUse"><stop stop-color="#8360C3"/><stop offset="1" stop-color="#2EBF91"/></linearGradient><linearGradient id="e" x1="121.23" y1="-9.535" x2="291" y2="-9.535" gradientUnits="userSpaceOnUse"><stop stop-color="#8360C3"/><stop offset="1" stop-color="#2EBF91"/></linearGradient><linearGradient id="f" x1="121.23" y1="-9.535" x2="291" y2="-9.535" gradientUnits="userSpaceOnUse"><stop stop-color="#8360C3"/><stop offset="1" stop-color="#2EBF91"/></linearGradient><linearGradient id="g" x1="-34.313" y1="74.602" x2="135.457" y2="74.602" gradientUnits="userSpaceOnUse"><stop stop-color="#8360C3"/><stop offset="1" stop-color="#2EBF91"/></linearGradient></defs></svg>