<svg width="44" height="44" fill="none" xmlns="http://www.w3.org/2000/svg"><path d="M2.8 21.986h8L14 16.53l6.4 10.91 3.2-5.455h4.8" stroke="#21B3E4" stroke-width="2.5" stroke-linecap="round" stroke-linejoin="round"/><path d="M2.023 14.726A18.222 18.222 0 0 1 2 13.818c0-2.731.833-5.378 2.357-7.49 1.524-2.113 3.644-3.561 6.001-4.098 2.357-.536 4.805-.129 6.927 1.154 2.123 1.282 3.789 3.36 4.715 5.88h0c.926-2.52 2.592-4.598 4.715-5.88 2.122-1.283 4.57-1.69 6.927-1.154 2.356.537 4.477 1.985 6 4.097C41.168 8.44 42 11.087 42 13.818 42 29.273 22 42 22 42s-7.989-5.084-13.868-12.727" stroke="#1079B4" stroke-width="2.5" stroke-linecap="round" stroke-linejoin="round"/></svg>