<svg width="45" height="40" fill="none" xmlns="http://www.w3.org/2000/svg"><path d="M26.956 11.835a7.35 7.35 0 1 0 0 10.399 7.304 7.304 0 0 0 0-10.399zm-9.59 9.592a6.222 6.222 0 0 1 0-8.784 6.134 6.134 0 0 1 3.821-1.763v6.155c0 .15.06.294.167.4l4.352 4.353c-2.44 2.024-6.058 1.92-8.34-.361zm9.148-.445-4.185-4.187v-5.921a6.137 6.137 0 0 1 3.82 1.763c2.283 2.29 2.386 5.908.365 8.345z" fill="#21B3E4"/><path d="m43.799 34.557-8.785-8.785a15.848 15.848 0 0 0-1.989-19.984c-.114-.115-.24-.214-.357-.325l4.315-4.321h6.51a.571.571 0 1 0 0-1.142h-6.74a.57.57 0 0 0-.402.168l-4.53 4.53A15.92 15.92 0 0 0 10.493 28.28c.31.309.63.602.959.879l-4.344 4.345H.595a.57.57 0 1 0 0 1.141h6.747c.15 0 .294-.06.4-.166l4.611-4.61a15.831 15.831 0 0 0 18.142.42l8.787 8.784a3.193 3.193 0 0 0 4.516-4.516h.001zm-.809 3.713c-.773.773-2.126.773-2.899 0l-9.12-9.122a.573.573 0 0 0-.402-.168.558.558 0 0 0-.328.106 14.78 14.78 0 1 1 3.57-3.572.571.571 0 0 0 .063.734l9.12 9.12a2.055 2.055 0 0 1-.004 2.902z" fill="#1079B4"/><path d="M43.5 3.412h-4.724a.572.572 0 1 0 0 1.14h4.723a.57.57 0 0 0 0-1.14zM.595 31.234h4.723a.57.57 0 1 0 0-1.142H.595a.571.571 0 0 0 0 1.142z" fill="#21B3E4"/></svg>