<svg width="57" height="40" fill="none" xmlns="http://www.w3.org/2000/svg"><path d="M51.398 20.83H28.941a.813.813 0 0 1-.814-.813V7.518c0-.222.091-.433.251-.586l7-6.705A.812.812 0 0 1 35.94 0h15.458c.45 0 .813.364.813.813v3.993a.813.813 0 1 1-1.626 0v-3.18H36.266l-6.512 6.239v11.337h20.831v-9.49a.813.813 0 1 1 1.626 0v10.304c0 .45-.363.814-.813.814z" fill="#1079B4"/><path d="M51.399 8.073a.828.828 0 0 1-.312-.062.806.806 0 0 1-.263-.177.813.813 0 0 1-.222-.733.772.772 0 0 1 .046-.152.772.772 0 0 1 .176-.265.816.816 0 0 1 1.373.735.813.813 0 0 1-.639.639.812.812 0 0 1-.16.015z" fill="#1079B4"/><path d="M46.246 16.77H34.094a.813.813 0 0 1-.813-.813v-6.24c0-.223.09-.434.25-.587l3.917-3.753a.812.812 0 0 1 .562-.226h8.236c.45 0 .813.363.813.813v9.993c0 .45-.363.813-.813.813zm-11.339-1.626h10.526V6.777h-7.097l-3.43 3.287v5.08h.001z" fill="#21B3E4"/><path d="M28.462 40a.82.82 0 0 1-.676-.362.776.776 0 0 1-.12-.293.807.807 0 0 1 .221-.733.823.823 0 0 1 .886-.177.82.82 0 0 1 .486.593.809.809 0 0 1-.797.972z" fill="#1079B4"/><path d="M51.199 40H31.185a.813.813 0 1 1 0-1.626H51.2a3.522 3.522 0 0 0 3.517-3.518v-.486a3.522 3.522 0 0 0-3.517-3.517H19.463a3.522 3.522 0 0 0-3.518 3.517v.486a3.522 3.522 0 0 0 3.518 3.518h6.635a.813.813 0 1 1 0 1.626h-6.635a5.15 5.15 0 0 1-5.144-5.144v-.486a5.15 5.15 0 0 1 5.144-5.143h31.736a5.15 5.15 0 0 1 5.144 5.143v.486A5.15 5.15 0 0 1 51.199 40zM51.398 26.83H17.581a.813.813 0 0 1-.813-.813v-2.779a.81.81 0 0 1 .242-.58l3.28-3.22a.812.812 0 0 1 .57-.234h30.538c.45 0 .813.363.813.813v6c0 .45-.363.813-.813.813zm-33.004-1.626h32.191V20.83H21.192l-2.798 2.75v1.624z" fill="#1079B4"/><path d="M17.58 24.051a.812.812 0 0 1-.568-1.392l2.687-2.64L7.779 8.376c-.228.392-.52.748-.862 1.049l8.229 9.69a.814.814 0 0 1-1.24 1.054L5.096 9.795a.815.815 0 0 1 .247-1.248A2.552 2.552 0 0 0 6.668 6.78a.813.813 0 0 1 1.367-.428l13.393 13.084a.81.81 0 0 1 .003 1.162l-3.28 3.221a.817.817 0 0 1-.57.232z" fill="#1079B4"/><path d="M5.741 24.213H3.177a.814.814 0 0 1-.813-.785L1.875 9.326a.813.813 0 0 1 1.173-.757c.35.173.727.261 1.124.261.396 0 .774-.088 1.124-.261a.812.812 0 0 1 1.175.723l.083 14.102a.815.815 0 0 1-.813.819zm-1.779-1.626h.961l-.072-12.184c-.428.07-.88.072-1.311.007l.422 12.177z" fill="#1079B4"/><path d="M10.126 32.19H3.881a.814.814 0 0 1-.635-.305l-1.07-1.338A.814.814 0 0 1 2 30.04V23.4c0-.449.364-.812.813-.812h3.931c.45 0 .813.363.813.813v4.303h1.232l2.287-2.289a.814.814 0 0 1 1.388.575v3.905c0 .22-.088.43-.246.583l-1.524 1.483a.814.814 0 0 1-.567.23zm-5.854-1.626h5.524l1.041-1.013v-1.598L9.7 29.092a.813.813 0 0 1-.575.238H6.743a.813.813 0 0 1-.813-.813v-4.303H3.625v5.541l.647.809zM20.26 37.202a2.59 2.59 0 0 1-2.589-2.589 2.59 2.59 0 0 1 2.589-2.588 2.591 2.591 0 0 1 2.588 2.588 2.591 2.591 0 0 1-2.588 2.589zm0-3.55a.962.962 0 1 0 0 1.924.962.962 0 0 0 0-1.925zM27.795 37.202a2.59 2.59 0 0 1-2.588-2.589 2.59 2.59 0 0 1 2.588-2.588 2.59 2.59 0 0 1 2.588 2.588 2.591 2.591 0 0 1-2.588 2.589zm0-3.55a.962.962 0 1 0 .001 1.924.962.962 0 0 0 0-1.925zM35.331 37.202a2.59 2.59 0 0 1-2.588-2.589 2.59 2.59 0 0 1 2.588-2.588 2.591 2.591 0 0 1 2.589 2.588 2.591 2.591 0 0 1-2.589 2.589zm0-3.55a.962.962 0 1 0 .001 1.924.962.962 0 0 0 0-1.925zM42.867 37.202a2.59 2.59 0 0 1-2.588-2.589 2.59 2.59 0 0 1 2.588-2.588 2.59 2.59 0 0 1 2.588 2.588 2.591 2.591 0 0 1-2.588 2.589zm0-3.55a.962.962 0 1 0 0 1.924.962.962 0 0 0 0-1.925zM50.403 37.202a2.59 2.59 0 0 1-2.588-2.589 2.59 2.59 0 0 1 2.588-2.588 2.591 2.591 0 0 1 2.588 2.588 2.591 2.591 0 0 1-2.588 2.589zm0-3.55a.962.962 0 1 0 0 1.924.962.962 0 0 0 0-1.925zM4.172 3.74a2.547 2.547 0 0 0-2.544 2.546c0 .976.543 1.85 1.42 2.283.35.174.729.262 1.124.262.396 0 .774-.088 1.124-.261l.015-.007.032-.018a2.552 2.552 0 0 0 1.374-2.258 2.547 2.547 0 0 0-2.545-2.546zm0 6.717a4.12 4.12 0 0 1-1.846-.43A4.144 4.144 0 0 1 0 6.285c0-2.3 1.871-4.172 4.17-4.172a4.177 4.177 0 0 1 4.093 4.982 4.192 4.192 0 0 1-2.26 2.937 4.114 4.114 0 0 1-1.831.424z" fill="#21B3E4"/></svg>