<svg width="40" height="34" fill="none" xmlns="http://www.w3.org/2000/svg"><path d="M31.667 33.333H8.333A8.333 8.333 0 0 1 0 25V8.333A8.333 8.333 0 0 1 8.333 0h23.334A8.333 8.333 0 0 1 40 8.333V25a8.333 8.333 0 0 1-8.333 8.333zm-23.334-30a5 5 0 0 0-5 5V25a5 5 0 0 0 5 5h23.334a5 5 0 0 0 5-5V8.333a5 5 0 0 0-5-5H8.333z" fill="#fff"/><path d="M20 18.8a8.334 8.334 0 0 1-5.966-2.517L2.618 4.617A1.674 1.674 0 0 1 5 2.267l11.4 11.666a5.117 5.117 0 0 0 7.167 0l11.4-11.666a1.674 1.674 0 0 1 2.4 2.333L25.95 16.267A8.333 8.333 0 0 1 20 18.8z" fill="#fff"/></svg>