<svg width="40" height="45" fill="none" xmlns="http://www.w3.org/2000/svg"><path d="M24.445 39.26v-4.482a8.137 8.137 0 0 1-.74.037h-7.408a8.14 8.14 0 0 1-.741-.037v4.481H.741v4.445H39.26v-4.445H24.445zM16.61 16.295a3.697 3.697 0 0 0 6.78 0h9.944v-2.963h-.815C31.859 6.26 26.504.741 20.001.741 13.496.74 8.14 6.259 7.48 13.333h-.814v2.963h9.943zm3.39 0a1.481 1.481 0 1 1 0-2.963 1.481 1.481 0 0 1 0 2.963z" fill="#21B3E4"/><path d="M20 17.037a2.223 2.223 0 1 0 0-4.446 2.223 2.223 0 0 0 0 4.446zm0-2.963a.741.741 0 1 1 0 1.483.741.741 0 0 1 0-1.483z" fill="#1079B4"/><path d="M39.26 38.519H25.184v-3.105a8.157 8.157 0 0 0 6.667-8.007v-2.963h2.222a.741.741 0 0 0 .74-.74v-5.186a.74.74 0 0 0-.74-.74h-2.222v-.741h1.481a.74.74 0 0 0 .741-.74v-2.964a.741.741 0 0 0-.74-.74h-.17C32.193 5.37 26.646 0 20 0S7.807 5.37 6.836 12.593h-.17a.74.74 0 0 0-.74.74v2.963a.74.74 0 0 0 .74.741h1.482v.74H5.926a.74.74 0 0 0-.74.741v5.186a.74.74 0 0 0 .74.74h2.222v2.963a8.157 8.157 0 0 0 6.667 8.007v3.105H.74a.74.74 0 0 0-.741.74v4.445a.74.74 0 0 0 .74.74h38.52a.74.74 0 0 0 .74-.74v-4.445a.74.74 0 0 0-.74-.74zm-5.927-19.26v3.704h-1.481v-3.704h1.481zm-.74-3.703h-8.149v-1.482h8.149v1.482zM20 1.48c5.838 0 10.725 4.725 11.671 11.112h-7.828a4.434 4.434 0 0 0-7.686 0h-4.305V11.11H10.37v1.482H8.33C9.275 6.206 14.162 1.48 20 1.48zm0 10.37a2.963 2.963 0 1 1 0 5.926 2.963 2.963 0 0 1 0-5.925zM7.407 14.075h8.149v1.482H7.407v-1.482zm-.74 8.889v-3.704h1.481v3.704H6.667zm2.963 4.444v-10.37h6.527a4.435 4.435 0 0 0 7.686 0h6.527v10.37a6.676 6.676 0 0 1-5.97 6.63h-8.8a6.675 6.675 0 0 1-5.97-6.63zm28.889 15.556H1.48V40h14.075a.74.74 0 0 0 .74-.74v-3.704h7.408v3.703a.74.74 0 0 0 .74.741H38.52v2.963z" fill="#1079B4"/></svg>