<svg width="40" height="40" fill="none" xmlns="http://www.w3.org/2000/svg"><path d="M35.556 0H4.444C2 0 0 2 0 4.444v31.112C0 38 2 40 4.444 40h31.112C38 40 40 38 40 35.556V4.444C40 2 38 0 35.556 0zM4.444 38.222a2.674 2.674 0 0 1-2.666-2.666V31.91L12.444 20.4 29.6 38.222H4.444zm33.778-2.666c0 1.466-1.2 2.666-2.666 2.666h-3.512l-12.8-13.333 9.867-10.267 9.111 9.822v11.112zm0-13.734-8.444-9.11-.045-.045c-.044 0-.044-.045-.089-.045 0 0-.044-.044-.088-.044-.045 0-.045-.045-.09-.045-.044 0-.044 0-.088-.044H28.844c-.044 0-.044 0-.088.044-.045 0-.045.045-.09.045-.044 0-.044.044-.088.044-.045 0-.045.045-.09.045l-.044.044L18 23.6l-4.933-5.111s-.045 0-.045-.045c-.044-.044-.044-.044-.089-.044 0 0-.044-.044-.089-.044-.044 0-.044-.045-.088-.045-.045 0-.045 0-.09-.044H12.134c-.044 0-.044 0-.089.044-.044 0-.044 0-.088.045-.045 0-.045.044-.09.044-.044 0-.044.044-.088.044 0 0-.045 0-.045.045l-9.955 10.8V4.444c0-1.466 1.2-2.666 2.666-2.666h31.112c1.466 0 2.666 1.2 2.666 2.666v17.378zM9.778 5.333c-2.445 0-4.445 2-4.445 4.445 0 2.444 2 4.444 4.445 4.444 2.444 0 4.444-2 4.444-4.444 0-2.445-2-4.445-4.444-4.445zm0 7.111A2.674 2.674 0 0 1 7.11 9.778c0-1.467 1.2-2.667 2.667-2.667 1.466 0 2.666 1.2 2.666 2.667 0 1.466-1.2 2.666-2.666 2.666z" fill="#fff"/></svg>