<svg width="44" height="40" fill="none" xmlns="http://www.w3.org/2000/svg"><path d="M14.739 28.067c1.914 1.405 4.575-1.882 6.95-1.87 2.376.011 5.004 3.325 6.933 1.938 1.928-1.387-.376-4.933.37-7.189.745-2.255 4.708-3.731 3.985-5.994-.723-2.263-4.808-1.167-6.723-2.573s-2.093-5.631-4.469-5.643c-2.375-.011-2.596 4.212-4.524 5.599-1.929 1.387-6.003.251-6.748 2.507-.745 2.255 3.204 3.77 3.927 6.033.723 2.262-1.616 5.786.299 7.192zm2.094 5.766c2.625-.903 4.02-.701 4.588.949.567 1.65-1.1 3.72-3.725 4.622-2.625.903-5.051.769-5.427-.324-.376-1.093 1.94-4.344 4.564-5.247zM9.59 30.985c2.478-.074 3.614.468 3.66 2.025.046 1.558-1.924 2.88-4.402 2.954-2.477.073-4.51-.684-4.54-1.716-.031-1.032 2.805-3.189 5.282-3.263zm-3.726-5.641c2.13.516 2.973 1.244 2.648 2.583-.324 1.339-2.314 2.006-4.444 1.49C1.937 28.9.38 27.779.595 26.892c.215-.887 3.138-2.064 5.268-1.548z" fill="#1079B4"/><path d="M5.603 18.84c1.843 1.186 2.4 2.15 1.655 3.308-.746 1.16-2.845 1.137-4.688-.05C.727 20.913-.376 19.343.118 18.576c.494-.768 3.642-.921 5.485.265zm.252-6.1c1.235 1.414 1.464 2.339.576 3.115-.888.776-2.61.26-3.845-1.153-1.235-1.414-1.77-2.967-1.18-3.481.588-.515 3.214.106 4.449 1.52zm2.352-5.612c.57 1.789.411 2.728-.713 3.086-1.124.358-2.497-.802-3.066-2.59-.57-1.789-.44-3.427.304-3.664.745-.237 2.906 1.38 3.475 3.168zm3.907-2.85c-.325 1.404-.798 1.962-1.68 1.757C9.55 5.83 9.1 4.526 9.425 3.123 9.752 1.72 10.48.69 11.064.825c.584.136 1.376 2.05 1.05 3.453zm4.965-.728c-1.145.875-1.865 1.004-2.415.284s-.067-2.012 1.078-2.887c1.145-.874 2.362-1.205 2.726-.729.364.477-.244 2.457-1.389 3.332z" fill="#21B3E4"/><path d="M26.676 33.832c-2.625-.903-4.02-.701-4.588.949-.567 1.65 1.1 3.72 3.725 4.622 2.625.903 5.051.769 5.427-.324.376-1.093-1.94-4.344-4.564-5.247zm7.244-2.848c-2.478-.074-3.614.468-3.66 2.025-.046 1.558 1.924 2.88 4.401 2.954 2.478.073 4.51-.684 4.541-1.716.03-1.032-2.805-3.189-5.282-3.263zm3.725-5.641c-2.13.516-2.972 1.244-2.648 2.583.325 1.339 2.315 2.006 4.445 1.49 2.13-.516 3.687-1.638 3.472-2.525-.215-.887-3.138-2.064-5.269-1.548z" fill="#1079B4"/><path d="M37.906 18.84c-1.843 1.186-2.4 2.15-1.655 3.308.746 1.16 2.845 1.137 4.688-.05 1.843-1.186 2.946-2.756 2.452-3.523-.494-.768-3.642-.921-5.485.265zm-.252-6.1c-1.235 1.414-1.465 2.339-.576 3.115.888.776 2.61.26 3.845-1.153 1.235-1.414 1.77-2.967 1.18-3.481-.588-.515-3.214.106-4.45 1.52zM35.3 7.129c-.569 1.789-.41 2.728.714 3.086 1.124.358 2.497-.802 3.066-2.59.57-1.789.44-3.427-.305-3.664-.744-.237-2.905 1.38-3.475 3.168zm-3.907-2.85c.326 1.404.8 1.962 1.681 1.757.883-.205 1.333-1.509 1.008-2.912C33.757 1.72 33.029.69 32.445.825c-.585.136-1.377 2.05-1.05 3.453zM26.43 3.55c1.145.875 1.864 1.004 2.414.284s.068-2.012-1.077-2.887C26.622.073 25.405-.258 25.04.218c-.364.477.244 2.457 1.389 3.332z" fill="#21B3E4"/></svg>