<svg width="17" height="17" fill="none" xmlns="http://www.w3.org/2000/svg"><path d="M4.657 11.687a.561.561 0 0 0 .443.213.568.568 0 0 0 .443-.92l-1.53-1.914h8.974l-1.53 1.913a.568.568 0 0 0 .886.708l2.266-2.833a.565.565 0 0 0 0-.709l-2.266-2.833a.568.568 0 0 0-.886.708l1.53 1.913H4.013l1.53-1.913a.568.568 0 0 0-.886-.708L2.39 8.145a.565.565 0 0 0 0 .709l2.267 2.833z" fill="#1079B4"/><path d="M16.433 0H.567A.568.568 0 0 0 0 .567v15.866c0 .312.255.567.567.567h15.866a.568.568 0 0 0 .567-.567V.567A.568.568 0 0 0 16.433 0zm-.566 15.867H1.133V1.133h14.734v14.734z" fill="#1079B4"/></svg>