<svg width="42" height="40" fill="none" xmlns="http://www.w3.org/2000/svg"><path fill-rule="evenodd" clip-rule="evenodd" d="M41.169 26.664c-.655-.879-2.014-.647-3.017-.208-2.595 1.136-4.8 3.042-7.377 4.22-3.837 1.756-8.214 1.798-12.441 1.798V31.42l7.667-.547c.912-.066 1.857-.14 2.636-.613.779-.473 1.317-1.476.97-2.313-.473-1.119-1.998-1.193-3.217-1.135a43.765 43.765 0 0 1-9.017-.514c-1.608-.257-3.216-.613-4.84-.613-1.667 0-3.888.455-4.916 1.79v-.381a3.02 3.02 0 0 0-3.025-3.026H3.017A3.02 3.02 0 0 0 0 27.095v9.88A3.02 3.02 0 0 0 3.025 40H4.6a3.02 3.02 0 0 0 2.976-2.495c5.147-.008 10.294-.008 15.441-.017 1.7 0 3.431-.008 5.056-.53 1.36-.44 2.578-1.21 3.78-1.981 2.527-1.616 5.055-3.24 7.575-4.857.614-.39 1.243-.804 1.65-1.41.406-.604.522-1.458.09-2.046z" fill="#1079B4"/><path d="M21.94 0c-6.515 0-11.811 5.296-11.811 11.811s5.296 11.811 11.81 11.811c6.516 0 11.812-5.296 11.812-11.811S28.455 0 21.94 0zm0 20.282c-4.667 0-8.47-3.796-8.47-8.471 0-4.675 3.803-8.462 8.47-8.462 4.666 0 8.47 3.796 8.47 8.47 0 4.675-3.804 8.463-8.47 8.463z" fill="#21B3E4"/><path d="M22.677 10.418c-1.931-.547-2.354-.895-2.354-1.682 0-.555.331-1.235 1.484-1.235 1.375 0 1.616.812 1.74 1.31h2.561c-.132-1.41-.928-2.794-3.174-3.125v-1.16h-2.147v1.176c-1.716.324-3.05 1.46-3.05 3.29 0 1.692.887 2.819 3.937 3.697 1.674.481 2.138.912 2.138 1.79 0 .722-.422 1.36-1.757 1.36-1.077 0-1.798-.588-2.006-1.517h-2.56c.14 1.74 1.334 3.017 3.422 3.332v1.45h2.164v-1.45c1.98-.298 3.299-1.434 3.299-3.464.008-1.931-1.003-3.017-3.697-3.771z" fill="#21B3E4"/></svg>