<svg width="40" height="40" fill="none" xmlns="http://www.w3.org/2000/svg"><path d="m39.065 34.548-5.117-5.108a9.999 9.999 0 0 0-7.283-14.29V5a.833.833 0 0 0-.833-.833h-4.166v1.666h3.333V15a10 10 0 0 0 0 20v3.332H1.667V5.833H5V4.166H.833A.833.833 0 0 0 0 5v34.165a.833.833 0 0 0 .833.833h24.999a.833.833 0 0 0 .833-.833v-4.317c.961-.168 1.893-.474 2.767-.908l5.116 5.125a3.194 3.194 0 1 0 4.517-4.517zm-14.066-1.216a8.333 8.333 0 1 1 0-16.666 8.333 8.333 0 0 1 0 16.666zm10.732 4.55-4.833-4.834a9.998 9.998 0 0 0 2.159-2.15c5.133 5.134 5.274 5.058 5.274 5.917a1.524 1.524 0 0 1-2.6 1.066z" fill="#1079B4"/><path d="M24.998 31.665a6.666 6.666 0 1 0 0-13.333 6.666 6.666 0 0 0 0 13.333z" fill="#21B3E4"/><path d="M12.5 17.5H4.165a.834.834 0 0 0 0 1.666H12.5a.833.833 0 0 0 0-1.667zm0-3.334H4.165a.833.833 0 0 0 0 1.667H12.5a.833.833 0 0 0 0-1.667z" fill="#1079B4"/><path d="M12.5 30.832H4.165a.833.833 0 0 0-.833.833v3.333c0 .46.373.834.833.834H12.5c.46 0 .833-.374.833-.834v-3.333a.833.833 0 0 0-.833-.833z" fill="#21B3E4"/><path d="M15.832 10.833H4.166a.834.834 0 0 0 0 1.666h11.666a.833.833 0 1 0 0-1.666z" fill="#1079B4"/><path d="M16.666 3.333a3.333 3.333 0 0 0-6.667 0H6.666v3.333h13.333V3.333h-3.333zm-3.334.833a.833.833 0 1 1 0-1.666.833.833 0 0 1 0 1.666z" fill="#21B3E4"/></svg>