<svg width="37" height="38" fill="none" xmlns="http://www.w3.org/2000/svg"><path d="M24.556 32.324h-.453a.708.708 0 0 1-.708-.594 5.04 5.04 0 0 0-1.657-3.136 4.955 4.955 0 0 0-8.175 3.072.757.757 0 0 1-.708.658h-.453a.71.71 0 0 1-.545-.255A5.195 5.195 0 0 0 7.865 30.2a.708.708 0 0 1 0-1.415 2.831 2.831 0 0 0 2.83-2.832v-1.415a2.831 2.831 0 0 0-5.096-1.7.708.708 0 0 1-1.274-.424v-9.152a.707.707 0 0 1 .312-.588l13.449-8.968a.708.708 0 0 1 .779 0l13.449 8.968a.707.707 0 0 1 .311.588v9.152a.707.707 0 0 1-.926.71.707.707 0 0 1-.355-.257 2.03 2.03 0 0 0-.255-.297 2.832 2.832 0 0 0-4.82 1.968v1.415a2.831 2.831 0 0 0 2.831 2.832.708.708 0 0 1 0 1.416 5.19 5.19 0 0 0-4 1.868.71.71 0 0 1-.544.255zm-14.094-3.008c.6.252 1.156.596 1.65 1.019.085.064.17.142.247.212a6.42 6.42 0 0 1 3.54-4.049 4.247 4.247 0 0 1-1.664-3.376v-1.416a4.247 4.247 0 0 1 8.494 0v1.416a4.248 4.248 0 0 1-1.67 3.376 6.37 6.37 0 0 1 3.54 4.049 6.654 6.654 0 0 1 1.903-1.231 4.246 4.246 0 0 1-1.649-3.363v-1.415a4.247 4.247 0 0 1 6.37-3.681v-7.213L18.484 5.15 5.74 13.644v7.22a4.247 4.247 0 0 1 6.37 3.674v1.415a4.246 4.246 0 0 1-1.649 3.363zm8.02-10.441a2.831 2.831 0 0 0-2.831 2.831v1.416a2.831 2.831 0 0 0 5.663 0v-1.416a2.831 2.831 0 0 0-2.832-2.831z" fill="#21B3E4"/><path d="M19.19 29.493h-1.416a.708.708 0 0 1 0-1.416h1.416a.708.708 0 0 1 0 1.416z" fill="#21B3E4"/><path d="M18.482 35.864a.708.708 0 0 1-.708-.708v-6.371a.708.708 0 0 1 1.416 0v6.37a.708.708 0 0 1-.708.709zm11.326-3.54h-1.416a.708.708 0 0 1 0-1.415h1.416a.708.708 0 1 1 0 1.415z" fill="#21B3E4"/><path d="M29.1 37.987a.708.708 0 0 1-.707-.708v-5.663a.708.708 0 0 1 1.415 0v5.663a.708.708 0 0 1-.707.708zM8.573 32.324H7.157a.708.708 0 0 1 0-1.416h1.416a.708.708 0 0 1 0 1.416z" fill="#21B3E4"/><path d="M7.864 37.987a.708.708 0 0 1-.708-.708v-5.663a.708.708 0 1 1 1.416 0v5.663a.708.708 0 0 1-.708.708z" fill="#21B3E4"/><path d="M24.853 37.987a.708.708 0 0 1-.708-.616l-.75-5.663a5.04 5.04 0 0 0-1.657-3.107 4.954 4.954 0 0 0-8.175 3.072l-.071.552-.708 5.153a.715.715 0 0 1-1.416-.184l.75-5.663a6.37 6.37 0 0 1 6.364-5.578 6.37 6.37 0 0 1 4.198 1.579 6.42 6.42 0 0 1 2.123 3.95l.758 5.705a.707.707 0 0 1-.616.8h-.092z" fill="#1079B4"/><path d="M35.471 37.987a.707.707 0 0 1-.708-.58l-.53-2.91a5.196 5.196 0 0 0-1.799-3.08 4.624 4.624 0 0 0-.85-.58 5.217 5.217 0 0 0-6.497 1.232l-.198.248.672 4.87a.714.714 0 0 1-1.416.184l-.707-5.146a.707.707 0 0 1 .113-.489c.138-.203.287-.4.446-.587a6.632 6.632 0 0 1 8.246-1.557c.387.197.753.434 1.09.707a6.604 6.604 0 0 1 2.273 3.908l.573 2.944a.708.708 0 0 1-.567.822.387.387 0 0 1-.141.014zM18.483 27.369a4.247 4.247 0 0 1-4.248-4.247v-1.416a4.247 4.247 0 1 1 8.495 0v1.416a4.247 4.247 0 0 1-4.247 4.247zm0-8.494a2.831 2.831 0 0 0-2.832 2.831v1.416a2.831 2.831 0 1 0 5.663 0v-1.416a2.831 2.831 0 0 0-2.831-2.831z" fill="#1079B4"/><path d="M29.1 30.2a4.247 4.247 0 0 1-4.247-4.247v-1.415a4.247 4.247 0 0 1 7.652-2.542c.55.733.846 1.625.842 2.542v1.415a4.197 4.197 0 0 1-.85 2.549A4.247 4.247 0 0 1 29.1 30.2zm0-8.494a2.831 2.831 0 0 0-2.832 2.832v1.415a2.831 2.831 0 0 0 5.663 0v-1.415c0-.613-.198-1.21-.566-1.7a2.832 2.832 0 0 0-2.265-1.133zM1.494 37.986a.39.39 0 0 1-.128 0 .708.708 0 0 1-.58-.834l.53-2.91a6.654 6.654 0 0 1 11.624-3.079c.148.17.29.375.431.573a.708.708 0 0 1 .114.489l-.708 5.146a.714.714 0 0 1-1.416-.184l.7-4.863c-.063-.085-.12-.163-.183-.234a5.224 5.224 0 0 0-9.16 2.414l-.517 2.902a.708.708 0 0 1-.707.58z" fill="#1079B4"/><path d="M7.865 30.2a4.284 4.284 0 0 1-3.398-1.698 4.198 4.198 0 0 1-.85-2.548v-1.416a4.198 4.198 0 0 1 .85-2.548 4.282 4.282 0 0 1 3.398-1.7 4.248 4.248 0 0 1 4.247 4.248v1.416A4.247 4.247 0 0 1 7.865 30.2zm0-8.494a2.831 2.831 0 0 0-2.832 2.832v1.416a2.831 2.831 0 1 0 5.663 0v-1.416a2.832 2.832 0 0 0-2.831-2.832zm10.617 5.663a4.247 4.247 0 0 1-4.247-4.247v-1.416a4.247 4.247 0 0 1 8.495 0v1.416a4.247 4.247 0 0 1-4.248 4.247zm0-8.494a2.831 2.831 0 0 0-2.831 2.831v1.416a2.831 2.831 0 0 0 5.663 0v-1.416a2.831 2.831 0 0 0-2.832-2.83zm18.164-6.717-1.663-1.112L19.855.966l-.984-.658a.708.708 0 0 0-.779 0L.32 12.158a.708.708 0 0 0-.198.984l1.571 2.35a.708.708 0 0 0 .977.19l1.656-1.104L17.527 5.78l.955-.637 13.874 9.244.283.191 1.657 1.105a.708.708 0 0 0 .977-.191l1.571-2.35a.707.707 0 0 0-.198-.984zm-2.124 1.953-1.069-.708-1.09-.708-13.449-8.968a.708.708 0 0 0-.764 0L4.7 12.695l-2.123 1.416-.885-1.168 16.79-11.198.496.333 15.31 10.207.985.658-.75 1.168z" fill="#1079B4"/></svg>