<svg width="41" height="40" fill="none" xmlns="http://www.w3.org/2000/svg"><path d="M8.845 40H3.259A3.262 3.262 0 0 1 0 36.74v-9.31a3.262 3.262 0 0 1 3.259-3.259h5.586a3.263 3.263 0 0 1 3.258 3.259v9.31A3.263 3.263 0 0 1 8.846 40zM3.259 26.965a.465.465 0 0 0-.466.466v9.31a.465.465 0 0 0 .466.465h5.586a.466.466 0 0 0 .465-.465v-9.31a.465.465 0 0 0-.465-.466H3.259zM22.81 40h-5.586a3.262 3.262 0 0 1-3.258-3.259V19.982a3.263 3.263 0 0 1 3.258-3.258h5.586a3.262 3.262 0 0 1 3.259 3.258v16.759A3.262 3.262 0 0 1 22.81 40zm-5.586-20.483a.465.465 0 0 0-.465.465v16.759a.466.466 0 0 0 .465.465h5.586a.466.466 0 0 0 .466-.465V19.982a.465.465 0 0 0-.466-.465h-5.586zM36.776 40H31.19a3.262 3.262 0 0 1-3.259-3.259V12.534a3.262 3.262 0 0 1 3.259-3.259h5.586a3.262 3.262 0 0 1 3.258 3.259v24.207A3.262 3.262 0 0 1 36.776 40zM31.19 12.069a.465.465 0 0 0-.466.465v24.207a.465.465 0 0 0 .466.465h5.586a.466.466 0 0 0 .465-.465V12.534a.466.466 0 0 0-.465-.466H31.19z" fill="#1079B4"/><path d="M5.12 15.793a1.397 1.397 0 0 1-.986-2.384l7.448-7.448a1.395 1.395 0 0 1 1.611-.263l6.549 3.274L28.34.375a1.396 1.396 0 0 1 1.974 1.974l-9.31 9.31a1.399 1.399 0 0 1-1.611.262l-6.55-3.273-6.736 6.735a1.385 1.385 0 0 1-.987.41z" fill="#21B3E4"/></svg>