<svg width="37" height="44" fill="none" xmlns="http://www.w3.org/2000/svg"><path d="M34.948 8.492 26.575 2.42a.715.715 0 0 0-.999.159L2.42 34.509a.715.715 0 0 0 .159.999l8.373 6.072c.32.232.767.16.998-.159l23.157-31.93a.715.715 0 0 0-.159-.999z" stroke="#1079B4" stroke-width="3" stroke-linecap="round" stroke-linejoin="round"/><path d="m22.642 6.625 2.802 2.037M19.189 11.394l3.924 2.845M15.73 16.161l2.802 2.03M12.27 20.929l3.931 2.845M8.817 25.696l2.803 2.03M5.358 30.465l3.924 2.845" stroke="#21B3E4" stroke-width="3" stroke-linecap="round" stroke-linejoin="round"/></svg>