<svg width="34" height="40" fill="none" xmlns="http://www.w3.org/2000/svg"><path d="M4.616 40a4.475 4.475 0 0 1-2.141-.555A4.85 4.85 0 0 1 0 35.168V4.825A4.728 4.728 0 0 1 4.616 0h24.615a4.728 4.728 0 0 1 4.615 4.825v30.343a4.848 4.848 0 0 1-2.476 4.279 4.413 4.413 0 0 1-4.553-.165l-9.141-5.857a1.352 1.352 0 0 0-1.505 0l-9.14 5.857A4.448 4.448 0 0 1 4.615 40zm12.308-9.884c.857.002 1.695.25 2.413.717l9.142 5.858a1.344 1.344 0 0 0 1.414.054 1.752 1.752 0 0 0 .877-1.577V4.825a1.655 1.655 0 0 0-1.539-1.748H4.616a1.655 1.655 0 0 0-1.538 1.748v30.343a1.753 1.753 0 0 0 .877 1.579 1.344 1.344 0 0 0 1.414-.054l9.14-5.858a4.461 4.461 0 0 1 2.415-.717v-.002z" fill="#1079B4"/><path d="M23.076 10.77H10.77a1.539 1.539 0 0 1 0-3.077h12.307a1.538 1.538 0 1 1 0 3.077z" fill="#21B3E4"/></svg>