<svg width="40" height="40" fill="none" xmlns="http://www.w3.org/2000/svg"><path d="M1.429 14.286c-.79 0-1.429-.64-1.429-1.429V1.43C0 .639.639 0 1.429 0h11.428a1.428 1.428 0 1 1 0 2.857h-10v10c0 .79-.639 1.429-1.428 1.429z" fill="#21B3E4"/><path d="M27.143 28.571c-.366 0-.731-.14-1.01-.418L.419 2.439a1.428 1.428 0 1 1 2.02-2.02l25.714 25.714a1.428 1.428 0 0 1-1.01 2.438z" fill="#21B3E4"/><path d="M38.571 40H1.43C.639 40 0 39.36 0 38.571V20a1.428 1.428 0 1 1 2.857 0v17.143h34.286V2.857H20A1.428 1.428 0 1 1 20 0h18.571C39.361 0 40 .64 40 1.429V38.57c0 .79-.639 1.429-1.429 1.429z" fill="#1079B4"/></svg>