<svg width="40" height="40" fill="none" xmlns="http://www.w3.org/2000/svg"><path fill-rule="evenodd" clip-rule="evenodd" d="M7.738 3.333h24.524c1.002 0 1.81 0 2.468.045.676.046 1.274.143 1.84.378a5.555 5.555 0 0 1 3.007 3.007c.235.566.332 1.164.378 1.84.045.658.045 1.466.045 2.468v21.19c0 1.002 0 1.81-.045 2.468-.046.677-.143 1.275-.378 1.841a5.556 5.556 0 0 1-3.006 3.007c-.567.234-1.165.332-1.841.378-.658.045-1.466.045-2.468.045H7.738c-1.002 0-1.81 0-2.468-.045-.676-.046-1.274-.144-1.84-.378A5.556 5.556 0 0 1 .422 36.57c-.235-.566-.332-1.164-.378-1.84C0 34.071 0 33.262 0 32.26v-21.19c0-1.002 0-1.81.045-2.468.046-.676.143-1.274.378-1.84a5.555 5.555 0 0 1 3.006-3.007c.567-.235 1.165-.332 1.841-.378.658-.045 1.466-.045 2.468-.045zM5.422 5.595c-.564.038-.892.11-1.142.214a3.334 3.334 0 0 0-1.804 1.804c-.104.25-.176.578-.214 1.142-.04.573-.04 1.305-.04 2.356v21.11c0 1.052 0 1.784.04 2.357.038.563.11.891.214 1.142a3.334 3.334 0 0 0 1.804 1.804c.25.103.578.175 1.142.214.573.039 1.305.04 2.356.04h24.444c1.05 0 1.783-.001 2.356-.04.564-.039.892-.11 1.142-.214a3.334 3.334 0 0 0 1.804-1.804c.104-.25.176-.579.214-1.142.04-.573.04-1.306.04-2.356V11.11c0-1.05 0-1.783-.04-2.356-.038-.564-.11-.892-.214-1.142a3.334 3.334 0 0 0-1.804-1.804c-.25-.104-.578-.176-1.142-.214-.573-.04-1.305-.04-2.356-.04H7.778c-1.05 0-1.783 0-2.356.04z" fill="#1079B4"/><path fill-rule="evenodd" clip-rule="evenodd" d="M1.111 14.444c0-.613.498-1.11 1.111-1.11H38.89a1.111 1.111 0 1 1 0 2.222H2.222a1.111 1.111 0 0 1-1.11-1.112zM11.111 0c.614 0 1.111.497 1.111 1.111v4.445a1.111 1.111 0 0 1-2.222 0V1.11C10 .497 10.498 0 11.111 0zM28.89 0C29.503 0 30 .497 30 1.111v4.445a1.111 1.111 0 1 1-2.222 0V1.11c0-.614.497-1.111 1.111-1.111z" fill="#1079B4"/><path d="M11.11 24.445a2.223 2.223 0 1 0 0-4.445 2.223 2.223 0 0 0 0 4.445zM20 24.445A2.222 2.222 0 1 0 20 20a2.222 2.222 0 0 0 0 4.445zM28.889 24.445a2.222 2.222 0 1 0 0-4.445 2.222 2.222 0 0 0 0 4.445zM11.11 33.334a2.223 2.223 0 1 0 0-4.445 2.223 2.223 0 0 0 0 4.445zM20 33.334a2.223 2.223 0 1 0 0-4.445 2.223 2.223 0 0 0 0 4.445zM28.889 33.334a2.223 2.223 0 1 0 0-4.445 2.223 2.223 0 0 0 0 4.445z" fill="#21B3E4"/></svg>