<svg width="40" height="40" fill="none" xmlns="http://www.w3.org/2000/svg"><path d="M13.333 21.667H5a5 5 0 0 0-5 5V35a5 5 0 0 0 5 5h8.333a5 5 0 0 0 5-5v-8.333a5 5 0 0 0-5-5zM15 35a1.666 1.666 0 0 1-1.667 1.667H5A1.667 1.667 0 0 1 3.333 35v-8.333A1.666 1.666 0 0 1 5 25h8.333A1.666 1.666 0 0 1 15 26.667V35zm20-13.333h-8.333a5 5 0 0 0-5 5V35a5 5 0 0 0 5 5H35a5 5 0 0 0 5-5v-8.333a5 5 0 0 0-5-5zM36.667 35A1.666 1.666 0 0 1 35 36.667h-8.333A1.666 1.666 0 0 1 25 35v-8.333A1.666 1.666 0 0 1 26.667 25H35a1.666 1.666 0 0 1 1.667 1.667V35zM13.333 0H5a5 5 0 0 0-5 5v8.333a5 5 0 0 0 5 5h8.333a5 5 0 0 0 5-5V5a5 5 0 0 0-5-5zM15 13.333A1.666 1.666 0 0 1 13.333 15H5a1.667 1.667 0 0 1-1.667-1.667V5A1.667 1.667 0 0 1 5 3.333h8.333A1.666 1.666 0 0 1 15 5v8.333z" fill="#1079B4"/><path d="M38.333 7.5h-5.834V1.667a1.666 1.666 0 1 0-3.333 0V7.5h-5.833a1.667 1.667 0 1 0 0 3.333h5.833v5.834a1.667 1.667 0 0 0 3.333 0v-5.834h5.834a1.667 1.667 0 0 0 0-3.333z" fill="#21B3E4"/></svg>