<svg width="35" height="40" fill="none" xmlns="http://www.w3.org/2000/svg"><path d="M26.066 21.693 8.533 33.071a.994.994 0 0 0-.293 1.374l.301.464a.994.994 0 0 0 1.375.292l17.533-11.377a.994.994 0 0 0 .292-1.374l-.3-.464a.994.994 0 0 0-1.375-.293zM26.962 16.7 9.43 5.322a.994.994 0 0 0-1.374.293l-.302.465a.994.994 0 0 0 .293 1.374l17.533 11.378a.994.994 0 0 0 1.374-.293l.302-.465a.994.994 0 0 0-.293-1.374z" fill="#1079B4"/><path d="M4.783 9.566a4.783 4.783 0 1 1 0-9.566 4.783 4.783 0 0 1 0 9.566zm0-7.114a2.333 2.333 0 1 0 0 4.666 2.333 2.333 0 0 0 0-4.666zm25.348 22.332a4.783 4.783 0 1 1-.003-9.566 4.783 4.783 0 0 1 .003 9.566zm0-7.116a2.333 2.333 0 1 0-.003 4.666 2.333 2.333 0 0 0 .003-4.666zM4.783 40a4.783 4.783 0 1 1 0-9.566 4.783 4.783 0 0 1 0 9.566zm0-7.114a2.333 2.333 0 1 0 0 4.665 2.333 2.333 0 0 0 0-4.665z" fill="#21B3E4"/></svg>