<svg width="40" height="40" fill="none" xmlns="http://www.w3.org/2000/svg"><path fill-rule="evenodd" clip-rule="evenodd" d="M32.222 37.778a2.222 2.222 0 1 0 0-4.445 2.222 2.222 0 0 0 0 4.445zm0 2.222a4.444 4.444 0 1 0 0-8.889 4.444 4.444 0 0 0 0 8.89z" fill="#21B3E4"/><path fill-rule="evenodd" clip-rule="evenodd" d="M36.527 36.667a4.454 4.454 0 0 0 0-2.223h2.362a1.111 1.111 0 0 1 0 2.223h-2.362zm-8.609 0H1.111a1.111 1.111 0 0 1 0-2.223h26.807a4.453 4.453 0 0 0 0 2.223z" fill="#1079B4"/><path fill-rule="evenodd" clip-rule="evenodd" d="M32.222 6.667a2.222 2.222 0 1 0 0-4.445 2.222 2.222 0 0 0 0 4.445zm0 2.222a4.444 4.444 0 1 0 0-8.889 4.444 4.444 0 0 0 0 8.889z" fill="#21B3E4"/><path fill-rule="evenodd" clip-rule="evenodd" d="M36.527 5.556a4.453 4.453 0 0 0 0-2.223h2.362a1.111 1.111 0 0 1 0 2.223h-2.362zm-8.609 0H1.111a1.111 1.111 0 0 1 0-2.223h26.807a4.453 4.453 0 0 0 0 2.223z" fill="#1079B4"/><path fill-rule="evenodd" clip-rule="evenodd" d="M8.889 22.223a2.222 2.222 0 1 0 0-4.445 2.222 2.222 0 0 0 0 4.445zm0 2.222a4.444 4.444 0 1 0 0-8.889 4.444 4.444 0 0 0 0 8.889z" fill="#21B3E4"/><path fill-rule="evenodd" clip-rule="evenodd" d="M13.193 21.111a4.453 4.453 0 0 0 0-2.222H38.89a1.111 1.111 0 0 1 0 2.222H13.193zm-8.608 0H1.11a1.111 1.111 0 0 1 0-2.222h3.474a4.451 4.451 0 0 0 0 2.222z" fill="#1079B4"/></svg>