<svg width="40" height="40" fill="none" xmlns="http://www.w3.org/2000/svg"><path d="M20.99 39.449c-.401 0-.804-.01-1.207-.032H.005V19.623c-.072-3.674.618-8.93 4.304-13.133C6.123 4.42 8.59 2.728 11.443 1.6A23.209 23.209 0 0 1 20.341.004c2.86.034 5.683.636 8.308 1.772a18.531 18.531 0 0 1 7.002 5.287 19.012 19.012 0 0 1 3.643 7.198c.674 2.562.868 5.227.57 7.86-.601 5.513-3.182 10.44-7.08 13.523-2.111 1.668-4.622 2.805-7.464 3.38a21.897 21.897 0 0 1-4.33.425zM2.495 36.924h17.384c3.108.164 7.599-.265 11.358-3.239 3.378-2.674 5.62-6.982 6.15-11.835.533-4.888-.804-9.704-3.668-13.217-3.15-3.862-7.916-6.043-13.423-6.14-5.562-.1-10.976 2.059-14.112 5.635-3.164 3.607-3.751 8.218-3.686 11.451v17.34l-.003.005z" fill="#1079B4"/><path d="M27.779 15.874H10.784c-.572 0-1.036.464-1.036 1.036v.579c0 .572.464 1.035 1.036 1.035h16.995c.572 0 1.035-.463 1.035-1.035v-.58c0-.571-.463-1.035-1.035-1.035zM21.775 23.686H10.753c-.555 0-1.005.45-1.005 1.004v.56c0 .554.45 1.004 1.005 1.004h11.022c.555 0 1.005-.45 1.005-1.005v-.559c0-.555-.45-1.005-1.005-1.005z" fill="#21B3E4"/></svg>