<svg width="38" height="40" fill="none" xmlns="http://www.w3.org/2000/svg"><path d="M28.571 15.714V4.286A4.286 4.286 0 0 0 24.286 0h-20A4.286 4.286 0 0 0 0 4.286v31.428A4.286 4.286 0 0 0 4.286 40h20a4.286 4.286 0 0 0 4.285-4.286v-10a2.857 2.857 0 0 0-2.857 2.857v7.143a1.428 1.428 0 0 1-1.428 1.429h-20a1.429 1.429 0 0 1-1.429-1.429V4.286a1.429 1.429 0 0 1 1.429-1.429h20a1.429 1.429 0 0 1 1.428 1.429V18.57a2.857 2.857 0 0 0 2.857-2.857z" fill="#fff"/><path d="M21.428 7.143H7.142a1.429 1.429 0 0 0 0 2.857h14.286a1.429 1.429 0 0 0 0-2.857zm1.429 7.143a1.429 1.429 0 0 0-1.429-1.429H7.142a1.429 1.429 0 1 0 0 2.857h14.286a1.429 1.429 0 0 0 1.429-1.428zM7.142 18.57a1.429 1.429 0 1 0 0 2.857h5.715a1.429 1.429 0 1 0 0-2.857H7.142zM16.307 34.286a1.43 1.43 0 0 1-1.397-1.723l1.074-5.116c.057-.27.191-.519.387-.714l13.457-13.456a4.39 4.39 0 0 1 6.061 0 4.287 4.287 0 0 1 0 6.061L22.43 32.791a1.419 1.419 0 0 1-.714.389L16.6 34.256c-.096.02-.194.03-.292.03zM18.7 28.45l-.538 2.557 2.553-.537L33.87 17.316a1.428 1.428 0 0 0 0-2.02 1.459 1.459 0 0 0-2.02 0L18.7 28.45z" fill="#fff"/></svg>