<svg width="20" height="20" fill="none" xmlns="http://www.w3.org/2000/svg"><path d="M10.737 20a3.09 3.09 0 0 1-2.185-.893L.894 11.45a3.125 3.125 0 0 1-.887-2.394l.33-5.333A3.652 3.652 0 0 1 3.723.336l5.333-.33a3.153 3.153 0 0 1 2.394.887l7.658 7.658a3.357 3.357 0 0 1-.18 4.73l-5.663 5.646A3.572 3.572 0 0 1 10.737 20zM9.265 1.45H9.13l-5.339.324a2.22 2.22 0 0 0-2.029 2.03L1.456 9.13a1.652 1.652 0 0 0 .464 1.298l7.64 7.652a1.683 1.683 0 0 0 1.27.47 2.139 2.139 0 0 0 1.409-.65l5.669-5.663a1.913 1.913 0 0 0 .174-2.678l-7.64-7.64a1.63 1.63 0 0 0-1.177-.47z" fill="#1079B4"/><path d="M6.51 8.974a2.464 2.464 0 1 1 .006 0h-.005zm0-3.478a1.015 1.015 0 0 0-.718 1.739 1.043 1.043 0 0 0 1.437 0 1.02 1.02 0 0 0-.718-1.74z" fill="#1079B4"/></svg>