<svg width="38" height="40" fill="none" xmlns="http://www.w3.org/2000/svg"><path d="M18.648 0a1.334 1.334 0 0 0-1.312 1.355v10.668a1.335 1.335 0 0 0 2.57.516c.067-.164.1-.34.097-.516V1.355A1.333 1.333 0 0 0 18.648 0zm-5.276 3.495v.006c-.12.004-.24.025-.354.062C4.258 6.341-1.182 15.11.219 24.191 1.619 33.272 9.449 39.99 18.638 40c9.19 0 17.035-6.695 18.455-15.773C38.513 15.15 33.09 6.37 24.337 3.574a1.334 1.334 0 1 0-.813 2.542 15.974 15.974 0 0 1 10.934 17.7 15.973 15.973 0 0 1-15.815 13.517A15.966 15.966 0 0 1 2.855 23.784a15.976 15.976 0 0 1 10.97-17.679 1.333 1.333 0 0 0-.453-2.61z" fill="#fff"/></svg>