<svg width="22" height="17" fill="none" xmlns="http://www.w3.org/2000/svg"><path d="M19.3 2.68A4.302 4.302 0 0 0 21.194.304c-.844.5-1.769.852-2.733 1.041A4.323 4.323 0 0 0 13.29.51a4.295 4.295 0 0 0-2.168 4.752A12.234 12.234 0 0 1 2.25.777a4.292 4.292 0 0 0 1.332 5.73 4.3 4.3 0 0 1-1.95-.538v.054a4.297 4.297 0 0 0 3.454 4.208 4.327 4.327 0 0 1-1.944.074 4.312 4.312 0 0 0 4.022 2.98 8.653 8.653 0 0 1-5.347 1.837c-.343 0-.687-.019-1.028-.059a12.212 12.212 0 0 0 6.6 1.928 12.183 12.183 0 0 0 8.685-3.552 12.108 12.108 0 0 0 3.562-8.659c0-.186-.005-.37-.013-.555a8.729 8.729 0 0 0 2.148-2.222 8.626 8.626 0 0 1-2.471.676z" fill="#848484"/></svg>