<svg width="27" height="20" fill="none" xmlns="http://www.w3.org/2000/svg"><path d="M26.565 9.536C24.381 4.79 19.445 0 13.333 0 7.222 0 2.285 4.79.101 9.536a1.12 1.12 0 0 0 0 .928C2.285 15.21 7.22 20 13.333 20c6.111 0 11.048-4.79 13.232-9.536a1.12 1.12 0 0 0 0-.928zm-13.232 8.242c-4.901 0-9.051-3.947-10.989-7.778 1.938-3.831 6.088-7.778 10.99-7.778 4.9 0 9.05 3.947 10.988 7.778-1.938 3.831-6.088 7.778-10.989 7.778z" fill="#1079B4"/><path d="M13.333 4.445A5.556 5.556 0 1 0 18.889 10a5.562 5.562 0 0 0-5.556-5.555zm0 8.889a3.333 3.333 0 1 1 0-6.667 3.333 3.333 0 0 1 0 6.667z" fill="#1079B4"/></svg>