<svg width="52" height="52" fill="none" xmlns="http://www.w3.org/2000/svg"><path d="m0 52 4.472-13.415A25.417 25.417 0 0 1 .897 25.552C.897 11.44 12.337 0 26.448 0 40.56 0 52 11.44 52 25.552c0 14.111-11.44 25.551-25.552 25.551A25.437 25.437 0 0 1 14.56 48.17L0 52z" fill="#2CB742"/><path d="M42.75 34.056c-1.18-2.23-5.53-4.78-5.53-4.78-.985-.561-2.173-.624-2.734.377 0 0-1.414 1.695-1.773 1.939-1.643 1.113-3.164 1.07-4.7-.466l-3.57-3.57-3.569-3.569c-1.535-1.535-1.578-3.057-.466-4.7.244-.359 1.94-1.773 1.94-1.773 1-.562.937-1.749.376-2.733 0 0-2.55-4.351-4.78-5.531a2.444 2.444 0 0 0-2.871.432l-1.576 1.576c-5 5-2.538 10.645 2.462 15.645l4.57 4.57 4.57 4.57c5 5 10.644 7.461 15.644 2.461l1.576-1.576c.758-.76.933-1.925.431-2.872z" fill="#fff"/></svg>