<svg width="43" height="42" fill="none" xmlns="http://www.w3.org/2000/svg"><path d="M27.262 39.99a19.99 19.99 0 0 0 0-37.98M40.995 21a19.99 19.99 0 0 1-13.733 18.99 19.89 19.89 0 0 1-12.514 0 19.99 19.99 0 0 1 0-37.98 19.89 19.89 0 0 1 12.514 0A19.99 19.99 0 0 1 40.995 21v0zM21.004 2.01v37.98" stroke="#fff" stroke-width="2" stroke-linecap="round" stroke-linejoin="round"/><path d="M5.792 8.007a33.111 33.111 0 0 0 5.817 2.279 33.39 33.39 0 0 0 9.395 1.359 33.45 33.45 0 0 0 9.145-1.28 34.071 34.071 0 0 0 5.997-2.368M6.122 34.343a33.67 33.67 0 0 1 5.717-2.189 33.722 33.722 0 0 1 23.988 2.22M2.014 21h37.98" stroke="#fff" stroke-width="2" stroke-linecap="round" stroke-linejoin="round"/><path d="m26.492 2.01.16.28a36.811 36.811 0 0 1 0 37.24v0M15.258 2.01l-.16.28a36.77 36.77 0 0 0 .05 37.24v0" stroke="#fff" stroke-width="2" stroke-linecap="round" stroke-linejoin="round"/></svg>