<svg width="365" height="301" fill="none" xmlns="http://www.w3.org/2000/svg"><g clip-path="url(#a)"><path d="M91.065 287.749c-1.069-3.133-1.578-6.456-1.413-9.635.453-10.023 6.311-19.766 15.707-26.094 3.61-2.418 7.578-4.334 11.509-6.174 7.62-3.661 14.775-7.039 18.037-13.772 1.659-3.377 2.117-7.343 2.555-11.552.439-4.022.877-8.231 2.513-12.224 3.713-9.074 11.419-13.764 18.884-18.246 3.871-2.383 7.557-4.577 10.66-7.384 2.916-2.618 4.8-5.884 6.814-9.319 3.399-5.782 7.223-12.332 16.364-15.013 10.335-3.026 22.287.704 29.038 9.144 3.282 4.127 5.26 9.011 7.106 13.69 2.093 5.219 4.034 10.178 7.666 13.686 4.894 4.826 12.29 6.55 19.461 8.164.955.236 1.966.454 2.921.69 8.033 1.944 13.521 6.13 18.839 10.187 4.06 3.112 7.856 6.002 12.73 8.024 7.461 3.014 18.657 5.441 29.739-.338.521-.303 1.062-.55 1.639-.872 3.11-1.685 6.574-3.616 10.706-3.402 8.004.393 10.928 4.205 11.997 7.338 3.149 9.231-6.553 22.721-9.591 26.63-3.65 4.68-7.493 8.427-10.231 9.923-11.34 6.304-24.491 7.667-35.796 8.213-3.738.213-7.884.691-12.274 1.189-14.83 1.748-31.584 3.716-43.401-4.744-4.322-3.148-7.38-7.351-10.324-11.406-2.473-3.404-4.832-6.659-7.803-9.143-7.615-6.396-19.528-7.079-27.807-1.507-.651.472-1.302.944-2.009 1.435-2.046 1.51-4.333 3.227-7.188 4.013-4.515 1.228-8.844-.293-12.667-1.612-2.267-.788-4.328-1.522-6.405-1.75-6.885-.775-13.146 4.671-15.742 10.428-2.578 5.626-3.014 12.77-1.456 21.732.273 1.531.62 3.099.912 4.686.87 4.2 1.798 8.568 1.829 13.054.11 7.645-2.593 14.188-7.332 18.053-3.142 2.508-7.433 3.659-11.494 3.108-3.48-.499-6.446-2.235-8.297-4.914-.717-1.005-1.191-2.029-1.628-2.942-.474-1.025-.911-1.938-1.494-2.551-1.112-1.245-3.153-1.735-5.325-2.243-.88-.2-1.76-.399-2.622-.73-6.951-2.251-12.693-8.099-15.327-15.82z" stroke="url(#b)" stroke-miterlimit="10"/><path d="M332.577 249.463c8.763-11.296 16.346-28.435-.278-29.197-3.871-.179-7.332 2.126-10.778 3.926-10.337 5.399-21.669 4.768-32.205.43-11.905-4.87-17.882-14.886-31.139-18.046-8.445-2.053-17.578-3.56-23.77-9.629-7.529-7.425-8.436-19.42-15.054-27.655-5.997-7.51-16.695-10.856-25.892-8.156-12.89 3.772-13.534 15.984-22.023 23.689-9.344 8.496-23.639 11.998-28.785 24.558-3.106 7.555-1.529 16.573-5.142 23.926-5.51 11.311-20.072 14.029-30.528 21.094-7.983 5.346-13.959 14.192-14.378 23.766-.42 9.574 5.483 19.552 14.7 22.404 3.222 1.025 7 1.297 9.279 3.768 1.508 1.671 2.103 3.967 3.369 5.846 3.323 4.799 10.969 4.877 15.524 1.2 4.554-3.677 6.305-9.896 6.209-15.671-.06-5.851-1.67-11.485-2.701-17.254-1.419-7.823-1.645-16.177 1.687-23.435 3.277-7.238 10.864-13.011 18.777-12.151 6.155.649 12.018 5.02 17.97 3.427 3.153-.826 5.585-3.217 8.339-5.031 9.284-6.29 22.786-5.524 31.361 1.669 6.939 5.877 10.592 15.124 17.957 20.419 14.241 10.256 37.582 3.794 53.746 3.027 11.923-.57 24.081-2.094 34.547-7.85 2.272-1.212 5.837-4.676 9.208-9.074z" stroke="url(#c)" stroke-miterlimit="10"/><path d="M228.276 238.134c-.992-2.909-1.162-5.786-1.294-8.739l-.293-7.083c-.065-1.289-.198-4.242 1.934-6.78 2.355-2.802 6.256-3.633 10.471-2.261 4.385 1.503 7.842 3.946 11.223 6.353 2.8 1.98 5.374 3.85 8.128 4.784 1.986.697 4.288 1.036 6.758 1.318 2.488.338 5.033.656 7.674 1.442 5.263 1.515 9.518 5.747 11.388 11.23.63 1.846.961 3.732.955 5.545.03 4.299-1.758 8.032-4.808 10.259-2.25 1.642-6.277 3.203-12.254 1.244a131.437 131.437 0 0 1-5.997-2.201c-4.03-1.561-7.498-2.939-11.557-3.303-.655-.089-1.291-.122-2.002-.191-5.91-.483-13.298-1.085-17.939-7.184-.981-1.227-1.814-2.754-2.387-4.433z" stroke="url(#d)" stroke-miterlimit="10"/><path d="M279.266 244.033c.006-4.374-2.909-9.625-8.117-11.159-4.851-1.406-10.028-1.201-14.787-2.888-7.028-2.474-12.212-8.7-19.276-11.1-1.349-.477-3.108-.689-3.979.42-.63.715-.623 1.837-.56 2.752.11 2.336.239 4.728.292 7.083.118 3.457.387 7.176 2.519 9.946 3.471 4.5 10.088 4.491 15.775 5.049 7.033.661 12.363 3.653 18.827 5.757 6.408 2.124 9.318-1.43 9.306-5.86z" stroke="url(#e)" stroke-miterlimit="10"/><path d="M236.677 235.265c-1.482-3.429-1.121-8.049-1.539-11.654-.098-.653-.122-1.457.417-1.891.632-.528 1.607-.048 2.32.395 5.615 3.644 11.182 8.428 17.516 10.701 2.849 1.027 5.73 1.418 8.537 1.773 2.226.302 4.378.567 6.401 1.189 3.54 1.041 9.39 8.851 4.211 11.429-2.03 1.005-4.468-.099-6.55-1.075a58.134 58.134 0 0 0-18.879-5.178c-2.844-.279-5.797-.333-8.385-1.511-2.063-.921-3.27-2.445-4.049-4.178z" stroke="url(#f)" stroke-miterlimit="10"/><path d="M196.738 223.286c7.428-7.155 23.179-51.063.417-44.736-5.989 1.668-9.159 8.121-14.389 11.466-3.368 2.211-7.475 2.987-11.108 4.789-5.942 2.901-12.809 10.053-16.416 15.592-1.683 2.573-2.351 5.924-.93 8.624 3.581 6.836 10.953 2.448 16.471 3.063 6.249.742 11.522 6.313 18.023 5.595 3.063-.358 5.723-2.265 7.932-4.393z" stroke="url(#g)" stroke-miterlimit="10"/><path d="M156.727 217.135c-.496-1.455-.117-3.457.993-5.148 3.329-5.07 9.805-11.901 15.208-14.556 1.341-.645 2.777-1.197 4.287-1.712 2.387-.877 4.83-1.772 7.137-3.247 2.345-1.549 4.294-3.525 6.131-5.463 2.394-2.503 4.639-4.893 7.438-5.66 6.045-1.688 7.018 1.166 7.495 2.564 3.168 9.288-5.737 32.436-10.713 37.256-2.302 2.222-4.295 3.339-6.219 3.558-2.82.338-5.615-1.082-8.597-2.501-2.701-1.327-5.534-2.672-8.733-3.079-2.076-.229-4.224.067-6.241.38-4.631.705-6.556.737-7.958-1.908-.113-.148-.17-.316-.228-.484z" stroke="url(#h)" stroke-miterlimit="10"/><path d="M163.713 213.816c-1.287-2.309 2.517-6.354 4.135-7.469 2.772-1.944 6.15-2.66 9.339-3.747 7.05-2.405 13.45-6.712 18.421-12.28.723-.809 1.428-1.673 2.378-2.185.949-.511 2.239-.576 3.048.147 1.241 1.076.768 2.986.162 4.504-2.073 5.641-4.221 11.246-6.294 16.887-1.157 3.018-2.517 6.354-5.423 7.721-2.683 1.29-5.922.583-8.66-.669-2.738-1.252-5.255-2.954-8.139-3.719-1.573-.4-3.405-.462-4.972.072-1.398.477-2.935 2.563-3.957.85l-.038-.112z" stroke="url(#i)" stroke-miterlimit="10"/><path d="M177.844 208.555a.401.401 0 0 1 .109-.412c.149-.113.411-.077.654-.098 1.366.159 2.89-1.048 4.045-1.692 1.247-.738 2.456-1.587 3.684-2.381 1.024-.661 2.028-1.379 3.165-1.891.484-.228 1.378-.72 1.942-.35.019.056.075.037.094.092.904 1.004-.297 2.975-.871 3.857-.369.564-.814 1.09-1.128 1.635-.518.863-.829 1.781-1.216 2.663-.275.656-.68 1.668-1.369 2.028-.316.17-1.494.197-3.612-.704a56.474 56.474 0 0 1-2.346-1.199c-.844-.461-1.779-.454-2.567-.935-.169-.13-.338-.259-.452-.408-.094-.093-.113-.149-.132-.205z" stroke="url(#j)" stroke-miterlimit="10"/><path d="M5.248 156.637c-9.189-6.797-16.896-15.66-22.108-25.811-10.669-20.657-7.602-39.315-3.697-61.008 4.372-24.35 22.017-21.876 42.908-17.76 21.62 4.242 44.653-.741 63.228-12.386C104.768 27.63 115 1.968 141.228 4.7c17.921 1.819 31.895 19.349 39.719 34.23 1.781 3.39 3.379 7.342 2.34 11.07-1.204 4.344-5.579 6.899-9.376 9.318-8.485 5.517-12.235 19.975-7.33 29.044 3.106 5.811 9.12 10.442 9.353 16.983.341 8.691-9.36 14.123-12.763 22.092-4.671 11.024 3.131 25.476-4.186 34.967-5.28 6.86-15.486 6.969-23.027 11.227-20.295 11.545-14.026 47.318-34.265 58.843-9.72 5.564-23.52 2.277-29.716-7.101-9.315-14.124 3.198-39.877-12.327-49.321-6.927-4.195-15.434-4.416-23.37-5.893-11.174-1.997-21.844-6.727-31.032-13.523z" stroke="url(#k)" stroke-miterlimit="10"/><path d="M-15.163 119.876c-5.534-16.225-2.655-32.134.387-49.036 1.15-6.513 3.383-10.772 6.676-13.02 6.028-4.117 16.788-2.416 29.311.057 22.5 4.442 47.086-.384 67.503-13.22 7.054-4.404 12.826-10.37 18.432-16.092 10.171-10.465 18.949-19.518 33.503-18.05 18.37 1.854 31.519 24.288 35.099 31.123.701 1.323 1.195 2.403 1.519 3.354.477 1.399.597 2.482.378 3.306-.547 1.874-3.357 3.706-6.074 5.445l-.875.548c-9.807 6.406-14.766 21.713-10.796 33.35.4 1.175.932 2.368 1.482 3.43 1.306 2.364 2.835 4.466 4.382 6.437 1.698 2.231 3.301 4.37 3.969 6.328.21.615.326 1.138.33 1.698.114 2.897-2.426 5.887-5.356 9.385-2.447 2.895-5.246 6.224-6.957 10.18-2.704 6.356-2.152 13.1-1.68 19.06.49 6.016.882 11.191-1.731 14.518-2.167 2.801-6.215 4.119-10.897 5.591-3.431 1.108-6.994 2.199-10.383 4.166-12.232 6.984-16.286 20.733-19.884 32.89-3.251 10.977-6.319 21.392-14.381 25.953-7 4.012-17.412 1.505-21.833-5.231-.623-.911-1.098-1.936-1.498-3.111-1.546-4.532-1.456-10.309-1.424-16.44.103-6.656.186-13.554-1.894-19.653-1.775-5.203-4.943-9.181-9.45-11.954-6.307-3.844-13.268-4.842-20.023-5.785-1.908-.286-3.667-.498-5.408-.841-10.126-1.855-20.026-6.16-28.613-12.475-8.606-6.37-15.655-14.583-20.411-23.766-1.27-2.627-2.449-5.348-3.403-8.145z" stroke="url(#l)" stroke-miterlimit="10"/><path d="M-6.43 116.904c-4.001-10.815-5.075-22.752-2.818-34.077 1.03-5.223 2.899-10.545 6.686-14.273 6.071-6.005 13.201-4.877 20.469-2.797 7.08 2.081 14.226 2.704 21.684 2.596 18.953-.281 37.774-6.077 53.836-16.115 7.966-5.028 14.128-11.315 20.03-17.45 10.486-10.822 16.448-16.416 26.287-15.4 6.978.68 13.317 6.262 17.423 10.795 3.297 3.622 9.191 9.731 8.93 15.191-.142 3.796-1.801 4.425-4.422 6.63-4.237 3.507-6.614 5.879-8.929 11.54-3.418 8.474-4.135 18.274-1.158 27.002 1.947 5.706 7.915 9.104 7.176 15.727-.669 5.911-5.783 9.779-8.703 14.585-3.511 5.82-3.754 11.149-2.587 17.684.935 5.302 1.519 11.411-2.211 15.306-2.394 2.503-5.921 3.332-9.222 4.458-18.48 6.428-26.159 23.1-31.327 40.54-1.717 5.769-3.324 13.875-7.386 18.446-2.523 2.859-7.037 4.274-10.229 2.24-3.136-2.053-3.67-6.368-3.903-10.161-.885-17.061.834-35.822-15.874-45.987-11.189-6.801-23.834-5.423-35.714-9.49-12.462-4.306-23.605-12.621-31.12-23.486-2.796-4.168-5.165-8.731-6.918-13.504z" stroke="url(#m)" stroke-miterlimit="10"/><path d="M-4.244 114.343c-3.435-10.07-4.145-20.758-2.122-30.941 1.193-5.841 3.07-10.041 5.892-12.753 4.68-4.594 9.99-4.22 17.595-2.067 6.856 1.971 14.021 2.837 22.6 2.721 19.44-.323 38.598-6.046 55.367-16.575 8.282-5.199 14.518-11.635 20.569-17.884 12.936-13.344 25.055-20.476 40.567-5.031 3.877 3.861 6.293 9.845 4.366 14.999-.66 1.724-1.697 3.264-2.733 4.805-8.79 12.679-14.469 24.047-9.049 39.936.897 2.63 2.445 4.787 3.842 6.684 1.189 1.655 2.321 3.143 2.874 4.765.344 1.007.425 1.979.339 3.008-.371 3.124-2.464 5.774-4.707 8.538-1.223 1.541-2.502 3.102-3.537 4.829-4.398 7.246-4.035 13.805-2.946 19.742.799 4.724 1.321 9.917-1.407 12.721-1.466 1.562-3.891 2.327-6.408 3.185l-1.623.554c-20.27 7.039-28.161 25.47-33.164 42.479a59.102 59.102 0 0 0-.93 3.315c-1.405 5.038-2.954 10.75-5.828 14.042-1.577 1.787-4.56 2.929-6.4 1.746-.732-.5-1.317-1.3-1.737-2.531-.535-1.566-.717-3.565-.823-5.34-.108-2.149-.18-4.373-.288-6.522-.264-8.279-.547-16.802-3.162-24.466-2.596-7.609-7.084-13.261-13.861-17.382-7.171-4.362-14.881-5.541-22.292-6.761-4.885-.77-9.488-1.448-13.967-3.043-12.03-4.141-22.554-12.105-29.692-22.412-2.72-3.944-4.956-8.302-6.688-12.833-.284-.465-.475-1.024-.647-1.528z" stroke="url(#n)" stroke-miterlimit="10"/><path d="M6.56 112.528c-2.728-7.814-3.723-16.406-2.53-24.994.407-3.2 1.318-6.57 3.828-8.551 2.12-1.66 4.996-2.017 7.654-1.549 4.117.719 21.525 3.962 26.497 3.89C59.84 81.05 77.51 76.46 93.343 68.31c6.855-3.525 13.423-7.889 19.672-12.456 5.505-4.001 7.853-10.486 12.586-15.286 4.177-4.235 9.95-7.266 15.861-6.784 5.91.482 11.608 5.284 11.874 11.19.245 5.662-4.097 10.328-7.167 15.06-4.734 7.361-6.227 15.802-6.167 24.4.039 8.17 7.279 14.381 6.774 22.423-.474 7.032-7.955 11.832-9.346 18.74-1.121 5.504 1.779 11.26.378 16.672-1.548 5.899-7.487 9.361-12.378 12.966-9.485 6.983-16.743 17.016-20.422 28.201-.824 2.53-1.534 5.208-3.296 7.183-1.762 1.975-5.045 2.97-7.113 1.302-3.515-2.798-1.022-9.77-1.666-13.672-.899-5.564-3.328-10.856-6.873-15.206-8.24-10.242-23.319-14.53-35.857-16.499-4.678-.715-8.702-1.341-12.469-2.679-15.028-5.242-26.121-17.072-31.175-31.337z" stroke="url(#o)" stroke-miterlimit="10"/><path d="M14.464 109.332a33.245 33.245 0 0 1-1.299-3.991c-1.093-3.937-1.461-8.495.814-11.895 1.943-2.91 5.484-4.43 8.977-4.81 3.493-.38 6.992.175 10.454.618 35.92 4.236 73.611-11.244 96.2-39.498 1.446-1.804 2.909-3.74 4.825-5.08 1.916-1.341 4.491-2.032 6.61-1.13 9.56 3.858-3.772 14.027-5.874 18.117-4.465 8.518-5.863 19.8-2.397 28.86 2.247 5.854 5.02 12.153 3.267 18.185-1.404 5.038-5.789 8.845-7.043 13.957-1.145 4.7.498 9.698-.385 14.434-1.117 6.064-5.711 9.442-10.021 13.286-4.942 4.371-8.809 10.062-12.979 15.232-1.186 1.467-2.596 3.009-4.484 2.966-4.468-.099-5.886-7.735-7.87-10.619-3.192-4.781-7.91-8.543-12.995-11.181-7.673-4.003-16.285-5.812-24.747-7.734-17.264-4.105-34.448-12.733-41.053-29.717z" stroke="url(#p)" stroke-width="2" stroke-miterlimit="10"/><path d="M20.004 110.005c-.852-4.331 1.741-7.714 8.118-7.329 9.556.551 18.666 1.44 28.286.345 11.767-1.391 23.259-4.686 34.068-9.435 9.113-4.045 16.778-9.22 24.757-15.127 1.394-1.038 3.144-2.135 4.756-1.436 1.819.754 2.098 3.22 2.093 5.22-.002 5.122-1.131 9.317.641 14.146 2.077 5.725 3.367 10.968 1.427 17.001-1.409 4.291-4.093 8.142-5.165 12.505-.962 4.138-.408 8.508-1.351 12.702-1.633 7.115-10.094 21.493-18.879 18.994-3.802-1.077-6.646-4.104-9.264-7.021-3.863-4.366-8.718-8.893-14.431-10.629-8.992-2.741-18.326-3.554-27.229-6.951-9.54-3.616-18.552-9.161-24.888-17.117-1.622-2.008-2.627-4.038-2.939-5.868z" stroke="url(#q)" stroke-miterlimit="10"/><path d="M23.133 110.371c-.114-.336-.21-.616-.268-.97-.156-.822-.22-1.924.448-2.714.76-.884 2.44-1.27 4.61-1.135 1.645.063 3.253.201 4.843.284 8.041.504 15.71 1.012 23.928.02 11.71-1.372 23.465-4.632 34.926-9.666 4.118-1.842 7.67-4.614 11.315-7.294 2.789-2.076 9.085-7.971 12.901-7.587 4.022.44 2.605 11.666 3.941 15.582l.134.392.515 1.51c1.622 4.756 2.399 8.863.88 13.565-.549 1.687-1.341 3.393-2.189 5.119-1.124 2.382-2.34 4.858-2.975 7.573-.563 2.378-.64 4.715-.812 6.959-.116 2.039-.215 3.946-.595 5.762-1.071 4.55-5.425 12.843-10.619 15.926-1.657 1.003-3.187 1.275-4.63.893-2.978-.858-5.407-3.402-7.893-6.114-3.523-3.92-8.964-9.434-15.783-11.48-3.972-1.206-8.015-2.075-11.91-2.87-5.24-1.085-10.22-2.135-15.094-3.97-10.271-3.929-18.235-9.332-23.629-16.173-.905-1.19-1.643-2.437-2.044-3.612z" stroke="url(#r)" stroke-miterlimit="10"/><path d="M39.6 115.253c.591-3.762 12.17.158 18.185-.52 12.552-1.471 25.165-4.961 37.37-10.374 3.69-1.633 7.804-4.223 10.512-7.27 1.075-1.241 2.769-2.319 4.214-1.562 1.275.626 1.53 2.288 1.614 3.633.138 3.701 2.701 6.637 1.457 10.496-.366 1.124-1.03 2.475-1.748 4.031-1.271 2.682-2.746 5.684-3.654 9.429-.726 3.183-.874 6.044-1.006 8.587-.1 1.72-.165 3.179-.382 4.19-.598 2.64-1.906 8.145-5.459 7.983-3.29-.127-7.052-6.026-9.496-8.066-3.76-3.151-7.966-5.776-12.706-7.22-4.328-1.334-8.558-2.202-12.658-3.052-5.11-1.067-9.548-1.99-13.784-3.605-4.31-1.652-13.05-2.919-12.459-6.68z" stroke="url(#s)" stroke-miterlimit="10"/><path d="M74.444 118.725c-.327-1.325.47-2.284 1.567-3.095 2.586-1.757 6.136-1.968 9.123-2.55 4.163-.795 8.52-.658 12.453-2.311 2.031-.818 3.294-2.061 4.629-3.641 1.242-1.485 1.986-2.051 3.586-.473 3.576 3.526-3.905 8.327-5.267 14.038-.526 2.303 3.163 11.287-1.377 11.712-.485.04-.936-.181-1.33-.421-1.596-1.017-2.654-2.655-4.176-3.822a50.8 50.8 0 0 0-5.203-3.534c-2.121-1.275-4.335-2.456-6.604-3.431-1.106-.497-2.307-1.087-3.449-1.322-1.816-.38-3.017 1.592-3.857-.87l-.095-.28z" stroke="url(#t)" stroke-miterlimit="10"/><path d="M308.493 202.654c5.306-5.87 7.332-15.492 14.867-17.938 4.271-1.394 8.862.163 13.371.748 18 2.417 33.297-12.794 35.905-30.235 1.392-9.468-3.711-17.471-2.635-26.582 1.182-10.084 8.227-18.545 12.201-27.583 2.944-6.75 4.37-14.107 4.244-21.434-.292-14.952-13.087-40.38-31.972-35.686-5.823 1.424-10.538 6.092-12.986 11.55-5.742 13.013-.842 37.448-20.593 41.25-4.462.835-9.405-.29-13.428 1.832-6.499 3.466-6.322 12.775-9.866 19.23-3.36 6.08-10.103 9.567-16.782 11.408-6.66 1.897-13.721 2.619-20.172 5.132-8.501 3.274-16.025 9.963-18.656 18.73-2.65 8.711.341 19.308 8.094 24.095 7.754 4.788 19.169 3.829 24.399 11.289 2.058 2.92 2.701 6.636 4.238 9.859 5.14 10.676 21.813 13.045 29.771 4.335z" stroke="url(#u)" stroke-miterlimit="10"/><path d="M247.774 165.093c-1.126-3.301-1.208-7.02-.203-10.299 1.993-6.425 7.637-12.035 15.15-14.91 3.487-1.315 7.257-2.163 11.233-2.958 2.744-.561 5.6-1.16 8.435-2.003 9.851-2.798 16.715-7.575 20.37-14.255 1.532-2.834 2.482-5.906 3.286-8.678 1.296-4.44 2.286-7.213 4.185-8.236 1.267-.682 3.248-.733 5.547-.768 1.869-.013 3.962-.102 6.147-.473 17.772-3.376 20.219-19.825 22.004-31.801.751-4.94 1.429-9.544 2.864-12.844 1.841-4.125 5.258-7.29 8.99-8.25 4.609-1.135 8.862.162 13.058 4.04 3.913 3.599 7.43 9.332 9.586 15.654 1.26 3.692 1.959 7.389 2.055 10.416.138 6.449-1.181 13.02-3.775 18.963-1.177 2.775-2.784 5.572-4.408 8.499-3.582 6.343-7.275 12.912-8.211 20.788-.654 5.407.484 10.391 1.468 14.739.888 4.069 1.756 7.895 1.165 11.657-2.09 13.829-14.316 27.243-29.247 25.216-.917-.125-1.928-.342-2.976-.484-3.874-.74-8.329-1.531-12.992-.003-6.975 2.255-10.447 8.373-13.217 13.252-1.366 2.403-2.659 4.655-4.162 6.292-2.412 2.634-6.422 3.877-10.708 3.215-4.266-.606-7.796-2.899-9.352-6.178-.455-.969-.837-2.088-1.313-3.3-.782-2.294-1.735-4.904-3.434-7.322-4.362-6.195-11.235-8.035-17.248-9.731-3.371-.911-6.536-1.768-8.901-3.209-2.422-1.423-4.346-3.952-5.396-7.029z" stroke="url(#v)" stroke-miterlimit="10"/><path d="M254.419 156.585a5.781 5.781 0 0 1-.649-1.902c-.767-5.547 5.779-10.341 10.254-12.054 2.815-1.085 6.082-1.762 9.871-2.555 2.912-.619 5.879-1.256 9.07-2.157 6.828-1.955 13.517-5.048 18.811-9.852 5.87-5.313 7.411-12.147 10.992-18.677.85-1.539 2.13-2.912 3.752-3.466 2.406-.82 4.898.078 7.344-.444 2.557-.559 5.388-1.963 7.716-3.194 5.867-3.125 10.412-8.11 13.399-14.001 4.739-9.361 5.096-19.85 7.343-29.924.509-2.172 1.295-4.626 3.327-5.444 1.492-.571 3.29-.06 4.568.94 3.796 2.89 6.414 8.367 7.903 12.731.954 2.798 1.534 5.598 1.568 7.71.092 5.215-.918 10.493-3.034 15.275-1.012 2.344-2.508 4.915-4.003 7.673-3.803 6.794-8.18 14.47-9.328 24.105-.83 6.904.52 12.876 1.6 17.692.772 3.359 1.39 6.271 1.069 8.442-1.411 9.412-9.681 19.041-19.299 17.762-.71-.07-1.59-.269-2.526-.45-4.474-.847-10.538-1.964-17.383.309-4.998 1.642-9.015 4.699-12.427 8.611-1.169 1.335-2.58 2.691-3.373 4.211-1.144 2.139-1.202 4.532-2.777 6.506-1.649 2.123-4.8 3.323-7.127 1.993-2.027-1.182-2.68-3.645-3.499-5.864-3.259-8.819-11.084-15.83-20.203-18.028-2.734-.692-5.558-.915-8.183-2.018-1.986-.697-3.847-2.123-4.776-3.93z" stroke="url(#w)" stroke-width="2" stroke-miterlimit="10"/><path d="M263.78 152.512c-.153-.448-.194-.934-.215-1.364.232-4.263 5.381-5.645 7.098-6.106 2.575-.691 5.117-.746 7.603-.782 2.224-.072 4.336-.105 6.22-.623 8.601-2.434 15.697-6.166 21.177-11.158 2.768-2.506 5.195-5.644 7.263-9.285.424-.77.865-1.857 1.268-3.056.881-2.362 1.89-5.079 3.916-6.832 2.062-1.828 4.471-2.088 6.395-2.307.729-.061 1.327-.14 1.905-.275 2.37-.558 4.906-1.548 7.867-3.12 5.121-2.747 7.683-8.055 10.63-14.244.664-1.35 1.308-2.757 2.028-4.127.037-.075 5.025-8.522 10.091-8.5 1.813.005 3.278 1.004 4.113 2.718.076.224.189.373.266.597.553 1.622.209 3.176.029 4.112-.108.599-.235 1.142-.343 1.74-.579 2.884-1.193 5.841-2.856 8.657-.868 1.483-1.794 2.798-2.775 4.132a96.84 96.84 0 0 0-1.832 2.686c-3.773 5.784-5.721 10.695-6.23 15.428-.916 7.933.589 14.726 1.727 19.71 1.236 5.636 1.307 13.169-5.807 17.032-4.954 2.69-10.606 1.682-15.117.91-4.641-.79-8.097-.486-13.263 1.214-3.992 1.299-7.659 3.549-11.243 6.958-.278.282-.909.997-1.464 1.748-2.428 2.952-5.468 6.675-8.906 6.848-1.402.104-2.77-.429-3.805-1.45-1.205-1.15-1.738-2.53-2.158-3.761l-.229-.671-.095-.28c-1.144-3.17-4.211-6.121-9.484-8.944-.394-.24-2.005-.752-3.205-1.155-4.59-1.557-7.945-2.786-9.583-4.476-.454-.782-.776-1.359-.986-1.974z" stroke="url(#x)" stroke-miterlimit="10"/><path d="M266.957 152.116c-.282-.278-.453-.595-.417-.857.117-2.038 3.475-2.996 4.948-3.437 4.516-1.227 9.439-.159 13.88-1.424 9.048-2.586 16.572-6.527 22.387-11.821 3.195-2.901 5.769-6.34 7.874-10.056 1.514-2.702 2.249-7.138 4.516-9.097 1.97-1.734 4.664-1.342 7.09-1.919 2.949-.694 5.875-2.004 8.576-3.425 7.244-3.845 9.936-11.884 13.901-19.67.7-1.425 6.96-9.806 8.951-5.8.417.857.2 1.868.02 2.803-.725 3.37-1.169 6.645-2.869 9.535-1.348 2.272-3.053 4.415-4.514 6.724-3.273 5.052-6.057 10.623-6.669 16.703-1.007 8.4.594 15.474 1.733 20.644 1.158 5.226 1.01 10.835-4.353 13.788-3.948 2.159-8.776 1.37-13.231.579-5.502-.934-9.499-.383-14.684 1.261-4.718 1.547-8.738 4.23-12.341 7.583-1.931 1.845-7.107 10.106-10.1 7.192-.941-.928-1.306-2.365-1.745-3.651-1.716-4.849-6.488-8.218-10.841-10.543-1.82-.94-10.172-3.088-12.112-5.112z" stroke="url(#y)" stroke-miterlimit="10"/><path d="M283.336 151.778c.092-.281.314-.544.723-.809.707-.491 1.624-.366 2.466-.279 5.8.708 10.624-1.812 15.654-4.278 4.49-2.218 8.732-4.977 12.391-8.349 2.768-2.505 5.14-5.438 7.194-8.574 1.867-2.948 2.511-7.102 4.905-9.605 1.93-2.033 4.493-1.658 6.92-2.236 3.191-.714 6.414-2.25 8.716-4.659.649-.659 1.298-1.505 2.269-1.586.654-.098 1.404.27 1.782.828 1.305 2.178-2.344 7.046-2.87 9.349-1.466 6.87.413 13.661 1.9 20.399 1.467 6.682-.842 7.97-1.996 8.613-2.589 1.383-6.576.682-10.15.09-6.776-1.187-11.704-.255-16.982 1.483-3.488 1.127-6.654 2.832-9.686 4.928-2.382 1.624-5.834 7.798-8.449 8.191-1.307.196-2.621-.543-3.45-1.509-1.169-1.413-1.536-3.223-2.705-4.636-1.471-1.747-3.277-3.379-5.321-4.43-.752-.556-3.899-1.544-3.311-2.931z" stroke="url(#z)" stroke-miterlimit="10"/><path d="M295.402 155.842c.183-.562.553-1.126 1.186-1.467 7.207-3.957 14.592-6.476 20.889-12.184 2.712-2.486 5.178-5.326 7.195-8.388 1.036-1.54 1.922-3.153 2.733-4.804 1.529-3.207 2.41-5.569 6.252-6.755 1.362-.402 3.065-.171 3.951.963.641.781.761 1.865.842 2.836.442 4.409.848 8.892 1.29 13.301.2 1.868.623 3.659.916 5.433.292 1.587.301 2.895-2.001 2.556-7.541-1.05-14.462-1.749-21.925.359-4.44 1.265-8.707 3.22-12.483 5.882-1.767 1.228-3.693 3.821-5.594 4.656-1.677.76-3.817-.384-3.251-2.388z" stroke="url(#A)" stroke-miterlimit="10"/><path d="M249.677 127.474c.129-.169.259-.339.444-.527 5.06-6.223 10.155-10.146 17.761-13.116 8.538-3.349 18.033-6.276 23.27-13.808 4.405-6.312 4.962-14.934 10.232-20.541 4.434-4.76 11.265-6.341 17.419-8.44 12.401-4.293 20.313-16.985 17.735-30.22-1.436-7.505-8.591-20.242-14.443-25.678-9.163-8.554-22.039-5.286-33.038-3.657-20.877 3.062-37.37-16.358-57.958-9.335-10.5 3.457-19.303 11.706-23.494 21.942-1.764 4.35-2.759 9.123-2.166 13.792 1.698 12.85 14.925 22.515 14.605 35.49-.177 6.806-4.246 13.003-9.506 17.358-5.465 4.487-12.763 5.978-16.517 11.817-2.404 3.756-3.385 10.586-4.85 14.896-1.501 4.571-9.763 23.378-4.277 27.378 5.148 3.74 17.071-2.138 22.765-3.206 15.476-2.968 31.937-1.401 42.018-14.145z" stroke="url(#B)" stroke-miterlimit="10"/><path d="M195.412 133.371c-3.467-6.687 3.624-21.785 8.322-26.323 4.642-4.519 10.376-7.849 14.849-12.497 6.792-7.002 10.443-16.99 9.739-26.744-1.099-15.489-19.052-24.542-12.507-40.327 3.254-7.856 9.977-14.146 18.052-16.838l.056-.02c8.001-2.728 15.78.302 24.796 3.847 10.947 4.26 21.622 7.176 33.443 5.393 5.284-.804 10.66-1.888 15.919-1.12 10.31 1.479 15.901 12.375 18.973 21.383.401 1.175.612 1.977.728 2.5 4.054 21.039-21.643 19.312-32.133 29.573-6.405 6.307-7.193 16.63-12.978 23.476-10.531 12.336-28.626 12.388-39.487 25.773-.186.188-.296.413-.482.602-5.856 7.368-16.99 10.979-25.8 12.985-4.815 1.08-10.359 2.222-15.317 1.602-3.461-.443-5.302-1.626-6.173-3.265z" stroke="url(#C)" stroke-miterlimit="10"/><path d="M205.603 125.708c-2.093-2.659-.817-7.341 4.344-12.35 1.839-1.751 4.014-3.43 6.282-5.203 2.92-2.245 5.932-4.584 8.753-7.482 8.5-8.77 13.086-21.327 12.215-33.584a32.67 32.67 0 0 0-1.663-7.99c-1.737-5.09-4.534-9.445-6.972-13.297-1.985-3.071-3.837-5.937-4.734-8.566-.801-2.35-.758-4.238.161-6.488 2.242-5.512 6.978-9.938 12.648-11.81l.111-.037c4.7-1.604 9.891.248 18.701 3.739 8.435 3.305 17.277 5.973 26.365 6.433 9.295.514 19.24-4.752 27.836.123 5.01 2.788 11.334 11.623 9.714 17.86-1.438 5.487-7.745 7.138-12.592 9.041-5.835 2.303-12.453 4.873-17.318 9.655-4.734 4.613-7.031 10.33-9.015 15.317-1.397 3.412-2.664 6.655-4.5 8.78-3.838 4.494-9.41 7.02-15.913 9.925-7.865 3.494-16.791 7.538-23.704 16.017-.186.189-.352.433-.519.677-4.539 5.733-13.165 9.925-20.241 11.152-5.06.914-8.412.058-9.959-1.912z" stroke="url(#D)" stroke-miterlimit="10"/><path d="M207.717 123.49c-.477-1.399.68-4.417 4.282-7.956 1.689-1.638 3.809-3.298 5.984-4.977 3.012-2.339 6.136-4.716 9.087-7.784 9.094-9.41 13.954-22.81 13.003-35.851a35.94 35.94 0 0 0-1.78-8.699c-1.852-5.426-4.781-9.986-7.313-13.931-1.871-2.922-3.629-5.695-4.393-7.933-.572-1.678-.524-2.819.119-4.412 1.949-4.725 6.016-8.548 10.846-10.133l.168-.057c3.749-1.28 8.528.463 16.738 3.659 10.665 4.169 19.11 6.222 27.264 6.689 3.684.18 7.362-.388 10.891-1.03 5.676-.937 11.054-1.834 15.614.732 2.702 1.514 6.377 5.695 7.846 10.003.592 1.734.772 3.359.444 4.595-.82 3.09-4.025 4.496-8.855 6.268-.671.23-1.323.514-1.995.743-6.114 2.398-13.012 5.063-18.285 10.297-5.142 5.064-7.606 11.026-9.737 16.312-1.286 3.187-2.499 6.224-4.02 7.992-3.393 3.968-8.704 6.342-14.872 9.133-8.181 3.665-17.442 7.823-24.781 16.885-.186.188-.353.432-.575.695-3.706 4.699-11.285 8.846-18.417 10.092-4.183.74-6.431.008-7.091-.829l-.172-.503z" stroke="url(#E)" stroke-miterlimit="10"/><path d="M246.049 66.502c-.23-3.419-.964-6.853-2.109-10.21-1.145-3.357-2.646-6.842-4.5-9.895-1.644-2.624-4.09-4.85-5.437-7.7-1.215-2.647-1.406-5.954.334-8.36 1.444-1.99 4.055-2.944 6.541-2.98 3.944.029 7.828 2.077 11.427 3.472 11.303 4.39 20.291 6.57 29.136 7.05 4.32.213 8.521-.47 12.18-1.095 4.78-.818 8.981-1.502 11.759.05 2.458 1.347 5.902 4.669 4.335 7.764-1.604 3.17-6.499 3.653-9.539 4.628a45.033 45.033 0 0 0-11.586 5.95 44.383 44.383 0 0 0-12.281 13.433c-2.734 4.618-3.641 11.298-7.108 15.416-2.484 2.97-7.255 5.098-12.789 7.548-8.367 3.853-9.345-10.366-10.363-25.07z" stroke="url(#F)" stroke-miterlimit="10"/><path d="M254.932 84.462c-.094-.093-.244-.166-.357-.315-.81-.91-1.006-2.217-1.108-3.432-.52-4.819-1.226-9.637-1.559-14.458l-.021-.243c-.72-9.435-4.148-18.57-10.256-25.856-.735-.873-1.545-1.783-1.983-2.883-.437-1.1-.279-2.466.576-3.257 1.152-1.017 3.006-.526 4.43-.012 6.522 2.46 12.991 5.312 19.623 7.359 4.684 1.463 11.759 2.797 16.673 2.37 4.132.214 7.69-1.624 11.572-2.511 2.258-.52 4.669-.594 6.953-.123.543.127 2.864.522 3.074 1.137.629 1.846-5.527 3.572-6.721 3.916-3.75 1.092-7.595 1.904-10.794 4.244-5.617 4.04-10.441 9.308-13.914 15.24-1.478 2.44-2.375 5.12-3.33 7.63-1.669 4.63-4.198 9.115-8.819 11.316-1.191.718-2.874.73-4.039-.122z" stroke="url(#G)" stroke-miterlimit="10"/><path d="M224.016 117.986c1.431-1.3 2.429-2.952 3.765-4.344 2.597-2.822 6.118-4.585 9.186-6.944 1.971-1.546 2.165-3.174 3.066-5.293.128-.356.313-.731.31-1.105-.002-.373-.267-.783-.604-.855-.337-.073-.671.229-.913.436a50.126 50.126 0 0 1-3.401 2.847c-6.566 4.737-14.584 7.597-19.775 13.802-.834 1.034-1.533 2.647-.555 3.5.377.371.901.442 1.425.513 2.637.225 5.453-.673 7.496-2.557z" stroke="url(#H)" stroke-miterlimit="10"/><path d="M196.51-18.34c-4.365 12.107-8.837 24.812-6.991 37.548 2.335 15.817 14.266 29.922 12.583 45.86-.245 2.395-.845 4.848-2.289 6.84-4.389 5.993-14.507 5.26-18.726 11.384-2.961 4.32-1.668 10.124.235 14.971 1.959 4.828 4.573 9.745 3.899 14.909-.866 7.166-7.449 12.035-11.126 18.285-4.286 7.208-4.393 16.051-5.494 24.359-1.101 8.307-3.898 17.318-11.196 21.557-3.5 2.006-7.646 2.67-11.392 4.323-8.124 3.645-13.339 11.795-16.683 20.118-3.288 8.304-5.208 17.141-9.303 25.095-4.094 7.955-11.053 15.2-19.906 16.346-6.798.945-13.472-1.775-19.716-4.517-13.425-5.85-27.285-12.427-36.078-24.105-5.982-8.015-9.154-17.863-14.726-26.143-5.591-8.335-15.23-15.353-25.01-13.079" stroke="url(#I)" stroke-width="2" stroke-miterlimit="10"/><path d="M355.061 20.95a55.126 55.126 0 0 0-15.005 22.293c-2.732 7.552-3.854 15.617-6.53 23.15-2.677 7.534-7.392 14.95-14.829 18.05-2.796 1.141-5.858 1.686-8.541 2.976-10.488 5.139-11.825 19.897-20.405 27.883-8.859 8.268-23.11 7.321-32.95 14.362-7.328 5.248-12.234 14.854-21.16 16.15-6.611.943-12.695-2.977-19.183-3.138-4.412-.119-15.247 3.64-7.974 9.216 1.448 1.13 3.302 1.622 5.135 1.871 4.773.807 9.278.832 12.151 5.411 1.91 3.033 2.608 6.73 3.362 10.22 2.159 9.444 8.747 18.502 18.153 21.726 8.114 2.729 17.692 1.147 24.754 5.921 4.884 3.331 7.578 9.032 11.831 13.078 13.587 12.915 32.83 5.977 48.817 3.958 14.924-1.842 24.527 16.242 37.715 20.113 5.825 1.697 12.338.1 17.342-3.355 5.005-3.456 8.708-8.529 11.399-14.007" stroke="url(#J)" stroke-width="2" stroke-miterlimit="10"/><rect x="88" y="33" width="220" height="220" rx="37" fill="#fff" fill-opacity=".92"/><rect x="88.5" y="33.5" width="219" height="219" rx="36.5" stroke="#F68146" stroke-opacity=".8"/></g><path d="M59 24a6 6 0 0 1 6-6h198a6 6 0 0 1 6 6v63a6 6 0 0 1-6 6H65a6 6 0 0 1-6-6V24z" fill="#272B35"/><g filter="url(#K)"><path d="M82.717 49v-7.273h2.784c.526 0 .963.083 1.31.249.351.163.613.387.786.671.175.284.262.606.262.966 0 .296-.056.55-.17.76a1.433 1.433 0 0 1-.458.508c-.192.13-.406.223-.643.28v.071c.258.014.506.094.742.238.24.142.435.343.586.604.152.26.228.575.228.945 0 .376-.092.714-.274 1.015-.182.298-.457.534-.824.707-.367.173-.828.259-1.385.259h-2.944zm1.318-1.1h1.417c.478 0 .822-.092 1.033-.274a.897.897 0 0 0 .32-.71 1.088 1.088 0 0 0-.615-.995 1.51 1.51 0 0 0-.703-.152h-1.452v2.13zm0-3.08h1.303c.227 0 .432-.041.614-.124.183-.085.326-.205.43-.359a.96.96 0 0 0 .16-.554c0-.281-.1-.513-.298-.696-.197-.182-.49-.273-.877-.273h-1.332v2.006zm8.413 4.286c-.547 0-1.02-.113-1.417-.34a2.31 2.31 0 0 1-.913-.973c-.213-.422-.32-.918-.32-1.488 0-.561.107-1.054.32-1.478.215-.426.516-.757.902-.994.386-.239.84-.359 1.36-.359.336 0 .654.055.952.164.3.106.566.272.795.497.232.225.415.511.547.86.133.345.199.757.199 1.235v.394h-4.47v-.866h3.238a1.381 1.381 0 0 0-.16-.657 1.16 1.16 0 0 0-.437-.458 1.227 1.227 0 0 0-.646-.167c-.263 0-.494.064-.693.192a1.32 1.32 0 0 0-.465.497 1.43 1.43 0 0 0-.167.67v.757c0 .318.058.59.174.817.116.225.278.398.487.519.208.118.452.177.731.177.187 0 .357-.026.508-.078a1.13 1.13 0 0 0 .394-.238.99.99 0 0 0 .252-.387l1.2.135a1.87 1.87 0 0 1-.433.83c-.21.235-.48.418-.81.548-.328.128-.705.191-1.128.191zm7.036-5.56v.994H96.35v-.995h3.135zm-2.361-1.307h1.285v5.12c0 .173.026.306.078.398.055.09.126.152.213.185.088.033.185.05.292.05.08 0 .153-.006.22-.018.069-.012.12-.023.156-.032l.217 1.005a2.419 2.419 0 0 1-.756.128c-.323.009-.613-.04-.87-.146a1.353 1.353 0 0 1-.615-.504c-.15-.228-.223-.512-.22-.853V42.24zm6.557 6.867c-.533 0-.994-.117-1.385-.351a2.382 2.382 0 0 1-.909-.984c-.213-.421-.32-.913-.32-1.477 0-.563.107-1.057.32-1.48.215-.425.518-.754.909-.988.391-.234.852-.352 1.385-.352s.994.118 1.385.352c.391.234.692.563.905.987.216.424.324.918.324 1.481 0 .564-.108 1.056-.324 1.477a2.36 2.36 0 0 1-.905.984c-.391.234-.852.351-1.385.351zm.007-1.03c.289 0 .53-.079.725-.237.194-.161.338-.377.433-.646.097-.27.145-.571.145-.902 0-.334-.048-.636-.145-.906a1.436 1.436 0 0 0-.433-.65 1.1 1.1 0 0 0-.725-.241c-.296 0-.542.08-.739.241a1.457 1.457 0 0 0-.436.65c-.095.27-.142.572-.142.906 0 .33.047.632.142.902.097.27.242.485.436.646.197.158.443.238.739.238zm5.783-2.272V49h-1.285v-5.455h1.228v.927h.064c.126-.305.326-.548.6-.728.277-.18.62-.27 1.027-.27.376 0 .704.08.983.242.282.16.5.394.654.7.156.305.233.675.231 1.111V49h-1.286v-3.274c0-.365-.095-.65-.284-.856-.187-.206-.446-.309-.778-.309-.225 0-.425.05-.6.15a1.03 1.03 0 0 0-.408.422 1.428 1.428 0 0 0-.146.671zm10.263-4.077V49h-1.317v-7.273h1.317zm-.657-.774a.754.754 0 0 1-.529-.202.658.658 0 0 1-.216-.494c0-.194.073-.359.22-.493a.741.741 0 0 1 .525-.207.73.73 0 0 1 .522.206c.147.135.22.3.22.494a.651.651 0 0 1-.22.494.736.736 0 0 1-.522.202zm7.138 4.034-1.172.128a.937.937 0 0 0-.174-.334.86.86 0 0 0-.326-.252 1.196 1.196 0 0 0-.505-.096 1.23 1.23 0 0 0-.674.174c-.18.116-.269.267-.267.451a.474.474 0 0 0 .174.387c.121.1.32.181.597.245l.93.2c.516.11.9.287 1.151.528.253.242.381.558.383.949a1.486 1.486 0 0 1-.301.909c-.197.26-.47.464-.821.61-.35.147-.753.22-1.207.22-.668 0-1.205-.14-1.612-.419a1.681 1.681 0 0 1-.728-1.175l1.253-.12a.887.887 0 0 0 .362.557c.185.125.425.188.721.188.306 0 .551-.063.735-.188.187-.126.281-.28.281-.465a.484.484 0 0 0-.181-.387c-.119-.102-.303-.18-.554-.235l-.931-.195c-.523-.109-.91-.293-1.161-.55-.251-.26-.375-.59-.373-.988a1.398 1.398 0 0 1 .274-.873 1.79 1.79 0 0 1 .777-.576 3.019 3.019 0 0 1 1.155-.206c.639 0 1.142.137 1.509.409.369.272.598.64.685 1.104zm-2.535 3.985h.696l-.057.301c.222.034.411.119.564.256.157.14.235.34.235.6.002.336-.148.606-.451.81-.303.203-.735.305-1.296.305l-.014-.632c.272 0 .488-.037.649-.11.161-.07.243-.184.245-.34.005-.152-.052-.264-.17-.335-.116-.068-.301-.116-.554-.142l.153-.713zm5.798-7.245V49h-1.286v-7.273h1.286zm4.537 7.38c-.547 0-1.02-.114-1.417-.341-.396-.23-.7-.554-.913-.973-.213-.422-.32-.918-.32-1.488 0-.561.107-1.054.32-1.478.215-.426.516-.757.902-.994.386-.239.839-.359 1.36-.359.336 0 .654.055.952.164.3.106.566.272.795.497.232.225.415.511.547.86.133.345.199.757.199 1.235v.394h-4.471v-.866h3.239a1.392 1.392 0 0 0-.16-.657 1.16 1.16 0 0 0-.437-.458 1.228 1.228 0 0 0-.646-.167c-.263 0-.494.064-.693.192a1.326 1.326 0 0 0-.465.497 1.437 1.437 0 0 0-.167.67v.757c0 .318.058.59.174.817.116.225.278.398.487.519.208.118.452.177.731.177.187 0 .357-.026.508-.078.152-.055.283-.134.394-.238a.974.974 0 0 0 .252-.387l1.201.135c-.076.317-.22.594-.434.83-.21.235-.48.418-.809.548a3.104 3.104 0 0 1-1.129.191zm4.313-.107v-5.455h1.246v.91h.057a1.36 1.36 0 0 1 1.346-.988c.071 0 .15.004.238.011.09.005.164.013.223.025v1.182a1.342 1.342 0 0 0-.259-.05 2.375 2.375 0 0 0-.337-.024c-.235 0-.445.05-.632.153-.185.099-.331.237-.437.415-.107.177-.16.382-.16.614V49h-1.285zm4.764 0v-5.455h1.286V49h-1.286zm.647-6.229a.75.75 0 0 1-.526-.202.652.652 0 0 1-.22-.494c0-.194.073-.358.22-.493a.744.744 0 0 1 .526-.206c.206 0 .381.068.525.206.147.135.22.3.22.493a.652.652 0 0 1-.22.494.74.74 0 0 1-.525.202zm5.778.06v-1.104h5.803v1.105h-2.248V49h-1.307v-6.168h-2.248zm8.492 6.28c-.345 0-.657-.063-.934-.186a1.526 1.526 0 0 1-.653-.554c-.159-.243-.238-.544-.238-.902 0-.307.057-.562.17-.763a1.32 1.32 0 0 1 .466-.483 2.33 2.33 0 0 1 .664-.273c.248-.064.505-.11.77-.139.32-.033.579-.063.778-.089.199-.028.343-.07.433-.128.093-.059.139-.15.139-.273V45.3c0-.268-.08-.475-.238-.622-.159-.146-.387-.22-.686-.22-.314 0-.564.069-.749.206-.182.137-.305.3-.369.487l-1.2-.17c.094-.332.25-.61.468-.832a2.04 2.04 0 0 1 .799-.504c.315-.114.663-.17 1.044-.17.263 0 .525.03.785.092.261.061.498.163.714.305.215.14.388.33.518.572.133.241.199.543.199.905V49h-1.236v-.75h-.042a1.566 1.566 0 0 1-.33.427c-.14.13-.317.235-.53.316a2.13 2.13 0 0 1-.742.117zm.334-.945c.258 0 .482-.051.671-.153.19-.104.335-.242.437-.412a1.05 1.05 0 0 0 .156-.558v-.642a.604.604 0 0 1-.206.092 2.885 2.885 0 0 1-.319.075c-.119.02-.236.04-.352.056l-.302.043a2.264 2.264 0 0 0-.515.128.853.853 0 0 0-.358.248.606.606 0 0 0-.132.405c0 .237.087.416.26.536.172.121.393.181.66.181zm8.95-3.179-1.172.128a.937.937 0 0 0-.174-.334.856.856 0 0 0-.327-.252 1.188 1.188 0 0 0-.504-.096c-.267 0-.492.058-.675.174-.18.116-.268.267-.266.451a.474.474 0 0 0 .174.387c.121.1.32.181.597.245l.93.2c.516.11.9.287 1.151.528.253.242.381.558.383.949a1.48 1.48 0 0 1-.302.909c-.196.26-.47.464-.82.61-.35.147-.753.22-1.207.22-.668 0-1.205-.14-1.613-.419a1.685 1.685 0 0 1-.728-1.175l1.254-.12a.883.883 0 0 0 .362.557c.185.125.425.188.721.188.305 0 .55-.063.735-.188.187-.126.281-.28.281-.465a.487.487 0 0 0-.181-.387c-.119-.102-.304-.18-.554-.235l-.931-.195c-.523-.109-.91-.293-1.161-.55-.251-.26-.375-.59-.373-.988a1.404 1.404 0 0 1 .273-.873 1.8 1.8 0 0 1 .778-.576 3.017 3.017 0 0 1 1.154-.206c.64 0 1.143.137 1.51.409.369.272.597.64.685 1.104zm-2.536 3.985h.696l-.056.301c.222.034.41.119.564.256.156.14.235.34.235.6.002.336-.148.606-.451.81-.303.203-.735.305-1.297.305l-.014-.632c.272 0 .489-.037.65-.11.161-.07.243-.184.245-.34.005-.152-.052-.264-.17-.335-.116-.068-.301-.116-.554-.142l.152-.713zm6.928.134c-.547 0-1.019-.113-1.417-.34-.395-.23-.7-.554-.913-.973-.213-.422-.319-.918-.319-1.488 0-.561.106-1.054.319-1.478a2.42 2.42 0 0 1 .902-.994c.386-.239.84-.359 1.36-.359.337 0 .654.055.952.164.301.106.566.272.796.497.232.225.414.511.546.86.133.345.199.757.199 1.235v.394h-4.471v-.866h3.239a1.38 1.38 0 0 0-.16-.657 1.16 1.16 0 0 0-.437-.458 1.225 1.225 0 0 0-.646-.167 1.25 1.25 0 0 0-.692.192 1.328 1.328 0 0 0-.466.497 1.436 1.436 0 0 0-.166.67v.757c0 .318.058.59.174.817.116.225.278.398.486.519.208.118.452.177.732.177.187 0 .356-.026.507-.078.152-.055.283-.134.395-.238a.996.996 0 0 0 .252-.387l1.2.135c-.076.317-.22.594-.433.83a2.116 2.116 0 0 1-.81.548 3.1 3.1 0 0 1-1.129.191zm4.313-.106v-5.455h1.246v.91h.057c.1-.315.27-.558.511-.728.244-.173.522-.26.835-.26.071 0 .15.004.238.011.09.005.164.013.224.025v1.182a1.356 1.356 0 0 0-.26-.05 2.375 2.375 0 0 0-.337-.024c-.234 0-.445.05-.632.153-.185.099-.33.237-.437.415-.106.177-.16.382-.16.614V49h-1.285zm6.919.106c-.532 0-.994-.117-1.385-.351a2.395 2.395 0 0 1-.909-.984c-.213-.421-.319-.913-.319-1.477 0-.563.106-1.057.319-1.48a2.39 2.39 0 0 1 .909-.988c.391-.234.853-.352 1.385-.352.533 0 .995.118 1.385.352.391.234.693.563.906.987.215.424.323.918.323 1.481 0 .564-.108 1.056-.323 1.477-.213.422-.515.75-.906.984-.39.234-.852.351-1.385.351zm.007-1.03c.289 0 .531-.079.725-.237.194-.161.338-.377.433-.646.097-.27.146-.571.146-.902 0-.334-.049-.636-.146-.906a1.436 1.436 0 0 0-.433-.65 1.098 1.098 0 0 0-.725-.241c-.295 0-.542.08-.738.241-.194.161-.34.378-.437.65-.095.27-.142.572-.142.906 0 .33.047.632.142.902.097.27.243.485.437.646.196.158.443.238.738.238zm5.784-2.272V49h-1.286v-5.455h1.229v.927h.064c.125-.305.325-.548.6-.728.277-.18.619-.27 1.026-.27.377 0 .704.08.984.242.281.16.499.394.653.7.156.305.233.675.231 1.111V49h-1.286v-3.274c0-.365-.094-.65-.284-.856-.187-.206-.446-.309-.777-.309-.225 0-.425.05-.6.15a1.039 1.039 0 0 0-.409.422 1.428 1.428 0 0 0-.145.671zm9.084.902v-3.16h1.286V49h-1.247v-.97h-.056a1.64 1.64 0 0 1-.608.75c-.279.194-.623.291-1.033.291a1.86 1.86 0 0 1-.948-.238 1.656 1.656 0 0 1-.639-.7c-.154-.307-.231-.679-.231-1.114v-3.474h1.285v3.275c0 .345.095.62.284.824.19.203.438.305.746.305.19 0 .373-.046.551-.139.177-.092.323-.23.436-.412.116-.184.174-.415.174-.692z" fill="#E56630"/><path d="M82.432 59.91v-2.546h10.114v2.545h-3.5V69h-3.114v-9.09h-3.5zM95.06 69v-8.727h3.136V69H95.06zm1.568-9.636a1.55 1.55 0 0 1-1.09-.42 1.33 1.33 0 0 1-.455-1.012c0-.394.151-.731.454-1.012a1.55 1.55 0 0 1 1.091-.42c.428 0 .792.14 1.09.42.304.28.456.618.456 1.012s-.152.73-.455 1.011c-.3.28-.663.42-1.091.42zM101.074 69v-8.727h3.046v1.659h.091c.159-.614.411-1.063.755-1.347a1.877 1.877 0 0 1 1.222-.426c.136 0 .271.011.403.034.137.02.267.047.392.085v2.677a2.796 2.796 0 0 0-.574-.12 5.152 5.152 0 0 0-.585-.04c-.307 0-.583.07-.829.21-.243.137-.434.33-.574.58a1.73 1.73 0 0 0-.21.87V69h-3.137zm10.243.136c-.557 0-1.049-.09-1.477-.272a2.22 2.22 0 0 1-1-.841c-.242-.375-.364-.852-.364-1.432 0-.477.082-.885.245-1.222.163-.34.39-.619.682-.835.291-.216.63-.38 1.017-.494.39-.114.81-.188 1.261-.222.489-.038.881-.083 1.176-.136.299-.057.515-.135.648-.233a.487.487 0 0 0 .199-.404v-.022a.597.597 0 0 0-.262-.523c-.174-.121-.397-.182-.67-.182-.299 0-.544.067-.733.199-.186.129-.297.328-.335.597h-2.887c.038-.53.207-1.02.506-1.466.303-.451.744-.81 1.324-1.08.579-.273 1.303-.409 2.17-.409.625 0 1.186.074 1.682.222a3.9 3.9 0 0 1 1.267.608c.349.257.614.56.796.909.185.344.278.72.278 1.125V69h-2.932v-1.227h-.068a2.514 2.514 0 0 1-.636.79 2.35 2.35 0 0 1-.847.437c-.314.09-.661.136-1.04.136zm1.023-1.977c.239 0 .462-.05.67-.148.213-.098.385-.24.518-.426.132-.185.198-.41.198-.676v-.727a4.02 4.02 0 0 1-.562.182 7.578 7.578 0 0 1-.688.136c-.242.038-.441.1-.596.188a.882.882 0 0 0-.341.312.786.786 0 0 0-.108.41c0 .242.085.427.256.556.17.129.388.193.653.193zm14.86-9.795V69h-3.159V57.364h3.159zm-1.568-.91a1.55 1.55 0 0 1-1.091-.42 1.33 1.33 0 0 1-.455-1.011c0-.394.152-.731.455-1.012a1.55 1.55 0 0 1 1.091-.42c.428 0 .791.14 1.09.42.303.28.455.618.455 1.012s-.152.73-.455 1.011c-.299.28-.662.42-1.09.42zm7.527 7.637V69h-3.137v-8.727H133v1.659h.091a2.467 2.467 0 0 1 1-1.301c.481-.315 1.041-.472 1.681-.472.618 0 1.154.142 1.608.426.459.28.813.667 1.063 1.16.254.492.379 1.054.375 1.687V69h-3.137v-4.91c.004-.43-.106-.77-.329-1.016-.22-.246-.527-.37-.921-.37a1.31 1.31 0 0 0-.676.171c-.189.11-.335.269-.437.477a1.68 1.68 0 0 0-.159.739zm16.464-.977h-2.886a.793.793 0 0 0-.188-.46 1.04 1.04 0 0 0-.426-.296 1.441 1.441 0 0 0-.568-.108c-.269 0-.5.05-.693.148-.193.098-.288.238-.284.42a.47.47 0 0 0 .165.358c.117.11.342.195.676.256l1.773.318c.893.163 1.558.438 1.994.824.439.382.661.896.665 1.54a2.541 2.541 0 0 1-.557 1.619c-.364.454-.862.807-1.495 1.057-.628.246-1.346.37-2.153.37-1.333 0-2.377-.274-3.131-.82-.75-.544-1.168-1.264-1.255-2.158h3.113c.042.276.178.49.409.642.235.148.531.222.887.222.288 0 .524-.05.71-.148.189-.099.286-.239.29-.42-.004-.167-.087-.3-.25-.398-.159-.099-.409-.178-.75-.24l-1.546-.272c-.89-.155-1.556-.45-2-.886-.443-.436-.663-.996-.659-1.682-.004-.606.156-1.12.478-1.54.325-.424.789-.746 1.392-.966.606-.223 1.323-.335 2.153-.335 1.261 0 2.256.261 2.983.784.731.523 1.115 1.246 1.153 2.17zm-4.522 5.84h1.113l-.091.523c.451.069.801.227 1.051.477.25.25.377.561.381.932.008.614-.293 1.097-.903 1.45-.606.352-1.442.528-2.506.528v-1.205c.561 0 .989-.06 1.284-.182.296-.117.451-.291.466-.523a.584.584 0 0 0-.25-.528c-.178-.136-.451-.233-.818-.29l.273-1.181zm9.663.182c-.557 0-1.049-.09-1.477-.272a2.22 2.22 0 0 1-1-.841c-.243-.375-.364-.852-.364-1.432 0-.477.082-.885.245-1.222.162-.34.39-.619.681-.835.292-.216.631-.38 1.017-.494a6.177 6.177 0 0 1 1.262-.222c.488-.038.88-.083 1.176-.136.299-.057.515-.135.648-.233a.487.487 0 0 0 .199-.404v-.022a.599.599 0 0 0-.262-.523c-.174-.121-.398-.182-.67-.182-.3 0-.544.067-.733.199-.186.129-.298.328-.335.597h-2.887c.038-.53.207-1.02.506-1.466.303-.451.744-.81 1.324-1.08.579-.273 1.303-.409 2.17-.409.625 0 1.186.074 1.682.222a3.9 3.9 0 0 1 1.267.608c.348.257.614.56.795.909.186.344.279.72.279 1.125V69h-2.932v-1.227h-.068a2.514 2.514 0 0 1-.636.79 2.35 2.35 0 0 1-.847.437c-.314.09-.661.136-1.04.136zm1.023-1.977c.239 0 .462-.05.67-.148a1.29 1.29 0 0 0 .517-.426 1.13 1.13 0 0 0 .199-.676v-.727a4.02 4.02 0 0 1-.562.182 7.578 7.578 0 0 1-.688.136c-.242.038-.441.1-.596.188a.875.875 0 0 0-.341.312.786.786 0 0 0-.108.41c0 .242.085.427.255.556.171.129.389.193.654.193zm9.71 1.977c-.557 0-1.049-.09-1.477-.272a2.22 2.22 0 0 1-1-.841c-.242-.375-.364-.852-.364-1.432 0-.477.082-.885.245-1.222.163-.34.39-.619.681-.835a3.22 3.22 0 0 1 1.018-.494c.39-.114.81-.188 1.261-.222.489-.038.881-.083 1.176-.136.299-.057.515-.135.648-.233a.487.487 0 0 0 .199-.404v-.022a.597.597 0 0 0-.262-.523c-.174-.121-.397-.182-.67-.182-.299 0-.544.067-.733.199-.186.129-.297.328-.335.597h-2.887c.038-.53.207-1.02.506-1.466.303-.451.744-.81 1.324-1.08.579-.273 1.303-.409 2.17-.409.625 0 1.186.074 1.682.222a3.9 3.9 0 0 1 1.267.608c.349.257.614.56.796.909.185.344.278.72.278 1.125V69h-2.932v-1.227h-.068a2.514 2.514 0 0 1-.636.79 2.35 2.35 0 0 1-.847.437c-.314.09-.661.136-1.04.136zm1.023-1.977c.239 0 .462-.05.67-.148.213-.098.385-.24.517-.426a1.13 1.13 0 0 0 .199-.676v-.727a4.02 4.02 0 0 1-.562.182 7.578 7.578 0 0 1-.688.136c-.242.038-.441.1-.596.188a.882.882 0 0 0-.341.312.786.786 0 0 0-.108.41c0 .242.085.427.256.556.17.129.388.193.653.193zm12.483-6.886v2.272h-5.75v-2.272h5.75zm-4.636-2.091h3.136v8.011c0 .121.021.224.063.307.041.08.106.14.193.182a.846.846 0 0 0 .335.057c.095 0 .205-.012.33-.035.128-.022.223-.041.284-.056l.454 2.204c-.14.042-.341.093-.602.154-.258.06-.564.1-.921.119-.719.038-1.323-.036-1.812-.222-.489-.189-.856-.486-1.102-.892-.246-.405-.366-.912-.358-1.522v-8.307z" fill="#fff"/></g><path d="M127 200a6 6 0 0 1 6-6h198a6 6 0 0 1 6 6v63a6 6 0 0 1-6 6H133a6 6 0 0 1-6-6v-63z" fill="#272B35"/><g filter="url(#L)"><path d="M150.717 217.727h1.613l2.159 5.27h.085l2.159-5.27h1.612V225h-1.264v-4.996h-.068l-2.009 4.975h-.945l-2.01-4.986h-.067V225h-1.265v-7.273zm9.806 7.273v-5.455h1.286V225h-1.286zm.646-6.229a.75.75 0 0 1-.525-.202.652.652 0 0 1-.22-.494c0-.194.073-.358.22-.493a.74.74 0 0 1 .525-.206c.206 0 .381.068.526.206.147.135.22.299.22.493a.652.652 0 0 1-.22.494.743.743 0 0 1-.526.202zm3.933 4.517-.003-1.551h.206l1.96-2.192h1.502l-2.411 2.685h-.266l-.988 1.058zM163.93 225v-7.273h1.286V225h-1.286zm3.424 0-1.776-2.482.867-.906 2.446 3.388h-1.537zm7.381-4.013-1.172.128a.94.94 0 0 0-.174-.334.866.866 0 0 0-.327-.252 1.186 1.186 0 0 0-.504-.096c-.267 0-.492.058-.675.174-.18.116-.268.267-.266.451a.473.473 0 0 0 .174.387c.121.1.32.181.597.245l.93.199c.516.111.9.288 1.151.529.253.242.381.558.383.948a1.482 1.482 0 0 1-.302.91 1.93 1.93 0 0 1-.82.61c-.35.147-.753.221-1.207.221-.668 0-1.206-.14-1.613-.419a1.686 1.686 0 0 1-.728-1.176l1.254-.121a.883.883 0 0 0 .362.558c.185.125.425.188.721.188.305 0 .55-.063.735-.188.187-.126.281-.281.281-.465a.482.482 0 0 0-.182-.387c-.118-.102-.303-.18-.553-.235l-.931-.195c-.523-.109-.91-.292-1.161-.551-.251-.26-.375-.589-.373-.987a1.402 1.402 0 0 1 .273-.873c.187-.249.447-.441.778-.576a3.023 3.023 0 0 1 1.154-.206c.639 0 1.143.137 1.51.409.369.272.597.64.685 1.104zm4.392 4.12c-.547 0-1.019-.114-1.417-.341-.395-.23-.7-.554-.913-.973-.213-.422-.319-.918-.319-1.488 0-.561.106-1.054.319-1.478.216-.426.516-.757.902-.994.386-.239.84-.359 1.36-.359.337 0 .654.055.952.164.301.106.566.272.796.497.232.225.414.511.546.859.133.346.199.758.199 1.236v.394h-4.471v-.866h3.239a1.382 1.382 0 0 0-.16-.657 1.16 1.16 0 0 0-.437-.458 1.219 1.219 0 0 0-.646-.167 1.25 1.25 0 0 0-.692.192 1.324 1.324 0 0 0-.466.497 1.433 1.433 0 0 0-.166.671v.756c0 .318.058.59.174.817.116.225.278.398.486.519.208.118.452.177.732.177.187 0 .356-.026.507-.078.152-.054.283-.134.395-.238a.993.993 0 0 0 .252-.387l1.2.135c-.076.317-.22.594-.433.831a2.119 2.119 0 0 1-.81.547 3.096 3.096 0 0 1-1.129.192zm4.313-.107v-5.455h1.246v.91h.057a1.363 1.363 0 0 1 1.346-.988c.071 0 .15.004.238.011.09.005.164.013.224.025v1.182a1.352 1.352 0 0 0-.26-.049 2.318 2.318 0 0 0-.337-.025 1.31 1.31 0 0 0-.632.152c-.185.1-.33.238-.437.416-.106.178-.16.382-.16.614V225h-1.285zm7.782-6.168v-1.105h5.803v1.105h-2.248V225h-1.307v-6.168h-2.248zm9.288 6.275c-.546 0-1.019-.114-1.416-.341-.396-.23-.7-.554-.913-.973-.213-.422-.32-.918-.32-1.488 0-.561.107-1.054.32-1.478.215-.426.516-.757.902-.994.386-.239.839-.359 1.36-.359.336 0 .653.055.952.164.3.106.565.272.795.497.232.225.414.511.547.859.133.346.199.758.199 1.236v.394h-4.471v-.866h3.239a1.394 1.394 0 0 0-.16-.657 1.16 1.16 0 0 0-.437-.458 1.221 1.221 0 0 0-.646-.167c-.263 0-.494.064-.693.192a1.313 1.313 0 0 0-.465.497 1.434 1.434 0 0 0-.167.671v.756c0 .318.058.59.174.817.116.225.278.398.487.519.208.118.452.177.731.177.187 0 .356-.026.508-.078.152-.054.283-.134.394-.238a.993.993 0 0 0 .252-.387l1.201.135a1.878 1.878 0 0 1-.434.831c-.21.234-.48.417-.809.547a3.102 3.102 0 0 1-1.13.192zm6.338-.011c-.429 0-.812-.11-1.151-.33-.339-.221-.606-.54-.803-.959-.196-.419-.294-.928-.294-1.527 0-.606.099-1.118.298-1.534.201-.419.472-.735.813-.948a2.086 2.086 0 0 1 1.14-.324c.32 0 .582.055.788.164.206.106.37.235.491.387.12.149.214.29.28.422h.053v-2.72h1.289V225h-1.264v-.859h-.078a2.173 2.173 0 0 1-.288.422 1.586 1.586 0 0 1-.497.377c-.206.104-.465.156-.777.156zm.358-1.055c.272 0 .504-.073.696-.22a1.37 1.37 0 0 0 .437-.621 2.65 2.65 0 0 0 .149-.927c0-.353-.05-.66-.149-.92a1.306 1.306 0 0 0-.433-.607 1.119 1.119 0 0 0-.7-.217c-.286 0-.525.075-.717.224a1.35 1.35 0 0 0-.433.618 2.594 2.594 0 0 0-.146.902c0 .341.049.645.146.912.099.266.245.475.436.629.195.151.432.227.714.227zm6.286 1.069a2.26 2.26 0 0 1-.934-.185 1.52 1.52 0 0 1-.654-.554c-.158-.243-.237-.544-.237-.902 0-.307.056-.562.17-.763a1.33 1.33 0 0 1 .465-.483 2.33 2.33 0 0 1 .664-.273c.249-.064.506-.111.771-.139.319-.033.579-.063.778-.089.198-.028.343-.071.433-.128.092-.059.138-.15.138-.273v-.021c0-.268-.079-.475-.238-.622-.158-.147-.387-.22-.685-.22-.315 0-.565.069-.749.206a1.02 1.02 0 0 0-.37.487l-1.2-.171c.095-.331.251-.608.469-.831.218-.225.484-.393.799-.504a3.049 3.049 0 0 1 1.044-.171c.263 0 .524.031.785.093.26.061.498.163.713.305.216.14.389.33.519.572.133.241.199.543.199.905V225h-1.236v-.749h-.043a1.58 1.58 0 0 1-.33.426c-.14.13-.316.235-.529.316a2.136 2.136 0 0 1-.742.117zm.334-.945c.258 0 .481-.05.671-.152.189-.104.335-.242.437-.412.104-.171.156-.356.156-.558v-.642a.618.618 0 0 1-.206.092 2.936 2.936 0 0 1-.32.074 7.525 7.525 0 0 1-.351.057l-.302.043a2.243 2.243 0 0 0-.515.128.858.858 0 0 0-.359.248.61.61 0 0 0-.131.405c0 .237.086.416.259.536.173.121.393.181.661.181zm4.638.835v-5.455h1.247v.91h.057c.099-.315.27-.558.511-.728.244-.173.522-.26.835-.26.071 0 .15.004.237.011.09.005.165.013.224.025v1.182a1.338 1.338 0 0 0-.259-.049 2.318 2.318 0 0 0-.337-.025c-.235 0-.445.051-.632.152-.185.1-.331.238-.437.416-.107.178-.16.382-.16.614V225h-1.286zm4.765 0v-5.455h1.286V225h-1.286zm.647-6.229a.75.75 0 0 1-.526-.202.652.652 0 0 1-.22-.494c0-.194.073-.358.22-.493a.74.74 0 0 1 .526-.206.73.73 0 0 1 .525.206c.147.135.22.299.22.493a.652.652 0 0 1-.22.494.74.74 0 0 1-.525.202zm3.933 4.517-.004-1.551h.206l1.96-2.192h1.502l-2.411 2.685h-.266l-.987 1.058zM226.637 225v-7.273h1.285V225h-1.285zm3.423 0-1.776-2.482.867-.906 2.447 3.388h-1.538zm5.225.107c-.545 0-1.012-.12-1.403-.359a2.387 2.387 0 0 1-.898-.991c-.209-.424-.313-.911-.313-1.463 0-.554.107-1.043.32-1.467.213-.426.513-.757.902-.994.39-.239.852-.359 1.385-.359.442 0 .834.082 1.175.245.343.161.617.39.82.686.204.293.32.637.348 1.03h-1.228a1.175 1.175 0 0 0-.355-.657c-.185-.178-.433-.267-.743-.267-.262 0-.493.071-.692.213-.199.14-.354.341-.465.604a2.463 2.463 0 0 0-.164.945c0 .371.055.691.164.959.109.265.261.469.458.614.199.142.432.213.699.213.19 0 .359-.036.508-.107.152-.073.278-.178.38-.316.102-.137.172-.304.21-.5h1.228c-.03.386-.144.728-.341 1.026a2.016 2.016 0 0 1-.802.696c-.339.166-.736.249-1.193.249zm-.37-.135h.696l-.056.301c.222.034.41.119.564.256.156.14.235.34.235.6.002.336-.148.606-.451.81-.303.204-.735.305-1.297.305l-.014-.632c.272 0 .489-.036.65-.11.161-.071.243-.185.245-.341.005-.151-.052-.263-.17-.334-.116-.068-.301-.116-.554-.142l.152-.713zm4.562.028v-5.455h1.285V225h-1.285zm.646-6.229a.748.748 0 0 1-.525-.202.652.652 0 0 1-.221-.494c0-.194.074-.358.221-.493a.738.738 0 0 1 .525-.206c.206 0 .381.068.526.206.147.135.22.299.22.493a.652.652 0 0 1-.22.494.743.743 0 0 1-.526.202zm7.072 2.216-1.171.128a.973.973 0 0 0-.174-.334.874.874 0 0 0-.327-.252 1.19 1.19 0 0 0-.504-.096c-.268 0-.493.058-.675.174-.18.116-.269.267-.266.451a.467.467 0 0 0 .174.387c.12.1.319.181.596.245l.931.199c.516.111.899.288 1.15.529.253.242.381.558.384.948a1.488 1.488 0 0 1-.302.91c-.197.26-.47.464-.821.61-.35.147-.752.221-1.207.221-.668 0-1.205-.14-1.612-.419a1.686 1.686 0 0 1-.728-1.176l1.253-.121a.884.884 0 0 0 .363.558c.184.125.425.188.721.188.305 0 .55-.063.735-.188.187-.126.28-.281.28-.465a.481.481 0 0 0-.181-.387c-.118-.102-.303-.18-.554-.235l-.93-.195c-.524-.109-.911-.292-1.162-.551-.251-.26-.375-.589-.372-.987a1.39 1.39 0 0 1 .273-.873c.187-.249.446-.441.778-.576a3.02 3.02 0 0 1 1.154-.206c.639 0 1.142.137 1.509.409.369.272.598.64.685 1.104zm1.978 4.013v-5.455h1.285V225h-1.285zm.646-6.229a.75.75 0 0 1-.526-.202.655.655 0 0 1-.22-.494c0-.194.074-.358.22-.493a.74.74 0 0 1 .526-.206.73.73 0 0 1 .525.206.644.644 0 0 1 .221.493.652.652 0 0 1-.221.494.74.74 0 0 1-.525.202z" fill="#E56630"/><path d="M150.75 245v-11.636h5.045c.887 0 1.631.119 2.233.358.606.238 1.063.575 1.37 1.011.31.436.466.949.466 1.54 0 .428-.095.818-.284 1.17a2.513 2.513 0 0 1-.785.887 3.135 3.135 0 0 1-1.181.488v.114c.5.019.954.146 1.363.38.409.232.735.552.978.961.242.405.363.882.363 1.432 0 .636-.166 1.202-.5 1.698-.329.497-.799.887-1.409 1.171-.61.284-1.337.426-2.182.426h-5.477zm3.159-2.523h1.477c.531 0 .928-.098 1.194-.295.265-.201.397-.496.397-.887 0-.272-.062-.503-.187-.693a1.176 1.176 0 0 0-.534-.432 2.079 2.079 0 0 0-.824-.147h-1.523v2.454zm0-4.409h1.296c.276 0 .52-.043.733-.13.212-.088.376-.213.494-.376.121-.166.182-.369.182-.607 0-.36-.129-.635-.387-.824-.257-.193-.583-.29-.977-.29h-1.341v2.227zm14.513 3.114v-4.909h3.136V245h-2.977v-1.659h-.091a2.482 2.482 0 0 1-.994 1.307c-.474.31-1.036.466-1.688.466-.609 0-1.144-.141-1.602-.421a2.875 2.875 0 0 1-1.062-1.159c-.25-.492-.377-1.057-.381-1.693v-5.568h3.136v4.909c.004.432.114.771.33 1.017.22.246.526.369.92.369.262 0 .487-.055.676-.165.194-.113.341-.272.444-.477.106-.208.157-.456.153-.744zm6.012 3.818v-8.727h3.045v1.659h.091c.159-.614.411-1.063.756-1.347a1.873 1.873 0 0 1 1.221-.426c.137 0 .271.011.404.034.136.019.267.048.392.085v2.677a2.855 2.855 0 0 0-.574-.12 5.295 5.295 0 0 0-.585-.04 1.65 1.65 0 0 0-.83.211 1.48 1.48 0 0 0-.574.579 1.73 1.73 0 0 0-.21.87V245h-3.136zm11.922.159c-.947 0-1.758-.187-2.432-.562a3.874 3.874 0 0 1-1.551-1.58c-.36-.678-.54-1.464-.54-2.358 0-.894.18-1.678.54-2.352a3.827 3.827 0 0 1 1.551-1.58c.674-.379 1.485-.568 2.432-.568.947 0 1.757.189 2.431.568a3.823 3.823 0 0 1 1.552 1.58c.359.674.539 1.458.539 2.352 0 .894-.18 1.68-.539 2.358a3.87 3.87 0 0 1-1.552 1.58c-.674.375-1.484.562-2.431.562zm.022-2.318a.98.98 0 0 0 .688-.267c.193-.178.343-.432.449-.762.106-.329.159-.721.159-1.176 0-.458-.053-.85-.159-1.176-.106-.329-.256-.583-.449-.761a.98.98 0 0 0-.688-.267c-.28 0-.52.089-.721.267-.201.178-.354.432-.46.761-.107.326-.16.718-.16 1.176 0 .455.053.847.16 1.176.106.33.259.584.46.762.201.178.441.267.721.267zm11.475-9.477h3.932l2.704 6.591h.137l2.704-6.591h3.932V245h-3.091v-6.727h-.091l-2.591 6.636h-1.863l-2.591-6.682h-.091V245h-3.091v-11.636zm18.664 11.772c-.557 0-1.05-.091-1.478-.272a2.228 2.228 0 0 1-1-.841c-.242-.375-.363-.853-.363-1.432 0-.477.081-.885.244-1.222.163-.341.39-.619.682-.835a3.21 3.21 0 0 1 1.017-.494 6.14 6.14 0 0 1 1.261-.222c.489-.038.881-.083 1.176-.136.3-.057.516-.135.648-.233a.484.484 0 0 0 .199-.404v-.022a.598.598 0 0 0-.261-.523c-.175-.121-.398-.182-.671-.182-.299 0-.543.066-.733.199-.185.129-.297.328-.335.597h-2.886a2.975 2.975 0 0 1 .505-1.466c.303-.451.745-.811 1.324-1.08.58-.273 1.303-.409 2.171-.409.625 0 1.185.074 1.681.222.497.144.919.346 1.268.608.348.257.613.56.795.909.186.344.278.719.278 1.125V245h-2.931v-1.227h-.069a2.51 2.51 0 0 1-.636.789 2.334 2.334 0 0 1-.847.438 3.728 3.728 0 0 1-1.039.136zm1.022-1.977c.239 0 .462-.049.671-.148.212-.098.384-.24.517-.426.132-.185.199-.411.199-.676v-.727a3.754 3.754 0 0 1-.267.096c-.091.031-.19.059-.296.086a6.09 6.09 0 0 1-.329.074 9.101 9.101 0 0 1-.358.062c-.243.038-.442.1-.597.188a.886.886 0 0 0-.341.312.786.786 0 0 0-.108.409c0 .243.086.428.256.557.17.129.388.193.653.193zm10.097-.227.023-3.727h.409l2.114-2.932h3.522l-3.545 4.568h-.887l-1.636 2.091zM224.818 245v-11.636h3.136V245h-3.136zm5.386 0-2-3.455 2.046-2.227 3.545 5.682h-3.591zm5.597 0v-8.727h3.136V245h-3.136zm1.568-9.636c-.424 0-.788-.141-1.091-.421a1.327 1.327 0 0 1-.454-1.011c0-.394.151-.731.454-1.012.303-.28.667-.42 1.091-.42.428 0 .792.14 1.091.42.303.281.455.618.455 1.012s-.152.731-.455 1.011a1.54 1.54 0 0 1-1.091.421zm7.583 4.727V245h-3.137v-8.727h2.978v1.659h.091a2.465 2.465 0 0 1 1-1.301c.481-.315 1.041-.472 1.681-.472.618 0 1.154.142 1.608.426.459.281.813.667 1.063 1.159.254.493.379 1.055.375 1.688V245h-3.136v-4.909c.003-.432-.107-.771-.33-1.017-.22-.246-.527-.369-.92-.369a1.31 1.31 0 0 0-.677.17c-.189.11-.335.269-.437.477a1.697 1.697 0 0 0-.159.739zm12.669 5.068c-.932 0-1.735-.178-2.409-.534a3.738 3.738 0 0 1-1.551-1.545c-.36-.675-.54-1.482-.54-2.421 0-.901.182-1.689.545-2.364a3.9 3.9 0 0 1 1.54-1.573c.663-.375 1.445-.563 2.347-.563.659 0 1.256.102 1.79.307.534.204.99.502 1.369.892.379.386.67.856.875 1.409.204.553.307 1.176.307 1.869v.728h-7.796v-1.728h4.909a1.198 1.198 0 0 0-.193-.659 1.232 1.232 0 0 0-.494-.449 1.466 1.466 0 0 0-.699-.164c-.254 0-.487.055-.699.164a1.318 1.318 0 0 0-.511.444 1.251 1.251 0 0 0-.199.664v1.864c0 .28.059.53.176.75.117.22.286.392.506.517.219.125.485.188.795.188.216 0 .413-.031.591-.091.182-.061.337-.148.466-.262.129-.117.224-.257.284-.42h2.864a3.27 3.27 0 0 1-.699 1.579c-.368.444-.854.788-1.46 1.034-.603.243-1.307.364-2.114.364z" fill="#fff"/></g><defs><linearGradient id="r" x1="47.39" y1="120.013" x2="135.689" y2="146.845" gradientUnits="userSpaceOnUse"><stop stop-color="#F68146" stop-opacity=".3"/><stop offset="1" stop-color="#F68146" stop-opacity=".8"/></linearGradient><linearGradient id="s" x1="57.668" y1="122.928" x2="120.24" y2="145.532" gradientUnits="userSpaceOnUse"><stop stop-color="#F68146" stop-opacity=".3"/><stop offset="1" stop-color="#F68146" stop-opacity=".8"/></linearGradient><linearGradient id="c" x1="127.062" y1="225.31" x2="316.23" y2="315.857" gradientUnits="userSpaceOnUse"><stop stop-color="#F68146" stop-opacity=".3"/><stop offset="1" stop-color="#F68146" stop-opacity=".8"/></linearGradient><linearGradient id="d" x1="236.299" y1="228.627" x2="290.428" y2="235.992" gradientUnits="userSpaceOnUse"><stop stop-color="#F68146" stop-opacity=".3"/><stop offset="1" stop-color="#F68146" stop-opacity=".8"/></linearGradient><linearGradient id="e" x1="240.398" y1="229.809" x2="282.556" y2="235.302" gradientUnits="userSpaceOnUse"><stop stop-color="#F68146" stop-opacity=".3"/><stop offset="1" stop-color="#F68146" stop-opacity=".8"/></linearGradient><linearGradient id="f" x1="242.559" y1="230.598" x2="278.676" y2="235.438" gradientUnits="userSpaceOnUse"><stop stop-color="#F68146" stop-opacity=".3"/><stop offset="1" stop-color="#F68146" stop-opacity=".8"/></linearGradient><linearGradient id="g" x1="162.436" y1="203.935" x2="217.882" y2="221.606" gradientUnits="userSpaceOnUse"><stop stop-color="#F68146" stop-opacity=".3"/><stop offset="1" stop-color="#F68146" stop-opacity=".8"/></linearGradient><linearGradient id="h" x1="164.51" y1="204.489" x2="213.6" y2="221.281" gradientUnits="userSpaceOnUse"><stop stop-color="#F68146" stop-opacity=".3"/><stop offset="1" stop-color="#F68146" stop-opacity=".8"/></linearGradient><linearGradient id="i" x1="180.302" y1="194.021" x2="188.428" y2="217.845" gradientUnits="userSpaceOnUse"><stop stop-color="#1079B4"/><stop offset="1" stop-color="#21B3E4"/></linearGradient><linearGradient id="j" x1="180.776" y1="207.642" x2="192.664" y2="212.84" gradientUnits="userSpaceOnUse"><stop stop-color="#F68146" stop-opacity=".3"/><stop offset="1" stop-color="#F68146" stop-opacity=".8"/></linearGradient><linearGradient id="k" x1="20.109" y1="105.404" x2="237.8" y2="143.065" gradientUnits="userSpaceOnUse"><stop stop-color="#F68146" stop-opacity=".3"/><stop offset="1" stop-color="#F68146" stop-opacity=".8"/></linearGradient><linearGradient id="l" x1="24.23" y1="106.577" x2="229.982" y2="142.492" gradientUnits="userSpaceOnUse"><stop stop-color="#F68146" stop-opacity=".3"/><stop offset="1" stop-color="#F68146" stop-opacity=".8"/></linearGradient><linearGradient id="m" x1="30.7" y1="109.09" x2="217.007" y2="141.878" gradientUnits="userSpaceOnUse"><stop stop-color="#F68146" stop-opacity=".3"/><stop offset="1" stop-color="#F68146" stop-opacity=".8"/></linearGradient><linearGradient id="n" x1="68.22" y1="45.166" x2="123.44" y2="207.048" gradientUnits="userSpaceOnUse"><stop stop-color="#1079B4"/><stop offset="1" stop-color="#21B3E4"/></linearGradient><linearGradient id="o" x1="39.825" y1="109.478" x2="195.046" y2="143.772" gradientUnits="userSpaceOnUse"><stop stop-color="#F68146" stop-opacity=".3"/><stop offset="1" stop-color="#F68146" stop-opacity=".8"/></linearGradient><linearGradient id="p" x1="75.246" y1="64.062" x2="110.004" y2="165.96" gradientUnits="userSpaceOnUse"><stop stop-color="#1079B4"/><stop offset="1" stop-color="#21B3E4"/></linearGradient><linearGradient id="q" x1="45.733" y1="119.394" x2="141.27" y2="148.23" gradientUnits="userSpaceOnUse"><stop stop-color="#F68146" stop-opacity=".3"/><stop offset="1" stop-color="#F68146" stop-opacity=".8"/></linearGradient><linearGradient id="b" x1="125.004" y1="224.772" x2="321.392" y2="316.413" gradientUnits="userSpaceOnUse"><stop stop-color="#F68146" stop-opacity=".3"/><stop offset="1" stop-color="#F68146" stop-opacity=".8"/></linearGradient><linearGradient id="t" x1="82.257" y1="120.441" x2="112.247" y2="130.022" gradientUnits="userSpaceOnUse"><stop stop-color="#F68146" stop-opacity=".3"/><stop offset="1" stop-color="#F68146" stop-opacity=".8"/></linearGradient><linearGradient id="u" x1="261.006" y1="118.061" x2="419.17" y2="155.63" gradientUnits="userSpaceOnUse"><stop stop-color="#F68146" stop-opacity=".3"/><stop offset="1" stop-color="#F68146" stop-opacity=".8"/></linearGradient><linearGradient id="v" x1="265.042" y1="119.221" x2="411.068" y2="155.013" gradientUnits="userSpaceOnUse"><stop stop-color="#F68146" stop-opacity=".3"/><stop offset="1" stop-color="#F68146" stop-opacity=".8"/></linearGradient><linearGradient id="w" x1="298.315" y1="72.042" x2="333.058" y2="173.895" gradientUnits="userSpaceOnUse"><stop stop-color="#1079B4"/><stop offset="1" stop-color="#21B3E4"/></linearGradient><linearGradient id="x" x1="279.843" y1="128.127" x2="372.989" y2="165.389" gradientUnits="userSpaceOnUse"><stop stop-color="#F68146" stop-opacity=".3"/><stop offset="1" stop-color="#F68146" stop-opacity=".8"/></linearGradient><linearGradient id="y" x1="281.904" y1="128.582" x2="368.209" y2="165.074" gradientUnits="userSpaceOnUse"><stop stop-color="#F68146" stop-opacity=".3"/><stop offset="1" stop-color="#F68146" stop-opacity=".8"/></linearGradient><linearGradient id="z" x1="294.481" y1="139.778" x2="346.731" y2="166.271" gradientUnits="userSpaceOnUse"><stop stop-color="#F68146" stop-opacity=".3"/><stop offset="1" stop-color="#F68146" stop-opacity=".8"/></linearGradient><linearGradient id="A" x1="300.909" y1="141.344" x2="337.49" y2="159.997" gradientUnits="userSpaceOnUse"><stop stop-color="#F68146" stop-opacity=".3"/><stop offset="1" stop-color="#F68146" stop-opacity=".8"/></linearGradient><linearGradient id="B" x1="191.562" y1="55.367" x2="351.443" y2="103.688" gradientUnits="userSpaceOnUse"><stop stop-color="#F68146" stop-opacity=".3"/><stop offset="1" stop-color="#F68146" stop-opacity=".8"/></linearGradient><linearGradient id="C" x1="201.982" y1="56.252" x2="341.355" y2="97.975" gradientUnits="userSpaceOnUse"><stop stop-color="#F68146" stop-opacity=".3"/><stop offset="1" stop-color="#F68146" stop-opacity=".8"/></linearGradient><linearGradient id="D" x1="210.781" y1="57.466" x2="331.132" y2="94.652" gradientUnits="userSpaceOnUse"><stop stop-color="#F68146" stop-opacity=".3"/><stop offset="1" stop-color="#F68146" stop-opacity=".8"/></linearGradient><linearGradient id="E" x1="241.149" y1="20.224" x2="270.551" y2="106.418" gradientUnits="userSpaceOnUse"><stop stop-color="#1079B4"/><stop offset="1" stop-color="#21B3E4"/></linearGradient><linearGradient id="F" x1="249.645" y1="44.276" x2="321.124" y2="57.854" gradientUnits="userSpaceOnUse"><stop stop-color="#F68146" stop-opacity=".3"/><stop offset="1" stop-color="#F68146" stop-opacity=".8"/></linearGradient><linearGradient id="G" x1="253.842" y1="45.874" x2="312.23" y2="56.979" gradientUnits="userSpaceOnUse"><stop stop-color="#F68146" stop-opacity=".3"/><stop offset="1" stop-color="#F68146" stop-opacity=".8"/></linearGradient><linearGradient id="H" x1="218.249" y1="110.813" x2="237.703" y2="122.512" gradientUnits="userSpaceOnUse"><stop stop-color="#F68146" stop-opacity=".3"/><stop offset="1" stop-color="#F68146" stop-opacity=".8"/></linearGradient><linearGradient id="I" x1="81.616" y1="19.985" x2="152.005" y2="226.339" gradientUnits="userSpaceOnUse"><stop stop-color="#1079B4"/><stop offset="1" stop-color="#21B3E4"/></linearGradient><linearGradient id="J" x1="269.24" y1="49.385" x2="337.431" y2="249.297" gradientUnits="userSpaceOnUse"><stop stop-color="#1079B4"/><stop offset="1" stop-color="#21B3E4"/></linearGradient><filter id="L" x="146.717" y="217.375" width="119.177" height="35.783" filterUnits="userSpaceOnUse" color-interpolation-filters="sRGB"><feFlood flood-opacity="0" result="BackgroundImageFix"/><feColorMatrix in="SourceAlpha" values="0 0 0 0 0 0 0 0 0 0 0 0 0 0 0 0 0 0 127 0" result="hardAlpha"/><feOffset dy="4"/><feGaussianBlur stdDeviation="2"/><feComposite in2="hardAlpha" operator="out"/><feColorMatrix values="0 0 0 0 0 0 0 0 0 0 0 0 0 0 0 0 0 0 0.25 0"/><feBlend in2="BackgroundImageFix" result="effect1_dropShadow_1544_8229"/><feBlend in="SourceGraphic" in2="effect1_dropShadow_1544_8229" result="shape"/></filter><filter id="K" x="78.432" y="39.557" width="124.645" height="41.307" filterUnits="userSpaceOnUse" color-interpolation-filters="sRGB"><feFlood flood-opacity="0" result="BackgroundImageFix"/><feColorMatrix in="SourceAlpha" values="0 0 0 0 0 0 0 0 0 0 0 0 0 0 0 0 0 0 127 0" result="hardAlpha"/><feOffset dy="4"/><feGaussianBlur stdDeviation="2"/><feComposite in2="hardAlpha" operator="out"/><feColorMatrix values="0 0 0 0 0 0 0 0 0 0 0 0 0 0 0 0 0 0 0.25 0"/><feBlend in2="BackgroundImageFix" result="effect1_dropShadow_1544_8229"/><feBlend in="SourceGraphic" in2="effect1_dropShadow_1544_8229" result="shape"/></filter><clipPath id="a"><rect x="88" y="33" width="220" height="220" rx="37" fill="#fff"/></clipPath></defs></svg>