<svg width="70" height="70" fill="none" xmlns="http://www.w3.org/2000/svg"><path d="M35 70c19.33 0 35-15.67 35-35S54.33 0 35 0 0 15.67 0 35s15.67 35 35 35z" fill="url(#a)"/><path d="M54.61 16.38H15.39c-.77 0-1.39.62-1.39 1.38v26.57c0 1.22 1.61 1.39 3.2 1.39h12.14l-1.25 4.69h-2.17a.29.29 0 0 0-.23.1c-.07.06-.1.14-.09.23l.06 2.57c.01.17.14.31.32.31H44.1c.09 0 .17-.04.24-.1.06-.07.09-.15.09-.24l-.07-2.56c0-.18-.14-.31-.32-.31h-2.11l-1.31-4.69H52.8c1.58 0 3.2-.17 3.2-1.39V17.76c0-.76-.62-1.38-1.39-1.38zm-21.2 25.96c0-.88.72-1.59 1.59-1.59.87 0 1.6.72 1.6 1.59 0 .88-.72 1.6-1.6 1.6-.88 0-1.59-.72-1.59-1.6zm5.49 3.53 1.27 4.54H29.84l1.25-4.69h7.77l.04.15zm14.16-26.66v19.86H16.94V19.21h36.12z" fill="#fff"/><defs><linearGradient id="a" x1="-.265" y1="34.718" x2="70.115" y2="34.718" gradientUnits="userSpaceOnUse"><stop stop-color="#1079B4"/><stop offset="1" stop-color="#21B3E4"/></linearGradient></defs></svg>