<svg width="70" height="70" fill="none" xmlns="http://www.w3.org/2000/svg"><path d="M35.042 51.011a2.433 2.433 0 0 0 2.182-1.342c.176-.342.267-.72.265-1.105a2.464 2.464 0 0 0-3.44-2.447 2.463 2.463 0 0 0-1.47 2.447c0 .384.09.763.266 1.105a2.461 2.461 0 0 0 2.197 1.342zm4.305.81a5.396 5.396 0 0 1-8.625 0h-9.51a21.657 21.657 0 0 0 27.644 0h-9.51z" fill="url(#a)"/><path d="M53.25 33.615h3.436a21.628 21.628 0 0 0-5.293-12.782l-2.432 2.432a1.474 1.474 0 0 1-2.094 0 1.476 1.476 0 0 1 0-2.093l2.433-2.433a21.628 21.628 0 0 0-12.782-5.293v3.45a1.474 1.474 0 0 1-2.95 0v-3.45a21.51 21.51 0 0 0-12.767 5.308l2.433 2.418a1.475 1.475 0 0 1-1.047 2.535 1.474 1.474 0 0 1-1.047-.442l-2.432-2.418A21.51 21.51 0 0 0 13.4 33.615h3.45a1.474 1.474 0 1 1 0 2.948H13.4a21.673 21.673 0 0 0 4.88 12.281h11.367v-.294a5.425 5.425 0 0 1 5.426-5.426h.575L41.19 29.34a1.478 1.478 0 1 1 2.742 1.106l-5.602 13.829a5.47 5.47 0 0 1 2.093 4.29v.295h11.367a21.466 21.466 0 0 0 4.88-12.28h-3.435a1.474 1.474 0 1 1 0-2.95l.015-.014z" fill="url(#b)"/><path d="M35.044 0a35 35 0 1 0-.088 70 35 35 0 0 0 .088-70zm18.71 51.144a1.652 1.652 0 0 1-.266.294 24.606 24.606 0 0 1-36.858 0c-.1-.087-.189-.186-.265-.294a24.591 24.591 0 0 1 1.253-33.438 24.635 24.635 0 0 1 34.779 0 24.68 24.68 0 0 1 7.18 17.353 24.636 24.636 0 0 1-5.824 16.085z" fill="url(#c)"/><defs><linearGradient id="a" x1="21.108" y1="51.315" x2="48.902" y2="51.315" gradientUnits="userSpaceOnUse"><stop stop-color="#1079B4"/><stop offset="1" stop-color="#21B3E4"/></linearGradient><linearGradient id="b" x1="13.237" y1="31.01" x2="56.757" y2="31.01" gradientUnits="userSpaceOnUse"><stop stop-color="#1079B4"/><stop offset="1" stop-color="#21B3E4"/></linearGradient><linearGradient id="c" x1="-.265" y1="34.718" x2="70.115" y2="34.718" gradientUnits="userSpaceOnUse"><stop stop-color="#1079B4"/><stop offset="1" stop-color="#21B3E4"/></linearGradient></defs></svg>