<svg width="17" height="18" fill="none" xmlns="http://www.w3.org/2000/svg"><path d="M15.611 9.224a.865.865 0 0 1 0-1.142l1.107-1.246a.865.865 0 0 0 .104-1.012l-1.73-2.994a.865.865 0 0 0-.926-.415l-1.626.329a.865.865 0 0 1-.995-.571L11.017.59A.866.866 0 0 0 10.195 0h-3.46a.865.865 0 0 0-.866.589l-.485 1.583a.865.865 0 0 1-.995.57l-1.67-.328a.865.865 0 0 0-.865.415L.124 5.824a.865.865 0 0 0 .087 1.012l1.098 1.246a.865.865 0 0 1 0 1.142L.211 10.47a.865.865 0 0 0-.087 1.012l1.73 2.994a.865.865 0 0 0 .926.415l1.627-.329a.866.866 0 0 1 .995.571l.528 1.584a.865.865 0 0 0 .865.588h3.46a.865.865 0 0 0 .822-.588l.528-1.584a.865.865 0 0 1 .995-.57l1.627.328a.865.865 0 0 0 .925-.415l1.73-2.994a.866.866 0 0 0-.103-1.012l-1.168-1.246zm-1.29 1.16.693.778-1.107 1.92-1.021-.207a2.595 2.595 0 0 0-2.985 1.73l-.329.97H7.357l-.311-.987a2.595 2.595 0 0 0-2.985-1.73l-1.021.207-1.125-1.912.692-.778a2.596 2.596 0 0 0 0-3.461l-.692-.779 1.107-1.903 1.021.208a2.596 2.596 0 0 0 2.985-1.73l.33-.978h2.214l.329.986a2.596 2.596 0 0 0 2.985 1.73l1.02-.207 1.108 1.92-.692.779a2.595 2.595 0 0 0 0 3.443zM8.466 5.191a3.46 3.46 0 1 0 0 6.922 3.46 3.46 0 0 0 0-6.922zm0 5.191a1.73 1.73 0 1 1 0-3.46 1.73 1.73 0 0 1 0 3.46z" fill="#1079B4"/></svg>