<svg width="36" height="40" fill="none" xmlns="http://www.w3.org/2000/svg"><path d="m30.75 10.563 1.188-1.25.687.687c.188.188.375.25.625.25s.438-.063.625-.25a.802.802 0 0 0 .25-.625.802.802 0 0 0-.25-.625l-.625-.625-.625-.625-1.375-1.375a.802.802 0 0 0-.625-.25.802.802 0 0 0-.625.25.802.802 0 0 0-.25.625c0 .25.063.438.25.625l.688.688-1.188 1.25c-2.625-2.376-6-4-9.75-4.438V3.187h1.063A.694.694 0 0 0 21.5 2.5V.687A.694.694 0 0 0 20.812 0h-5.875a.694.694 0 0 0-.687.688V2.5c0 .375.313.688.688.688H16v1.624c-3.938.375-7.5 2-10.25 4.5L4.562 8.126l.688-.688a.802.802 0 0 0 .25-.625.802.802 0 0 0-.25-.625.802.802 0 0 0-.625-.25.802.802 0 0 0-.625.25l-.688.688-1.25 1.25-.687.688a.802.802 0 0 0-.25.624c0 .25.063.438.25.626.188.187.375.25.625.25s.438-.063.625-.25l.688-.688L4.5 10.563C1.687 13.687 0 17.813 0 22.374 0 32.125 7.875 40 17.625 40S35.25 32.125 35.25 22.375c0-4.563-1.688-8.688-4.5-11.813zM17.625 36.374c-7.75 0-14-6.25-14-14s6.25-14 14-14 14 6.25 14 14-6.25 14-14 14z" fill="#1079B4"/><path d="M20.125 22.438a2.775 2.775 0 0 0-.688-.5c-.25-.125-.5-.25-.812-.375-.25-.125-.5-.188-.813-.313a2.31 2.31 0 0 1-.687-.313c-.188-.125-.375-.25-.5-.375a1.008 1.008 0 0 1-.188-.562c0-.125 0-.313.063-.375.063-.125.125-.25.25-.313.125-.062.25-.187.438-.187.187-.063.375-.063.625-.063s.562.063.75.125c.25.063.437.125.625.188.187.063.312.125.437.188.125.062.188.125.25.125h.063s.062-.063.062-.125c0-.063.063-.125.063-.25v-.938c0-.063 0-.125-.063-.125 0-.063-.063-.063-.125-.125-.063-.063-.125-.063-.25-.125-.125-.063-.25-.125-.375-.125-.125-.063-.25-.063-.438-.125-.125-.063-.312-.063-.437-.063l.125-1.375v-.125c0-.062-.063-.062-.125-.125-.063 0-.125-.062-.25-.062h-.688c-.062 0-.125 0-.187.063-.063 0-.063.062-.125.062 0 0 0 .063-.063.125l-.125 1.5c-.437.063-.812.125-1.125.313a2.622 2.622 0 0 0-.874.562c-.25.25-.376.5-.5.813a2.591 2.591 0 0 0-.188 1c0 .375.063.75.188 1.062.124.313.25.5.5.75.187.188.437.375.687.5l.75.375c.25.125.5.188.75.313.25.062.5.187.688.312.187.125.375.25.5.375s.187.375.187.563c0 .375-.125.625-.438.875-.25.187-.687.312-1.25.312-.375 0-.687-.063-.937-.125-.25-.063-.5-.125-.688-.25-.187-.063-.374-.188-.5-.25-.124-.063-.187-.125-.25-.125-.062 0-.062 0-.124.063-.063 0-.063.062-.063.125 0 .062-.063.125-.063.25V26c0 .188 0 .375.063.5 0 .125.063.188.125.25a.863.863 0 0 0 .25.188l.375.187c.125.063.313.125.5.125.188.063.375.063.625.125l-.125 1.5V29c0 .063.063.063.125.125.063 0 .125.063.25.063h.688c.062 0 .125 0 .187-.063.063 0 .063-.063.125-.063 0 0 0-.062.063-.125l.125-1.562c.5-.063.875-.125 1.312-.25a3.17 3.17 0 0 0 1-.563c.25-.25.5-.562.625-.875.125-.312.25-.687.25-1.125 0-.375-.063-.75-.188-1-.062-.687-.187-.937-.437-1.125zm-2.5-10.375a.827.827 0 0 0 .813-.813V9.875a.827.827 0 0 0-.813-.813.827.827 0 0 0-.813.813v1.375c0 .438.375.813.813.813zM6.5 21.5H5.125a.827.827 0 0 0-.813.813c0 .437.375.812.813.812H6.5a.827.827 0 0 0 .813-.813.827.827 0 0 0-.813-.812zm11.125 11.188a.827.827 0 0 0-.813.812v1.375c0 .438.375.813.813.813a.827.827 0 0 0 .813-.813V33.5c0-.5-.375-.813-.813-.813zm12.5-11.188H28.75a.827.827 0 0 0-.813.813c0 .437.375.812.813.812h1.375a.827.827 0 0 0 .813-.813c.062-.437-.313-.812-.813-.812z" fill="#21B3E4"/></svg>