<svg width="40" height="40" fill="none" xmlns="http://www.w3.org/2000/svg"><path fill-rule="evenodd" clip-rule="evenodd" d="M7.738 0h2.857c1.002 0 1.81 0 2.468.045.676.046 1.274.143 1.84.378a5.555 5.555 0 0 1 3.007 3.006c.235.567.332 1.165.378 1.841.045.658.045 1.466.045 2.468v2.857c0 1.002 0 1.81-.044 2.468-.047.676-.144 1.274-.379 1.84a5.555 5.555 0 0 1-3.006 3.007c-.566.235-1.165.332-1.841.378-.658.045-1.466.045-2.468.045H7.738c-1.002 0-1.81 0-2.468-.044-.676-.047-1.274-.144-1.84-.379a5.555 5.555 0 0 1-3.007-3.006c-.235-.566-.332-1.165-.378-1.841C0 12.405 0 11.597 0 10.595V7.738c0-1.002 0-1.81.045-2.468.046-.676.143-1.274.378-1.84A5.556 5.556 0 0 1 3.429.422C3.997.188 4.595.09 5.27.045 5.928 0 6.736 0 7.738 0zM5.422 2.262c-.564.038-.892.11-1.142.214A3.334 3.334 0 0 0 2.476 4.28c-.104.25-.176.578-.214 1.142-.04.573-.04 1.305-.04 2.356v2.778c0 1.05 0 1.783.04 2.356.038.563.11.891.214 1.141a3.333 3.333 0 0 0 1.804 1.804c.25.104.578.176 1.142.214.573.04 1.305.04 2.356.04h2.778c1.05 0 1.783 0 2.356-.04.563-.038.891-.11 1.141-.214a3.333 3.333 0 0 0 1.804-1.804c.104-.25.176-.578.214-1.141.04-.574.04-1.306.04-2.356V7.778c0-1.05 0-1.783-.04-2.356-.038-.564-.11-.892-.214-1.142a3.333 3.333 0 0 0-1.804-1.804c-.25-.104-.578-.176-1.141-.214-.574-.04-1.306-.04-2.356-.04H7.778c-1.05 0-1.783 0-2.356.04z" fill="#1079B4"/><path fill-rule="evenodd" clip-rule="evenodd" d="M7.738 21.667h2.857c1.002 0 1.81 0 2.468.044.676.047 1.274.144 1.84.379a5.555 5.555 0 0 1 3.007 3.006c.235.567.332 1.165.378 1.841.045.658.045 1.466.045 2.468v2.857c0 1.002 0 1.81-.044 2.468-.047.676-.144 1.274-.379 1.84a5.555 5.555 0 0 1-3.006 3.007c-.566.235-1.165.332-1.841.378-.658.045-1.466.045-2.468.045H7.738c-1.002 0-1.81 0-2.468-.045-.676-.046-1.274-.143-1.84-.378a5.556 5.556 0 0 1-3.007-3.006C.188 36.004.09 35.406.045 34.73 0 34.072 0 33.264 0 32.262v-2.857c0-1.002 0-1.81.045-2.468.046-.676.143-1.274.378-1.84a5.555 5.555 0 0 1 3.006-3.007c.567-.235 1.165-.332 1.841-.378.658-.045 1.466-.045 2.468-.045zm-2.316 2.262c-.564.038-.892.11-1.142.214a3.333 3.333 0 0 0-1.804 1.804c-.104.25-.176.578-.214 1.141-.04.573-.04 1.306-.04 2.356v2.778c0 1.05 0 1.783.04 2.356.038.564.11.892.214 1.142a3.334 3.334 0 0 0 1.804 1.804c.25.104.578.176 1.142.214.573.04 1.305.04 2.356.04h2.778c1.05 0 1.783 0 2.356-.04.563-.038.891-.11 1.141-.214a3.334 3.334 0 0 0 1.804-1.804c.104-.25.176-.578.214-1.142.04-.573.04-1.305.04-2.356v-2.778c0-1.05 0-1.782-.04-2.356-.038-.563-.11-.891-.214-1.141a3.333 3.333 0 0 0-1.804-1.804c-.25-.104-.578-.176-1.141-.214-.574-.04-1.306-.04-2.356-.04H7.778c-1.05 0-1.783 0-2.356.04zM29.405 0h2.857c1.002 0 1.81 0 2.468.045.676.046 1.274.143 1.84.378a5.556 5.556 0 0 1 3.007 3.006c.235.567.332 1.165.378 1.841C40 5.928 40 6.736 40 7.738v2.857c0 1.002 0 1.81-.045 2.468-.046.676-.143 1.274-.378 1.84a5.555 5.555 0 0 1-3.006 3.007c-.567.235-1.165.332-1.841.378-.658.045-1.466.045-2.468.045h-2.857c-1.002 0-1.81 0-2.468-.044-.676-.047-1.274-.144-1.84-.379a5.555 5.555 0 0 1-3.007-3.006c-.235-.566-.332-1.165-.378-1.841-.045-.658-.045-1.466-.045-2.468V7.738c0-1.002 0-1.81.044-2.468.047-.676.144-1.274.379-1.84A5.555 5.555 0 0 1 25.096.422c.567-.235 1.165-.332 1.841-.378C27.595 0 28.403 0 29.405 0zm-2.317 2.262c-.563.038-.891.11-1.141.214a3.333 3.333 0 0 0-1.804 1.804c-.104.25-.176.578-.214 1.142-.04.573-.04 1.305-.04 2.356v2.778c0 1.05 0 1.783.04 2.356.038.563.11.891.214 1.141a3.333 3.333 0 0 0 1.804 1.804c.25.104.578.176 1.141.214.573.04 1.306.04 2.356.04h2.778c1.05 0 1.783 0 2.356-.04.564-.038.892-.11 1.142-.214a3.334 3.334 0 0 0 1.804-1.804c.104-.25.176-.578.214-1.141.04-.574.04-1.306.04-2.356V7.778c0-1.05 0-1.783-.04-2.356-.038-.564-.11-.892-.214-1.142a3.334 3.334 0 0 0-1.804-1.804c-.25-.104-.578-.176-1.142-.214-.573-.04-1.305-.04-2.356-.04h-2.778c-1.05 0-1.782 0-2.356.04z" fill="#21B3E4"/><path fill-rule="evenodd" clip-rule="evenodd" d="M29.405 21.667h2.857c1.002 0 1.81 0 2.468.045.676.046 1.275.143 1.84.378a5.555 5.555 0 0 1 3.007 3.006c.235.567.332 1.165.379 1.841.044.658.044 1.466.044 2.468v2.857c0 1.002 0 1.81-.044 2.468-.047.676-.144 1.275-.379 1.84a5.555 5.555 0 0 1-3.006 3.007c-.566.235-1.165.332-1.841.379-.658.044-1.466.044-2.468.044h-2.857c-1.002 0-1.81 0-2.468-.044-.676-.047-1.274-.144-1.84-.379a5.555 5.555 0 0 1-3.007-3.006c-.235-.566-.332-1.165-.378-1.841-.045-.658-.045-1.466-.045-2.468v-2.857c0-1.002 0-1.81.045-2.468.046-.676.143-1.274.378-1.84a5.555 5.555 0 0 1 3.006-3.007c.567-.235 1.165-.332 1.841-.378.658-.045 1.466-.045 2.468-.045zm-2.316 2.262c-.564.038-.892.11-1.142.214a3.334 3.334 0 0 0-1.804 1.804c-.104.25-.176.578-.214 1.142-.04.573-.04 1.305-.04 2.356v2.778c0 1.05 0 1.782.04 2.356.038.563.11.891.214 1.141a3.333 3.333 0 0 0 1.804 1.804c.25.104.578.176 1.142.214.573.04 1.305.04 2.356.04h2.778c1.05 0 1.782 0 2.356-.04.563-.038.891-.11 1.141-.214a3.333 3.333 0 0 0 1.804-1.804c.104-.25.176-.578.214-1.141.04-.574.04-1.306.04-2.356v-2.778c0-1.05 0-1.783-.04-2.356-.038-.564-.11-.892-.214-1.142a3.333 3.333 0 0 0-1.804-1.804c-.25-.104-.578-.176-1.141-.214-.574-.04-1.306-.04-2.356-.04h-2.778c-1.05 0-1.783 0-2.356.04z" fill="#1079B4"/></svg>