<svg width="40" height="40" fill="none" xmlns="http://www.w3.org/2000/svg"><path fill-rule="evenodd" clip-rule="evenodd" d="M10.556 5.555c.613 0 1.11.497 1.11 1.11v7.779a1.111 1.111 0 0 1-2.221 0V6.666c0-.614.497-1.111 1.11-1.111z" fill="#21B3E4"/><path fill-rule="evenodd" clip-rule="evenodd" d="M5.555 10.556c0-.614.498-1.112 1.112-1.112h7.777a1.111 1.111 0 0 1 0 2.223H6.667a1.111 1.111 0 0 1-1.112-1.111z" fill="#21B3E4"/><path fill-rule="evenodd" clip-rule="evenodd" d="M0 5.556A5.556 5.556 0 0 1 5.556 0H21.11v21.111H0V5.556zm5.556-3.334a3.333 3.333 0 0 0-3.334 3.334v13.333H18.89V2.222H5.556z" fill="#1079B4"/><path fill-rule="evenodd" clip-rule="evenodd" d="M0 34.444A5.556 5.556 0 0 0 5.556 40H21.11V18.889H0v15.555zm5.556 3.333a3.333 3.333 0 0 1-3.334-3.333V21.111H18.89v16.666H5.556z" fill="#1079B4"/><path fill-rule="evenodd" clip-rule="evenodd" d="M14.091 25.908a1.111 1.111 0 0 1 0 1.572l-5.5 5.5a1.111 1.111 0 0 1-1.57-1.572l5.499-5.5a1.111 1.111 0 0 1 1.571 0z" fill="#21B3E4"/><path fill-rule="evenodd" clip-rule="evenodd" d="M7.02 25.908a1.111 1.111 0 0 1 1.571 0l5.5 5.5a1.111 1.111 0 0 1-1.571 1.572l-5.5-5.5a1.111 1.111 0 0 1 0-1.572zm27.424 1.548c0 .614-.497 1.111-1.11 1.111h-7.779a1.111 1.111 0 0 1 0-2.222h7.778c.614 0 1.111.497 1.111 1.111zm0 3.977c0 .613-.497 1.11-1.11 1.11h-7.779a1.111 1.111 0 0 1 0-2.221h7.778c.614 0 1.111.497 1.111 1.11z" fill="#21B3E4"/><path fill-rule="evenodd" clip-rule="evenodd" d="M40 34.444A5.556 5.556 0 0 1 34.444 40H18.89V18.889h21.11v15.555zm-5.556 3.333a3.333 3.333 0 0 0 3.333-3.333V21.111H21.111v16.666h13.333z" fill="#1079B4"/><path fill-rule="evenodd" clip-rule="evenodd" d="M34.444 10.556c0-.614-.497-1.112-1.11-1.112h-7.779a1.111 1.111 0 0 0 0 2.223h7.778c.614 0 1.111-.498 1.111-1.111z" fill="#21B3E4"/><path fill-rule="evenodd" clip-rule="evenodd" d="M40 5.556A5.556 5.556 0 0 0 34.444 0H18.89v21.111h21.11V5.556zm-5.556-3.334a3.333 3.333 0 0 1 3.333 3.334v13.333H21.111V2.222h13.333z" fill="#1079B4"/></svg>