<svg width="45" height="40" fill="none" xmlns="http://www.w3.org/2000/svg"><path d="M39.604 18.01h-1.258v1.257h1.258v-1.258zM5.615 18.01H4.358v1.257h1.257v-1.258z" fill="#21B3E4"/><path d="M44.053 27.692c0-1.437-.431-2.84-1.28-4.172a5.38 5.38 0 0 0 .063-.82c0-7.775-4.074-14.972-10.634-18.783a20.07 20.07 0 0 0-8.102-2.64A2.094 2.094 0 0 0 22.174 0h-.386c-1.153 0-2.091.938-2.091 2.09V16.9h-.538v3.096h-1.697c-1.064 0-1.93.865-1.93 1.93v1.696h-3.095v.698c-1.7-.354-3.218-.799-4.524-1.32a15.378 15.378 0 0 0 9.87-14.368c0-1.868-.329-3.684-.978-5.409.53-.151 1.068-.282 1.617-.388L18.17 1.54C9.514 3.22 2.95 10.33 1.512 19.081l-.058.059.035.085a22.323 22.323 0 0 0-.272 3.476c0 .278.022.55.063.82C.43 24.851 0 26.255 0 27.691c0 3.364 2.345 6.495 6.602 8.816C10.733 38.76 16.211 40 22.027 40c5.815 0 11.293-1.24 15.424-3.492 4.257-2.321 6.602-5.452 6.602-8.816zM28.43 29.267h3.094v-.532c4.437-.874 7.687-2.304 9.538-4.157-1.6 3.157-7.175 4.982-12.632 5.702v-1.013zm-1.93-9.271h-1.697V16.9h-.538V2.624c1.01.12 2.003.318 2.972.596a15.282 15.282 0 0 0-.98 5.412 15.375 15.375 0 0 0 9.886 14.373l-.25.098.47 1.232c2.305-.88 4.009-1.963 5.091-3.23l.015.175h-.003c-.492 2.707-4.1 4.915-9.942 6.11v-1.705a32.87 32.87 0 0 0 3.358-.84l-.392-1.259a31.1 31.1 0 0 1-2.966.753v-.716H28.43v-1.698c0-1.064-.866-1.93-1.93-1.93zm1.93 4.946h1.775v3.006H28.43v-3.006zm12.768-5.867c-.507 1.157-1.633 2.216-3.301 3.118a14.054 14.054 0 0 1-10.321-13.56c0-1.73.309-3.41.917-5.004a19.08 19.08 0 0 1 3.047 1.428c5.12 2.975 8.624 8.154 9.658 14.018zM21.016 2.091c0-.426.346-.772.772-.772h.386c.425 0 .771.346.771.772V16.9h-1.93V2.091h.001zm-.538 16.129h3.006v1.776h-3.006V18.22zm-3.627 3.705c0-.336.274-.61.61-.61H26.5c.337 0 .61.274.61.61v9.039c0 .336-.273.61-.61.61h-9.038a.611.611 0 0 1-.611-.61v-9.039zm-3.095 3.017h1.776v3.006h-1.776v-3.006zm-1.319 2.424c-5.69-1.181-9.251-3.342-9.813-5.987a2.394 2.394 0 0 1-.03-.153h-.007l.01-.138c1.76 2.05 5.158 3.642 9.84 4.58v1.698zM15.55 3.631c.607 1.594.916 3.273.916 5.001a14.057 14.057 0 0 1-10.3 13.557C4.671 21.38 3.6 20.448 3.03 19.427l.019-.019-.196-.353C4.106 11.947 8.958 6.03 15.55 3.631zm21.27 31.719c-3.94 2.148-9.193 3.331-14.792 3.331-5.6 0-10.853-1.183-14.794-3.331C3.42 33.27 1.32 30.55 1.32 27.692c0-.828.178-1.648.528-2.449.46.875 1.167 1.687 2.124 2.427l.18.138.04.029.08.059.121.086.243.165c.564.375 1.202.73 1.895 1.058l.562-1.194a13.588 13.588 0 0 1-1.936-1.105l-.105-.074a9.84 9.84 0 0 0-.09-.066l-.023-.017-.159-.12c-.832-.645-1.434-1.342-1.804-2.085 1.833 1.854 5.061 3.288 9.462 4.168v.555h3.095v1c-2.388-.326-4.814-.884-6.755-1.56l-.434 1.245c2.1.732 4.737 1.33 7.303 1.66a1.93 1.93 0 0 0 1.815 1.281H26.5c.831 0 1.54-.53 1.81-1.268 7.289-.904 12.215-3.212 13.891-6.391a6.07 6.07 0 0 1 .533 2.458c0 2.86-2.1 5.579-5.915 7.658z" fill="#1079B4"/><path d="M21.98 30.789a4.349 4.349 0 0 0 4.345-4.344A4.349 4.349 0 0 0 21.98 22.1a4.349 4.349 0 0 0-4.344 4.344 4.349 4.349 0 0 0 4.344 4.344zm0-7.37a3.029 3.029 0 0 1 3.026 3.026 3.028 3.028 0 0 1-3.025 3.025 3.029 3.029 0 0 1-3.025-3.025 3.029 3.029 0 0 1 3.025-3.026z" fill="#21B3E4"/><path d="M21.98 28.227c.983 0 1.783-.8 1.783-1.782 0-.983-.8-1.783-1.782-1.783-.983 0-1.782.8-1.782 1.783 0 .982.8 1.782 1.782 1.782zm0-2.246a.464.464 0 1 1 0 .928.464.464 0 0 1 0-.928z" fill="#21B3E4"/></svg>