<svg width="811" height="900" fill="none" xmlns="http://www.w3.org/2000/svg"><g opacity=".5"><path d="M665.812 773.768c-8.585 0-17.17-1.292-24.835-3.876-24.222-8.012-43.232-27.008-50.897-50.913-2.913-9.175-4.293-18.737-5.519-28.171-2.607-18.349-4.906-35.535-18.704-47.036-6.898-5.815-16.25-9.562-26.215-13.439-9.505-3.747-19.47-7.624-27.901-13.826-19.163-14.085-24.223-33.339-28.975-51.947-2.606-9.692-4.906-18.866-9.198-27.266-3.986-7.882-10.425-14.085-17.171-20.675-11.344-11.113-24.222-23.647-23.149-44.452 1.227-23.518 20.39-45.615 46.758-53.626 12.878-3.877 26.522-4.523 39.553-5.04 14.564-.646 28.362-1.163 40.013-6.203 15.944-6.719 26.368-20.804 36.333-34.502 1.38-1.809 2.76-3.747 4.14-5.556 11.497-15.248 26.368-23.647 40.779-31.788 11.038-6.203 21.309-12.018 30.354-20.676 13.644-13.309 28.975-34.76 24.069-61.767-.306-1.292-.46-2.584-.766-4.006-1.533-7.624-3.373-16.152.613-24.552 7.665-16.282 19.47-19.641 28.055-19.641 25.295 0 50.284 29.591 57.336 38.637 8.432 10.854 14.41 21.45 15.79 28.17 5.979 27.911-1.686 56.081-9.811 79.858-2.606 7.883-4.906 16.799-7.359 26.232-8.125 31.917-17.323 67.97-47.984 86.448-11.345 6.72-24.223 10.08-36.64 13.31-10.425 2.714-20.39 5.298-28.975 9.692-22.076 11.242-33.727 35.406-26.982 56.469.613 1.68 1.227 3.36 1.84 5.169 1.993 5.298 4.292 11.242 3.832 17.703-.766 10.209-8.125 18.091-14.564 25.069-3.832 4.135-7.358 7.882-9.658 12.018-7.665 13.697.46 30.496 12.418 39.929 11.651 9.304 28.821 15.248 52.124 18.349 3.986.517 8.125.905 12.264 1.421 11.038 1.163 22.536 2.326 33.574 5.428 18.857 5.169 32.654 15.377 38.173 27.911 3.526 8.271 2.76 17.962-1.993 25.974-4.139 6.848-10.885 11.759-19.01 13.697-3.066.775-5.979 1.034-8.585 1.292-2.913.259-5.519.517-7.512 1.293-3.986 1.421-6.899 5.298-9.965 9.433-1.226 1.68-2.453 3.359-3.986 4.91-11.344 12.793-30.507 20.546-51.664 20.546z" stroke="url(#a)" stroke-miterlimit="10"/><path d="M774.05 247.065c-20.389-26.103-56.109-53.885-71.9-20.029-3.679 7.882-.92 16.669.613 25.068 4.599 25.199-6.439 48.2-25.908 66.937-21.923 21.192-51.511 26.49-70.367 51.688-12.112 16.023-23.456 33.856-43.539 42.384-24.529 10.338-54.73 3.748-80.485 11.63-23.456 7.107-40.626 26.878-41.699 47.812-1.533 29.333 27.901 39.283 39.706 62.284 13.031 25.328 9.658 57.374 36.18 76.887 15.944 11.759 39.399 14.86 54.423 27.524 23.149 19.383 17.63 51.43 26.215 78.049 6.439 20.288 23.149 38.895 46.298 46.519 23.15 7.624 52.584 2.456 67.301-14.602 5.213-5.944 9.045-13.568 17.017-16.54 5.366-1.938 11.498-1.55 17.171-2.843 14.564-3.489 21.156-19.254 15.943-31.271-5.212-12.018-19.01-20.029-33.267-23.906-14.411-4.006-29.588-4.652-44.612-6.59-20.389-2.585-41.086-8.012-56.109-20.029-15.024-11.889-22.843-31.659-14.105-47.424 6.746-12.276 22.383-21.322 23.456-34.761.613-7.107-3.219-13.826-5.366-20.804-7.665-23.648 5.519-51.042 30.355-63.706 20.236-10.208 45.991-11.242 65.155-22.743 37.099-22.226 40.779-75.077 52.43-109.062 8.585-25.069 15.024-51.301 9.658-77.016-1.073-5.556-6.592-15.377-14.564-25.456z" stroke="url(#b)" stroke-miterlimit="10"/><path d="M665.816 754.385c-5.672 0-11.497-.904-16.556-2.584-17.171-5.686-31.428-20.159-37.1-37.862-2.453-7.753-3.68-16.282-4.906-25.327-2.76-19.771-5.826-42.255-25.295-58.537-9.812-8.27-21.923-12.922-32.654-17.186-8.432-3.36-16.557-6.461-22.536-10.855-13.491-9.821-17.171-24.552-21.616-41.48-2.607-10.208-5.366-20.675-10.578-30.754-5.366-10.596-13.645-18.608-20.85-25.715-11.651-11.372-18.243-18.479-17.63-31.013.766-15.636 14.104-30.884 31.581-36.182 9.658-2.972 21.003-3.489 32.96-4.006 16.251-.646 33.114-1.421 49.211-8.27 21.616-9.175 34.341-26.361 45.532-41.609 1.38-1.809 2.606-3.618 3.986-5.427 8.892-11.759 20.543-18.35 34.187-25.974 11.805-6.59 23.916-13.439 34.954-24.035 24.222-23.518 34.493-50.267 29.434-77.403l-.92-4.264c-1.226-5.557-2.299-10.855-.766-14.085.766-1.809 3.679-7.495 6.745-7.495 7.359 0 23.609 11.113 38.173 29.85 7.972 10.338 11.805 18.22 12.418 20.934 5.059 23.905-1.84 49.362-9.198 71.071-2.913 8.529-5.213 17.703-7.666 27.524-7.205 28.429-15.483 60.605-38.786 74.69-8.278 4.91-18.856 7.753-30.201 10.596-11.344 2.972-22.996 5.944-34.034 11.5-19.163 9.692-32.807 26.361-37.866 44.711-2.453 9.174-3.219 19.512-.767 28.816 3.067 10.984 4.446 23.389-.919 34.502-6.286 13.051-19.47 19.771-20.083 35.148-.614 16.54 8.278 32.693 22.536 43.935 15.177 12.147 36.333 19.771 64.388 23.389 4.292.517 8.738 1.034 12.877 1.421 10.425 1.034 20.237 2.068 29.282 4.652 11.804 3.231 20.696 9.304 23.609 16.153 1.379 3.23 1.073 7.236-.92 10.467-.767 1.163-2.3 3.23-4.906 3.876a35.23 35.23 0 0 1-4.906.646c-3.986.388-9.045.905-14.257 2.843-10.272 3.877-15.637 10.984-20.083 16.67-1.073 1.421-2.146 2.843-3.22 4.006-6.592 7.882-18.856 12.663-32.654 12.663z" stroke="#8C8C8C" stroke-width="2" stroke-miterlimit="10"/><path d="M658.909 454.852c-7.972 0-15.178-1.68-22.536-3.489l-17.63-4.394c-3.22-.775-10.578-2.584-15.024-8.787-4.906-6.849-3.68-15.506 3.219-23.26 7.359-8.011 16.25-13.439 24.989-18.737 7.205-4.393 13.951-8.399 18.55-13.439 3.373-3.618 6.132-8.14 8.891-13.051 2.913-4.91 5.826-9.95 9.965-14.86 8.126-9.821 22.076-15.636 37.1-15.636 5.059 0 9.965.646 14.411 1.938 10.578 2.972 18.243 9.304 21.156 17.187 2.146 5.815 2.606 15.248-7.205 26.232-3.526 3.876-7.052 7.494-10.425 10.854-7.205 7.236-13.491 13.439-17.783 21.58-.767 1.292-1.38 2.584-2.147 4.006-6.132 11.888-13.797 26.748-32.654 32.046-3.832 1.163-8.278 1.81-12.877 1.81z" stroke="url(#c)" stroke-miterlimit="10"/><path d="M716.093 353.543c-10.731-3.102-26.061-.776-34.187 8.916-7.512 9.045-11.344 19.9-19.469 28.558-11.958 12.792-31.581 19.124-43.386 32.046-2.299 2.455-4.292 5.944-2.299 8.529 1.226 1.809 3.986 2.584 6.285 3.101 5.826 1.422 11.805 2.843 17.63 4.394 8.585 2.196 17.937 4.264 26.522 1.809 13.951-4.006 19.47-17.704 25.602-29.075 7.512-14.085 19.316-23.001 29.895-34.89 10.578-11.759 4.292-20.287-6.593-23.388z" stroke="url(#d)" stroke-miterlimit="10"/><path d="M658.914 435.468c-9.659.647-20.697-3.359-29.895-5.039-1.686-.259-3.679-.775-4.292-2.197-.767-1.68 1.226-3.36 2.912-4.523 13.645-9.045 30.048-17.186 40.933-28.687 4.906-5.168 8.278-10.854 11.498-16.411 2.606-4.393 5.059-8.657 8.278-12.405 5.519-6.59 29.588-13.18 31.581-.646.767 4.91-3.986 9.175-8.125 12.793-11.804 10.338-21.463 22.355-28.515 35.406-3.066 5.686-5.672 11.759-10.731 16.282-3.986 3.618-8.739 5.04-13.644 5.427z" stroke="url(#e)" stroke-miterlimit="10"/><path d="M596.056 509.641c-11.344-20.417-105.933-83.993-109.459-32.434-.92 13.568 12.264 24.681 16.097 37.862 2.606 8.528 1.073 17.574 2.453 26.361 2.146 14.343 13.95 33.597 24.528 44.968 4.906 5.298 12.571 9.046 20.39 8.012 19.776-2.584 15.177-20.934 21.309-31.917 7.052-12.406 25.142-19.383 28.822-33.339 1.686-6.591-.767-13.439-4.14-19.513z" stroke="url(#f)" stroke-miterlimit="10"/><path d="M547.464 588.078c-3.986 0-8.585-2.197-11.805-5.686-9.658-10.467-21.003-28.687-22.996-41.738-.46-3.231-.613-6.59-.613-10.079-.153-5.557-.306-11.242-1.993-17.057-1.839-5.945-5.059-11.372-8.278-16.541-4.14-6.719-8.125-13.051-7.666-19.383.92-13.697 8.739-13.697 12.571-13.697 25.449 0 74.813 34.76 82.479 48.458 3.526 6.331 4.599 11.242 3.526 15.377-1.533 6.073-7.359 10.854-13.338 16.023-5.519 4.652-11.191 9.563-14.87 15.894-2.3 4.136-3.373 8.787-4.293 13.181-2.146 10.079-3.679 14.085-11.345 15.119-.459.129-.919.129-1.379.129z" stroke="url(#g)" stroke-miterlimit="10"/><path d="M545.168 571.279c-6.745 1.034-13.49-9.691-14.87-13.826-2.453-7.108-1.38-14.602-1.38-21.968 0-16.282-5.212-32.564-14.717-46.778-1.38-2.067-2.913-4.135-3.373-6.461-.46-2.326.46-5.039 2.913-6.202 3.679-1.81 7.972.516 11.191 2.842 12.111 8.271 24.069 16.67 36.18 24.94 6.439 4.523 13.491 9.692 14.411 16.669.92 6.461-3.526 12.664-8.892 17.445-5.365 4.781-11.651 8.787-15.944 14.214-2.299 2.973-3.985 6.72-3.985 10.338 0 3.231 3.832 7.883-1.227 8.787h-.307z" stroke="#8C8C8C" stroke-miterlimit="10"/><path d="M544.089 538.328a1.05 1.05 0 0 1-.92-.517c-.153-.388.153-.905.306-1.422 1.534-2.713-.153-6.719-.766-9.562-.767-3.101-1.84-6.202-2.76-9.304-.766-2.584-1.686-5.169-1.993-7.882-.153-1.163-.613-3.36.767-4.265.153 0 .153-.129.307-.129 3.219-1.163 7.052 2.714 8.738 4.523 1.073 1.163 1.993 2.455 3.066 3.489 1.686 1.68 3.679 2.972 5.519 4.393 1.38 1.034 3.526 2.585 3.833 4.265.153.775-.767 3.23-4.753 6.978-1.533 1.292-3.066 2.584-4.906 4.005-1.839 1.422-2.606 3.36-4.445 4.652-.46.259-.92.517-1.38.647a1.34 1.34 0 0 1-.613.129z" stroke="url(#h)" stroke-miterlimit="10"/><path d="M855.141 737.586c-16.25 0-33.573-9.045-43.845-23.001-7.512-10.079-11.345-21.192-15.177-32.047-1.38-4.005-2.913-8.011-4.446-12.017-6.592-16.411-15.944-27.136-27.748-31.659-5.213-2.068-11.345-2.972-18.55-2.972-7.819 0-15.791 1.034-24.222 2.197-4.293.516-8.892 1.162-13.338 1.55-3.219.259-6.592.517-9.812.517-25.755 0-44.305-8.916-49.824-23.906-4.599-12.405 1.687-25.069 6.899-33.597a143.199 143.199 0 0 1 3.986-6.332c6.132-9.691 11.958-18.866 12.264-28.428.154-2.714-.306-5.686-.613-8.658-.613-4.652-1.226-9.563-.307-14.731 3.68-20.934 30.048-32.822 54.577-35.278 2.913-.258 5.979-.646 8.739-.904 12.724-1.422 24.835-2.585 35.873-2.585 31.581 0 50.591 11.243 63.162 37.733 3.219 6.59 5.672 13.439 8.125 20.029 3.373 8.787 6.439 17.186 10.885 25.069 11.651 20.675 33.42 39.283 63.008 54.014 2.3 1.163 4.599 2.197 6.899 3.36 14.411 6.978 29.281 14.085 38.48 26.619 6.745 9.304 7.818 22.485 2.606 32.564-4.139 7.882-11.345 13.18-20.543 14.86-2.3.388-4.753.646-7.512.646-1.533 0-3.066 0-4.599-.129-1.38 0-2.607-.129-3.986-.129-1.073 0-2.146 0-2.913.129-10.118.905-18.09 8.27-26.522 16.153-8.892 8.27-18.243 16.928-31.734 20.029-3.219.517-6.439.904-9.812.904z" stroke="url(#i)" stroke-miterlimit="10"/><path d="M953.717 655.79c-9.505-13.051-26.982-20.029-42.772-27.783-27.595-13.697-52.43-32.434-66.075-56.727-8.125-14.602-12.111-30.496-19.316-45.486-19.776-41.351-53.197-34.89-99.802-30.108-21.156 2.196-44.765 12.017-47.831 29.85-1.38 7.494 1.226 14.989.92 22.613-.46 13.568-9.812 25.586-17.17 37.603-5.366 8.917-9.965 19.125-6.439 28.687 5.979 16.411 31.274 20.934 51.51 18.867 20.237-1.939 41.699-7.366 60.249-.259 16.404 6.332 25.909 20.934 31.735 35.407 5.825 14.472 9.351 29.72 18.856 42.642 9.658 12.922 27.748 23.002 45.225 18.996 24.069-5.428 34.647-33.985 59.483-36.311 6.132-.517 12.417.646 18.396-.388 17.937-2.972 22.536-24.552 13.031-37.603z" stroke="url(#j)" stroke-miterlimit="10"/><path d="M855.136 718.203c-8.278 0-18.243-5.685-24.375-13.826-5.826-7.753-9.198-17.316-12.724-27.266-1.533-4.135-2.913-8.399-4.753-12.663-8.738-21.71-22.229-36.182-40.012-43.031-8.279-3.23-17.477-4.781-28.055-4.781-9.505 0-18.857 1.292-27.902 2.455-4.292.517-8.432 1.163-12.418 1.551a65.304 65.304 0 0 1-7.205.387c-11.191 0-25.142-2.713-27.901-10.208-1.534-4.264.153-10.338 5.365-18.995 1.227-1.939 2.453-4.006 3.833-5.945 6.899-10.725 14.564-22.872 15.024-37.086.153-4.006-.307-7.882-.767-11.242-.46-3.618-.92-7.107-.46-9.821 1.38-7.753 13.644-16.799 34.494-18.995 3.066-.259 5.979-.646 8.892-.905 12.571-1.292 23.455-2.455 33.114-2.455 19.163 0 31.58 4.006 41.852 25.586 2.913 5.944 5.212 12.146 7.665 18.607 3.373 9.046 6.899 18.35 11.958 27.524 13.644 24.165 38.48 45.745 72.207 62.414 2.299 1.163 4.752 2.326 7.205 3.489 12.418 5.944 24.222 11.63 30.201 19.9 2.913 4.006 3.373 10.338 1.227 14.86-1.533 3.102-3.526 3.489-4.14 3.489-.613.129-1.533.13-2.912.13-1.227 0-2.453-.001-3.68-.13-1.533 0-3.219-.129-5.059-.129-1.993 0-3.679.129-5.366.259-18.856 1.679-30.661 12.663-41.085 22.355-7.052 6.461-13.644 12.663-20.697 14.343-.919-.129-2.299.129-3.526.129z" stroke="#8C8C8C" stroke-miterlimit="10"/><path d="M772.507 532.513c-11.345-11.5-28.515-17.832-45.992-8.27-8.432 4.652-8.891 14.731-13.644 22.226-5.212 8.27-16.25 13.698-19.163 22.743-2.913 9.433 4.293 19.125 13.031 25.457 5.826 4.264 9.658 4.135 16.404 2.326 6.745-1.81 12.111-2.326 19.469-1.81 16.251 1.034 32.041 5.169 48.445 4.394 5.979-.258 12.571-1.68 15.484-6.073 3.219-4.911.153-10.855-2.913-15.765-9.658-15.248-17.937-31.789-31.121-45.228z" stroke="url(#k)" stroke-miterlimit="10"/><path d="M786.766 593.247c-14.718-.387-28.975-3.36-43.539-4.393-1.84-.13-3.679-.129-5.366-.129-11.344 0-22.996 6.202-32.041-2.973-3.985-4.135-5.365-9.82-3.832-14.989 2.453-8.787 12.877-13.31 17.783-21.063 1.993-3.101 3.22-6.332 4.446-9.433 1.84-4.652 3.373-8.658 6.592-10.467 4.446-2.455 8.892-3.618 13.338-3.618 10.578 0 18.703 6.59 22.536 10.596 9.658 9.95 17.017 22.097 23.915 33.985 2.453 4.006 4.599 7.753 7.359 11.63 1.993 2.843 3.066 6.848.307 9.174-1.993 1.68-5.06 1.939-7.819 1.939-1.227-.259-2.453-.259-3.679-.259z" stroke="url(#l)" stroke-miterlimit="10"/><path d="M776.496 578.128c-.92.905-2.453 1.421-3.986 1.551-1.993.129-3.986-.388-5.979-.905-8.738-2.067-17.63-3.101-26.675-2.972-4.599 0-9.352.259-13.797 1.034-2.913.388-7.512 2.455-9.199-.905-1.686-3.101 3.833-6.978 6.132-9.045 3.373-3.101 7.359-6.59 10.425-11.242 2.606-4.006 3.066-8.012 5.213-12.018.919-1.809 2.452-3.36 4.599-4.006 2.913-.904 6.132.13 8.432 1.809 4.752 3.489 8.738 9.304 12.111 13.698 4.139 5.427 7.971 10.984 12.111 16.54 1.226 1.68 2.453 3.489 1.686 5.298-.307.388-.613.775-1.073 1.163z" stroke="url(#m)" stroke-miterlimit="10"/><path d="M756.87 567.403c-.307.388-.767.775-1.38.904-.613.13-1.38.13-1.993.13-3.373 0-6.745-.388-10.118-.776-.767-.129-1.686-.129-2.3-.646-.766-.517-1.073-1.292-.766-2.067.306-1.034 1.993-1.422 2.606-2.456.766-1.163 1.073-2.584 1.38-4.005.46-1.293 2.299-5.428 4.446-3.231.46.517.613 1.163.919 1.68 1.074 2.972 3.22 5.686 5.826 7.753.767.646 1.686 1.422 1.533 2.326 0 .129 0 .259-.153.388z" stroke="url(#n)" stroke-miterlimit="10"/><path d="M272.123 858.796c-24.376 14.214-52.584 23.905-81.865 27.524-59.636 7.494-102.868-12.018-152.846-35.407-56.11-26.232-35.26-60.992-7.665-101.309 28.515-41.738 35.567-92.909 22.536-139.558-13.49-48.199-67.914-87.483-39.246-139.817 19.47-35.794 74.2-52.334 117.278-58.02 9.812-1.292 20.85-1.809 29.128 2.972 9.659 5.557 12.265 16.411 15.024 25.973 6.439 21.451 38.787 39.413 65.155 35.665 16.864-2.326 33.267-11.5 49.518-7.365 21.616 5.427 26.828 29.333 43.538 41.996 23.15 17.445 65.155 11.501 82.325 33.339 12.418 15.765 4.14 36.958 8.279 55.565 11.344 50.138 104.401 62.414 115.745 112.422 5.519 24.035-14.104 50.267-42.312 56.47-42.465 9.304-95.202-34.761-131.383-9.304-16.097 11.371-23.762 28.816-34.033 44.193-14.258 21.709-34.801 40.446-59.176 54.661z" stroke="url(#o)" stroke-miterlimit="10"/><path d="M164.815 875.077c-44.459 0-81.099-17.186-120.038-35.406-15.024-6.978-23.61-14.602-26.369-23.001-5.059-15.378 8.125-36.441 24.682-60.605 29.742-43.418 38.48-97.691 24.07-148.991-4.907-17.703-14.718-33.856-24.07-49.492-17.17-28.428-32.04-52.98-16.25-82.055 19.93-36.698 86.004-48.07 105.781-50.654 3.832-.517 6.898-.776 9.504-.776 3.833 0 6.593.517 8.432 1.551 4.139 2.455 6.286 9.562 8.279 16.411l.613 2.197c7.512 24.81 40.932 45.873 72.82 45.873 3.219 0 6.592-.258 9.658-.646 6.899-1.034 13.338-2.714 19.47-4.523 6.899-1.938 13.491-3.747 18.856-3.747 1.687 0 3.067.129 4.446.517 7.206 1.809 12.418 9.175 18.55 17.703 5.059 7.107 10.885 15.248 19.163 21.58 13.338 10.079 30.355 13.697 45.379 16.928 15.177 3.23 28.208 6.073 34.187 13.826 5.059 6.461 4.906 15.765 4.599 26.491-.153 7.882-.46 16.023 1.533 24.422 6.899 30.238 37.253 48.329 64.082 64.352 24.222 14.473 47.218 28.17 51.663 48.07 3.986 17.316-10.884 37.087-31.12 41.48-2.76.646-5.673.905-8.892.905-12.418 0-26.522-4.265-41.546-8.658-16.25-4.911-33.114-9.95-49.824-9.95-14.258 0-26.675 3.747-37.253 11.113-14.718 10.338-22.996 24.035-30.968 37.345-2.3 3.747-4.293 7.236-6.592 10.596-13.031 19.641-31.888 37.086-54.577 50.396-22.842 13.309-48.904 22.096-75.426 25.456-7.512.776-15.177 1.292-22.842 1.292z" stroke="url(#p)" stroke-miterlimit="10"/><path d="M164.809 854.919c-29.894.646-60.096-5.556-86.004-18.22-11.958-5.815-23.456-13.439-29.435-23.906-9.658-16.798-.92-30.754 10.272-44.322 11.038-13.181 18.55-27.524 24.529-43.031 15.177-39.412 16.71-82.443 5.518-122.76-5.672-20.029-15.943-37.215-26.061-53.755-17.784-29.333-26.522-45.615-15.79-65.257 7.511-13.956 26.521-23.13 41.085-28.428 11.651-4.265 31.581-12.147 44.765-7.754 9.198 2.973 9.352 6.849 12.571 13.827 5.059 11.242 8.892 17.833 20.85 26.62 17.936 13.051 41.392 21.45 65.308 21.45 15.637 0 28.974-9.95 44.611-3.747 13.951 5.556 19.164 18.866 28.515 28.299 11.345 11.371 24.222 15.636 41.239 17.833 13.798 1.809 29.282 4.91 35.721 15.377 4.139 6.719 3.219 14.602 3.219 22.226.307 42.772 34.8 70.425 73.28 93.426 12.724 7.624 31.274 16.67 39.093 28.3 4.905 7.236 4.599 17.574-3.066 22.742-7.666 5.04-18.704 3.102-28.209.905-42.618-10.208-87.23-27.007-126.17.388-26.062 18.349-33.267 45.485-53.197 67.194-21.003 22.743-50.744 39.93-83.704 47.812-12.571 2.843-25.756 4.523-38.94 4.781z" stroke="url(#q)" stroke-miterlimit="10"/><path d="M160.367 848.587c-27.595 0-54.423-6.073-77.726-17.445-13.337-6.59-22.076-13.439-26.368-21.192-7.359-12.922-1.993-23.647 9.658-37.862 10.578-12.792 18.703-27.007 25.602-44.839 15.484-40.446 17.477-84.123 5.672-126.249-5.825-20.804-16.403-38.249-26.675-55.177-21.922-36.182-29.281-66.29 21.616-87.482 12.725-5.298 29.435-6.074 40.473 1.55 3.679 2.585 6.592 5.815 9.505 9.046 23.762 27.136 46.911 46.907 90.45 46.907 7.205 0 13.797-1.68 19.623-3.231 5.059-1.292 9.658-2.584 14.104-2.584 2.759 0 5.212.517 7.665 1.421 7.359 2.973 12.111 9.175 17.017 15.765 2.76 3.619 5.519 7.366 8.892 10.726 14.104 14.214 30.508 18.091 45.991 20.029 12.265 1.68 25.449 4.264 30.048 11.888 2.606 4.135 2.453 9.692 2.453 15.507v3.747c.307 46.907 38.94 76.24 76.499 98.595 2.3 1.422 4.753 2.843 7.359 4.265 11.191 6.461 23.916 13.697 29.588 21.967 3.066 4.523 3.373 11.501-1.073 14.473-1.84 1.163-4.293 1.809-7.665 1.809-4.293 0-9.352-1.034-13.798-2.068-5.366-1.292-10.885-2.713-16.25-4.005-20.543-5.298-41.699-10.726-62.702-10.726-20.85 0-38.48 5.298-54.27 16.411-16.71 11.759-26.062 26.878-35.26 41.351-5.979 9.562-11.498 18.608-19.164 26.749-20.236 21.967-48.597 38.12-79.872 45.615-11.957 2.842-24.528 4.393-37.099 4.781-1.38.258-2.913.258-4.293.258z" stroke="#8C8C8C" stroke-miterlimit="10"/><path d="M164.971 824.94c-21.463.129-43.386-3.877-63.469-12.405-7.512-3.102-15.024-7.366-17.783-13.956-2.3-5.557-.767-11.759 2.606-16.928 5.212-8.012 27.748-41.738 31.734-52.076 14.258-37.086 17.784-76.886 11.038-115.394-2.913-16.669-8.125-33.339-14.104-49.492-5.212-14.214-19.163-23.647-26.982-36.827-6.898-11.63-9.505-25.715-3.372-37.604 6.132-11.888 22.689-20.287 37.406-16.669 14.104 3.489 21.923 15.765 30.968 25.456 14.104 14.99 33.574 24.035 54.73 29.98 20.083 5.685 41.392-4.911 60.709 1.809 16.863 5.944 22.382 24.81 38.173 32.563 12.571 6.203 29.128 4.265 41.239 10.984 13.184 7.366 16.71 22.097 21.463 34.76 9.198 24.552 27.748 46.649 52.123 62.155 5.519 3.489 11.498 6.849 14.871 11.889 3.373 5.039 3.066 12.534-2.76 15.635-9.811 5.299-24.835-4.781-34.953-6.202-14.411-2.068-29.435-.775-43.079 3.489-32.041 9.821-55.19 37.991-70.52 62.543-5.673 9.174-10.578 17.057-17.017 23.905-25.449 27.395-63.775 41.997-103.021 42.385z" stroke="url(#r)" stroke-miterlimit="10"/><path d="M163.735 806.332c-3.526.129-7.205.129-10.884-.129-10.578-.517-22.076-2.972-28.515-10.079-5.519-6.074-6.285-14.473-4.293-21.968 1.993-7.495 6.286-14.344 10.272-21.192 40.473-71.33 34.034-160.234-16.404-226.912-3.219-4.264-6.745-8.657-8.432-13.568-1.686-4.91-1.226-10.725 2.76-14.473 17.477-17.057 31.274 17.704 39.553 24.94 17.17 15.248 43.692 26.103 68.834 25.327 16.25-.517 34.034-1.809 47.371 6.074 11.191 6.461 16.864 18.22 28.362 24.422 10.578 5.686 24.222 5.815 35.107 10.984 13.95 6.59 18.396 18.479 24.222 30.109 6.592 13.309 17.323 25.327 26.522 37.603 2.606 3.489 5.212 7.495 3.526 11.371-3.986 9.175-23.916 6.72-32.654 8.787-14.411 3.231-27.595 10.338-38.327 18.996-16.25 13.051-27.901 29.591-39.706 45.744-24.529 32.822-60.095 62.284-107.314 63.964z" stroke="#8C8C8C" stroke-width="2" stroke-miterlimit="10"/><path d="M170.021 795.348c-11.345-1.292-17.477-9.045-11.191-21.967 9.351-19.383 19.163-37.603 24.529-58.279 6.438-25.327 7.971-51.43 5.365-77.145-2.299-21.709-8.585-41.221-16.403-61.896-1.38-3.618-2.607-8.012.459-10.855 3.373-3.23 9.659-2.067 14.564-.646 12.571 3.618 21.923 8.916 35.261 8.658 15.79-.258 29.741.775 42.925 9.045 9.352 5.945 16.557 14.215 26.369 19.513 9.351 4.91 20.543 6.848 30.047 11.759 16.098 8.399 44.306 36.052 30.815 52.463-5.826 7.108-15.637 10.855-24.989 14.215-13.951 4.91-29.128 11.759-38.173 22.355-14.257 16.669-24.069 35.406-39.859 51.43-16.864 17.186-38.02 31.917-62.855 39.412-6.286 1.938-12.112 2.584-16.864 1.938z" stroke="url(#s)" stroke-miterlimit="10"/><path d="M173.546 789.146c-.919 0-1.686 0-2.606-.129-2.146-.259-4.906-.905-6.285-2.843-1.533-2.197-1.073-5.944 1.073-10.338 1.533-3.36 3.219-6.59 4.752-9.821 7.972-16.281 15.637-31.788 20.083-49.491 6.439-25.198 8.279-51.818 5.519-79.083-1.073-9.821-4.906-19.125-8.432-28.558-2.759-7.236-11.957-24.423-7.818-32.047 4.446-8.011 30.814 2.843 41.546 2.843h5.212c13.031 0 23.762 1.292 34.034 7.753 3.679 2.326 7.205 5.169 10.731 8.141 4.906 4.006 9.965 8.271 16.097 11.501 5.366 2.843 11.038 4.652 16.404 6.59 4.906 1.68 9.505 3.231 13.644 5.298 10.272 5.428 26.982 20.288 30.201 33.21 1.073 4.135.46 7.495-1.686 10.208-4.599 5.557-12.878 8.787-21.616 12.018-12.571 4.523-30.661 11.888-41.393 24.552-6.285 7.365-11.804 15.119-17.016 22.613-7.053 10.08-13.798 19.642-22.383 28.429-18.243 18.479-38.173 31.142-59.483 37.474-3.679 1.034-7.358 1.68-10.578 1.68z" stroke="url(#t)" stroke-miterlimit="10"/><path d="M199.304 758.521c-8.738-3.877 10.578-25.069 13.951-37.991 6.899-27.007 8.892-55.565 5.826-84.64-.92-8.787-3.833-19.125-9.045-26.878-2.147-3.101-3.373-7.365-.307-9.821 2.606-2.196 6.899-1.55 10.271-.775 9.199 2.326 18.55-.904 26.982 4.394 2.453 1.55 5.213 3.876 8.432 6.461 5.519 4.522 11.651 9.691 20.083 14.214 7.205 3.747 14.104 6.073 20.236 8.141 4.139 1.421 7.666 2.584 9.965 3.747 5.979 3.102 18.397 9.692 15.024 16.928-3.066 6.72-20.696 10.338-27.748 13.956-10.885 5.556-20.85 12.405-28.362 21.192-6.898 8.012-12.571 16.153-18.09 24.035-6.898 9.821-12.877 18.35-20.389 25.974-7.666 7.753-18.09 24.939-26.829 21.063z" stroke="url(#u)" stroke-miterlimit="10"/><path d="M237.023 688.871c-3.526-.259-5.213-2.585-6.286-5.428-2.146-6.59.307-14.085 1.38-20.675 1.533-9.175 5.519-18.091 4.752-27.395-.306-4.781-2.299-8.27-5.059-12.146-2.606-3.619-3.372-5.557 1.84-7.754 11.651-4.91 17.17 13.956 30.048 20.805 5.212 2.714 30.354 1.421 27.595 11.113-.307 1.034-1.227 1.809-2.147 2.455-3.832 2.584-8.738 3.618-12.877 5.944-4.446 2.455-8.892 5.298-13.031 8.27-4.906 3.489-9.658 7.237-13.951 11.243-2.146 1.938-4.599 4.005-6.132 6.202-2.453 3.489 1.38 7.366-5.366 7.366h-.766z" stroke="url(#v)" stroke-miterlimit="10"/><path d="M638.972 263.863c-9.965-15.119-31.887-26.102-31.581-43.418.154-9.821 7.819-18.22 13.031-27.136 21.003-35.536-3.526-77.92-44.152-95.623-22.076-9.563-45.991-4.653-67.454-13.31-23.762-9.563-38.633-30.109-57.489-44.71-14.104-10.855-30.968-18.996-49.058-23.906-36.947-9.95-110.073-1.422-114.366 40.962-1.379 13.052 6.132 26.103 17.477 35.02 27.135 21.062 91.217 28.169 84.011 71.717-1.686 9.821-8.585 19.254-6.745 29.074 3.066 15.895 26.062 22.097 38.939 33.985 12.112 11.243 15.024 27.654 13.951 42.772-.92 15.119-5.059 30.238-4.292 45.357.919 19.9 11.038 40.188 30.354 51.817 19.163 11.63 47.678 12.922 65.921.259 18.244-12.664 25.449-36.957 48.138-42.514 8.892-2.197 18.55-.904 27.748-1.809 30.508-3.101 50.285-35.923 35.567-58.537z" stroke="url(#w)" stroke-miterlimit="10"/><path d="M495.946 362.975c-9.045 0-18.243-2.455-25.449-6.848-14.104-8.658-23.149-24.294-23.915-41.868-.307-8.141.766-16.54 2.146-25.327.92-6.073 1.84-12.405 2.146-18.866 1.38-22.355-4.599-39.929-17.936-52.205-5.673-5.169-12.418-9.304-18.55-12.922-9.812-5.815-15.791-9.821-16.711-14.473-.613-3.101.92-7.236 2.76-12.018 1.533-3.876 3.066-8.27 3.986-13.051 6.592-39.154-31.734-55.823-59.636-67.97-11.498-5.04-22.229-9.691-29.128-14.99-8.585-6.719-13.491-16.023-12.724-24.422 1.073-10.338 7.818-18.22 20.849-24.164 12.111-5.557 29.128-8.787 46.452-8.787 10.118 0 19.776 1.163 27.288 3.1 15.944 4.265 30.968 11.63 43.385 21.193 5.826 4.394 11.345 9.692 17.171 15.119 12.571 11.888 25.602 24.164 44.152 31.659 12.724 5.169 25.908 6.332 37.406 7.366 10.731 1.033 20.85 1.938 29.588 5.814 32.194 14.085 54.883 48.846 37.406 78.308-1.073 1.809-2.452 3.748-3.679 5.815-5.059 7.495-10.731 16.153-10.885 26.878-.306 16.023 11.805 27.524 21.463 36.699 4.753 4.522 9.199 8.787 11.958 13.051 4.446 6.849 4.139 16.023-1.073 24.423-5.059 8.399-13.644 14.085-22.996 14.989-2.759.259-5.826.259-9.198.388-6.286 0-13.491.129-20.85 1.938-18.856 4.652-29.128 17.574-38.326 28.816-5.059 6.332-9.812 12.276-15.331 16.153-5.519 4.006-13.337 6.202-21.769 6.202z" stroke="url(#x)" stroke-miterlimit="10"/><path d="M480.613 343.205a17.652 17.652 0 0 1-5.213 0c-14.257-2.326-20.543-19.254-21.003-29.721-.306-6.59.767-13.826 1.993-22.226.92-6.461 1.84-13.051 2.3-20.287.92-15.507-1.073-31.53-8.432-45.874-8.125-15.894-23.609-23.906-36.64-35.923-3.066-2.843-5.366-6.461-5.366-10.209 0-5.556 4.293-10.079 5.059-15.506.767-5.686-.306-12.534-1.379-18.22-2.76-14.344-11.192-27.266-23.149-37.603-19.01-16.411-44.459-24.552-67.301-36.311-4.906-2.585-10.272-5.945-10.578-10.726-.154-3.489 2.606-6.848 6.132-8.787 10.271-5.815 25.908-7.365 37.866-7.365 7.665 0 15.024.775 20.236 2.196 12.878 3.49 24.989 9.304 34.954 17.058 4.906 3.747 9.965 8.657 15.484 13.697 13.491 12.664 28.668 27.136 51.357 36.311 16.251 6.59 32.041 8.012 44.765 9.175 8.892.775 16.557 1.55 21.616 3.747 21.923 9.562 38.633 33.468 27.442 52.464-.766 1.421-1.993 3.101-3.219 4.91-5.826 8.658-13.645 20.417-13.798 36.182-.153 11.5 3.986 21.967 10.732 31.788 2.299 3.36 4.445 7.236 7.511 9.95 4.293 3.877 10.119 5.686 13.645 10.338 3.832 4.91 4.139 12.276-1.073 16.152-4.6 3.36-11.192 2.972-17.324 3.102-24.376.517-48.138 11.759-61.169 29.074-3.986 5.169-6.899 10.855-11.804 15.507-3.373 3.618-8.432 6.461-13.644 7.107z" stroke="#8C8C8C" stroke-width="2" stroke-miterlimit="10"/><path d="M478.467 320.979c-1.226 0-2.453-.259-3.526-.517-10.271-3.489-9.351-15.119-9.045-18.996.46-5.815 2.453-11.113 4.446-16.281 1.687-4.652 3.373-9.046 3.679-13.31 1.227-19.512-1.992-36.828-9.658-51.688-3.832-7.495-9.505-14.732-16.71-21.58-1.533-1.422-3.833-3.102-6.439-4.781-5.059-3.489-10.884-7.495-13.491-12.922-2.759-5.557-1.379-10.726-.306-14.861.46-1.55.766-2.843.92-4.135.613-5.298.306-11.242-1.074-18.478-2.453-12.535-13.337-21.58-26.062-32.047-2.759-2.326-5.672-4.652-8.431-7.107-.154-.13-16.711-16.411-12.418-26.878 1.533-3.748 5.212-6.073 10.118-6.59.613 0 1.073-.13 1.686-.13 4.446 0 7.972 1.81 10.119 2.843 1.379.646 2.606 1.292 3.986 1.939 6.592 3.23 13.337 6.59 18.856 12.017 2.913 2.843 5.366 5.686 7.819 8.658 1.686 1.938 3.372 3.876 5.059 5.686 11.038 11.888 21.462 19.383 32.654 23.776 18.703 7.495 36.64 9.175 49.824 10.338 14.871 1.421 33.42 6.59 36.946 24.035 2.453 12.147-4.752 23.13-10.424 31.917-5.826 9.046-7.972 16.411-8.125 28.3-.154 9.174 2.299 18.349 7.665 28.17.46.775 1.686 2.584 3.066 4.264 5.212 7.107 11.804 16.023 9.352 23.26-.92 2.972-3.373 5.427-6.746 6.848-3.833 1.68-7.665 1.809-11.038 1.809h-2.606c-8.738.13-18.55 4.394-29.895 13.31-.919.646-3.526 3.618-5.519 5.815-7.665 8.399-13.49 14.473-19.009 16.67-2.3.387-3.986.646-5.673.646z" stroke="url(#y)" stroke-miterlimit="10"/><path d="M480.147 314.13c-.92.388-1.84.517-2.453.259-4.906-1.68-4.446-9.304-4.292-12.664.766-10.209 7.511-19.642 8.125-29.721 1.226-20.546-2.147-38.895-10.272-54.66-4.446-8.658-10.731-16.411-18.09-23.389-5.365-5.04-15.637-9.692-18.55-15.765-2.606-5.298.614-10.596 1.227-16.023.766-6.591 0-13.569-1.227-20.159-3.372-17.703-20.849-28.945-36.64-42.643-2.912-2.455-18.243-21.321-6.745-22.613 2.453-.259 4.752.904 6.899 1.938 7.665 3.877 15.33 7.107 21.002 12.664 4.446 4.393 8.279 9.433 12.725 14.085 9.658 10.337 21.003 20.029 35.413 25.585 19.777 8.012 38.48 9.692 52.124 10.984 13.798 1.292 27.442 5.557 30.201 18.737 1.993 9.692-3.986 19.125-9.658 27.783-6.899 10.725-8.892 19.383-9.198 31.271-.154 10.855 3.066 21.063 8.278 30.884 2.913 5.298 18.857 21.838 9.198 25.973-3.066 1.292-6.898 1.034-10.424 1.034-13.338.129-25.602 7.624-34.954 14.989-3.832 3.102-16.097 18.867-22.689 21.451z" stroke="url(#z)" stroke-miterlimit="10"/><path d="M493.023 280.016c-.613-.388-1.073-1.034-1.38-2.068-.613-1.809.46-3.618 1.38-5.298 6.592-11.5 4.446-23.259 2.606-35.406-1.686-10.855-4.905-21.58-10.118-31.53-3.832-7.495-9.045-14.473-15.024-20.934-5.672-5.944-15.33-10.208-19.469-16.928-3.373-5.427-.307-10.467.306-15.894.92-7.107-.153-14.86-4.139-21.321-1.073-1.809-2.606-3.748-1.993-5.815.307-1.422 1.84-2.714 3.526-3.101 6.439-1.163 15.33 9.82 20.543 12.534 15.637 7.882 33.88 8.787 51.664 10.467 17.63 1.68 18.856 7.365 19.47 10.208 1.226 6.332-3.833 14.085-8.279 21.063-8.585 13.181-10.425 24.035-10.578 36.182-.153 8.012 1.38 15.765 3.986 23.518 1.993 6.074 14.257 17.574 13.031 23.26-.613 2.843-3.526 5.039-6.592 6.073-4.446 1.422-9.199.905-13.644 2.326-5.519 1.809-11.038 4.394-15.331 7.883-1.993 1.163-7.052 6.978-9.965 4.781z" stroke="url(#A)" stroke-miterlimit="10"/><path d="M513.106 257.919c-1.227-.775-2.3-1.938-2.606-3.489-3.68-17.703-3.68-34.76-12.418-51.817-3.833-7.366-8.738-14.473-14.564-20.805-2.913-3.23-6.132-6.202-9.505-9.045-6.592-5.427-11.651-8.916-11.344-17.703.153-3.102 2.146-6.461 5.672-7.495 2.453-.775 5.212-.259 7.665.258 11.191 2.197 22.536 4.523 33.727 6.72 4.753.904 9.505 1.292 14.104 1.938 4.14.517 7.359 1.422 4.599 5.944-8.891 14.861-16.403 28.687-17.476 45.615-.614 10.079.613 20.288 3.986 29.979 1.533 4.523 6.285 10.338 6.745 14.861.46 4.006-4.139 7.624-8.585 5.039z" stroke="url(#B)" stroke-miterlimit="10"/><path d="M405.193 332.479c-.306-.387-.613-.775-.92-1.292-11.038-14.86-16.403-28.17-17.323-46.002-1.073-20.03-.307-41.739-14.411-57.891-11.804-13.568-32.5-20.805-41.852-35.665-7.972-12.534-6.132-27.783-6.132-41.997-.154-28.687-24.682-54.014-59.329-58.02-19.623-2.326-56.877 3.49-75.12 11.759-28.668 12.922-31.428 41.868-36.64 65.774-9.965 45.356-71.44 65.773-71.44 113.326-.307 24.164 12.57 48.199 34.187 64.093 9.198 6.72 20.083 12.147 32.041 14.215 32.96 5.556 67.761-14.99 99.341-5.169 16.557 5.169 28.362 17.962 34.647 31.917 6.439 14.473 3.986 30.626 15.178 42.514 7.205 7.624 23.149 14.473 32.5 20.546 9.965 6.332 49.211 36.699 63.622 28.17 13.491-8.011 9.045-36.828 11.191-49.362 5.673-34.114 23.303-67.066.46-96.916z" stroke="url(#C)" stroke-miterlimit="10"/><path d="M374.23 448.907c-19.316 2.455-50.437-22.872-57.643-35.794-7.205-12.793-10.578-27.007-18.243-39.541-11.498-18.996-32.961-33.598-57.489-39.025-38.94-8.658-76.193 22.097-109.46-2.584-16.557-12.276-26.369-30.626-26.215-49.233v-.13c0-18.478 13.95-32.434 30.201-48.587 19.623-19.641 35.72-39.67 41.239-65.385 2.453-11.501 4.292-23.389 10.578-33.727 12.264-20.288 43.692-24.164 68.374-24.164 3.219 0 5.366.129 6.745.258 55.037 6.461 29.282 58.408 45.685 87.353 10.118 17.704 34.801 26.62 46.758 43.419 21.463 30.496 6.439 67.97 30.202 99.887.306.517.766.905 1.073 1.422 13.184 17.315 12.724 42.901 10.271 62.542-1.38 10.726-3.219 23.002-8.892 32.822-3.986 6.849-8.431 9.821-13.184 10.467z" stroke="url(#D)" stroke-miterlimit="10"/><path d="M363.961 422.417c-8.279 2.455-18.704-3.489-26.675-17.703-2.76-5.04-5.059-10.726-7.512-16.67-3.066-7.624-6.286-15.506-11.038-23.389-14.411-23.776-41.393-42.126-72.207-48.974-6.592-1.422-13.644-2.197-21.003-2.197-13.951 0-26.982 2.714-38.48 5.04-9.198 1.938-17.783 3.747-24.988 3.747-6.439 0-11.038-1.421-15.791-4.91-11.651-8.529-18.55-21.451-18.396-34.502v-.259c0-10.854 8.891-20.287 24.835-36.052 15.177-15.119 29.128-31.53 37.867-50.009 9.045-18.866 4.445-43.159 23.609-57.503 11.037-8.399 38.019-15.248 51.97-7.495 12.264 6.849 11.038 21.063 11.651 32.435.767 13.697 1.533 29.204 9.199 42.642 7.358 13.052 19.469 21.839 30.047 29.463 7.206 5.298 14.104 10.208 17.784 15.506 7.818 11.113 9.351 24.423 11.038 39.929 1.993 18.737 4.446 40.059 19.469 60.346.307.517.767 1.034 1.227 1.551 10.271 13.439 13.337 34.244 10.425 49.75-1.993 11.113-6.899 17.445-13.031 19.254z" stroke="url(#E)" stroke-miterlimit="10"/><path d="M360.277 416.473c-3.833 0-10.272-4.523-15.944-14.473-2.606-4.652-4.906-10.208-7.205-15.894-3.22-7.882-6.439-16.023-11.498-24.293-15.484-25.457-44.306-44.969-77.113-52.206-7.205-1.55-15.024-2.455-22.842-2.455-14.871 0-28.515 2.843-40.32 5.298-8.738 1.809-17.016 3.489-23.149 3.489-4.599 0-7.358-.904-10.731-3.36-9.965-7.365-15.944-18.478-15.79-29.591v-.388c0-8.658 8.278-17.315 22.995-32.046 19.163-19.125 31.275-35.148 39.246-51.689 3.526-7.495 5.213-15.506 6.593-23.259 2.452-12.406 4.752-24.165 14.87-31.789 5.979-4.522 19.317-9.174 31.121-9.174 4.753 0 8.892.775 11.651 2.326 6.899 3.876 7.666 11.5 7.972 22.742 0 1.551.153 3.102.153 4.652.767 14.344 1.534 30.496 9.965 45.098 8.125 14.215 20.697 23.519 31.888 31.659 6.745 4.911 13.184 9.563 16.25 13.956 6.899 9.821 8.279 22.485 9.965 37.216 2.146 19.512 4.599 41.609 20.696 63.189.307.517.767 1.033 1.227 1.68 8.431 10.983 12.264 29.591 9.351 45.227-1.686 9.174-5.365 13.31-7.972 14.085h-1.379z" stroke="#8C8C8C" stroke-miterlimit="10"/><path d="M252.498 296.944c-8.585-1.938-17.63-2.843-26.828-2.843s-19.01.646-28.055 2.326c-7.818 1.551-15.33 5.04-23.456 5.815-7.512.646-15.79-1.292-20.236-6.59-3.679-4.394-3.833-10.467-1.84-15.636 3.373-8.141 11.652-14.731 18.09-21.192 20.237-20.288 33.114-37.345 41.7-55.307 4.139-8.787 5.978-17.961 7.511-25.973 1.993-10.467 3.833-19.642 9.965-24.294 5.366-4.135 16.404-8.916 22.69-3.489 6.438 5.557 3.526 16.024 3.372 23.002 0 9.562 1.687 19.124 4.906 28.17 4.599 12.793 12.418 24.81 22.689 34.89 9.045 8.916 24.682 15.506 31.888 25.585 5.212 7.237 6.438 18.608 7.818 31.789 2.453 20.029-33.267 12.017-70.214 3.747z" stroke="url(#F)" stroke-miterlimit="10"/><path d="M304.013 291.258c-.306.129-.613.388-1.073.517-2.913 1.034-6.285.517-9.352-.129-12.264-2.326-24.682-4.265-36.793-6.978l-.613-.13c-23.762-5.168-49.058-4.522-72.054 2.973-2.759.904-5.672 1.938-8.738 2.067-3.066.129-6.286-1.163-7.512-3.489-1.533-3.101 1.226-6.59 3.679-9.175 11.498-11.759 23.916-23.13 34.494-35.406 7.512-8.658 16.71-22.355 19.776-32.822 3.986-8.399 2.453-17.057 3.526-25.715a32.188 32.188 0 0 1 5.519-14.473c.767-1.033 3.68-5.556 5.366-5.556 5.059 0 4.139 13.956 3.986 16.669-.46 8.529-1.686 17.057 1.38 25.328 5.212 14.472 14.104 28.17 25.755 39.541 4.753 4.781 10.578 8.529 15.944 12.276 9.965 6.72 18.856 15.119 20.389 26.232.767 2.972-.613 6.461-3.679 8.27z" stroke="url(#G)" stroke-miterlimit="10"/><path d="M360.431 378.87c-1.993-3.877-5.213-7.107-7.512-10.854-4.753-7.366-6.133-15.895-9.352-23.906-2.146-5.169-5.979-6.72-10.425-10.08-.766-.516-1.533-1.162-2.453-1.421-.919-.258-2.146 0-2.606.646-.46.646 0 1.551.307 2.197 1.533 2.972 2.913 5.944 4.139 9.045 6.132 16.928 6.439 35.536 17.324 50.655 1.839 2.455 5.212 5.039 8.125 3.618 1.226-.517 1.839-1.551 2.453-2.584 2.759-5.298 2.912-11.759 0-17.316z" stroke="url(#H)" stroke-miterlimit="10"/><path d="M2.766 339.587c26.062 17.574 53.503 35.794 86.31 40.963 40.78 6.332 85.392-8.4 123.105 6.331 5.672 2.197 11.191 5.169 14.87 9.563 11.038 13.31.767 33.726 12.265 46.778 8.125 9.174 23.455 10.596 36.946 10.079 13.491-.646 27.748-2.585 39.86 2.455 16.863 6.849 23.302 23.906 35.566 35.923 14.104 13.956 35.721 20.417 55.19 28.558 19.47 8.141 39.246 20.288 43.539 38.379 1.993 8.658.153 17.703 1.073 26.619 2.146 19.383 17.784 35.924 35.414 48.716 17.63 12.664 37.713 22.872 53.81 36.957 16.097 14.086 28.055 33.598 23.455 52.722-3.372 14.732-15.637 26.62-27.594 37.604-25.602 23.647-53.351 47.682-89.377 57.632-24.683 6.72-51.511 6.332-76.5 12.018-25.142 5.685-50.437 20.675-53.043 42.513M231.957 39.278c9.198 18.22 23.762 34.372 42.159 46.778 16.25 10.984 35.107 18.995 51.357 29.85 16.251 10.854 30.508 25.844 31.888 43.418.46 6.59-.767 13.31.153 19.771 3.833 25.327 38.94 38.507 51.357 61.896 12.878 24.165-1.38 52.981 7.666 78.308 6.745 18.866 26.215 35.794 21.922 55.177-3.219 14.344-17.937 24.164-23.762 37.474-3.986 9.046-3.833 34.114 15.944 23.001 3.986-2.196 6.745-5.685 8.891-9.303 5.979-9.304 9.812-18.608 23.456-21.322 9.045-1.809 18.703-.646 27.902.259 24.988 2.196 52.737-5.04 68.527-22.226 13.491-14.861 17.63-35.794 35.26-47.037 12.265-7.753 28.515-9.304 42.006-15.248 43.079-18.995 42.159-63.705 50.591-98.207 7.971-32.176 60.402-39.283 80.945-63.835 9.045-10.855 10.578-25.457 6.285-38.25-4.292-12.793-13.644-24.035-24.835-33.468M548.687 842.643c4.292-24.81 20.083-51.817 49.211-57.115 22.382-4.006 45.378 6.332 68.067 3.877 24.376-2.585 42.926-18.867 61.629-32.306 18.703-13.439 44.152-25.327 66.841-17.315 13.184 4.652 23.302 15.635 37.56 16.798 7.972.647 15.943-1.938 23.302-4.781 11.191-4.264 22.383-9.304 34.494-11.113 12.111-1.938 25.755-.387 34.647 6.978 14.87 12.405 9.045 33.21 11.804 50.655 2.453 16.152 13.644 31.271 29.742 40.317" stroke="#8C8C8C" stroke-width="2" stroke-miterlimit="10"/><mask id="I" style="mask-type:alpha" maskUnits="userSpaceOnUse" x="0" y="0" width="811" height="900"><path fill="#D9D9D9" d="M0 0h811v900H0z"/></mask></g><defs><linearGradient id="r" x1="185.338" y1="753.962" x2="350.371" y2="431.858" gradientUnits="userSpaceOnUse"><stop stop-color="#F68146" stop-opacity=".3"/><stop offset="1" stop-color="#F68146" stop-opacity=".8"/></linearGradient><linearGradient id="a" x1="539.645" y1="659.104" x2="860.929" y2="262.326" gradientUnits="userSpaceOnUse"><stop stop-color="#F68146" stop-opacity=".3"/><stop offset="1" stop-color="#F68146" stop-opacity=".8"/></linearGradient><linearGradient id="c" x1="642.289" y1="431.544" x2="690.106" y2="318.177" gradientUnits="userSpaceOnUse"><stop stop-color="#F68146" stop-opacity=".3"/><stop offset="1" stop-color="#F68146" stop-opacity=".8"/></linearGradient><linearGradient id="d" x1="648.637" y1="423.919" x2="685.375" y2="335.566" gradientUnits="userSpaceOnUse"><stop stop-color="#F68146" stop-opacity=".3"/><stop offset="1" stop-color="#F68146" stop-opacity=".8"/></linearGradient><linearGradient id="e" x1="652.382" y1="420.006" x2="684.134" y2="344.346" gradientUnits="userSpaceOnUse"><stop stop-color="#F68146" stop-opacity=".3"/><stop offset="1" stop-color="#F68146" stop-opacity=".8"/></linearGradient><linearGradient id="f" x1="519.837" y1="566.955" x2="590.922" y2="453.032" gradientUnits="userSpaceOnUse"><stop stop-color="#F68146" stop-opacity=".3"/><stop offset="1" stop-color="#F68146" stop-opacity=".8"/></linearGradient><linearGradient id="g" x1="522.938" y1="563.051" x2="588.533" y2="462.433" gradientUnits="userSpaceOnUse"><stop stop-color="#F68146" stop-opacity=".3"/><stop offset="1" stop-color="#F68146" stop-opacity=".8"/></linearGradient><linearGradient id="h" x1="544.301" y1="531.618" x2="562.89" y2="507.51" gradientUnits="userSpaceOnUse"><stop stop-color="#F68146" stop-opacity=".3"/><stop offset="1" stop-color="#F68146" stop-opacity=".8"/></linearGradient><linearGradient id="i" x1="739.705" y1="686.83" x2="841.731" y2="437.844" gradientUnits="userSpaceOnUse"><stop stop-color="#F68146" stop-opacity=".3"/><stop offset="1" stop-color="#F68146" stop-opacity=".8"/></linearGradient><linearGradient id="j" x1="742.771" y1="682.853" x2="839.145" y2="446.395" gradientUnits="userSpaceOnUse"><stop stop-color="#F68146" stop-opacity=".3"/><stop offset="1" stop-color="#F68146" stop-opacity=".8"/></linearGradient><linearGradient id="k" x1="726.532" y1="583.533" x2="756.159" y2="501.793" gradientUnits="userSpaceOnUse"><stop stop-color="#F68146" stop-opacity=".3"/><stop offset="1" stop-color="#F68146" stop-opacity=".8"/></linearGradient><linearGradient id="l" x1="730.104" y1="579.938" x2="754.615" y2="510.907" gradientUnits="userSpaceOnUse"><stop stop-color="#F68146" stop-opacity=".3"/><stop offset="1" stop-color="#F68146" stop-opacity=".8"/></linearGradient><linearGradient id="m" x1="734.402" y1="571.554" x2="748.719" y2="529.801" gradientUnits="userSpaceOnUse"><stop stop-color="#F68146" stop-opacity=".3"/><stop offset="1" stop-color="#F68146" stop-opacity=".8"/></linearGradient><linearGradient id="n" x1="745.105" y1="565.653" x2="750.858" y2="552.157" gradientUnits="userSpaceOnUse"><stop stop-color="#F68146" stop-opacity=".3"/><stop offset="1" stop-color="#F68146" stop-opacity=".8"/></linearGradient><linearGradient id="o" x1="158.811" y1="791.891" x2="367.903" y2="337.856" gradientUnits="userSpaceOnUse"><stop stop-color="#F68146" stop-opacity=".3"/><stop offset="1" stop-color="#F68146" stop-opacity=".8"/></linearGradient><linearGradient id="p" x1="165.156" y1="784.19" x2="363.455" y2="355.127" gradientUnits="userSpaceOnUse"><stop stop-color="#F68146" stop-opacity=".3"/><stop offset="1" stop-color="#F68146" stop-opacity=".8"/></linearGradient><linearGradient id="q" x1="176.719" y1="772.584" x2="356.842" y2="384.133" gradientUnits="userSpaceOnUse"><stop stop-color="#F68146" stop-opacity=".3"/><stop offset="1" stop-color="#F68146" stop-opacity=".8"/></linearGradient><linearGradient id="b" x1="542.692" y1="655.224" x2="857.813" y2="273.637" gradientUnits="userSpaceOnUse"><stop stop-color="#F68146" stop-opacity=".3"/><stop offset="1" stop-color="#F68146" stop-opacity=".8"/></linearGradient><linearGradient id="s" x1="214.609" y1="748.743" x2="333.402" y2="552.111" gradientUnits="userSpaceOnUse"><stop stop-color="#F68146" stop-opacity=".3"/><stop offset="1" stop-color="#F68146" stop-opacity=".8"/></linearGradient><linearGradient id="t" x1="217.523" y1="745.764" x2="327.729" y2="564.067" gradientUnits="userSpaceOnUse"><stop stop-color="#F68146" stop-opacity=".3"/><stop offset="1" stop-color="#F68146" stop-opacity=".8"/></linearGradient><linearGradient id="u" x1="233.27" y1="726.556" x2="319.694" y2="598.564" gradientUnits="userSpaceOnUse"><stop stop-color="#F68146" stop-opacity=".3"/><stop offset="1" stop-color="#F68146" stop-opacity=".8"/></linearGradient><linearGradient id="v" x1="247.775" y1="673.916" x2="286.279" y2="612.301" gradientUnits="userSpaceOnUse"><stop stop-color="#F68146" stop-opacity=".3"/><stop offset="1" stop-color="#F68146" stop-opacity=".8"/></linearGradient><linearGradient id="w" x1="391.571" y1="302.413" x2="565.47" y2="-25.244" gradientUnits="userSpaceOnUse"><stop stop-color="#F68146" stop-opacity=".3"/><stop offset="1" stop-color="#F68146" stop-opacity=".8"/></linearGradient><linearGradient id="x" x1="397.806" y1="294.875" x2="560.795" y2="-7.401" gradientUnits="userSpaceOnUse"><stop stop-color="#F68146" stop-opacity=".3"/><stop offset="1" stop-color="#F68146" stop-opacity=".8"/></linearGradient><linearGradient id="y" x1="432.064" y1="270.535" x2="569.309" y2="80.819" gradientUnits="userSpaceOnUse"><stop stop-color="#F68146" stop-opacity=".3"/><stop offset="1" stop-color="#F68146" stop-opacity=".8"/></linearGradient><linearGradient id="z" x1="434.896" y1="266.597" x2="566.812" y2="91.278" gradientUnits="userSpaceOnUse"><stop stop-color="#F68146" stop-opacity=".3"/><stop offset="1" stop-color="#F68146" stop-opacity=".8"/></linearGradient><linearGradient id="A" x1="472.898" y1="248.489" x2="563.652" y2="143.502" gradientUnits="userSpaceOnUse"><stop stop-color="#F68146" stop-opacity=".3"/><stop offset="1" stop-color="#F68146" stop-opacity=".8"/></linearGradient><linearGradient id="B" x1="482.13" y1="236.294" x2="545.933" y2="162.822" gradientUnits="userSpaceOnUse"><stop stop-color="#F68146" stop-opacity=".3"/><stop offset="1" stop-color="#F68146" stop-opacity=".8"/></linearGradient><linearGradient id="C" x1="179.543" y1="401.827" x2="378.488" y2="72.777" gradientUnits="userSpaceOnUse"><stop stop-color="#F68146" stop-opacity=".3"/><stop offset="1" stop-color="#F68146" stop-opacity=".8"/></linearGradient><linearGradient id="D" x1="190.436" y1="380.887" x2="362.951" y2="93.961" gradientUnits="userSpaceOnUse"><stop stop-color="#F68146" stop-opacity=".3"/><stop offset="1" stop-color="#F68146" stop-opacity=".8"/></linearGradient><linearGradient id="E" x1="200.791" y1="363.543" x2="352.402" y2="116.019" gradientUnits="userSpaceOnUse"><stop stop-color="#F68146" stop-opacity=".3"/><stop offset="1" stop-color="#F68146" stop-opacity=".8"/></linearGradient><linearGradient id="F" x1="200.953" y1="273.816" x2="272.18" y2="125.006" gradientUnits="userSpaceOnUse"><stop stop-color="#F68146" stop-opacity=".3"/><stop offset="1" stop-color="#F68146" stop-opacity=".8"/></linearGradient><linearGradient id="G" x1="208.381" y1="266.28" x2="266.594" y2="144.727" gradientUnits="userSpaceOnUse"><stop stop-color="#F68146" stop-opacity=".3"/><stop offset="1" stop-color="#F68146" stop-opacity=".8"/></linearGradient><linearGradient id="H" x1="337.995" y1="385.74" x2="376.481" y2="347.233" gradientUnits="userSpaceOnUse"><stop stop-color="#F68146" stop-opacity=".3"/><stop offset="1" stop-color="#F68146" stop-opacity=".8"/></linearGradient></defs></svg>