<svg width="596" height="557" fill="none" xmlns="http://www.w3.org/2000/svg"><mask id="a" style="mask-type:alpha" maskUnits="userSpaceOnUse" x="0" y="0" width="596" height="557"><path fill="#D9D9D9" d="M0 0h596v557H0z"/></mask><g mask="url(#a)" stroke-miterlimit="10"><path d="M399.914 344.697c-3.99 2.055-8.29 3.51-12.472 4.143-13.178 2.074-26.561-2.205-35.847-11.483-3.55-3.568-6.48-7.682-9.308-11.774-5.604-7.906-10.787-15.344-19.954-17.388-4.598-1.051-9.842-.555-15.402.028-5.316.534-10.876 1.117-16.28.252-12.28-1.96-19.24-9.699-25.903-17.212-3.532-3.881-6.797-7.595-10.803-10.472-3.739-2.71-8.217-4.052-12.93-5.501-7.934-2.45-16.92-5.194-21.402-15.122-5.059-11.226-1.44-26.085 8.899-36.121 5.058-4.884 11.246-8.451 17.18-11.81 6.615-3.787 12.905-7.33 17.115-12.461 5.803-6.94 7.277-15.983 8.631-24.735.208-1.172.385-2.403.594-3.574 1.695-9.84 6.597-17.304 11.347-24.538 3.646-5.526 7.029-10.687 9.161-16.877 3.156-9.453 5.148-23.094-3.597-34.474-.452-.527-.833-1.091-1.315-1.678-2.538-3.177-5.435-6.702-5.592-11.56-.334-9.403 4.349-13.79 8.339-15.846 11.759-6.055 30.458 1.72 35.901 4.236 6.518 3.027 11.834 6.522 14.084 9.315 9.46 11.543 12.64 26.473 14.554 39.47.676 4.288 1.741 8.984 2.859 13.956 3.863 16.781 8.217 35.742-1.612 51.671-3.665 5.839-8.847 10.483-13.846 14.958-4.197 3.756-8.21 7.343-11.149 11.44-7.571 10.511-7.203 24.532.974 32.709.688.634 1.375 1.268 2.093 1.962 2.194 1.986 4.686 4.198 6.019 7.312 2.087 4.929.553 10.354-.769 15.139-.792 2.84-1.534 5.426-1.613 7.898-.285 8.202 7.513 14.066 15.33 15.589 7.643 1.536 17.047.189 28.622-3.947 1.976-.714 3.993-1.525 6.041-2.275 5.409-2.102 11.033-4.313 16.906-5.514 10.003-2.111 18.86-.668 24.426 3.837 3.618 3.001 5.582 7.689 5.291 12.551-.285 4.174-2.245 8.072-5.558 10.917-1.24 1.095-2.532 1.912-3.682 2.656-1.292.818-2.442 1.562-3.182 2.399-1.513 1.615-1.939 4.114-2.375 6.77-.168 1.075-.336 2.149-.677 3.237-2.211 8.662-9.263 16.853-19.098 21.917z" stroke="url(#b)"/><path d="M324.153 73.949c-15.726-7.253-38.981-11.617-38.217 7.9.176 4.545 3.562 7.97 6.286 11.507 8.169 10.612 8.544 23.946 3.979 37.316-5.118 15.099-17.604 24.644-20.338 40.871-1.794 10.348-2.799 21.353-10.093 30.124-8.928 10.677-24.544 14.843-34.63 24.672-9.202 8.919-12.451 22.219-7.939 32.207 6.309 14.002 22.374 11.582 33.367 19.448 12.12 8.654 18.223 24.358 35.222 27.08 10.226 1.65 21.872-2.523 31.887-.233 15.401 3.469 20.506 19.687 30.869 30.006 7.849 7.89 20.071 12.539 32.657 10.542 12.585-1.997 25.031-11.445 27.789-22.897 1-4.011.957-8.472 3.951-11.762 2.03-2.186 4.974-3.473 7.301-5.432 5.935-5.108 5.226-14.014-.074-18.353-5.299-4.338-13.631-4.76-21.186-3.149-7.658 1.587-14.868 4.92-22.316 7.615-10.096 3.68-21.016 6.111-30.876 4.121-9.83-1.93-18.197-9.249-17.908-18.669.197-7.321 5.3-15.269 2.582-21.773-1.416-3.451-4.806-5.657-7.474-8.387-9.224-9.157-9.652-25.047-1.139-36.879 6.963-9.589 18.688-16.235 24.843-26.168 11.926-19.212.985-44.661-1.734-63.247-2.01-13.709-5.296-27.444-13.946-38.113-1.829-2.326-6.745-5.57-12.863-8.347z" stroke="url(#c)"/><path d="M395.276 335.684c-2.637 1.358-5.561 2.332-8.315 2.762-9.343 1.467-19.434-1.848-26.309-8.719-2.996-3.017-5.607-6.688-8.343-10.599-6.015-8.53-12.822-18.248-25.77-21.156-6.541-1.496-13.284-.759-19.293-.172-4.724.456-9.243.959-13.074.348-8.622-1.336-13.859-7.303-19.977-14.107-3.655-4.122-7.444-8.327-12.279-11.764-5.031-3.641-10.797-5.384-15.847-6.963-8.138-2.497-12.904-4.223-15.619-10.196-3.387-7.452-.837-17.733 6.019-24.379 3.778-3.693 8.928-6.649 14.363-9.752 7.399-4.19 15.053-8.587 20.896-15.624 7.852-9.439 9.653-20.473 11.205-30.24.208-1.172.346-2.306.554-3.477 1.318-7.595 5.157-13.447 9.674-20.257 3.91-5.889 7.901-11.972 10.495-19.54 5.63-16.73 4.002-31.623-4.845-43.026l-1.448-1.762c-1.901-2.29-3.668-4.496-3.728-6.364-.077-1.025-.084-4.365 1.341-5.099 3.421-1.761 13.635-.485 24.89 4.739 6.18 2.897 9.849 5.643 10.783 6.758 8.074 9.902 10.961 23.386 12.737 35.239.687 4.662 1.814 9.477 3.025 14.629 3.456 14.94 7.309 31.879-.151 44.004-2.673 4.264-6.91 8.118-11.503 12.155-4.562 4.097-9.266 8.267-13.067 13.492-6.588 9.093-8.941 20.107-6.9 29.848 1.056 4.852 3.174 9.841 6.541 13.579 4.055 4.371 7.666 9.808 7.831 16.258.203 7.571-4.317 13.851-.922 21.146 3.674 7.835 11.674 13.215 20.993 15.028 9.962 2.014 21.622.493 35.529-4.54a259.732 259.732 0 0 0 6.326-2.422c5.094-2.015 9.902-3.883 14.725-4.847 6.261-1.323 11.848-.629 14.841 1.858 1.415 1.171 2.231 3.107 2.078 5.085-.078.724-.295 2.053-1.352 2.977-.509.413-1.231.937-2.126 1.474-1.76 1.135-3.988 2.586-5.947 4.735-3.847 4.26-4.64 8.848-5.345 12.556-.159.917-.318 1.835-.538 2.632-1.178 5.242-5.734 10.401-12.148 13.703z" stroke="#8C8C8C" stroke-width="2"/><path d="M320.369 198.099c-3.706 1.908-7.457 2.852-11.311 3.773l-9.247 2.178c-1.682.41-5.536 1.33-9.087-.489-3.92-2.009-5.422-6.327-4.071-11.583 1.503-5.485 4.337-10.137 7.13-14.691 2.298-3.767 4.475-7.244 5.406-10.687.702-2.49.902-5.253 1.01-8.196.178-2.979.326-6.019 1.075-9.293 1.426-6.51 6.519-12.552 13.503-16.149 2.351-1.211 4.787-2.084 7.162-2.548 5.629-1.151 10.708-.042 13.949 2.925 2.389 2.189 4.861 6.464 2.929 13.918a160.001 160.001 0 0 1-2.247 7.541c-1.617 5.089-3.055 9.477-3.101 14.289-.047.784-.023 1.531-.039 2.375-.005 6.995-.011 15.737-7.508 22.714-1.503 1.458-3.415 2.822-5.553 3.923z" stroke="url(#d)"/><path d="M322.702 137.32c-5.731 1.127-12.3 5.878-13.757 12.328-1.327 6.003-.511 11.966-2.215 17.936-2.496 8.809-10.102 16.449-12.497 25.282-.481 1.692-.572 3.79.973 4.515 1.003.547 2.471.247 3.664-.063 3.048-.734 6.168-1.504 9.247-2.178 4.517-1.034 9.359-2.311 12.762-5.508 5.526-5.201 4.813-12.889 4.941-19.643.12-8.346 3.473-15.316 5.545-23.374 2.102-7.999-2.861-10.458-8.663-9.295z" stroke="url(#e)"/><path d="M315.734 189.091c-4.335 2.612-10.425 3.392-15.103 4.813-.846.283-1.896.52-2.521.006-.759-.597-.234-1.855.271-2.799 4.177-7.471 9.854-15.182 12.161-23.133 1.043-3.577 1.25-7.028 1.416-10.381.16-2.666.279-5.236.879-7.748.988-4.385 10.599-13.21 14.526-7.86 1.531 2.099.343 5.219-.715 7.891-3.013 7.631-4.626 15.53-4.78 23.285-.064 3.376.178 6.823-1.091 10.137-.987 2.636-2.856 4.434-5.043 5.789z" stroke="url(#f)"/><path d="M304.264 238.614c-10.16-6.775-69.348-13.687-58.645 11.125 2.82 6.527 11.609 8.537 16.545 13.746 3.253 3.341 4.706 7.913 7.45 11.667 4.431 6.154 14.528 12.278 22.167 15.032 3.548 1.289 8.009 1.196 11.396-1.156 8.574-5.936 2.044-13.364 2.265-19.938.309-7.454 7.048-15.028 5.417-22.396-.793-3.468-3.573-6.064-6.595-8.08z" stroke="url(#g)"/><path d="M300.455 286.71c-1.853.954-4.517 1.034-6.848.183-6.995-2.554-16.63-8.308-20.681-13.898-.987-1.391-1.862-2.916-2.698-4.538-1.401-2.546-2.833-5.153-5.009-7.452-2.278-2.323-5.074-4.075-7.807-5.707-3.533-2.133-6.901-4.122-8.203-7.175-2.851-6.588.783-8.459 2.565-9.377 11.829-6.091 43.097-1.749 49.939 2.783 3.154 2.099 4.829 4.125 5.32 6.304.741 3.19-.823 6.807-2.365 10.641-1.452 3.484-2.913 7.124-3.108 10.948-.079 2.473.536 4.892 1.16 7.154 1.415 5.199 1.661 7.429-1.655 9.744-.183.17-.396.28-.61.39z" stroke="url(#h)"/><path d="M295.361 279.448c-2.888 2.095-8.591-1.276-10.222-2.868-2.841-2.717-4.136-6.457-5.9-9.881-3.897-7.569-10.217-13.89-18.038-18.222-1.136-.631-2.344-1.225-3.114-2.196-.771-.971-.993-2.453-.131-3.58 1.277-1.722 3.829-1.668 5.883-1.358 7.609.945 15.178 1.988 22.788 2.933 4.075.561 8.591 1.276 10.688 4.299 1.975 2.783 1.393 6.731.043 10.238-1.35 3.507-3.313 6.873-4.009 10.424-.358 1.932-.244 4.077.622 5.759.773 1.502 3.668 2.747 1.533 4.378l-.143.074z" stroke="#8C8C8C"/><path d="M286.976 264.388a.552.552 0 0 1-.552-.02c-.164-.144-.145-.457-.197-.734.063-1.629-1.68-3.087-2.646-4.262-1.098-1.258-2.34-2.443-3.51-3.664-.974-1.018-2.021-1.999-2.813-3.187-.349-.504-1.089-1.415-.664-2.166.071-.037.04-.097.111-.133 1.219-1.312 3.928-.427 5.145.01.777.284 1.514.665 2.26.888 1.186.377 2.422.501 3.618.721.888.151 2.257.358 2.802 1.065.257.324.417 1.685-.539 4.382a74.206 74.206 0 0 1-1.322 3.036c-.514 1.101-.407 2.186-.953 3.227-.152.23-.303.46-.486.63-.112.134-.183.17-.254.207z" stroke="url(#i)"/><path d="M479.26 282.559c-7.554 3.89-17.772 3.832-25.888-.197-5.904-2.887-10.346-7.136-14.726-11.264-1.6-1.532-3.271-3.027-4.943-4.522-6.993-6.051-13.907-8.798-20.477-8.074-2.918.286-5.985 1.334-9.334 3.058-3.635 1.872-7.093 4.261-10.734 6.819-1.872 1.268-3.855 2.669-5.829 3.914-1.434.891-2.94 1.818-4.437 2.589-11.972 6.165-22.729 6.46-28.883.814-5.107-4.666-5.217-12.057-4.835-17.269.075-1.255.191-2.606.337-3.898.531-5.973 1.043-11.632-1.104-16.15-.578-1.299-1.503-2.57-2.357-3.878-1.399-2.016-2.859-4.152-3.669-6.775-3.301-10.611 6.111-22.449 16.926-29.462 1.292-.817 2.624-1.732 3.845-2.512 5.575-3.707 10.926-7.146 16.057-9.789 14.68-7.559 26.208-6.884 38.393 2.421 3.074 2.293 5.853 4.889 8.571 7.366 3.671 3.277 7.107 6.447 11.06 9.047 10.365 6.822 24.939 10.261 42.219 10.026 1.347-.009 2.664-.079 4.011-.089 8.369-.206 16.983-.462 24.259 3.163 5.363 2.71 9.017 8.58 9.006 14.513-.037 4.655-2.118 8.843-5.992 11.825a23.261 23.261 0 0 1-3.337 2.099c-.713.367-1.425.734-2.169 1.041-.641.33-1.242.563-1.884.894-.498.257-.997.513-1.323.757-4.487 2.843-6.429 8.175-8.462 13.857-2.154 5.973-4.428 12.236-9.957 16.907-1.373 1.011-2.777 1.962-4.344 2.769z" stroke="url(#j)"/><path d="M505.504 220.938c-7.542-3.792-17.336-2.852-26.532-2.677-16.107.239-32.136-2.526-44.294-10.553-7.272-4.843-12.93-11.277-19.867-16.52-19.091-14.488-33.08-3.485-53.6 9.894-9.308 6.085-17.932 16.301-15.089 25.325 1.153 3.814 4.159 6.674 5.841 10.291 3.034 6.417 1.564 14.242 1.02 21.59-.36 5.429-.055 11.275 3.873 14.876 6.708 6.198 19.549 2.245 28.461-3.56 8.943-5.745 17.62-13.405 27.945-14.542 9.14-.983 17.054 3.53 23.226 8.863 6.173 5.333 11.462 11.577 18.973 15.308 7.583 3.695 18.405 4.05 25.57-1.995 9.889-8.284 7.97-24.092 18.958-31.118 2.727-1.708 5.927-2.672 8.459-4.583 7.627-5.675 4.599-16.808-2.944-20.599z" stroke="url(#k)"/><path d="M474.619 273.557c-3.849 1.982-9.842 1.724-14.641-.592-4.564-2.21-8.421-5.847-12.441-9.629-1.703-1.555-3.365-3.207-5.241-4.749-9.258-7.999-18.994-11.498-28.9-10.424-4.621.48-9.268 1.961-14.186 4.493-4.418 2.275-8.456 5.114-12.382 7.82-1.871 1.267-3.641 2.559-5.401 3.693a33.878 33.878 0 0 1-3.257 1.905c-5.202 2.679-12.336 4.757-15.413 1.933-1.733-1.615-2.403-4.842-2.053-10.114.106-1.195.182-2.449.359-3.681.639-6.637 1.295-14.118-1.894-20.835-.887-1.899-2.029-3.591-3.047-5.043-1.08-1.572-2.129-3.083-2.565-4.455-1.214-3.934 2.322-11.075 11.488-17.087 1.363-.854 2.624-1.731 3.917-2.548 5.534-3.61 10.315-6.756 14.805-9.068 8.908-4.587 15.639-5.698 25.579 1.875 2.777 2.066 5.331 4.399 8.017 6.815 3.733 3.397 7.6 6.878 12.147 9.932 12.127 7.967 28.837 12.053 48.505 11.729 1.348-.01 2.766-.057 4.185-.103 7.195-.209 14.043-.392 18.802 2.021 2.313 1.165 4.043 3.998 4.128 6.614.029 1.809-.804 2.466-1.089 2.613-.254.207-.682.427-1.323.757-.571.294-1.141.587-1.742.821-.712.367-1.527.71-2.382 1.151-.927.477-1.68.941-2.433 1.404-8.363 5.295-11.221 13.226-13.747 20.227-1.732 4.691-3.311 9.152-6.187 11.621-.459.16-1.038.611-1.608.904z" stroke="#8C8C8C"/><path d="M391.761 207.012c-8.027-2.63-17.524-1.463-23.359 7.165-2.806 4.181-.607 8.976-1.022 13.598-.444 5.092-4.275 10.257-3.464 15.159.904 5.082 6.573 7.862 12.151 8.714 3.728.588 5.479-.39 8.182-2.845 2.702-2.456 5.073-3.981 8.617-5.502 7.802-3.409 16.131-5.267 23.571-9.554 2.717-1.551 5.442-3.79 5.744-6.529.321-3.053-2.527-5.083-5.128-6.631-8.139-4.776-15.947-10.484-25.292-13.575z" stroke="url(#l)"/><path d="M412.925 231.831c-6.934 3.343-14.273 5.374-21.29 8.38-.886.38-1.741.82-2.525 1.224-5.274 2.715-9.205 8.388-15.606 6.288-2.842-.968-4.845-3.281-5.369-6.051-.964-4.671 2.8-9.269 3.224-14.047.184-1.919-.019-3.714-.191-5.45-.258-2.602-.505-4.831.559-6.443 1.479-2.206 3.267-3.81 5.334-4.875 4.917-2.532 10.271-1.413 13.012-.468 6.871 2.313 13.199 6.198 19.252 10.073 2.099 1.275 3.994 2.503 6.204 3.644 1.607.845 3.065 2.45 2.339 4.192-.524 1.258-1.888 2.112-3.17 2.772-.632.174-1.203.467-1.773.761z" stroke="url(#m)"/><path d="M404.534 227.265c-.211.641-.8 1.248-1.482 1.675-.895.537-1.945.774-2.995 1.011-4.557 1.13-8.938 2.778-13.112 5.003-2.138 1.101-4.285 2.359-6.166 3.783-1.261.878-2.904 2.94-4.492 1.782-1.527-1.038.111-4.161.685-5.673.826-2.249 1.843-4.825 2.155-7.721.253-2.486-.493-4.458-.454-6.834-.005-1.061.336-2.149 1.179-2.963 1.138-1.118 2.882-1.408 4.353-1.177 3.044.484 6.289 2.233 8.908 3.468 3.224 1.532 6.335 3.197 9.589 4.789.973.488 1.976 1.035 2.053 2.059-.05.254-.1.508-.221.798z" stroke="url(#n)"/><path d="M392.844 226.969c-.05.254-.171.544-.425.751-.254.207-.61.391-.895.537-1.568.808-3.229 1.435-4.889 2.062-.388.123-.815.343-1.224.25-.48-.057-.808-.344-.851-.778-.105-.554.586-1.137.624-1.765.078-.724-.12-1.458-.318-2.192-.095-.711-.23-3.073 1.294-2.566.337.13.563.394.829.561 1.21 1.124 2.858 1.872 4.564 2.209.511.117 1.124.257 1.27.715.03.06.061.12.021.216z" stroke="url(#o)"/><path d="M464.279 229.477c-5.455 1.137-11.21 1.517-16.72 1.846-10.572.656-9.716 8.271-7.345 14.802 1.667 4.461 4.433 8.433 8.256 11.48 3.588 2.94 10.073 3.628 12.502 7.469 1.132 1.849 2.168 4.736 4.665 3.982 2.038-.594 2.393-3.056 3.026-4.978 1.338-3.881 5.468-6.54 8.688-9.566 5.781-5.408 8.893-13.547 6.085-19.7-2.632-5.637-11.112-7.046-19.157-5.335z" stroke="url(#p)"/><path d="M464.439 256.756c-.072.036-.174.013-.245.05-2.296.27-4.338-1.946-6.19-2.741-1.514-.664-3.099-1.291-3.889-1.949-3.454-2.857-7.038-7.015-7.348-11.643-.295-3.724 5.704-2.405 8.448-2.679 3.265-.313 6.57-.723 9.894-1.447 5.211-1.087 10.135-.279 11.106 1.957 1.466 3.197-.254 8.262-4.022 11.799-.62.547-1.352 1.228-2.114 1.848-1.739 1.352-3.265 4.341-5.64 4.805z" stroke="url(#q)"/><path d="M464.042 252.48c-1.793.543-2.659-1.138-4.009-1.659-1.013-.391-2.66-1.138-3.121-1.509a23.48 23.48 0 0 1-4.095-4.275c-.412-.624-1.922-2.506-1.283-3.367.638-.861 5.774-.693 6.855-.87 3.1-.457 6.303-.89 9.404-1.347 1.499-.24 3.132-.397 4.116.464.789.658.928 1.802.658 2.854-.27 1.051-.949 2.008-1.731 2.942a51.096 51.096 0 0 1-4.302 4.952c-.701.741-1.503 1.458-2.522 1.755.102.023.03.06.03.06z" stroke="url(#r)"/><path d="M609.031 180.02c-12.421-3.636-24.451-12.64-22.156-24.993 1.091-6.11 5.533-11.665 8.638-17.367 8.494-15.546 6.974-35.13-6.598-44.328-13.643-9.162-38.968-3.189-46.379 12.711-4.562 9.873-3.941 15.632-12.436 23.123-6.452 5.678-16.41 10.502-16.599 19.415-.113 5.91 4.637 12.507-.464 16.958-1.423 1.264-3.359 1.881-5.215 2.305-17.208 4.226-33.445-3.144-50.694-2.849-6.328.142-13.211 1.483-18.356 5.5-5.113 4.077-7.587 11.354-3.87 15.596 3.491 3.978 10.278 3.675 16.06 4.573 11.697 1.881 20.383 9.643 31.444 12.915 10.346 3.108 22.212 2.165 33.204 3.725 34.423 4.692 28.036 40.963-5.325 50.239-1.896.52-3.925.957-5.645 1.995-12.435 7.543 14.644 5.151 16.027 6.262 3.567 2.723 5.283 6.931 8.372 10.128 5.726 5.867 15.655 7.29 24.997 5.823 9.343-1.467 18.213-5.427 27.074-9.23 15.838-6.711 32.406-8.328 47.592-16.832 13.578-7.599 25.622-19.577 28.859-33.251 2.898-12.056-1.82-24.37-11.776-31.098-10.222-6.895-24.435-7.708-36.754-11.32z" stroke="url(#s)"/><path d="M629.016 247.546c-1.221.781-2.442 1.562-3.796 2.259-7.756 4.374-16.256 6.775-25.215 9.337-6.992 2.004-14.158 4.022-21.42 7.078l-1.558.65c-8.047 3.46-15.665 6.699-23.335 7.912-7.986 1.301-14.904-.228-18.547-3.976-2.863-2.934-7.832-6.455-7.5-11.413.513-7.408 9.494-9.753 13.301-15.665 4.112-6.373 6.065-13.611 5.122-20.345-1.748-12.323-12.245-20.977-28.343-23.174-4.453-.595-8.997-.839-13.265-1.073-6.749-.325-13.151-.676-18.784-2.335-4.171-1.272-8.091-3.281-12.277-5.457-6.059-3.188-12.322-6.422-20.189-7.691-1.471-.231-2.911-.401-4.351-.571-3.258-.375-6.69-.735-7.758-1.933-.872-.995 0-4.028 2.176-5.756.254-.207.579-.451.864-.597 2.767-1.805 6.866-2.776 11.949-2.885 6.154-.13 12.376.922 18.873 1.984 10.635 1.743 21.679 3.58 33.77.622 1.998-.497 4.668-1.264 7.222-2.959a12.68 12.68 0 0 0 1.881-1.425c6.96-6.092 5.197-13.544 4.051-18.045-.386-1.625-.834-3.37-.799-4.528.076-3.004 2.556-5.192 8.372-9.479 1.81-1.388 3.691-2.813 5.51-4.358 7.621-6.736 9.673-12.732 11.675-18.475.794-2.309 1.629-4.714 2.86-7.4 1.313-2.88 3.637-5.369 6.801-7.454 8.373-5.452 20.354-5.997 27.329-1.381 4.978 3.364 8.201 8.923 9.073 15.694.841 6.711-.632 14.005-4.09 20.421a285.17 285.17 0 0 1-2.54 4.348c-2.753 4.458-5.82 9.533-6.924 15.269-1.946 10.577 3.907 25.27 26.541 31.93 4.242 1.236 8.504 2.157 12.734 3.018 8.389 1.76 16.268 3.403 22.178 7.351 7.866 5.297 11.623 15.218 9.364 24.664-2.248 9.29-9.887 18.619-20.955 25.838z" stroke="url(#t)"/><path d="M624.002 243.065c-5.609 3.116-11.854 5.344-17.927 7.559-13.795 4.9-27.52 9.764-41.316 14.664-5.186 1.835-15.585 4.226-20.642 3.334-3.729-.588-6.728-4.135-5.041-7.512.869-1.815 2.812-3.119 4.55-4.471 10.462-8.047 15.052-20.67 13.087-31.665-2.364-12.994-12.99-22.949-25.909-28.076-10.289-4.049-25.606-3.154-37.146-4.203-1.511-.134-3.022-.267-4.149-1.055-1.127-.788-1.615-2.436-.682-3.6 1.339-1.602 3.801-1.198 5.743-.754 12.18 2.468 26.532-5.379 33.963-15.285 4.43-5.929 4.186-11.655 6.43-17.979 1.126-3.239 3.173-6.269 5.077-9.225 5.246-8.022 10.523-15.983 15.698-23.967 3.454-5.199 7.741-11.054 14.033-12.318 5.904-1.141 11.272 2.631 12.91 7.563 1.639 4.932.157 10.635-2.123 15.836-2.28 5.202-5.48 10.194-7.658 15.419-4.163 10.124-4.199 21.085-.222 30.209 4.048 9.087 12.108 16.336 22.262 19.77 8.661 2.988 18.625 3.253 27.59 5.78 8.934 2.467 17.466 8.181 18.083 16.907.528 7.328-4.762 14.915-11.626 19.97-1.546 1.024-3.235 2.122-4.985 3.099z" stroke="url(#u)"/><path d="M627.367 229.629c-2.433 1.404-5.02 2.509-7.638 3.553-15.676 6.324-31.251 12.673-46.928 18.997-1.701.724-3.606 1.401-5.16.834-1.861-.638-2.455-2.84-1.893-4.725.562-1.886 1.942-3.584 3.117-5.329 11.977-17.187 5.132-36.081-7.779-47.672-3.343-2.99-7.123-5.603-11.237-7.816-3.676-2.059-19.367-.667-11.187-9.819 1.522-1.771 3.7-2.969 5.621-4.49 5.56-4.611 5.42-12.063 7.319-17.828 1.98-5.96 5.36-11.652 8.966-17.081 3.15-4.738 9.489-10.813 11.035-15.865.471-1.535.739-3.117 1.65-4.498.912-1.382 2.876-2.469 4.329-1.925 1.012.391 1.498 1.508 1.432 2.606-.066 1.098-.581 2.199-1.127 3.24-4.767 9.827-10.708 19.65-12.605 29.974-1.809 9.443-.861 18.987 2.785 27.293 5.019 11.322 15.181 20.377 27.768 24.686 5.686 1.936 11.396 2.871 16.903 3.76 4.035.657 7.764 1.245 11.229 2.197 7.268 2.033 15.311 7.847 8.268 15.881-1.237 1.625-2.935 2.879-4.868 4.027z" stroke="url(#v)"/><path d="M620.878 220.885c-1.617 1.061-3.808 1.885-4.988 2.569-5.792 3.286-11.48 6.595-17.272 9.882-4.325 2.455-9.147 5.698-13.927 7.095-1.651.471-3.602.183-4.354-1.101-.783-1.345.43-3.718.697-5.299.365-2.62.555-5.226.501-7.782-.083-4.364-.87-8.519-1.933-12.684-.645-2.479-2.831-8.649.506-10.748 4.385-2.865 9.347 5.371 12.661 6.552 7.394 2.804 15.833 4.31 23.923 5.312 1.92.228 3.871.515 5.183 1.663 2.174 1.769.977 3.297-.997 4.541z" stroke="url(#w)"/><path d="M616.394 218.476c.024.747-.881 1.441-1.736 1.882-4.895 2.749-9.862 5.534-14.758 8.283-3.858 2.139-7.332 5.372-11.58 7.103-2.831 1.154-2.998.48-3.092-1.979-.061-1.869.154-3.727.195-5.573a60.596 60.596 0 0 0-.814-9.46c-.327-2.035-2.47-6.023-.623-8.038 2.08-2.439 5.748.307 7.488 1.235 6.592 3.521 14.39 5.358 22.505 5.359 1 .016 2.369.224 2.415 1.188z" stroke="url(#x)"/><path d="M599.67 222.603c-1.934 1.147-5.963 5.578-8.354 5.138-2.697-.511-1.973-4.532-1.687-6.428.663-4.14 5.127-1.424 7.713-.779.787.127 4.475.811 2.328 2.069z" stroke="url(#y)"/><path d="M562.519 187.401c-2.557 2.913-5.532-3.914-8.674-5.64-2.038-1.155-6.491 2.278-7.135-1.95-.716-4.191 1.118-.804 1.667-1.314 4.614-3.82 3.177-11.515 7.805-12.683 4.628-1.167 1.714 11.733 4.12 17.106.599 1.515 4.775 1.569 2.217 4.481z" stroke="url(#z)"/><path d="M237.265 478.467c-7.929 12.443-18.721 23.7-31.467 32.391-25.927 17.759-50.694 19.037-79.525 20.128-32.361 1.237-30.99-19.912-27.813-45.259 3.264-26.227-5.707-51.702-22.93-70.267-17.81-19.176-52.51-24.41-51.712-55.599.483-21.3 21.964-42.089 40.629-55.044 4.251-2.949 9.258-5.832 14.251-5.591 5.82.271 9.63 4.693 13.201 8.478 8.128 8.43 27.464 9.036 38.824.982 7.282-5.117 12.711-13.309 21.255-15.276 11.347-2.652 19.493 7.213 30.292 9.1 14.936 2.568 33.04-10.25 46.249-4.209 9.546 4.356 10.77 16.189 17.148 23.848 17.275 20.59 63.471 4.022 80.715 24.553 8.318 9.851 5.476 26.742-6.152 36.378-17.513 14.49-52.575 6.63-63.3 27.124-4.761 9.139-4.148 19.083-5.242 28.69-1.431 13.504-6.495 27.131-14.423 39.573z" stroke="url(#A)"/><path d="M191.283 511.726c-20.667 10.642-41.813 11.424-64.275 12.275-8.654.353-14.47-1.136-17.763-4.38-6.033-5.937-4.946-18.884-3.034-34.08 3.433-27.302-5.497-54.622-24.475-75.019-6.518-7.055-14.946-12.215-23.035-17.245-14.787-9.105-27.576-16.958-27.196-34.253.48-21.83 28.473-42.932 37.047-48.868 1.658-1.157 3.021-2.011 4.233-2.635 1.781-.918 3.188-1.338 4.29-1.298 2.512.151 5.211 2.941 7.777 5.647l.81.875c9.431 9.735 30.009 11.526 44.832 3.893a41.243 41.243 0 0 0 4.334-2.612c2.96-2.132 5.551-4.454 7.968-6.763 2.743-2.553 5.375-4.972 7.869-6.256.784-.404 1.456-.674 2.19-.824 3.783-.884 7.969 1.293 12.861 3.789 4.053 2.093 8.709 4.483 14.073 5.444 8.613 1.493 17.389-.898 25.146-2.993 7.829-2.131 14.566-3.929 19.202-1.756 3.898 1.792 6.054 6.154 8.478 11.213 1.816 3.701 3.622 7.558 6.559 10.986 10.445 12.404 28.886 13.548 45.192 14.574 14.724.93 28.692 1.793 35.522 9.979 5.998 7.095 3.818 19.845-4.537 26.731-1.128.961-2.42 1.778-3.917 2.549-5.772 2.972-13.349 4.366-21.385 5.92-8.729 1.607-17.774 3.301-25.542 7.301-6.627 3.413-11.503 8.128-14.657 14.084-4.367 8.328-4.936 16.677-5.456 24.772-.172 2.292-.263 4.391-.528 6.503-1.356 12.25-5.945 24.873-13.306 36.491-7.433 11.655-17.444 21.978-28.968 29.888-3.307 2.159-6.746 4.234-10.309 6.068z" stroke="url(#B)"/><path d="M186.45 502.355c-13.742 7.456-29.266 11.802-44.341 12.117-6.95.159-14.12-.633-19.405-4.067-8.51-5.497-7.789-14.076-5.834-23.062 1.976-8.769 2.034-17.235 1.102-25.874-2.379-21.954-11.967-42.323-26.82-58.385-7.431-7.953-16.32-13.484-24.982-18.75-15.288-9.379-23.248-14.856-22.96-26.555.15-8.285 6.791-17.1 12.293-23.049 4.395-4.772 11.773-13.206 18.953-14.32 4.987-.82 5.986.945 9.153 3.418 5.043 4.015 8.402 6.161 16.064 7.384 11.462 1.773 24.376.063 35.493-5.662 7.269-3.743 11.087-11.561 19.84-12.421 7.816-.756 13.424 4.183 20.03 6.33 7.995 2.57 15.002 1.47 23.438-1.582 6.847-2.462 14.787-4.727 20.285-1.403 3.533 2.133 4.992 6.017 6.817 9.561 10.381 19.809 33.034 24.407 56.427 25.888 7.74.499 18.528.263 24.947 3.798 4.012 2.189 6.344 7.068 4.018 11.306-2.357 4.177-7.952 5.918-12.896 7.172-22.255 5.456-47.013 8.326-58.557 30.382-7.722 14.768-4.576 29.107-8.644 43.969-4.319 15.599-14.03 30.707-27.465 42.261-5.163 4.331-10.89 8.268-16.956 11.544z" stroke="url(#C)"/><path d="M182.874 500.475c-12.827 6.606-26.752 10.204-40.306 10.496-7.778.129-13.479-.963-17.33-3.539-6.514-4.245-6.587-10.515-4.574-19.912 1.855-8.479 2.23-17.031 1.168-26.972-2.484-22.507-12.012-43.287-27.583-60.044-7.688-8.276-16.781-13.853-25.608-19.264-18.851-11.571-29.48-23.805-10.892-45.84 4.646-5.508 12.228-9.869 19.184-8.967 2.33.321 4.457 1.125 6.584 1.93 17.541 6.926 33.035 10.575 53.274.153 3.349-1.724 6.011-4.083 8.348-6.199 2.042-1.811 3.871-3.513 5.938-4.577 1.282-.661 2.546-1.007 3.903-1.174 4.132-.38 7.826 1.366 11.684 3.255 2.149 1.021 4.328 2.103 6.7 2.857 9.959 3.231 18.512 1.107 26.174-1.698 6.103-2.155 12.85-4.11 16.813-1.667 2.202 1.299 3.46 3.918 4.852 6.621l.897 1.742c11.371 21.732 36.351 26.119 59.162 27.52 1.409.111 2.889.184 4.441.221 6.749.325 14.396.643 19.012 3.129 2.508 1.369 4.321 4.539 2.966 6.985-.577.981-1.563 1.868-3.131 2.676-1.995 1.027-4.594 1.757-6.908 2.341-2.804.684-5.709 1.344-8.513 2.028-10.817 2.454-21.951 4.996-31.714 10.023-9.692 4.991-16.619 11.674-21.299 20.619-4.953 9.467-5.681 18.733-6.493 27.662-.49 5.877-.89 11.402-2.505 17.021-4.148 15.056-13.465 29.353-26.209 40.323-4.878 4.184-10.351 7.914-16.101 11.103-.58.451-1.293.818-1.934 1.148z" stroke="#8C8C8C"/><path d="M179.347 488.383c-9.945 5.197-21.095 8.583-32.472 9.426-4.234.356-8.747.172-11.607-2.231-2.399-2.032-3.171-5.283-2.841-8.493.505-4.972 2.908-26.044 2.286-31.803-2.249-20.653-10.137-39.997-22.49-56.283-5.345-7.052-11.758-13.553-18.403-19.63-5.826-5.36-14.569-6.405-21.358-10.661-5.991-3.754-10.574-9.678-10.57-16.672.006-6.994 5.691-14.862 13.399-16.703 7.391-1.754 13.964 2.081 20.489 4.421 10.144 3.592 21.36 3.136 32.617.835 10.696-2.164 18.066-12.191 28.653-13.691 9.262-1.274 16.343 6.175 25.539 6 7.329-.126 14.561-4.991 21.8-4.766 7.891.268 13.057 6.272 18.297 11.021 10.153 9.211 24.065 15.042 39.108 16.415 3.4.301 6.984.432 9.758 1.967 2.774 1.535 4.426 5.093 2.46 7.929-3.293 4.811-12.689 3.722-17.733 5.483-7.194 2.489-13.868 6.686-19.19 11.934-12.543 12.235-16.561 30.871-17.81 45.953-.441 5.623-.834 10.461-2.188 15.186-5.272 18.826-19.593 34.788-37.744 44.363z" stroke="url(#D)"/><path d="M174.322 480.026c-1.608.904-3.318 1.785-5.09 2.546-5.041 2.291-10.974 3.902-15.668 2.14-4.019-1.502-6.386-5.223-7.254-9.184-.867-3.961-.511-8.172-.298-12.31 1.739-42.845-22.535-82.631-61.94-101.553-2.518-1.211-5.209-2.409-7.168-4.288-1.96-1.879-3.138-4.692-2.182-7.389 4.041-12.112 18.776.744 24.356 2.126 11.631 2.978 26.558 1.675 38.06-4.704 7.43-4.13 15.387-8.987 23.474-8.516 6.749.325 12.2 4.433 19.03 4.564 6.278.111 12.651-3.095 18.948-3.298 8.063-.276 12.975 4.186 18.467 8.198 6.25 4.609 14.115 7.627 21.33 11.131 2.046.998 4.217 2.237 4.361 4.442.343 5.219-9.509 8.849-13.076 11.901-5.925 4.951-10.353 11.411-13.269 18.004-4.43 9.957-5.887 20.435-7.507 30.769-3.546 21.129-13.027 43.338-34.574 55.421z" stroke="#8C8C8C" stroke-width="2"/><path d="M174.623 473.413c-5.583 2.115-10.29-.021-10.461-7.532-.293-11.249-.093-22.067-2.548-32.963-3.07-13.314-8.605-25.815-15.972-37.144-6.265-9.541-13.858-17.107-22.441-24.846-1.508-1.352-3.13-3.101-2.385-5.156.795-2.309 3.995-3.273 6.616-3.787 6.709-1.327 12.325-1.103 18.463-4.415 7.278-3.9 14.01-6.759 22.119-6.071 5.77.525 11.099 2.645 16.928 2.759 5.522.044 11.188-1.734 16.782-1.727 9.493.052 29.225 6.154 26.882 17.012-1.007 4.698-4.67 8.789-8.213 12.589-5.31 5.622-10.726 12.438-12.394 19.529-2.637 11.162-2.713 22.22-6.218 33.448-3.725 12.026-10.033 23.938-19.783 33.367-2.458 2.405-5.012 4.1-7.375 4.937z" stroke="url(#E)"/><path d="M174.775 469.691c-.428.22-.784.404-1.242.564-1.06.393-2.497.754-3.603.183-1.238-.654-1.921-2.506-1.975-5.063-.092-1.928-.081-3.834-.142-5.702-.192-9.477-.34-18.52-2.511-27.814-3.039-13.254-8.556-26.068-16.365-38.082-2.85-4.308-6.858-7.716-10.755-11.257-3.015-2.703-11.405-8.49-11.306-13.025.149-4.789 15.005-6.055 19.993-8.623l.499-.257 1.924-.991c6.058-3.119 11.355-5.087 17.677-4.543 2.267.201 4.586.678 6.937 1.216 3.239.688 6.611 1.459 10.235 1.493 3.175.037 6.245-.48 9.203-.863 2.682-.394 5.192-.774 7.611-.804 6.073.065 17.398 2.972 21.988 8.209 1.489 1.665 2.008 3.373 1.66 5.149-.808 3.683-3.883 7.167-7.172 10.76-4.761 5.112-11.407 12.866-13.364 21.321-1.159 4.929-1.868 9.854-2.497 14.585-.866 6.374-1.712 12.433-3.6 18.573-4.057 12.957-10.29 23.614-18.68 31.658-1.463 1.361-3.018 2.542-4.515 3.313z" stroke="url(#F)"/><path d="M179.413 449.284c-4.99.29-1.083-14.185-2.609-20.999-3.258-14.205-9.167-27.957-17.552-40.739-2.531-3.864-6.359-7.972-10.638-10.329-1.74-.928-3.331-2.616-2.494-4.492.686-1.645 2.836-2.372 4.59-2.819 4.832-1.12 8.406-4.86 13.594-4.416 1.511.134 3.35.554 5.466.985 3.648.781 7.736 1.716 12.738 1.8 4.246.018 8.01-.553 11.355-1.059 2.264-.33 4.182-.634 5.529-.644 3.522.011 10.872.102 11.036 4.273.183 3.857-7.146 9.759-9.558 13.129-3.73 5.189-6.722 10.758-8.111 16.64-1.289 5.376-1.977 10.518-2.656 15.503-.856 6.217-1.594 11.612-3.261 16.955-1.707 5.438-2.439 15.923-7.429 16.212z" stroke="url(#G)"/><path d="M180.27 407.882c-1.701.724-3.041.047-4.221-1.018-2.575-2.55-3.229-6.621-4.307-9.941-1.484-4.632-1.765-9.731-4.349-13.872-1.287-2.149-3.048-3.294-5.259-4.435-2.077-1.058-2.898-1.776-1.001-4.045 4.241-5.071 11.322 2.377 18.948 2.479 3.072.013 14.45-6.606 15.487-1.44.105.554-.137 1.134-.409 1.655-1.163 2.119-3.196 3.774-4.564 5.846a69.197 69.197 0 0 0-4.078 6.963c-1.445 2.796-2.757 5.676-3.793 8.565-.534 1.415-1.18 2.963-1.366 4.352-.305 2.209 2.404 3.093-.731 4.708l-.357.183z" stroke="url(#H)"/><path d="M265.388 114.097c-8.251-4.643-21.071-4.501-25.074-12.623-2.279-4.602-.727-10.342-.438-15.734 1.257-21.546-20.291-35.377-43.413-33.881-12.551.839-22.493 8.846-34.542 9.959-13.335 1.243-25.165-4.748-37.426-7.022-9.154-1.67-18.942-1.417-28.527.63-19.556 4.219-51.507 25.688-43.357 46.417 2.483 6.397 9.099 10.666 16.507 12.095 17.655 3.296 49.144-8.739 56.219 13.228 1.567 4.969.618 11.005 3.824 15.13 5.23 6.655 17.404 4.033 26.236 6.477 8.321 2.327 13.603 9.258 16.723 16.543 3.192 7.248 4.886 15.267 8.862 22.111 5.191 9.031 14.75 16.039 26.513 16.822 11.692.819 25.257-5.406 30.706-15.66 5.449-10.253 2.983-23.271 12.2-31.285 3.607-3.149 8.406-4.861 12.465-7.483 13.44-8.744 14.776-28.735 2.522-35.724z" stroke="url(#I)"/><path d="M222.625 194.407c-4.205 2.165-9.068 3.226-13.47 2.908-8.628-.648-16.575-5.752-21.138-13.737-2.092-3.711-3.603-7.872-5.065-12.287-1.027-3.044-2.115-6.207-3.519-9.284-4.709-10.722-11.695-17.46-20.834-19.974-3.874-1.045-7.999-1.352-11.716-1.566-5.953-.355-9.691-.786-11.232-2.728-1.027-1.295-1.305-3.584-1.594-6.247-.215-2.169-.554-4.578-1.271-7.021-6.308-19.778-28.114-18.353-43.992-17.321-6.55.41-12.653.816-17.128.005-5.599-1.069-10.106-4.219-11.76-8.307-1.976-5.062-.727-10.341 3.907-16.224 4.3-5.481 11.437-11.056 19.49-15.203 4.703-2.422 9.47-4.194 13.427-5.09 8.432-1.835 17.179-2.007 25.24-.535 3.76.648 7.594 1.79 11.601 2.918 8.689 2.517 17.685 5.105 28.102 4.148 7.152-.643 13.559-3.258 19.151-5.53 5.236-2.088 10.156-4.09 15.146-4.38 18.337-1.158 37.204 9.569 36.133 27.448-.066 1.098-.243 2.329-.319 3.584-.557 4.695-1.122 10.077 1.374 15.099 3.693 7.522 12.076 9.969 18.762 11.922 3.292.965 6.379 1.883 8.682 3.204 3.707 2.12 5.76 6.458 5.348 11.61-.341 5.116-2.971 9.814-7.102 12.473-1.221.78-2.646 1.514-4.183 2.382-2.922 1.504-6.24 3.289-9.228 5.891-7.652 6.676-9.333 15.142-10.918 22.57-.836 4.154-1.622 8.055-3.26 11.178-1.606 3.183-4.715 6.076-8.634 8.094z" stroke="url(#J)"/><path d="M210.761 188.887a9.187 9.187 0 0 1-2.423 1.248c-7.184 2.332-14.158-4.033-16.877-8.788-1.72-2.99-2.954-6.611-4.394-10.809-1.119-3.223-2.269-6.507-3.787-9.981-3.285-7.428-8.046-14.4-14.9-19.306-7.582-5.443-16.697-5.461-25.631-7.928-2.106-.588-4.041-1.719-4.938-3.461-1.33-2.583-.417-5.713-1.36-8.419-1.005-2.827-3.143-5.753-5.003-8.139-4.716-6.007-11.729-9.996-19.762-11.939-12.765-3.078-26.543-.771-39.976-.769-2.9-.027-6.198-.305-7.485-2.454-.906-1.585-.428-3.807.747-5.552 3.383-5.162 10.28-9.626 15.84-12.488 3.563-1.835 7.169-3.236 9.932-3.823 6.821-1.46 13.843-1.657 20.331-.438 3.177.568 6.705 1.64 10.476 2.661 9.303 2.657 19.822 5.752 32.565 4.586 9.132-.827 16.812-3.946 23.005-6.45 4.319-1.769 8.068-3.243 10.946-3.433 12.479-.803 25.969 6.31 25.314 17.819-.016.844-.184 1.918-.321 3.053-.636 5.419-1.455 12.757 2.247 20.122 2.682 5.382 7.111 9.257 12.598 12.207 1.873 1.012 3.798 2.3 5.873 2.828 2.924.774 6.065.221 8.817 1.539 2.957 1.365 4.863 4.716 3.368 7.765-1.334 2.663-4.491 4.061-7.311 5.589-11.207 6.075-19.562 16.989-21.474 28.157-.616 3.357-.609 6.697-1.776 10.034-.701 2.489-2.373 5.021-4.641 6.569z" stroke="#8C8C8C" stroke-width="2"/><path d="M204.446 179.074c-.571.294-1.203.467-1.763.604-5.61.837-7.966-4.79-8.752-6.665-1.178-2.813-1.52-5.753-1.83-8.633-.33-2.566-.598-5.012-1.476-7.068-4.101-9.363-9.742-16.642-16.862-21.715-3.576-2.566-7.945-4.572-12.934-6.031-1.052-.294-2.524-.524-4.137-.682-3.187-.41-6.854-.878-9.364-2.777-2.613-1.922-3.209-4.655-3.7-6.834-.158-.831-.324-1.505-.562-2.143-.983-2.609-2.549-5.299-4.922-8.333-4.141-5.239-11.366-6.838-19.786-8.658-1.84-.42-3.751-.805-5.621-1.285-.102-.024-11.696-3.63-12.206-9.522-.184-2.109.969-4.071 3.126-5.485.285-.147.468-.317.753-.464 2.066-1.064 4.139-1.067 5.384-1.1.796-.03 1.52-.024 2.317-.054 3.837-.076 7.777-.129 11.642 1.073 2.034.624 3.855 1.358 5.706 2.153 1.248.497 2.496.995 3.713 1.432 7.977 2.884 14.617 3.872 20.871 3.236 10.488-.993 19.228-4.506 25.635-7.121 7.253-2.899 17.113-4.936 22.928 2.329 4.047 5.059 3.327 11.89 2.794 17.332-.543 5.599.222 9.537 2.997 15.1 2.125 4.301 5.461 7.979 10.306 11.259.399.251 1.403.798 2.446 1.249 4.124 2.056 9.323 4.623 9.915 8.574.284 1.601-.269 3.33-1.496 4.798-1.38 1.698-3.131 2.676-4.698 3.483l-.856.44-.356.184c-4.031 2.151-7.571 6.482-10.71 13.343-.273.52-.773 2.525-1.174 4.024-1.553 5.739-2.807 9.957-4.846 12.299-.977.73-1.699 1.254-2.482 1.658z" stroke="url(#K)"/><path d="M203.59 175.478c-.335.4-.732.681-1.078.707-2.683.394-4.294-3.26-5.027-4.859-2.087-4.929-1.21-10.928-3.337-15.76-4.348-9.845-10.309-17.567-17.859-22.95-4.139-2.961-8.917-5.06-14.008-6.542-3.7-1.059-9.589-.763-12.396-2.888-2.48-1.839-2.252-5.073-3.266-7.742-1.221-3.247-3.248-6.308-5.395-9.077-5.806-7.422-16.621-8.465-27.24-11.052-1.941-.444-13.584-5.545-8.548-8.898 1.078-.707 2.426-.717 3.671-.75 4.491-.033 8.827-.366 12.794.86 3.118.977 6.106 2.403 9.286 3.5 6.965 2.494 14.558 4.284 22.587 3.417 11.111-1.01 20.207-4.705 26.859-7.37 6.723-2.703 14.086-3.986 18.524 1.48 3.246 4.028 2.725 9.844 2.16 15.226-.639 6.637.507 11.139 3.21 16.739 2.527 5.082 6.467 9.057 11.241 12.374 2.622 1.766 13.993 5.638 10.493 9.872-1.116 1.335-2.96 2.132-4.599 2.976-6.169 3.253-10.076 9.672-12.66 15.335-1.039 2.359-2.966 12.623-5.412 15.402z" stroke="url(#L)"/><path d="M201.408 156.541c-.378-.034-.746-.224-1.136-.631-.718-.694-.652-1.792-.627-2.793.312-6.924-3.501-11.877-7.264-17.083-3.382-4.642-7.446-8.857-12.25-12.234-3.576-2.567-7.669-4.563-11.995-6.135-4.06-1.405-9.57-1.076-13.102-3.208-2.867-1.716-2.648-4.793-3.662-7.462-1.274-3.524-3.629-6.871-7.028-8.92-.932-.585-2.109-1.119-2.319-2.227-.197-.734.206-1.701.897-2.285 2.715-2.082 9.477.895 12.55.909 9.155-.079 17.852-4.025 26.521-7.501 8.597-3.44 10.528-1.09 11.494.085 2.086 2.65 1.59 7.464 1.194 11.772-.836 8.182.907 13.668 3.743 19.351 1.847 3.761 4.415 6.998 7.483 9.979 2.38 2.346 10.834 4.756 11.625 7.693.395 1.468-.433 3.186-1.611 4.401-1.726 1.725-4.059 2.622-5.785 4.347-2.133 2.162-4.08 4.684-5.24 7.334-.648 1.017-1.608 4.931-3.488 4.608z" stroke="url(#M)"/><path d="M205.46 141.462c-.756-.067-1.533-.351-2.047-.998-5.948-7.349-10.03-15.278-18.175-21.115a50.764 50.764 0 0 0-11.75-6.185c-2.128-.804-4.336-1.415-6.584-1.929-4.363-.945-7.55-1.356-9.511-5.514-.671-1.478-.549-3.517.843-4.842.954-.947 2.361-1.368 3.625-1.715 5.728-1.657 11.558-3.291 17.286-4.95 2.426-.716 4.728-1.674 7.02-2.474 2.048-.75 3.761-1.101 3.561 1.662-.576 9.036-.758 17.262 2.795 25.387 2.127 4.832 5.141 9.284 9.029 12.982 1.795 1.735 5.396 3.301 6.692 5.293 1.173 1.752-.099 4.535-2.784 4.398z" stroke="url(#N)"/><path d="M501.502 136.828c-10.475 5.394-19.951 2.75-23.541-2.469-1.779-2.58-2.254-5.603-2.478-7.615-.591-5.7.153-11.783.919-17.649 1.256-9.994 2.442-19.42-3.305-25.504-4.516-4.742-12.128-6.218-20.19-7.69-1.808-.361-3.688-.685-5.599-1.07-14.419-3.138-22.838-10.734-22.407-20.227.107-2.943 1.103-5.736 1.988-8.395 1.096-3.3 2.132-6.19 1.304-8.5-.684-1.851-2.529-3.333-4.507-4.898-.86-.621-1.681-1.339-2.532-2.116-6.881-6.184-8.891-15.865-5.156-24.02 1.666-3.593 4.428-6.46 8.276-8.441 7.554-3.89 17.803-3.772 27.674-3.687 6.696.047 13.046.122 17.469-1.092 2.528-.694 5.199-1.461 7.696-2.215 9.489-2.758 19.365-5.64 29.304-6.123 9.348-.406 21.348 2.762 31.197 8.406 18.366 10.454 24.6 25.71 16.261 39.808-4.999 8.502-14.548 13.42-22.997 17.846l-2.708 1.395c-10.771 5.698-16.61 11.516-17.447 17.42-.374 2.775.417 5.712 1.239 8.709l.145.457c2.716 10 4.147 18.383 4.402 26.232.345 11.525-2.458 20.264-8.682 26.737-1.736 1.882-3.902 3.453-6.325 4.701z" stroke="url(#O)"/><path d="M535.129-1.855c-9.418-5.333-20.601-8.314-29.153-7.938-12.052.582-24.084 4.878-36.092 8.174-14.535 3.989-43.607-4.144-50.441 10.775-3.341 7.344-1.033 15.503 4.505 20.479 2.851 2.56 6.597 4.582 7.902 8.166 1.947 5.533-2.858 11.96-3.153 18.039-.431 9.493 10.049 14.964 19.9 17.11 9.851 2.148 21.094 2.97 27.457 9.724 10.356 11.007 1.572 29.666 3.181 44.872.246 2.229.768 4.468 1.972 6.28 4.505 6.648 17.305 4.541 23.752-2.199 6.447-6.74 7.819-15.806 7.552-24.028-.27-8.753-2.038-17.265-4.235-25.558-.936-3.394-1.974-6.81-1.411-10.444 1.189-8.896 10.749-15.719 19.666-20.463 8.949-4.684 19-9.328 23.877-17.539 8.571-14.52-1.316-27.593-15.279-35.45z" stroke="url(#P)"/><path d="M496.864 127.818c-3.064 1.578-7.441 2.008-8.777.113-.474-.745-.817-1.936-.958-3.611-.514-4.675.214-9.914.859-15.49 1.423-11.068 3.043-23.681-5.599-32.759-6.589-7.018-16.765-8.921-25.644-10.58-1.809-.361-3.586-.662-5.293-1-7.02-1.552-15.154-5.267-14.918-10.936.053-1.472.727-3.49 1.441-5.606 1.428-4.23 3.187-9.393 1.363-14.685-1.511-4.162-4.74-6.755-7.343-8.834-.759-.597-1.486-1.135-2.04-1.685-3.866-3.481-5.232-8.934-3.212-13.241.474-1.005 1.134-1.649 2.275-2.236 4.489-2.312 13.391-2.184 21.332-2.17 7.626.102 14.843.11 21.02-1.552a1435.7 1435.7 0 0 1 7.94-2.265c9.173-2.671 17.785-5.206 26.235-5.605 7.133-.33 17.018 2.408 25.064 7.004 6.481 3.654 11.353 8.213 13.734 12.838 2.444 4.746 2.314 9.22-.418 13.895-3.148 5.268-10.1 8.925-17.583 12.778l-2.779 1.431c-14.761 7.753-22.861 16.712-24.209 26.525-.629 4.732.474 8.8 1.432 12.41l.145.457c2.549 9.327 3.814 17.036 4.075 24.197.288 8.439-1.506 14.759-5.334 18.706-.834.657-1.739 1.351-2.808 1.901z" stroke="url(#Q)"/><path d="M486.375 60.342c-7.553 2.141-12.752-4.453-19.354-6.069-5.652-1.345-14.415-.329-17.939-4.897-4.162-5.457 1.603-15.797-2.088-22.788-1.824-3.544-2.992-8.263.207-11.506 4.773-4.738 18.189-2.146 24.58-3.917a232.257 232.257 0 0 0 8.082-2.339c8.786-2.548 16.236-4.712 23.094-5.052 8.899-.403 29.788 6.548 28.4 16.458-.541 3.85-3.759 7.407-7.555 9.666-8.487 5.054-14.695 6.655-22.14 13.908-4.875 4.715-7.371 13.524-14.299 16.18-.285.146-.57.293-.988.356z" stroke="#8C8C8C"/><path d="M483.755 49.835c-3.584 1.618-6.008-1.162-8.608-2.71-3.502-2.073-7.704-3.405-12.195-3.372-3.042.046-6.545-.278-7.924-2.608-.628-1.044-.758-2.345-.785-3.623l-1.001-16.128c-.358-6.123 4.867-6.306 9.869-6.222 7.585.198 14.903-2.05 22.322-4.275 11.283-3.302 22.607-4.422 32.168.838 2.375 1.286 3.981 3.879 3.167 6.501-1.133 3.928-6.248 5.726-10.424 7.42-8.179 3.376-15.375 9.361-19.912 16.485-1.6 2.496-3.014 5.352-5.669 7.023-.335.4-.692.584-1.008.671z" stroke="url(#R)"/><path d="M480.446 35.348c-3.721 1.004-7.533.08-11.069-.835-3.026-.798-6.184-1.68-8.45-3.629-8.603-7.425 3.832-10.94 10.57-12.739 6.983-1.847 14.096-4.142 21.217-4.845 1.979-.184 7.558-1.08 8.009 1.195.429 2.06-9.139 11.318-10.813 13.32-2.312 2.863-4.91 5.872-8.476 7.176-.356.184-.672.27-.988.357z" stroke="url(#S)"/><path d="M173.138 201.95c-.236-.107-.471-.213-.737-.38-8.688-4.266-14.368-9.169-19.065-17.238-5.293-9.053-10.133-19.328-20.556-23.461-8.735-3.481-20.087-1.891-27.992-6.56-6.706-3.919-9.5-11.447-12.903-18.054-6.938-13.299-24.403-19.201-41.467-12.769-9.679 3.616-25.604 15.236-32.104 23.447-10.234 12.869-4.588 26.985-1.288 39.345 6.224 23.469-17.465 47.676-6.082 69.781 5.641 11.306 17.38 19.396 31.234 21.61 5.884.922 12.243.839 18.296-1.062 16.652-5.307 27.91-23.188 44.942-26.182 8.933-1.561 17.483 1.56 23.745 6.543 6.458 5.186 9.184 13.282 17.232 16.129 5.174 1.819 14.225 1.187 20.026 1.771 6.148.558 31.66 5.28 36.317-2.134 4.354-6.954-4.611-19.284-6.613-25.625-5.53-17.216-5.222-36.753-22.985-45.161z" stroke="url(#T)"/><path d="M186.613 263.489c-8.391 5.765-28.92 1.442-35.363-2.84-6.412-4.222-11.382-10.023-17.945-14.014-9.892-6.078-23.364-7.728-36.065-4.38-20.174 5.297-30.13 28.51-51.501 25-10.635-1.743-19.588-7.924-23.971-16.61l-.031-.06c-4.423-8.59-1.279-18.417 2.409-29.815 4.42-13.828 7.108-26.991 3.518-40.266-1.613-5.933-3.603-11.9-3.156-18.21.845-12.366 14.526-21.691 26-27.599 1.496-.771 2.525-1.224 3.197-1.495 27.13-10.17 27.592 20.142 42.146 29.671 8.941 5.807 22.549 4.044 32.128 8.99 17.277 9.039 19.264 30.055 37.949 39.203.267.167.573.237.84.404 10.273 4.893 16.184 16.897 19.745 26.614 1.926 5.316 4.009 11.463 3.723 17.386-.213 4.138-1.568 6.583-3.623 8.021z" stroke="url(#U)"/><path d="M175.493 253.629c-3.261 3.123-9.529 2.856-16.638-1.844-2.489-1.682-4.919-3.774-7.482-5.95-3.25-2.81-6.633-5.704-10.729-8.23-12.39-7.603-29.325-9.674-45.288-5.482a52.179 52.179 0 0 0-10.29 4.006c-6.484 3.34-11.892 7.72-16.68 11.554-3.812 3.103-7.37 5.999-10.72 7.723-2.992 1.542-5.47 1.982-8.515 1.498-7.457-1.176-13.757-5.531-16.81-11.635l-.062-.12c-2.598-5.046-.723-11.559 2.915-22.704 3.436-10.661 5.993-21.629 5.631-32.31-.31-10.935-8.264-21.127-2.79-32.382 3.121-6.546 14.024-16.188 22.365-15.924 7.34.248 10.173 7.149 13.18 12.288 3.635 6.184 7.703 13.209 14.483 17.621 6.545 4.305 14.278 5.491 21.02 6.503 4.618.738 9 1.369 11.978 2.951 6.295 3.294 10.193 9.114 14.689 15.919 5.412 8.233 11.656 17.557 23.496 23.391.266.167.603.297.941.427 7.991 3.789 14.397 12.726 16.754 20.631 1.734 5.643.969 9.761-1.448 12.069z" stroke="url(#V)"/><path d="M172.364 251.743c-1.782.918-5.858.357-10.876-2.911-2.325-1.538-4.724-3.571-7.154-5.663-3.384-2.894-6.829-5.908-11.16-8.541-13.291-8.127-31.359-10.298-48.342-5.809a57.356 57.356 0 0 0-11.206 4.327c-6.912 3.559-12.574 8.147-17.474 12.114-3.629 2.932-7.075 5.695-9.926 7.163-2.137 1.1-3.637 1.341-5.792 1.007-6.395-1.039-11.835-4.774-14.424-9.976l-.093-.18c-2.072-4.025-.296-10.031 3.019-20.402 4.33-13.477 6.124-23.824 5.87-33.421-.154-4.328-1.288-8.456-2.502-12.39-1.83-6.354-3.576-12.371-.697-18.337 1.697-3.533 6.783-8.888 12.27-11.714 2.21-1.138 4.32-1.768 5.973-1.708 4.135.151 6.316 3.512 9.15 8.664.37.721.813 1.405 1.184 2.126 3.79 6.484 8.013 13.809 15.428 18.578 7.18 4.663 15.25 5.979 22.401 7.084 4.311.668 8.417 1.289 10.894 2.597 5.558 2.914 9.231 8.471 13.541 14.915 5.668 8.556 12.098 18.241 24.746 24.419.266.167.604.297.972.487 6.549 3.088 12.784 10.82 15.173 18.785 1.412 4.669.692 7.472-.334 8.456l-.641.33z" stroke="#8C8C8C"/><path d="M93.655 221.986c-4.455 1.154-8.876 2.898-13.151 5.1-4.276 2.202-8.682 4.851-12.485 7.797-3.263 2.592-5.92 6.012-9.511 8.318-3.338 2.098-7.65 3.179-10.985 1.78-2.762-1.161-4.287-3.948-4.598-6.828-.38-4.591 1.89-9.636 3.337-14.181 4.55-14.275 6.454-25.286 6.145-35.691-.18-5.075-1.52-9.78-2.725-13.871-1.58-5.343-2.92-10.048-1.184-13.678 1.505-3.207 5.491-8.072 9.712-7.053 4.323 1.041 5.475 6.604 7.074 9.884a44.025 44.025 0 0 0 9.023 11.921c5.2 4.846 11.712 8.56 18.899 10.787 6.339 1.98 15.185 1.3 20.947 4.261 4.155 2.116 7.447 7.108 11.244 12.905 5.934 8.723-12.588 13.549-31.742 18.549z" stroke="url(#W)"/><path d="M116.235 207.01c-.112.133-.192.327-.375.497-1.107 1.178-2.798 1.745-4.378 2.178-6.258 1.855-12.494 3.926-18.774 5.564l-.316.087c-12.283 3.285-23.887 9.64-32.782 18.629-1.066 1.081-2.173 2.258-3.567 3.052-1.395.794-3.2.964-4.327.177-1.455-1.075-1.008-3.357-.486-5.146 2.53-8.218 5.58-16.477 7.559-24.715 1.42-5.823 2.416-14.392 1.336-19.991-.157-4.859-2.942-8.516-4.516-12.798a16.823 16.823 0 0 1-.899-8.049c.109-.664.38-3.463 1.164-3.867 2.352-1.211 5.265 5.497 5.843 6.795 1.828 4.074 3.3 8.332 6.704 11.443 5.888 5.48 13.3 9.719 21.438 12.216 3.353 1.084 6.958 1.432 10.349 1.89 6.241.738 12.385 2.514 15.758 7.313 1.067 1.198 1.261 3.15.269 4.725z" stroke="url(#X)"/><path d="M163.433 234.23c-1.855-1.325-4.124-2.056-6.09-3.248-3.973-2.286-6.656-5.92-10.07-8.874-2.235-1.889-4.388-1.692-7.258-2.19-.48-.057-.991-.173-1.481-.073-.489.1-.998.513-1.057.924-.059.41.371.721.669.948a51.673 51.673 0 0 1 4.089 3.213c6.903 6.402 11.499 14.978 20.178 19.4 1.443.701 3.629 1.095 4.643-.263.446-.533.484-1.161.522-1.788a9.769 9.769 0 0 0-4.145-8.049z" stroke="url(#Y)"/><path d="M622.553-94.517c-8.298-7.886-17.247-15.285-27.495-21.179-7.208-4.193-15.361-7.594-24.365-7.745-8.279-.145-16.687 2.437-24.881 4.909-24.979 7.695-2.126 33.165-2.357 45.671-.131 10.251-5.262 20.949-13.713 28.873-3.109 2.892-6.719 5.511-8.661 9.095-1.941 3.583-1.059 8.449 2.865 9.24 1.533.35 3.286-.096 4.919-.253 9.162-.766 15.587 6.108 19.634 12.916 4.047 6.808 7.578 14.717 15.465 17.951 4.92 2.026 11.075 1.897 15.651 4.48 7.954 4.416 8.529 14.987 14.644 21.261 5.367 5.52 16.173 6.72 23.403 1.325 9.405-7.123 7.819-19.834 3.312-28.76-4.506-8.927-10.933-18.08-7.934-28.365 3.48-11.975 18.322-19.922 23.478-31.62 3.189-7.114 2.271-14.85-.732-21.206-2.932-6.394-7.971-11.627-13.233-16.593z" stroke="url(#Z)"/><path d="M613.812 30.51c-5.202 2.679-12.526 1.586-16.436-2.328-2.278-2.323-3.713-5.46-5.24-8.777-2.292-4.975-4.717-10.034-10.163-13.082-3.009-1.642-6.351-2.353-9.63-2.944-2.32-.478-4.506-.872-6.358-1.666-5.728-2.37-8.952-7.93-12.33-13.79-.597-.984-1.092-1.945-1.658-2.87-6.055-10.181-13.971-15.224-22.96-14.471-.52.04-1.01.14-1.459.143-.938.103-1.775.23-2.286.113-.102-.023-.613-.14-.984-.86-.455-1.059-.361-2.627.225-3.765 1.092-2.082 3.277-3.967 5.574-5.985.731-.681 1.493-1.302 2.225-1.982 9.183-8.605 14.828-20.403 15.016-31.595.059-4.438-2.112-9.704-4.468-15.33-5.158-12.468-7.927-20.997.197-25.181.997-.513 2.199-.98 3.432-1.387 7.776-2.408 15.797-4.867 23.525-4.742 7.003.117 14.15 2.441 22.596 7.287 8.743 5.073 17.259 11.631 26.901 20.725 4.575 4.332 9.685 9.529 12.697 15.729 2.942 6.237 3.262 12.987.718 18.553-2.149 4.755-6.2 8.969-10.577 13.426-5.442 5.539-11.037 11.308-13.102 18.678-2.909 9.934 1.811 18.75 5.975 26.486.742 1.442 1.525 2.787 2.134 4.145 4.167 8.266 5.181 18.99-1.977 24.349-.406.437-1.017.827-1.587 1.12z" stroke="#8C8C8C"/><path d="M604.157 22.79c-1.103-.041-2.146-.492-2.864-1.186-1.406-1.328-1.794-3.484-2.558-5.142-2.632-5.637-5.873-12.631-13.929-17.07-7.484-4.202-15.897-2.682-21.334-9.913-3.361-4.426-5.633-9.715-10.193-13.142-4.099-3.058-10.026-4.413-12.672-8.675-3.437-5.45.127-13.06 4.282-19 4.529-6.436 8.746-12.255 9.463-19.616.824-8.555-2.055-16.42-6.662-23.092-1.367-1.955-2.909-3.898-2.901-6.333.055-7.248 10.973-7.931 16.282-7.777 6.309.171 13.056 3.993 18.223 6.5 12.249 5.927 23.059 13.964 31.623 23.766 3.912 4.445 7.501 9.664 6.961 15.794-.665 7.638-7.45 14.247-13.441 20.296-7.535 7.604-10.798 14.224-11.851 23.734-1.072 9.824 3.465 18.81 7.783 26.846 2.02 3.748 4.469 9.554 3.788 14.01z" stroke="url(#aa)"/><path d="M586.912-6.323c-1.993 1.558-5.525-.575-7.795-1.306-2.536-.898-4.951-2.086-6.483-4.185-.925-1.271-1.81-2.64-2.726-4.068-2.212-3.42-4.641-7.262-8.606-10.235-1.917-1.445-3.994-2.503-5.836-3.455-2.313-1.165-4.524-2.306-5.307-3.65-1.358-2.113.079-6.501 3.747-11.81l.608-.92c4.57-6.534 9.363-13.334 10.174-22.263.933-9.22-3.794-17.349-7.326-25.258-.455-1.058-.9-2.272-.242-3.447.536-.884 1.605-1.434 2.646-1.514 1.01-.14 2.032.093 3.053.327 17.63 4.297 33.561 15.624 44.415 28.122 2.782 3.127 5.917 7.289 5.53 11.44-.393 4.838-5.644 10.05-10.681 15.151l-.477.474c-4.813 4.835-8.797 10.23-11.155 16.156-1.462 3.64-2.096 7.31-2.455 10.991-.221 2.546.855 5.336-.092 7.875-.251.738-.626 1.235-.992 1.575z" stroke="url(#ab)"/><path d="M648.118 36.712c-7.137-4.23-17.719-5.695-25.577-1.345-5.751 3.19-10.082 8.611-16.194 10.923-8.731 3.355-17.54-.62-26.373-1.315-14.47-1.136-29.231 6.617-42.121 14.85-2.513 1.598-5.299 3.717-5.388 6.346-.091 2.1 1.611 3.655 3.373 4.8 6.381 4.161 14.851 5.727 23.245 4.52 7.456-1.103 14.657-4.279 22.134-5.165 15.017-1.654 28.363 7.28 32.979 19.571 4.585 12.23 1.527 26.952-5.42 39.725-4.146 7.531-9.736 16.109-6.495 23.104 1.744 3.737 5.859 5.95 10.334 6.762 4.475.811 9.27.318 13.941-.416 4.009-.62 8.475-1.4 11.68.446 2.969 1.739 3.958 5.409 6.632 7.452 3.207 2.376 8.055 2.16 12.543 1.596 4.417-.526 9.271-1.43 12.634-4.53 2.194-2.041 3.457-4.667 4.475-7.243 4.424-11.018 6.925-22.794 3.891-33.239-1.705-6.113-5.183-11.466-8.131-17.015-6.731-12.721-10.825-26.8-12.085-41.503-.663-7.942.402-17.078-4.459-23.542-1.377-1.799-3.284-3.4-5.618-4.782z" stroke="url(#ac)"/><path d="M663.71 159.777c-1.342 1.071-2.87 1.781-4.552 2.191-3.64.811-7.492-.017-10.024-2.133-1.477-1.292-2.485-2.9-3.779-4.362-4.231-4.889-12.169-4.373-18.901-3.263l-.347.027c-3.59.557-7.66 1.057-11.144.419-2.697-.511-4.899-1.809-5.632-3.408-1.63-3.34 1.617-9.116 4.753-14.758.465-.847.961-1.635 1.355-2.446 8.615-15.836 10.776-32.3 5.922-45.227-5.961-15.778-22.475-25.437-40.205-23.45-4.693.516-9.015 1.754-13.163 2.978-3.231.904-6.36 1.831-9.216 2.238-3.029.42-5.91.08-8.74-.515-3.413-.675-11.174-1.39-6.46-5.717 1.534-1.398 4.235-2.105 6.162-2.565 9.95-2.388 17.747-8.607 28.368-7.768 2.338.163 4.76.664 7.355 1.152 6.794 1.289 14.438 2.825 22.954-.421.989-.357 1.915-.834 2.913-1.348 3.492-1.798 6.429-4.147 8.971-6.215 1.921-1.522 3.771-3.006 5.522-3.984l.285-.147c4.418-2.275 11.731-1.556 17.167 1.648 1.669.964 2.95 2.052 3.845 3.264 2.939 3.958 3.081 9.66 2.994 14.569-.153 6.006.531 11.886 1.704 17.666 2.426 11.365 6.963 22.101 11.793 32.532 3.644 7.776 7.451 15.695 8.312 24.371.532 6.11-1.187 19.23-8.212 24.672z" stroke="url(#ad)"/><path d="M660.235 157.767c-.784.404-1.558.651-2.466.814-2.438.343-4.769-.508-6.41-1.943-2.594-2.236-3.527-5.099-6.781-6.691-2.855-1.342-6.135-1.933-9.514-2.017-5.42-.021-11.248 2.144-16.476 1.796-2.338-.163-4.62-1.268-5.223-3.314-.54-1.925.489-4.127 1.705-5.969 11.131-16.903 16.637-37.902 10.24-55.05-6.467-17.113-24.486-27.593-43.849-25.45-5.04.543-9.504 1.854-13.897 3.128-3.129.927-6.044 1.745-8.655 2.101-1.602.217-7.14 1.017-7.904-.641-1.414-2.92 8.623-4.44 10.426-5.141 5.561-2.332 10.339-4.26 16.047-3.856 2.062.154 4.453.595 6.875 1.096 6.999 1.335 15.633 3.045 25.281-.631 1.13-.43 2.23-.92 3.371-1.508 3.919-2.018 7.182-4.61 9.724-6.68 1.778-1.447 3.446-2.762 4.84-3.556l.142-.073c2.709-1.395 8.59-1.003 13.197 1.64 1.269.714 2.285 1.636 2.891 2.463 2.364 3.19 2.441 8.243 2.413 12.74-.152 6.007.512 12.2 1.769 18.317 2.51 11.703 7.263 22.859 12.001 33.11l.516 1.178c3.303 7.115 6.73 14.47 7.505 22.278.455 5.086-.355 12.266-3.106 17.255-1.042 1.828-2.666 3.577-4.662 4.604z" stroke="url(#ae)"/><path d="M657.307 150.151c-1.896.52-3.587-2.94-5.309-4.182a28.684 28.684 0 0 0-7.511-3.731c-5.562-1.696-11.921-1.614-17.891.625-1.202.467-2.577.947-3.55.46-1.207-.594-1.113-2.163-.864-3.431 1.368-7.848 4.278-15.502 6.913-23.167 2.635-7.664 4.973-15.556 5.056-23.274.083-7.718-2.285-15.467-8.098-20.453-2.266-1.949-5.04-3.484-7.306-5.433-6.881-6.184 1.085-9.45 7.186-13.884 2.238-1.608 4.934-3.376 7.507-3.105 2.094.213 3.623 1.782 4.244 3.514.652 1.792.673 3.757.662 5.662.162 17.472 4.015 34.411 11.249 49.685 3.127 6.597 6.895 12.864 8.994 19.915 1.059 3.634 1.905 7.379 1.844 11.286-.039 2.376-.205 5.729-1.511 7.922-.577.981-1.085 1.394-1.615 1.591z" stroke="#8C8C8C"/><path d="M-12.229 301.591c16.321 1.931 33.439 3.832 49.927-1.619 20.471-6.818 37.683-24.344 58.74-26.524 3.162-.336 6.439-.276 9.201.886 8.317 3.545 8.43 15.494 16.899 18.809 5.973 2.319 13.439-.689 19.587-4.159 6.116-3.53 12.28-7.843 19.116-8.4 9.478-.853 16.554 5.535 25.132 8.185 9.897 3.112 21.492.941 32.491.065 10.999-.877 23.099.036 29.425 7.418 2.999 3.547 4.309 8.192 6.871 12.117 5.637 8.496 16.866 12.442 28.123 14.169 11.227 1.666 23.006 1.604 33.86 4.299 10.854 2.694 21.083 8.902 23.523 18.893 1.959 7.655-.897 16.117-3.826 24.085-6.241 17.121-13.386 34.935-27.751 48.184-9.865 9.032-22.429 15.274-32.684 23.898-10.326 8.661-18.497 21.684-14.481 32.459M22.425 107.126c8.637 6.268 19.274 10.291 30.795 11.653 10.183 1.216 20.866.427 31.018 1.583 10.153 1.156 20.368 4.711 25.216 12.55 1.791 2.953 2.83 6.37 4.804 9.153 7.844 10.856 27.318 8.58 38.689 16.479 11.771 8.151 12.041 24.959 22.308 34.567 7.652 7.155 20.754 10.363 23.398 20.401 1.937 7.438-2.553 15.526-2.075 23.108.312 5.159 6.384 16.775 12.917 6.875 1.327-1.975 1.775-4.257 1.906-6.453.552-5.756.107-10.998 5.8-15.526 3.771-3.006 8.539-4.777 13.032-6.558 12.141-4.961 23.308-14.967 26.534-26.735 2.714-10.138-.373-20.859 5.132-30.305 3.845-6.54 11.028-11.151 15.876-17.143 15.478-19.142 4.348-39.705.009-57.762-3.996-16.865 18.675-32.719 22.347-49.049 1.606-7.21-1.176-14.365-6.234-19.285-5.058-4.919-12.096-7.906-19.556-9.612M559.408-172.504c-16.289 4.436-27.652 20.014-31.311 34.97-3.618 14.858-1.327 29.638-.619 44.32.709 14.683-.557 30.61-10.124 43.895-2.564 3.6-5.701 6.964-7.896 10.754-1.892 3.33-2.935 6.907-5.062 10.13-5.622 8.519-17.248 12.378-27.566 12.827-10.277.353-20.016-1.928-30.265-2.046-12.873-.135-26.37 3.244-38.116 9.672-6.138 3.313-12.026 7.637-15.437 13.27-3.482 5.668-4.079 12.739-.167 17.184 5.986 6.721 20.816 6.456 21.862 15.493.777 6.06-5.707 11.678-7.839 17.868-3.892 11.351 7.76 20.322 19.463 23.264 11.734 3 25.383 3.42 33.7 10.992 10.215 9.331 8.277 25.528 5.666 39.716-.983 5.446-2.188 11.159-6.156 15.71-5.297 5.995-14.228 8.087-22.139 8.132-7.911.046-15.554-1.49-23.533-.877-5.969.49-13.494 3.909-13.467 9.215-.002 3.497 3.685 5.93 7.504 6.167 3.818.238 7.802-1.13 11.613-2.484 20.429-7.252 42.787-14.433 61.813-8.652 16.889 5.135 27.718-9.029 34.789-23.31 6.638-13.373 3.362-33.041 20.354-41.715 8.369-4.234 19.212-3.662 28.242-6.26 7.411-2.068 14.901-4.33 22.403-4.468 7.502-.14 15.067 2.12 18.678 7.557 5.965 8.783 2.19 30.866-1.441 41.323-3.752 10.748-11.877 20.708-5.271 30.909 2.15 3.301 5.612 3.722 9.012 5.771 3.83 2.36 6.633 5.704 10.423 8.16 16.346 10.733 40.146 10.029 44.78 31.81 3.946 18.867-11.21 37.234-16.872 55.653M361.959 404.76c-3.943-12.56-3.068-28.894 9.204-38.33 9.446-7.219 22.61-7.918 32.569-14.491 10.712-7.036 15.438-19.045 20.915-29.769 5.477-10.724 14.461-22.342 26.926-24.049 7.242-.993 14.575 1.691 21.481-1.182 3.86-1.607 6.947-4.717 9.687-7.8 4.182-4.661 8.178-9.682 13.375-13.422 5.165-3.801 11.879-6.346 17.775-5.05 9.882 2.207 12.154 13.272 17.613 20.721 5.007 6.921 13.828 11.27 23.476 11.622" stroke="#8C8C8C" stroke-width="2"/></g><defs><linearGradient id="D" x1="171.825" y1="450.514" x2="171.439" y2="261.28" gradientUnits="userSpaceOnUse"><stop stop-color="#F68146" stop-opacity=".3"/><stop offset="1" stop-color="#F68146" stop-opacity=".8"/></linearGradient><linearGradient id="b" x1="313.819" y1="321.597" x2="368.19" y2="60.25" gradientUnits="userSpaceOnUse"><stop stop-color="#F68146" stop-opacity=".3"/><stop offset="1" stop-color="#F68146" stop-opacity=".8"/></linearGradient><linearGradient id="d" x1="307.064" y1="191.243" x2="302.155" y2="127.099" gradientUnits="userSpaceOnUse"><stop stop-color="#F68146" stop-opacity=".3"/><stop offset="1" stop-color="#F68146" stop-opacity=".8"/></linearGradient><linearGradient id="e" x1="308.191" y1="186.182" x2="304.12" y2="136.317" gradientUnits="userSpaceOnUse"><stop stop-color="#F68146" stop-opacity=".3"/><stop offset="1" stop-color="#F68146" stop-opacity=".8"/></linearGradient><linearGradient id="f" x1="308.996" y1="183.467" x2="305.645" y2="140.696" gradientUnits="userSpaceOnUse"><stop stop-color="#F68146" stop-opacity=".3"/><stop offset="1" stop-color="#F68146" stop-opacity=".8"/></linearGradient><linearGradient id="g" x1="282.553" y1="283.501" x2="288.327" y2="213.529" gradientUnits="userSpaceOnUse"><stop stop-color="#F68146" stop-opacity=".3"/><stop offset="1" stop-color="#F68146" stop-opacity=".8"/></linearGradient><linearGradient id="h" x1="283.063" y1="280.947" x2="289.47" y2="218.474" gradientUnits="userSpaceOnUse"><stop stop-color="#F68146" stop-opacity=".3"/><stop offset="1" stop-color="#F68146" stop-opacity=".8"/></linearGradient><linearGradient id="i" x1="285.468" y1="261.218" x2="288.339" y2="245.562" gradientUnits="userSpaceOnUse"><stop stop-color="#F68146" stop-opacity=".3"/><stop offset="1" stop-color="#F68146" stop-opacity=".8"/></linearGradient><linearGradient id="j" x1="413.45" y1="286.597" x2="401.277" y2="146.435" gradientUnits="userSpaceOnUse"><stop stop-color="#F68146" stop-opacity=".3"/><stop offset="1" stop-color="#F68146" stop-opacity=".8"/></linearGradient><linearGradient id="k" x1="413.925" y1="284.012" x2="402.123" y2="151.026" gradientUnits="userSpaceOnUse"><stop stop-color="#F68146" stop-opacity=".3"/><stop offset="1" stop-color="#F68146" stop-opacity=".8"/></linearGradient><linearGradient id="l" x1="382.602" y1="241.734" x2="376.808" y2="196.645" gradientUnits="userSpaceOnUse"><stop stop-color="#F68146" stop-opacity=".3"/><stop offset="1" stop-color="#F68146" stop-opacity=".8"/></linearGradient><linearGradient id="m" x1="383.401" y1="239.207" x2="378.271" y2="201.251" gradientUnits="userSpaceOnUse"><stop stop-color="#F68146" stop-opacity=".3"/><stop offset="1" stop-color="#F68146" stop-opacity=".8"/></linearGradient><linearGradient id="n" x1="383.393" y1="234.285" x2="380.054" y2="211.449" gradientUnits="userSpaceOnUse"><stop stop-color="#F68146" stop-opacity=".3"/><stop offset="1" stop-color="#F68146" stop-opacity=".8"/></linearGradient><linearGradient id="o" x1="386.957" y1="228.972" x2="386.4" y2="221.321" gradientUnits="userSpaceOnUse"><stop stop-color="#F68146" stop-opacity=".3"/><stop offset="1" stop-color="#F68146" stop-opacity=".8"/></linearGradient><linearGradient id="p" x1="462.098" y1="261.155" x2="461.996" y2="216.804" gradientUnits="userSpaceOnUse"><stop stop-color="#F68146" stop-opacity=".3"/><stop offset="1" stop-color="#F68146" stop-opacity=".8"/></linearGradient><linearGradient id="q" x1="461.415" y1="253.008" x2="459.995" y2="227.638" gradientUnits="userSpaceOnUse"><stop stop-color="#F68146" stop-opacity=".3"/><stop offset="1" stop-color="#F68146" stop-opacity=".8"/></linearGradient><linearGradient id="r" x1="461.706" y1="250.195" x2="460.242" y2="233.792" gradientUnits="userSpaceOnUse"><stop stop-color="#F68146" stop-opacity=".3"/><stop offset="1" stop-color="#F68146" stop-opacity=".8"/></linearGradient><linearGradient id="s" x1="536.191" y1="263.039" x2="532.502" y2="78.575" gradientUnits="userSpaceOnUse"><stop stop-color="#F68146" stop-opacity=".3"/><stop offset="1" stop-color="#F68146" stop-opacity=".8"/></linearGradient><linearGradient id="t" x1="537.246" y1="257.852" x2="534.506" y2="87.577" gradientUnits="userSpaceOnUse"><stop stop-color="#F68146" stop-opacity=".3"/><stop offset="1" stop-color="#F68146" stop-opacity=".8"/></linearGradient><linearGradient id="u" x1="556.806" y1="244.836" x2="567.478" y2="102.563" gradientUnits="userSpaceOnUse"><stop stop-color="#F68146" stop-opacity=".3"/><stop offset="1" stop-color="#F68146" stop-opacity=".8"/></linearGradient><linearGradient id="v" x1="578.297" y1="226.664" x2="602.997" y2="119.487" gradientUnits="userSpaceOnUse"><stop stop-color="#F68146" stop-opacity=".3"/><stop offset="1" stop-color="#F68146" stop-opacity=".8"/></linearGradient><linearGradient id="w" x1="590.983" y1="229.572" x2="587.039" y2="191.018" gradientUnits="userSpaceOnUse"><stop stop-color="#F68146" stop-opacity=".3"/><stop offset="1" stop-color="#F68146" stop-opacity=".8"/></linearGradient><linearGradient id="x" x1="593.041" y1="227.836" x2="589.579" y2="201.384" gradientUnits="userSpaceOnUse"><stop stop-color="#F68146" stop-opacity=".3"/><stop offset="1" stop-color="#F68146" stop-opacity=".8"/></linearGradient><linearGradient id="y" x1="593.046" y1="225.577" x2="591.96" y2="216.71" gradientUnits="userSpaceOnUse"><stop stop-color="#F68146" stop-opacity=".3"/><stop offset="1" stop-color="#F68146" stop-opacity=".8"/></linearGradient><linearGradient id="z" x1="555.197" y1="186.3" x2="558.15" y2="165.419" gradientUnits="userSpaceOnUse"><stop stop-color="#F68146" stop-opacity=".3"/><stop offset="1" stop-color="#F68146" stop-opacity=".8"/></linearGradient><linearGradient id="A" x1="168.577" y1="474.49" x2="157.091" y2="213.383" gradientUnits="userSpaceOnUse"><stop stop-color="#F68146" stop-opacity=".3"/><stop offset="1" stop-color="#F68146" stop-opacity=".8"/></linearGradient><linearGradient id="B" x1="169.685" y1="469.396" x2="159.16" y2="222.48" gradientUnits="userSpaceOnUse"><stop stop-color="#F68146" stop-opacity=".3"/><stop offset="1" stop-color="#F68146" stop-opacity=".8"/></linearGradient><linearGradient id="C" x1="172.277" y1="461.231" x2="163.024" y2="237.544" gradientUnits="userSpaceOnUse"><stop stop-color="#F68146" stop-opacity=".3"/><stop offset="1" stop-color="#F68146" stop-opacity=".8"/></linearGradient><linearGradient id="c" x1="314.307" y1="319.061" x2="369.45" y2="66.251" gradientUnits="userSpaceOnUse"><stop stop-color="#F68146" stop-opacity=".3"/><stop offset="1" stop-color="#F68146" stop-opacity=".8"/></linearGradient><linearGradient id="E" x1="184.193" y1="441.076" x2="192.346" y2="321.236" gradientUnits="userSpaceOnUse"><stop stop-color="#F68146" stop-opacity=".3"/><stop offset="1" stop-color="#F68146" stop-opacity=".8"/></linearGradient><linearGradient id="F" x1="184.833" y1="438.999" x2="192.569" y2="328.157" gradientUnits="userSpaceOnUse"><stop stop-color="#F68146" stop-opacity=".3"/><stop offset="1" stop-color="#F68146" stop-opacity=".8"/></linearGradient><linearGradient id="G" x1="187.551" y1="426.295" x2="197.087" y2="346.111" gradientUnits="userSpaceOnUse"><stop stop-color="#F68146" stop-opacity=".3"/><stop offset="1" stop-color="#F68146" stop-opacity=".8"/></linearGradient><linearGradient id="H" x1="181.689" y1="398.357" x2="184.838" y2="360.499" gradientUnits="userSpaceOnUse"><stop stop-color="#F68146" stop-opacity=".3"/><stop offset="1" stop-color="#F68146" stop-opacity=".8"/></linearGradient><linearGradient id="I" x1="159.611" y1="191.237" x2="162.017" y2="-2.699" gradientUnits="userSpaceOnUse"><stop stop-color="#F68146" stop-opacity=".3"/><stop offset="1" stop-color="#F68146" stop-opacity=".8"/></linearGradient><linearGradient id="J" x1="160.703" y1="186.242" x2="164.113" y2="6.716" gradientUnits="userSpaceOnUse"><stop stop-color="#F68146" stop-opacity=".3"/><stop offset="1" stop-color="#F68146" stop-opacity=".8"/></linearGradient><linearGradient id="K" x1="170.8" y1="166.733" x2="189.186" y2="45.692" gradientUnits="userSpaceOnUse"><stop stop-color="#F68146" stop-opacity=".3"/><stop offset="1" stop-color="#F68146" stop-opacity=".8"/></linearGradient><linearGradient id="L" x1="171.177" y1="164.214" x2="190.532" y2="51.141" gradientUnits="userSpaceOnUse"><stop stop-color="#F68146" stop-opacity=".3"/><stop offset="1" stop-color="#F68146" stop-opacity=".8"/></linearGradient><linearGradient id="M" x1="184.507" y1="146.703" x2="201.562" y2="76.176" gradientUnits="userSpaceOnUse"><stop stop-color="#F68146" stop-opacity=".3"/><stop offset="1" stop-color="#F68146" stop-opacity=".8"/></linearGradient><linearGradient id="N" x1="185.885" y1="138.824" x2="197.956" y2="89.398" gradientUnits="userSpaceOnUse"><stop stop-color="#F68146" stop-opacity=".3"/><stop offset="1" stop-color="#F68146" stop-opacity=".8"/></linearGradient><linearGradient id="O" x1="493.788" y1="104.855" x2="503.73" y2="-51.979" gradientUnits="userSpaceOnUse"><stop stop-color="#F68146" stop-opacity=".3"/><stop offset="1" stop-color="#F68146" stop-opacity=".8"/></linearGradient><linearGradient id="P" x1="494.269" y1="103.859" x2="504.798" y2="-45.611" gradientUnits="userSpaceOnUse"><stop stop-color="#F68146" stop-opacity=".3"/><stop offset="1" stop-color="#F68146" stop-opacity=".8"/></linearGradient><linearGradient id="Q" x1="495.528" y1="97.171" x2="507.233" y2="-37.354" gradientUnits="userSpaceOnUse"><stop stop-color="#F68146" stop-opacity=".3"/><stop offset="1" stop-color="#F68146" stop-opacity=".8"/></linearGradient><linearGradient id="R" x1="478.869" y1="42.693" x2="470.94" y2="-3.76" gradientUnits="userSpaceOnUse"><stop stop-color="#F68146" stop-opacity=".3"/><stop offset="1" stop-color="#F68146" stop-opacity=".8"/></linearGradient><linearGradient id="S" x1="475.589" y1="33.339" x2="470.197" y2="10.426" gradientUnits="userSpaceOnUse"><stop stop-color="#F68146" stop-opacity=".3"/><stop offset="1" stop-color="#F68146" stop-opacity=".8"/></linearGradient><linearGradient id="T" x1="84.845" y1="288.2" x2="98.559" y2="87.621" gradientUnits="userSpaceOnUse"><stop stop-color="#F68146" stop-opacity=".3"/><stop offset="1" stop-color="#F68146" stop-opacity=".8"/></linearGradient><linearGradient id="U" x1="84.895" y1="275.865" x2="96.407" y2="101.194" gradientUnits="userSpaceOnUse"><stop stop-color="#F68146" stop-opacity=".3"/><stop offset="1" stop-color="#F68146" stop-opacity=".8"/></linearGradient><linearGradient id="V" x1="85.551" y1="265.32" x2="96.778" y2="113.968" gradientUnits="userSpaceOnUse"><stop stop-color="#F68146" stop-opacity=".3"/><stop offset="1" stop-color="#F68146" stop-opacity=".8"/></linearGradient><linearGradient id="W" x1="64.158" y1="223.574" x2="61.648" y2="137.35" gradientUnits="userSpaceOnUse"><stop stop-color="#F68146" stop-opacity=".3"/><stop offset="1" stop-color="#F68146" stop-opacity=".8"/></linearGradient><linearGradient id="X" x1="65.802" y1="218.29" x2="63.766" y2="147.852" gradientUnits="userSpaceOnUse"><stop stop-color="#F68146" stop-opacity=".3"/><stop offset="1" stop-color="#F68146" stop-opacity=".8"/></linearGradient><linearGradient id="Y" x1="154.648" y1="242.794" x2="163.321" y2="215.681" gradientUnits="userSpaceOnUse"><stop stop-color="#F68146" stop-opacity=".3"/><stop offset="1" stop-color="#F68146" stop-opacity=".8"/></linearGradient><linearGradient id="Z" x1="582.611" y1="12.383" x2="603.518" y2="-144.927" gradientUnits="userSpaceOnUse"><stop stop-color="#F68146" stop-opacity=".3"/><stop offset="1" stop-color="#F68146" stop-opacity=".8"/></linearGradient><linearGradient id="aa" x1="585.354" y1=".734" x2="613.846" y2="-118.494" gradientUnits="userSpaceOnUse"><stop stop-color="#F68146" stop-opacity=".3"/><stop offset="1" stop-color="#F68146" stop-opacity=".8"/></linearGradient><linearGradient id="ab" x1="577.882" y1="-23.08" x2="590.821" y2="-110.971" gradientUnits="userSpaceOnUse"><stop stop-color="#F68146" stop-opacity=".3"/><stop offset="1" stop-color="#F68146" stop-opacity=".8"/></linearGradient><linearGradient id="ac" x1="617.719" y1="156.501" x2="634.648" y2="9.362" gradientUnits="userSpaceOnUse"><stop stop-color="#F68146" stop-opacity=".3"/><stop offset="1" stop-color="#F68146" stop-opacity=".8"/></linearGradient><linearGradient id="ad" x1="619.629" y1="150.52" x2="639.468" y2="19.033" gradientUnits="userSpaceOnUse"><stop stop-color="#F68146" stop-opacity=".3"/><stop offset="1" stop-color="#F68146" stop-opacity=".8"/></linearGradient><linearGradient id="ae" x1="622.789" y1="146.599" x2="645.218" y2="26.096" gradientUnits="userSpaceOnUse"><stop stop-color="#F68146" stop-opacity=".3"/><stop offset="1" stop-color="#F68146" stop-opacity=".8"/></linearGradient></defs></svg>