<svg width="34" height="40" fill="none" xmlns="http://www.w3.org/2000/svg"><path d="M21.112 30.864a11.57 11.57 0 0 1-2.464-.272c0 1.872.008 3.744.016 5.6 0 .36-.088.632-.272.816-.184.184-.48.288-.816.28-2.176-.016-4.368-.016-6.544-.016H3.824c-.824 0-1.088-.264-1.088-1.088V3.808c0-.824.264-1.088 1.08-1.088H5.72c.008.024.016.064.024.104l.024.136c.024.112.04.232.072.344.2.736.816 1.216 1.568 1.216 2.224.008 4.448.008 6.672 0 .776 0 1.368-.464 1.584-1.232l.024-.104c.04-.256.08-.392.104-.472.096-.008.232 0 .352 0h.216c.112 0 .232 0 .344.008.296.008.6.016.92-.016.296-.024.552.056.728.224.2.184.304.488.304.872-.008 1.408-.016 2.816-.016 4.232a11.344 11.344 0 0 1 2.464-.264c.088 0 .176.008.264.008V3.704C21.368 1.488 19.872 0 17.656 0H3.8C1.504 0 .016 1.488.016 3.792v7.88c0 7.896.008 16.056-.016 24.088-.008 1.44.288 3.448 2.864 4.208L2.96 40h15.52l.168-.104s.008 0 .008-.008c1.752-.504 2.712-1.784 2.712-3.616v-5.424c-.08.016-.168.016-.256.016z" fill="#1079B4"/><path d="M26.32 27.496a2.394 2.394 0 0 1-1.694-.692l-5.934-5.933a2.42 2.42 0 0 1-.687-1.855l.256-4.132a2.83 2.83 0 0 1 2.623-2.623l4.133-.256a2.443 2.443 0 0 1 1.855.687l5.933 5.933a2.601 2.601 0 0 1-.14 3.665l-4.387 4.375a2.767 2.767 0 0 1-1.959.831zm-1.142-14.373h-.103l-4.137.252a1.72 1.72 0 0 0-1.572 1.572l-.238 4.127a1.279 1.279 0 0 0 .36 1.006l5.92 5.93a1.301 1.301 0 0 0 .983.363 1.658 1.658 0 0 0 1.092-.503l4.392-4.388a1.482 1.482 0 0 0 .135-2.075l-5.92-5.92a1.262 1.262 0 0 0-.912-.364z" fill="#21B3E4"/><path d="M23.044 18.953a1.909 1.909 0 1 1 .004 0h-.004zm0-2.694a.786.786 0 0 0-.557 1.347.809.809 0 0 0 1.114 0 .79.79 0 0 0-.557-1.348z" fill="#21B3E4"/></svg>