<svg width="22" height="20" fill="none" xmlns="http://www.w3.org/2000/svg"><path clip-rule="evenodd" d="M15.286 4.81V2.429A1.429 1.429 0 0 0 13.857 1H2.43A1.429 1.429 0 0 0 1 2.429v10.476a1.429 1.429 0 0 0 1.429 1.428H9.57V6.238A1.429 1.429 0 0 1 11 4.81h4.286z" stroke="#1079B4"/><path clip-rule="evenodd" d="M19.096 9.571V6.238a1.429 1.429 0 0 0-1.428-1.428H11a1.429 1.429 0 0 0-1.429 1.428v10.476a1.429 1.429 0 0 0 1.429 1.429h4.286V11a1.429 1.429 0 0 1 1.428-1.429h2.381z" stroke="#1079B4"/><path d="M19.095 9.571H17.19a1.905 1.905 0 0 0-1.905 1.905v5.714c0 1.052.853 1.905 1.905 1.905h1.905a1.905 1.905 0 0 0 1.904-1.905v-5.714a1.905 1.905 0 0 0-1.904-1.905z" stroke="#1079B4"/><path d="M1 11.477h8.571M7.666 14.333v2.857" stroke="#1079B4" stroke-linecap="square"/><path d="M4.809 17.19H9.57" stroke="#1079B4" stroke-linecap="round"/><path d="M14.333 17.19a.952.952 0 1 0 0-1.904.952.952 0 0 0 0 1.905zM18.144 18.143a.952.952 0 1 0 0-1.905.952.952 0 0 0 0 1.905z" fill="#D8D8D8" stroke="#1079B4"/></svg>