<svg width="20" height="20" fill="none" xmlns="http://www.w3.org/2000/svg"><g clip-path="url(#a)"><path d="M0 10a1.983 1.983 0 0 0 1.981 1.98l11.257-.001-3.043 3.043c-.824.825-.866 2.12-.093 2.894.774.772 2.069.731 2.894-.093l6.355-6.357c.827-.824.869-2.12.094-2.894-.021-.018-.044-.032-.064-.051-.026-.028-.045-.06-.073-.09l-6.27-6.268c-.814-.813-2.1-.846-2.873-.072-.774.774-.74 2.06.071 2.875l3.054 3.053H1.98A1.98 1.98 0 0 0 0 10z" fill="#D7501D"/></g><defs><clipPath id="a"><path fill="#fff" d="M0 0h20v20H0z"/></clipPath></defs></svg>