<svg width="40" height="40" fill="none" xmlns="http://www.w3.org/2000/svg"><path fill-rule="evenodd" clip-rule="evenodd" d="M21.428 38.572v-4.286a1.43 1.43 0 0 0-2.857 0v4.286a1.43 1.43 0 0 0 2.857 0zm0-10v-4.286a1.43 1.43 0 0 0-2.857 0v4.286a1.43 1.43 0 0 0 2.857 0zM16.16 16.194l2.76 3.294a1.43 1.43 0 0 0 2.19 0l2.761-3.294a8.558 8.558 0 0 0 4.7-7.638C28.571 3.834 24.737 0 20.016 0a8.558 8.558 0 0 0-3.856 16.194zm1.993-2.07a1.447 1.447 0 0 0-.502-.383 5.702 5.702 0 0 1-3.334-5.185 5.7 5.7 0 0 1 5.699-5.699 5.7 5.7 0 0 1 5.698 5.699 5.702 5.702 0 0 1-3.334 5.185c-.194.089-.364.22-.502.383l-1.862 2.223-1.863-2.223z" fill="#21B3E4"/><path d="M20.016 11.428a2.857 2.857 0 1 0 0-5.714 2.857 2.857 0 0 0 0 5.714z" fill="#21B3E4"/><path fill-rule="evenodd" clip-rule="evenodd" d="M8.986 15.197.097 38.054A1.428 1.428 0 0 0 1.428 40h37.144a1.428 1.428 0 0 0 1.33-1.946l-8.888-22.857a1.43 1.43 0 0 0-2.662 1.034l8.13 20.911H3.518l8.132-20.91a1.429 1.429 0 0 0-2.663-1.035z" fill="#1079B4"/></svg>