<svg width="40" height="40" fill="none" xmlns="http://www.w3.org/2000/svg"><path d="M37.138 27.5A2.875 2.875 0 0 0 40 24.637v-4.274a2.875 2.875 0 0 0-2.862-2.863H33.75v-1.25A3.75 3.75 0 0 0 30 12.5h-8.75V9.088a1.25 1.25 0 0 0-2.5 0V12.5H10a3.75 3.75 0 0 0-3.75 3.75v1.25H2.862A2.875 2.875 0 0 0 0 20.363v4.274A2.875 2.875 0 0 0 2.862 27.5H6.25V30H2.862A2.875 2.875 0 0 0 0 32.862v4.276A2.875 2.875 0 0 0 2.862 40h.888a1.25 1.25 0 0 0 0-2.5h-.888a.362.362 0 0 1-.362-.362v-4.276a.363.363 0 0 1 .362-.362h9.275a.362.362 0 0 1 .363.362v4.276a.362.362 0 0 1-.363.362H8.75a1.25 1.25 0 0 0 0 2.5h3.387A2.875 2.875 0 0 0 15 37.138v-.888h10v.888A2.875 2.875 0 0 0 27.863 40h9.275A2.875 2.875 0 0 0 40 37.138v-4.276A2.875 2.875 0 0 0 37.138 30H33.75v-2.5h3.388zm.362-7.137v4.274a.362.362 0 0 1-.362.363h-9.275a.362.362 0 0 1-.363-.363v-4.274a.362.362 0 0 1 .363-.363h9.275a.362.362 0 0 1 .362.363zm-35 4.274v-4.274A.363.363 0 0 1 2.862 20h9.275a.362.362 0 0 1 .363.363v4.274a.362.362 0 0 1-.363.363H2.864a.362.362 0 0 1-.363-.363zm35 8.225v4.276a.362.362 0 0 1-.362.362h-9.275a.362.362 0 0 1-.363-.362v-4.276a.362.362 0 0 1 .363-.362h9.275a.362.362 0 0 1 .362.362zM31.25 30h-3.387A2.875 2.875 0 0 0 25 32.862v.888H15v-.888A2.875 2.875 0 0 0 12.137 30H8.75v-2.5h3.387A2.875 2.875 0 0 0 15 24.637v-4.274a2.875 2.875 0 0 0-2.863-2.863H8.75v-1.25A1.25 1.25 0 0 1 10 15h20a1.25 1.25 0 0 1 1.25 1.25v1.25h-3.387A2.875 2.875 0 0 0 25 20.363v4.274a2.875 2.875 0 0 0 2.863 2.863h3.387V30z" fill="#1079B4"/><path d="M24.637 10h-9.274A2.875 2.875 0 0 1 12.5 7.138V2.862A2.875 2.875 0 0 1 15.363 0h9.274A2.875 2.875 0 0 1 27.5 2.862v4.276A2.875 2.875 0 0 1 24.637 10zm-9.274-7.5a.363.363 0 0 0-.363.362v4.276a.362.362 0 0 0 .363.362h9.274A.363.363 0 0 0 25 7.138V2.862a.362.362 0 0 0-.363-.362h-9.274z" fill="#21B3E4"/></svg>