<svg width="9" height="9" viewBox="0 0 9 9" fill="none" xmlns="http://www.w3.org/2000/svg">
<path d="M9 4.5C9 6.98528 6.98528 9 4.5 9C2.01472 9 0 6.98528 0 4.5C0 2.01472 2.01472 0 4.5 0C6.98528 0 9 2.01472 9 4.5ZM0.668063 4.5C0.668063 6.61632 2.38368 8.33194 4.5 8.33194C6.61632 8.33194 8.33194 6.61632 8.33194 4.5C8.33194 2.38368 6.61632 0.668063 4.5 0.668063C2.38368 0.668063 0.668063 2.38368 0.668063 4.5Z" fill="white"/>
<path d="M7.12732 6.35133C6.74483 6.89439 6.20349 7.30561 5.57774 7.52844C4.95199 7.75127 4.27258 7.77477 3.63294 7.59571C2.99329 7.41664 2.42483 7.04381 2.00573 6.52847C1.58662 6.01314 1.33747 5.38063 1.29252 4.71791C1.24758 4.0552 1.40905 3.39483 1.75473 2.82763C2.10042 2.26043 2.61334 1.81426 3.22295 1.55047C3.83256 1.28668 4.50892 1.21823 5.15903 1.35454C5.80913 1.49084 6.40104 1.8252 6.85335 2.31164L6.33543 2.79323C5.98263 2.41383 5.52096 2.15303 5.0139 2.04672C4.50684 1.9404 3.97929 1.99379 3.50381 2.19954C3.02833 2.40529 2.62827 2.75329 2.35865 3.19569C2.08902 3.63809 1.96308 4.15316 1.99813 4.67006C2.03319 5.18696 2.22753 5.6803 2.55441 6.08225C2.8813 6.48419 3.32468 6.77499 3.82359 6.91466C4.3225 7.05432 4.85242 7.03599 5.34048 6.86219C5.82855 6.68839 6.25078 6.36765 6.54912 5.94408L7.12732 6.35133Z" fill="white"/>
</svg>
