<svg width="28" height="28" viewBox="0 0 28 28" fill="none" xmlns="http://www.w3.org/2000/svg">
<g clip-path="url(#clip0_216_4770)">
<path d="M28 13.6394C28 21.1724 21.8465 27.2788 14.2545 27.2788C11.8443 27.2788 9.58004 26.6628 7.61009 25.5817L0 28L2.48111 20.682C1.22951 18.6268 0.508667 16.2164 0.508667 13.6394C0.508667 6.10649 6.66276 0 14.2545 0C21.8472 0 28 6.10649 28 13.6394ZM14.2545 2.17218C7.88169 2.17218 2.69796 7.3164 2.69796 13.6394C2.69796 16.1485 3.51587 18.4722 4.89938 20.3625L3.45551 24.6213L7.89662 23.2098C9.72129 24.4079 11.9072 25.1067 14.2548 25.1067C20.6267 25.1067 25.8113 19.9631 25.8113 13.64C25.8113 7.31702 20.627 2.17218 14.2545 2.17218ZM21.1957 16.7807C21.1108 16.6416 20.8864 16.5576 20.5498 16.3906C20.2126 16.2235 18.5556 15.4143 18.2476 15.3032C17.9387 15.1919 17.7134 15.1359 17.4891 15.4703C17.2648 15.8051 16.6189 16.5576 16.422 16.7807C16.2254 17.0044 16.0291 17.0324 15.6918 16.865C15.3552 16.698 14.2697 16.3445 12.9827 15.2059C11.9812 14.3198 11.3048 13.226 11.1082 12.8909C10.9119 12.5564 11.0877 12.3757 11.256 12.2092C11.4078 12.0593 11.5932 11.8188 11.7616 11.6237C11.9305 11.4284 11.9865 11.2893 12.0982 11.0659C12.2111 10.8428 12.1548 10.6478 12.0702 10.4801C11.9862 10.313 11.3117 8.66787 11.0311 7.99836C10.7504 7.32947 10.4701 7.44084 10.2732 7.44084C10.0769 7.44084 9.85196 7.41284 9.62733 7.41284C9.40271 7.41284 9.03747 7.49653 8.72853 7.83098C8.41991 8.16573 7.54973 8.97462 7.54973 10.6195C7.54973 12.2646 8.75653 13.8541 8.92547 14.0768C9.09378 14.2996 11.2557 17.7853 14.681 19.124C18.1067 20.4621 18.1067 20.0156 18.7245 19.9596C19.3418 19.904 20.7175 19.1511 20.9994 18.3708C21.2794 17.5893 21.2794 16.9201 21.1957 16.7807Z" fill="#00AEAC"/>
</g>
<defs>
<clipPath id="clip0_216_4770">
<rect width="28" height="28" fill="white"/>
</clipPath>
</defs>
</svg>
