<svg width="24" height="24" viewBox="0 0 24 24" fill="none" xmlns="http://www.w3.org/2000/svg">
<g clip-path="url(#clip0_216_4675)">
<path d="M23.797 11.9414C23.7196 18.3937 18.4063 23.6184 11.9559 23.5945C10.2306 23.5903 8.52748 23.2062 6.96743 22.4695L4.79056 23.355L3.31962 23.9531C3.22038 23.9939 3.11215 24.0077 3.00586 23.9932C2.89957 23.9787 2.79898 23.9364 2.71428 23.8706C2.62957 23.8048 2.56374 23.7177 2.52345 23.6183C2.48315 23.5189 2.46981 23.4106 2.48478 23.3044L2.70228 21.7308L3.01822 19.4452C0.746654 16.7812 -0.359596 13.0922 0.486966 9.16875C1.42072 4.84078 4.75259 1.39734 9.05572 0.356249C16.897 -1.54031 23.887 4.39875 23.797 11.9414Z" fill="#EBEFF1"/>
<path d="M21.5916 11.9531C21.5288 17.2059 17.2027 21.4594 11.9527 21.4402C10.548 21.4369 9.16124 21.1244 7.89097 20.5247L6.11675 21.2456L4.92144 21.7331C4.8405 21.766 4.75233 21.7771 4.66578 21.7651C4.57923 21.7531 4.49735 21.7186 4.42838 21.665C4.35941 21.6113 4.30576 21.5405 4.27284 21.4596C4.23991 21.3786 4.22887 21.2905 4.24081 21.2039L4.41566 19.9219L4.673 18.0605C2.82425 15.8906 1.92144 12.8906 2.61285 9.69515C3.37456 6.17109 6.08581 3.36703 9.58972 2.51953C15.9736 0.975467 21.6647 5.8125 21.5916 11.9531Z" fill="#00B241"/>
<path d="M6.70888 9.84375C6.70888 9.84375 7.57138 12.8105 10.5339 14.962C12.6268 16.4817 13.9089 16.7025 14.3012 16.717C14.6256 16.7273 16.089 16.7812 16.9225 15.8437C17.0879 15.6562 17.35 15.1641 17.4086 14.5781C17.4191 14.4662 17.3946 14.3537 17.3383 14.2563C17.282 14.159 17.1968 14.0816 17.0945 14.0348L15.1258 13.1297C15.022 13.082 14.9058 13.0682 14.7937 13.0902C14.6817 13.1123 14.5794 13.169 14.5014 13.2525L13.6689 14.1431C13.5949 14.2224 13.4989 14.2777 13.3932 14.302C13.2875 14.3262 13.177 14.3182 13.0759 14.2791C12.3587 14.0016 10.7045 13.1808 9.56028 11.2097C9.50769 11.1191 9.48233 11.0152 9.48724 10.9105C9.49214 10.8059 9.5271 10.7048 9.58794 10.6195L10.1504 9.82922C10.2044 9.75373 10.2382 9.66566 10.2484 9.57342C10.2587 9.48118 10.2451 9.38785 10.209 9.30234L9.31185 7.17187C9.19375 7.03097 9.04516 6.91877 8.87732 6.84375C8.38747 6.62812 7.91497 6.83016 7.79919 6.87984C7.3356 7.07812 7.10872 7.45641 6.97232 7.69125C6.4656 8.56219 6.5631 9.44625 6.70888 9.84375Z" fill="white"/>
</g>
<defs>
<clipPath id="clip0_216_4675">
<rect width="24" height="24" fill="white"/>
</clipPath>
</defs>
</svg>
