<svg xmlns="http://www.w3.org/2000/svg" viewBox="0 0 779.73335 185.53909"><defs><style>.cls-1{fill:#fff;}</style></defs><g id="Layer_2" data-name="Layer 2"><g id="Layer_1-2" data-name="Layer 1"><path class="cls-1" d="M141.88433,59.75441C141.88433,21.00967,121.41906,0,82.127,0H19.10018C8.45794,0,0,9.27714,0,19.91826V185.53909H37.927V119.5092H84.85638C121.96645,119.5092,141.88433,96.31671,141.88433,59.75441ZM38.4707,85.94817V32.19668H77.21544c17.73582,0,26.73964,9.00382,26.73964,27.01221,0,18.008-9.54749,27.01222-28.64616,26.73928ZM208.89912,0q-13.919,0-18.01133,12.27841L128.95207,185.53909h40.655L181.884,147.61281h71.7625l12.27691,37.92628h40.11134L239.45556,0Zm8.45649,37.38076L243.00422,116.235H191.98251ZM324.8243,19.91826V185.53909h37.37819V58.11749l75.58293,127.4216h39.56026V0h-37.3782V127.4216L364.38825,0H343.923C333.28073,0,324.8243,9.27714,324.8243,19.91826ZM498.29874,185.53909H632.5406V151.43255h-96.86V103.41066H588.3407c13.368,0,19.91789-6.27549,19.64607-19.09943V72.03283H535.68063V32.19668h96.86V0H517.39741c-12.82055.27294-19.09867,7.09432-19.09867,19.91826ZM651.21847,19.91826V185.53909H779.73335V151.43255h-90.5856V0H670.3209C659.67865,0,651.21847,9.27714,651.21847,19.91826Z"/></g></g></svg>